<svg xmlns="http://www.w3.org/2000/svg" width="128" height="40" viewBox="0 0 128 40">
    <g fill="none" fill-rule="evenodd">
        <path fill="#FFF" d="M0 3.711C0 1.661 1.578 0 3.526 0h120.948C126.422 0 128 1.661 128 3.711v32.572c0 2.05-1.578 3.711-3.526 3.711H3.526C1.578 39.994 0 38.333 0 36.284V3.71z"/>
        <path fill="#000" d="M49.131 30.715h2.151l-4.709-13.73h-2.178l-4.71 13.73h2.08l1.201-3.644h4.972l1.193 3.644zM45.38 19.478h.153l1.89 5.804h-3.941l1.898-5.804zm11.607.704c-1.338 0-2.495.704-3.092 1.884h-.144v-1.713H51.88v13.72h1.943v-4.928h.154c.515 1.094 1.627 1.741 3.028 1.741 2.486 0 4.068-2.065 4.068-5.357 0-3.292-1.582-5.347-4.086-5.347zm-.552 8.868c-1.627 0-2.648-1.351-2.648-3.511 0-2.17 1.021-3.52 2.657-3.52 1.646 0 2.63 1.322 2.63 3.51 0 2.198-.984 3.52-2.639 3.52zm10.631-8.868c-1.338 0-2.495.704-3.091 1.884h-.145v-1.713h-1.871v13.72h1.943v-4.928h.154c.515 1.094 1.627 1.741 3.028 1.741 2.486 0 4.068-2.065 4.068-5.357 0-3.292-1.582-5.347-4.086-5.347zm-.551 8.868c-1.627 0-2.649-1.351-2.649-3.511 0-2.17 1.022-3.52 2.658-3.52 1.645 0 2.63 1.322 2.63 3.51 0 2.198-.985 3.52-2.64 3.52zm8.75-2.027c.145 2.455 2.089 4.025 4.981 4.025 3.092 0 5.026-1.646 5.026-4.272 0-2.065-1.103-3.207-3.778-3.864l-1.437-.37c-1.7-.42-2.387-.98-2.387-1.96 0-1.238 1.067-2.046 2.667-2.046 1.518 0 2.567.79 2.757 2.055h1.97c-.117-2.312-2.052-3.94-4.7-3.94-2.847 0-4.746 1.628-4.746 4.073 0 2.017 1.076 3.216 3.435 3.797l1.682.428c1.726.428 2.485 1.056 2.485 2.103 0 1.217-1.193 2.102-2.82 2.102-1.744 0-2.956-.827-3.127-2.131h-2.007zm11.68-9.182v2.56h-1.618v1.722h1.618v5.851c0 1.999.859 2.798 3.02 2.798.379 0 .731-.048 1.039-.105v-1.703c-.271.029-.425.048-.723.048-.968 0-1.392-.476-1.392-1.56v-5.33h2.205v-1.721H88.89v-2.56h-1.944zm8.968 11.256c-1.69 0-2.64-1.303-2.64-3.568 0-2.245.95-3.558 2.64-3.558 1.68 0 2.639 1.313 2.639 3.558 0 2.255-.958 3.568-2.64 3.568zm0 1.818c2.874 0 4.637-2.027 4.637-5.386 0-3.34-1.772-5.376-4.637-5.376-2.875 0-4.647 2.036-4.647 5.376 0 3.359 1.763 5.386 4.647 5.386zm5.523-.2h1.944v-6.118c0-1.456 1.04-2.436 2.503-2.436.326 0 .922.066 1.076.124v-2.018c-.208-.057-.578-.085-.859-.085-1.283 0-2.368.742-2.648 1.76h-.145v-1.589h-1.87v10.362zm9.899-8.82c1.437 0 2.377 1.056 2.422 2.683h-4.971c.108-1.618 1.111-2.684 2.549-2.684zm2.413 6.022c-.361.81-1.166 1.256-2.341 1.256-1.555 0-2.558-1.15-2.621-2.968v-.114h6.95v-.714c0-3.254-1.653-5.224-4.392-5.224-2.775 0-4.538 2.103-4.538 5.414 0 3.311 1.726 5.348 4.547 5.348 2.25 0 3.823-1.142 4.266-2.998h-1.87zM41.506 6.267v6.539h2.243c1.85 0 2.923-1.201 2.923-3.29 0-2.057-1.08-3.249-2.923-3.249h-2.243zm.965.925h1.17c1.287 0 2.05.86 2.05 2.338 0 1.5-.75 2.351-2.05 2.351h-1.17v-4.69zm7.593 4.843c-.805 0-1.256-.62-1.256-1.699 0-1.07.451-1.694 1.256-1.694.801 0 1.257.625 1.257 1.694 0 1.074-.456 1.7-1.257 1.7zm0 .866c1.37 0 2.209-.965 2.209-2.565 0-1.59-.844-2.56-2.209-2.56-1.368 0-2.212.97-2.212 2.56 0 1.6.84 2.565 2.212 2.565zm9.462-5.03h-.925l-.835 3.766h-.073l-.965-3.766h-.886l-.964 3.766h-.07L53.97 7.87h-.938l1.291 4.935h.952l.964-3.634h.073l.968 3.634h.96l1.287-4.935zm1.176 4.935h.926V9.919c0-.77.456-1.25 1.2-1.25.69 0 1.025.394 1.025 1.187v2.95h.926V9.61c0-1.173-.59-1.835-1.636-1.835-.706 0-1.253.331-1.48.88h-.07V7.87h-.89v4.935zm5.64 0h.925v-6.86h-.925v6.86zm4.512-.77c-.805 0-1.257-.621-1.257-1.7 0-1.07.452-1.694 1.257-1.694.8 0 1.257.625 1.257 1.694 0 1.074-.457 1.7-1.257 1.7zm0 .865c1.369 0 2.208-.965 2.208-2.565 0-1.59-.844-2.56-2.208-2.56-1.369 0-2.213.97-2.213 2.56 0 1.6.84 2.565 2.213 2.565zm5.071-.834c-.503 0-.87-.258-.87-.702 0-.435.293-.666.94-.712l1.144-.077v.413c0 .611-.516 1.078-1.214 1.078zm-.236.82c.615 0 1.127-.28 1.407-.775h.073v.694h.891V9.435c0-1.043-.663-1.659-1.838-1.659-1.063 0-1.82.544-1.915 1.391h.895c.103-.349.46-.548.977-.548.633 0 .96.294.96.816v.425l-1.27.077c-1.115.073-1.743.585-1.743 1.473 0 .902.659 1.477 1.563 1.477zm5.622 0c.646 0 1.192-.322 1.472-.86h.073v.779h.887v-6.86h-.926v2.71h-.068c-.254-.545-.797-.866-1.438-.866-1.184 0-1.946.988-1.946 2.546 0 1.563.754 2.551 1.946 2.551zm.263-4.223c.774 0 1.26.648 1.26 1.677 0 1.033-.481 1.672-1.26 1.672-.784 0-1.253-.63-1.253-1.677 0-1.037.473-1.672 1.253-1.672zm8.386 3.371c-.805 0-1.257-.62-1.257-1.699 0-1.07.452-1.694 1.257-1.694.8 0 1.257.625 1.257 1.694 0 1.074-.456 1.7-1.257 1.7zm0 .866c1.369 0 2.208-.965 2.208-2.565 0-1.59-.843-2.56-2.208-2.56-1.369 0-2.212.97-2.212 2.56 0 1.6.84 2.565 2.212 2.565zm3.54-.095h.925V9.919c0-.77.456-1.25 1.2-1.25.69 0 1.025.394 1.025 1.187v2.95h.926V9.61c0-1.173-.59-1.835-1.636-1.835-.706 0-1.253.331-1.48.88h-.07V7.87h-.89v4.935zm8.554-6.13v1.218h-.77v.82h.77v2.787c0 .951.409 1.332 1.438 1.332.18 0 .348-.023.495-.05v-.811c-.13.013-.203.023-.345.023-.46 0-.663-.227-.663-.744V8.714h1.05v-.82h-1.05V6.675h-.925zm3.294 6.13h.925V9.924c0-.748.47-1.25 1.227-1.25.697 0 1.046.398 1.046 1.186v2.946h.925V9.62c0-1.173-.602-1.84-1.657-1.84-.706 0-1.248.331-1.476.884h-.074V5.946h-.916v6.86zm7.572-4.2c.684 0 1.132.502 1.154 1.277h-2.368c.052-.77.53-1.278 1.214-1.278zm1.15 2.867c-.173.386-.556.599-1.116.599-.74 0-1.218-.549-1.248-1.414v-.054h3.31v-.34c0-1.55-.788-2.488-2.092-2.488-1.321 0-2.16 1.002-2.16 2.578 0 1.577.822 2.547 2.165 2.547 1.071 0 1.82-.544 2.031-1.428h-.89z"/>
        <g fill="#000">
            <path d="M17.044 13.97c-.029-3.318 2.581-4.933 2.7-5.008-1.477-2.269-3.768-2.579-4.574-2.603-1.924-.213-3.79 1.212-4.77 1.212-1 0-2.51-1.192-4.136-1.157-2.094.034-4.052 1.31-5.126 3.291-2.217 4.04-.564 9.976 1.56 13.242 1.062 1.6 2.304 3.384 3.929 3.322 1.59-.068 2.183-1.067 4.101-1.067 1.901 0 2.459 1.067 4.116 1.025 1.706-.026 2.78-1.605 3.805-3.22 1.228-1.83 1.72-3.638 1.74-3.73-.039-.014-3.312-1.329-3.345-5.306M13.913 4.21c.855-1.125 1.44-2.656 1.278-4.21-1.237.058-2.785.901-3.676 2.002-.789.97-1.493 2.56-1.311 4.055 1.39.11 2.817-.738 3.71-1.846" transform="translate(11.46 6.217)"/>
        </g>
    </g>
</svg>
