<svg xmlns="http://www.w3.org/2000/svg" xmlns:xlink="http://www.w3.org/1999/xlink" width="128" height="40" viewBox="0 0 128 40">
    <defs>
        <linearGradient id="prefix__b" x1="50%" x2="50%" y1="0%" y2="38.913%">
            <stop offset="0%" stop-color="#FBDA09"/>
            <stop offset="100%" stop-color="#FFBC00"/>
        </linearGradient>
        <linearGradient id="prefix__c" x1="38.733%" x2="54.351%" y1="58.476%" y2="39.083%">
            <stop offset="0%" stop-color="#01E2FF"/>
            <stop offset="100%" stop-color="#01C4FF"/>
        </linearGradient>
        <linearGradient id="prefix__e" x1="20.281%" x2="83.82%" y1="30.535%" y2="71.889%">
            <stop offset="0%" stop-color="#28D781"/>
            <stop offset="100%" stop-color="#02F076"/>
        </linearGradient>
        <linearGradient id="prefix__f" x1="74.488%" x2="10.108%" y1="33.567%" y2="70.779%">
            <stop offset="0%" stop-color="#F2414E"/>
            <stop offset="100%" stop-color="#E02554"/>
        </linearGradient>
        <path id="prefix__a" d="M20.858 11.374c1.302.78 1.302 2.043 0 2.823L2.374 25.263c-1.301.78-2.357.135-2.357-1.442V1.751C.017.173 1.072-.472 2.374.307l18.484 11.066z"/>
    </defs>
    <g fill="none" fill-rule="evenodd">
        <path fill="#FFF" d="M0 3.711C0 1.661 1.578 0 3.526 0h120.948C126.422 0 128 1.661 128 3.711v32.572c0 2.05-1.578 3.711-3.526 3.711H3.526C1.578 39.994 0 38.333 0 36.284V3.71z"/>
        <g fill="#000">
            <path d="M28.578 0c1.712 0 3.1 1.46 3.1 3.262 0 1.801-1.388 3.262-3.1 3.262-1.711 0-3.099-1.46-3.099-3.262S26.867 0 28.58 0zm0 .997c-1.188 0-2.152 1.014-2.152 2.265 0 1.251.964 2.265 2.152 2.265 1.189 0 2.152-1.014 2.152-2.265 0-1.251-.963-2.265-2.152-2.265zM10.071.272v.725L7.574.996v1.903h2.239v.725H7.574v1.993h2.497v.726H6.628V.272h3.443zM14.892.272v.725L13.428.996v5.347h-.946V.996h-1.464V.273h3.874zM23.328.272v.725L21.864.996v5.347h-.947V.996h-1.463V.273h3.874zM17.646.272H18.646V6.343H17.646zM33.398 1.603v4.74h-.946V.272h1.119l2.582 4.44V.273h.947v6.07h-.947l-2.755-4.74z" transform="translate(39.252 6.705)"/>
            <g>
                <path d="M3.08 2.915L5.673 2.915 5.647 3.779 3.08 3.779z" transform="translate(39.252 6.705) translate(0 .09)"/>
                <path d="M3.042 0c.878 0 1.616.322 2.12.882l-.593.624C4.2 1.11 3.674.891 3.067.891 1.855.89.873 1.924.873 3.198c0 1.275.982 2.308 2.194 2.308s2.073-.737 2.071-2.308c.002-.097 0-.192-.006-.284h.756l.001.033c.276 2.128-1.05 3.383-2.683 3.447l-.164.003C1.362 6.394 0 4.965 0 3.198 0 1.432 1.362 0 3.042 0z" transform="translate(39.252 6.705) translate(0 .09)"/>
            </g>
        </g>
        <g fill="#000">
            <g>
                <path d="M5.31 0s2.81.503 2.81 3.899-2.81 3.899-2.81 3.899H.43V0h4.88zm-.6 1.887H1.378V6.07h3.334c.18-.01 1.487-.144 1.487-2.092 0-1.948-1.307-2.083-1.487-2.092z" transform="translate(38.822 17.397) translate(53.714 .453)"/>
                <path d="M0 0H1.722V12.685H0z" transform="translate(38.822 17.397) translate(53.714 .453)"/>
            </g>
            <path d="M62.838.453H64.56V13.138H62.838zM69.159 4.712c2.905 0 3.471 2.047 3.502 2.837l.001.058v5.527H70.94v-.902c-.474.412-1.232.799-2.43.878-2.742.18-2.744-2.455-2.744-2.633v-.024c-.006-.295-.062-2.313 2.047-2.644 1.546-.242 2.628.162 3.128.418v-.372c-.122-.493-.503-1.402-1.645-1.402-1.567 0-1.914.892-1.914.892l-1.434-.892.012-.024c.107-.208.957-1.717 3.199-1.717zm-1.774 5.823c-.115 1.96 3.182 1.02 3.477-.371 0-.442-.045-.65-.045-.65s-3.316-.94-3.432 1.02zM74.545 4.984l2.208 5.52 2.191-5.477h1.722l-4.658 11.645h-1.722l1.606-4.015-3.069-7.673h1.722zM46.218 4.712c2.887 0 3.641 3.237 3.641 3.237l-5.445 2.368s.352 1.31 1.99 1.32c1.281.006 2.005-1.197 2.005-1.197l1.381.985s-1.115 1.898-3.398 1.898c-2.805 0-4.041-2.582-4.041-4.26 0-1.615.98-4.351 3.867-4.351zm-.166 1.671c-2.222.428-1.943 2.475-1.943 2.475l3.679-1.58s-.685-1.097-1.736-.895zM39.769.453H41.589999999999996V13.112H39.769zM34.6 4.713c1.522-.045 2.254 1.064 2.254 1.064v-.79l1.684.015v7.987c0 2.041-1.155 4.195-3.872 4.195-2.717 0-3.595-2.534-3.595-2.534l1.546-.685s.472 1.562 2.13 1.562c1.887 0 2.107-1.807 2.107-2.426v-.867s-.653 1.076-2.275 1.076c-1.759 0-3.849-1.586-3.849-4.29 0-2.704 1.968-4.25 3.87-4.307zm.123 1.686c-1.228 0-2.223 1.183-2.223 2.644 0 1.46.995 2.644 2.223 2.644 1.228 0 2.223-1.184 2.223-2.644 0-1.46-.995-2.644-2.223-2.644zM25.876 4.712c2.263 0 4.098 1.927 4.098 4.304 0 2.377-1.835 4.304-4.098 4.304s-4.098-1.927-4.098-4.304c0-2.377 1.835-4.304 4.098-4.304zM25.85 6.4c-1.272 0-2.303 1.17-2.303 2.616 0 1.445 1.031 2.616 2.303 2.616s2.304-1.171 2.304-2.616S27.12 6.4 25.849 6.4zM17.01 4.712c2.263 0 4.098 1.927 4.098 4.304 0 2.377-1.835 4.304-4.098 4.304s-4.098-1.927-4.098-4.304c0-2.377 1.835-4.304 4.098-4.304zM16.983 6.4c-1.272 0-2.303 1.17-2.303 2.616 0 1.445 1.031 2.616 2.303 2.616s2.304-1.171 2.304-2.616S18.255 6.4 16.983 6.4zM6.428 6.076L11.839 6.076 11.785 7.877 6.428 7.877z" transform="translate(38.822 17.397)"/>
            <path d="M6.348 0C8.18 0 9.72.672 10.774 1.84l-1.238 1.3c-.773-.829-1.87-1.283-3.135-1.283-2.53 0-4.58 2.153-4.58 4.81 0 2.657 2.05 4.81 4.58 4.81 2.53 0 4.326-1.536 4.322-4.81.004-.203 0-.4-.013-.591h1.579l.002.067c.583 4.495-2.263 7.12-5.734 7.19h-.21C2.843 13.33 0 10.35 0 6.668 0 2.985 2.842 0 6.348 0z" transform="translate(38.822 17.397)"/>
        </g>
        <g transform="translate(9.383 7.068)">
            <mask id="prefix__d" fill="#fff">
                <use xlink:href="#prefix__a"/>
            </mask>
            <use fill="url(#prefix__b)" xlink:href="#prefix__a"/>
            <path fill="url(#prefix__c)" d="M0 -0.009L12.033 12.58 -0.155 25.666z" mask="url(#prefix__d)"/>
            <path fill="url(#prefix__e)" d="M-2.474 -2.601L12.031 12.584 16.344 8.253z" mask="url(#prefix__d)"/>
            <path fill="url(#prefix__f)" d="M12.033 12.581L18.636 19.586 -1.088 26.591z" mask="url(#prefix__d)"/>
        </g>
    </g>
</svg>
