<?xml version="1.0" encoding="utf-8"?>
<!-- Generator: Adobe Illustrator 21.0.0, SVG Export Plug-In . SVG Version: 6.00 Build 0)  -->
<svg version="1.1" id="Layer_1" xmlns="http://www.w3.org/2000/svg" xmlns:xlink="http://www.w3.org/1999/xlink" x="0px" y="0px"
	 viewBox="0 0 516.4 135.1" style="enable-background:new 0 0 516.4 135.1;" xml:space="preserve">
<style type="text/css">
	.st0{fill-rule:evenodd;clip-rule:evenodd;fill:#fff;}
	.st1{fill-rule:evenodd;clip-rule:evenodd;fill:#fff;}
	.st2{fill-rule:evenodd;clip-rule:evenodd;fill:#fff;}
	.st3{fill:#fff;}
</style>
<g>
	<g>
		<polyline class="st0" points="125.9,23 131.7,0 120.1,0 114.2,23 125.9,23 		"/>
		<polygon class="st0" points="106.8,52.2 118.5,52.2 124.3,29.2 112.6,29.2 		"/>
		<polygon class="st0" points="99.4,81.5 111,81.5 116.9,58.5 105.2,58.5 		"/>
		<polygon class="st1" points="114.8,0 0,0 0,4.9 19.2,23 108.9,23 		"/>
		<polygon class="st1" points="60.6,58.5 60.6,62.2 80.9,81.5 94.1,81.5 99.9,58.5 		"/>
		<polygon class="st1" points="107.3,29.2 29.7,29.2 29.7,32.9 50,52.2 101.5,52.2 		"/>
	</g>
	<g>
		<path class="st2" d="M516.4,17.2l-2,7.4c-0.9,3.4-2.5,4.7-6.5,4.7h-11.4c-5.1,0-6.8,0.3-8.2,1.6c-1,1-1.6,2.8-1.6,4.4
			c0,1.9,0.8,2.6,3.7,3.5l11.6,3.4c7.9,2.3,10.3,4.8,10.2,10.9c-0.1,6.1-2.4,15.7-5.9,20.1c-3.3,4.3-7.6,6.2-14.2,6.2h-28.2
			c-2.2,0-3-1.7-2.7-3.3c0,0,3.6-14,3.6-14h1.6c0.9,3.2,3,4.1,9.3,4.1h11c4.1,0,6.1-0.6,7.3-2.1c1.2-1.3,1.9-3.4,2-5.1
			c0.1-2.6-0.9-3.3-6.5-4.8l-10.7-2.9c-6.2-1.6-8.9-4.8-8.8-10c0.1-4.8,2.2-11.9,4.9-16.5c3.2-5.5,8-7.6,16.6-7.6H516.4z
			 M241.7,16.6c-12.8,0-20,2.8-25.8,10c-5.6,7.2-11.2,24.9-11.4,36.2c-0.1,6.9,2.5,12.3,7.2,14.7c3.2,1.6,8.4,2.4,16.9,2.4
			c9.2,0,14.9-0.8,17.9-2.4c2.2-1.3,2.7-2.2,4.3-8.5l2.3-8.5h-1.4c-3.8,4.4-8.2,6.3-18.8,6.3c-5.3,0-8.3-0.5-9.7-1.5
			c-1.9-1.2-2.6-3-2.6-5.5c0-1.1,0.3-2.5,0.5-3.7l1.1-4.9h26.8c5.8,0,7.6-0.6,8.8-2.8c1.6-3.2,3.2-11,3.3-15.8
			C261.5,21.4,255.7,16.6,241.7,16.6 M246.6,40.8h-21.4c2.8-9.9,6-13,13.9-13c5.9,0,8.7,2.1,8.6,6.6
			C247.7,36.2,247.5,37.7,246.6,40.8 M439.6,16.6c-12.8,0-20,2.8-25.8,10c-5.6,7.2-11.2,24.9-11.3,36.2c-0.1,6.9,2.4,12.3,7.2,14.7
			c3.2,1.6,8.4,2.4,16.9,2.4c9.2,0,14.9-0.8,17.9-2.4c2.2-1.3,2.7-2.2,4.3-8.5l2.2-8.5h-1.4c-3.8,4.4-8.2,6.3-18.8,6.3
			c-5.3,0-8.3-0.5-9.7-1.5c-1.8-1.2-2.6-3-2.6-5.5c0-1.1,0.3-2.5,0.5-3.7l1.1-4.9h26.9c5.8,0,7.6-0.6,8.8-2.8
			c1.6-3.2,3.3-11,3.3-15.8C459.5,21.4,453.6,16.6,439.6,16.6 M444.5,40.8h-21.4c2.8-9.9,6-13,13.9-13c5.9,0,8.7,2.1,8.6,6.6
			C445.7,36.2,445.4,37.7,444.5,40.8 M313.7,17.2l-2.1,8.2c-0.9,3.4-2.4,4.4-7.1,4.4h-6.1c-6.6,0-8.7,1.8-10.5,9.3l-8.6,33.2
			c-0.4,1.5-0.6,2.8-0.7,3.4c0,1.3,0.7,2,2.1,2.5l-0.3,1.3h-15.3c-2.2,0-3-1.7-2.7-3.3c0,0,13.8-53.9,13.8-53.9
			c0.1-0.3,0.2-0.8,0.3-1.3c0-1.3-0.7-2-2.1-2.4l0.4-1.3h15.2c2.2,0,3,1.7,2.7,3.3c0,0-1.5,5.6-1.5,5.6l4.5-6.1
			c1.9-2.7,2.3-2.8,6.1-2.8H313.7z M207,4.8c0,0-11.8,45.8-17.2,66.7c-0.6,2.4-1.5,5.4,1.5,6.3c-0.2,0.5-0.3,1-0.5,1.5h-17.1
			c-2.2,0-3-1.7-2.7-3.3l8.7-33.5h-23.4c0,0-6,23.4-7.4,28.9c-0.4,1.5-0.7,2.8-0.7,3.5c0,1.4,0.7,2.3,2,2.8c-0.1,0.5-0.2,1-0.4,1.5
			H133c-2.2,0-3-1.7-2.7-3.3c0,0,11.8-45.8,17.2-66.7c0.5-2.4,1.5-5.2-1.5-6.2c0.1-0.5,0.3-1.1,0.4-1.6h17.2c2.2,0,3,1.7,2.7,3.3
			c0,0-6.5,25.3-6.5,25.3h23.2c0,0,3.6-13.8,5.4-20.8c0.4-1.6,0.6-2.7,0.6-3.5c0-1.4-0.7-2.2-2.2-2.7c0.1-0.5,0.3-1.1,0.4-1.6h17.2
			C206.5,1.5,207.3,3.2,207,4.8 M387.3,16.7h-8.2c-4.3,0-6.6,0.9-9.4,5.1l-3.1,4.8c0.3-4.9-2.4-9.9-10.6-9.9h-7.6
			c-6.4,0-7.9,2.7-9.5,4.6l-3.6,4.8c0,0,1.5-5.6,1.5-5.6c0.3-1.6-0.5-3.3-2.7-3.3h-15.3l-0.3,1.3c1.4,0.5,2,1.2,2,2.4
			c0,0.5,0,0.9-0.2,1.3c0,0-13.7,53.9-13.7,53.9c-0.3,1.6,0.5,3.3,2.7,3.3h15.3l0.4-1.3c-1.5-0.5-2.1-1.2-2.1-2.5
			c0-0.6,0.3-1.9,0.6-3.4c0,0,8.4-31.8,8.6-33c2-8.3,4.3-9.3,8.7-9.8c0.9-0.1,1.7-0.1,3.1-0.1c4.4,0,5.6,2.6,5,5.6
			c-0.4,1.7-10.5,41.1-10.5,41.1c-0.3,1.6,0.5,3.3,2.7,3.3h15.3l0.4-1.3c-1.4-0.5-2.1-1.2-2-2.5c0-0.6,0.3-1.9,0.6-3.4
			c0,0,8.6-32.7,8.6-33c2.2-8.2,4.4-9.3,8.8-9.8c0.9-0.1,1.7-0.1,3.2-0.1c4.4,0,5.6,2.6,5,5.6c-0.1,0.5-10.4,41.1-10.4,41.1
			c-0.3,1.6,0.5,3.3,2.7,3.3h15.3l0.4-1.3c-1.5-0.5-2.1-1.2-2.1-2.5c0-0.6,0.3-1.9,0.7-3.4c0,0,9.9-39.6,10.7-43.2
			C399.2,25.3,399.1,16.7,387.3,16.7"/>
	</g>
</g>
<g>
	<path class="st3" d="M126.8,120.1c-0.1,0.4-0.1,0.7-0.1,1c0,2.3,1.8,2.8,4.1,2.8c0.6,0,1,0,1.7-0.1l-0.4,2.5
		c-0.6,0.1-1.3,0.2-2.1,0.2c-3.1,0-6.1-1.1-6.1-5c0-0.4,0-0.9,0.1-1.5l1.6-9.4h-4.6l0.7-2.6h4.3l0.9-5.3h2.9l-0.9,5.3h5.7l-0.7,2.6
		h-5.4L126.8,120.1z"/>
	<path class="st3" d="M153.4,113.7c0,0.6-0.1,1.2-0.2,2l-1.8,10.3h-2.9l1.8-10.4c0.1-0.6,0.2-1,0.2-1.5c0-2.4-1.6-3.8-4-3.8
		c-2.7,0-4.9,1.6-5.4,4.5l-1.9,11.2h-2.9l4.9-28.2h2.9l-2,11.8c1.3-1.2,3.1-2,5.1-2C151,107.7,153.4,110.2,153.4,113.7z"/>
	<path class="st3" d="M172.9,118h-14.3c0.2,3.6,2.7,5.8,6.3,5.8c2.3,0,4-0.9,5.6-2.2l1.5,2c-1.9,1.8-4.5,2.9-7.3,2.9
		c-5.3,0-9-3.8-9-8.8c0-5.4,4.4-10,9.9-10c4.5,0,7.8,3.1,7.8,7.6C173.4,116.5,173.2,117.4,172.9,118z M158.9,115.5h11.6v-0.3
		c0-3.1-2.2-4.8-5.1-4.8C162.2,110.3,159.7,112.4,158.9,115.5z"/>
	<path class="st3" d="M208.2,116.3c0,4.8-3.5,10.1-9.8,10.1c-3.5,0-5.9-1.7-7-3.7l-1.8,10.1h-2.9l4.3-24.7h2.7l-0.4,2.6
		c1.6-2,4.1-3,6.6-3C204.9,107.7,208.2,111.6,208.2,116.3z M205.3,116.6c0-3.3-2.3-6.2-6.1-6.2c-4.6,0-6.9,4.3-6.9,7.7
		c0,3.6,2.7,5.8,5.9,5.8C202.3,123.8,205.3,120.4,205.3,116.6z"/>
	<path class="st3" d="M227.3,113.7c0,0.6-0.1,1.2-0.2,1.9l-1.8,10.5h-2.7l0.3-1.9c-1.5,1.4-3.6,2.3-5.9,2.3c-3,0-6.1-1.5-6.1-4.8
		c0-2.7,2-5.4,7.4-5.4h5.8l0.1-0.6c0.1-0.7,0.1-1.2,0.1-1.6c0-2.5-1.8-3.6-4.2-3.6c-2.3,0-3.8,1-5.3,2.3l-1.4-2.1
		c2.1-1.9,4.4-2.8,7.1-2.8C224.3,107.7,227.3,109.6,227.3,113.7z M223.5,119.8l0.2-1.2h-5.3c-3.2,0-4.5,1.1-4.5,2.7
		c0,2.1,2,2.8,3.8,2.8C220.7,124.1,223.1,122.1,223.5,119.8z"/>
	<path class="st3" d="M244.2,108.2l-0.4,2.5c-0.7-0.1-1.2-0.2-1.6-0.2c-2.7,0-5.4,1.7-6,5.1l-1.8,10.4h-2.9l3.1-18h2.7l-0.3,2
		c1.5-1.5,3.4-2.2,5.4-2.2C242.9,107.9,243.5,107.9,244.2,108.2z"/>
	<path class="st3" d="M262.9,112l-2.2,1.5c-1.2-1.9-3.1-3.2-5.5-3.2c-3.9,0-7.1,3.1-7.1,7.2c0,3.6,2.6,6.3,6.2,6.3
		c2.3,0,4.3-1.1,5.5-2.6l1.9,1.6c-1.8,2.3-4.4,3.6-7.5,3.6c-5.1,0-9-3.7-9-8.8c0-5.6,4.6-10,10.1-10
		C258.7,107.7,261.4,109.4,262.9,112z"/>
	<path class="st3" d="M283.3,118H269c0.2,3.6,2.7,5.8,6.4,5.8c2.3,0,4-0.9,5.6-2.2l1.5,2c-1.9,1.8-4.5,2.9-7.3,2.9
		c-5.3,0-9-3.8-9-8.8c0-5.4,4.4-10,9.9-10c4.5,0,7.8,3.1,7.8,7.6C283.7,116.5,283.5,117.4,283.3,118z M269.2,115.5h11.6v-0.3
		c0-3.1-2.2-4.8-5.1-4.8C272.6,110.3,270,112.4,269.2,115.5z"/>
	<path class="st3" d="M289.8,126h-2.9l4.9-28.2h2.9L289.8,126z"/>
	<path class="st3" d="M326.7,116.3c0,4.8-3.5,10.1-9.8,10.1c-3.5,0-5.9-1.7-7-3.7l-1.8,10.1h-2.9l4.3-24.7h2.7l-0.4,2.6
		c1.6-2,4.1-3,6.6-3C323.4,107.7,326.7,111.6,326.7,116.3z M323.8,116.6c0-3.3-2.3-6.2-6.1-6.2c-4.6,0-6.9,4.3-6.9,7.7
		c0,3.6,2.7,5.8,5.9,5.8C320.8,123.8,323.8,120.4,323.8,116.6z"/>
	<path class="st3" d="M347.7,118h-14.3c0.2,3.6,2.7,5.8,6.4,5.8c2.3,0,4-0.9,5.6-2.2l1.5,2c-1.9,1.8-4.5,2.9-7.3,2.9
		c-5.3,0-9-3.8-9-8.8c0-5.4,4.4-10,9.9-10c4.5,0,7.8,3.1,7.8,7.6C348.1,116.5,347.9,117.4,347.7,118z M333.6,115.5h11.6v-0.3
		c0-3.1-2.2-4.8-5.1-4.8C337,110.3,334.4,112.4,333.6,115.5z"/>
	<path class="st3" d="M370.7,116.6c0,5.5-4.7,9.8-10.2,9.8c-5.2,0-9-3.9-9-8.9c0-5.5,4.7-9.9,10.1-9.9
		C366.8,107.7,370.7,111.6,370.7,116.6z M354.5,117.6c0,3.6,2.6,6.2,6.2,6.2c3.9,0,7.1-3.2,7.1-7.1c0-3.6-2.7-6.3-6.2-6.3
		C357.6,110.3,354.5,113.6,354.5,117.6z"/>
	<path class="st3" d="M394.3,116.3c0,4.8-3.5,10.1-9.7,10.1c-3.5,0-5.9-1.7-7-3.7l-1.8,10.1H373l4.3-24.7h2.7l-0.4,2.6
		c1.6-2,4.1-3,6.6-3C391.1,107.7,394.3,111.6,394.3,116.3z M391.4,116.6c0-3.3-2.3-6.2-6.1-6.2c-4.6,0-6.9,4.3-6.9,7.7
		c0,3.6,2.7,5.8,5.9,5.8C388.4,123.8,391.4,120.4,391.4,116.6z"/>
	<path class="st3" d="M400.7,126h-2.9l4.9-28.2h2.9L400.7,126z"/>
	<path class="st3" d="M424.4,118h-14.3c0.2,3.6,2.7,5.8,6.4,5.8c2.3,0,4-0.9,5.6-2.2l1.5,2c-1.9,1.8-4.5,2.9-7.3,2.9
		c-5.3,0-9-3.8-9-8.8c0-5.4,4.4-10,9.9-10c4.5,0,7.8,3.1,7.8,7.6C424.9,116.5,424.7,117.4,424.4,118z M410.4,115.5H422v-0.3
		c0-3.1-2.2-4.8-5.1-4.8C413.8,110.3,411.2,112.4,410.4,115.5z"/>
</g>
</svg>
