<?xml version="1.0" encoding="UTF-8"?>
<svg width="479px" height="466px" viewBox="0 0 479 466" version="1.1" xmlns="http://www.w3.org/2000/svg" xmlns:xlink="http://www.w3.org/1999/xlink">
    <!-- Generator: Sketch 55.2 (78181) - https://sketchapp.com -->
    <title>Illustrations / Parcel People / Hermes integrations</title>
    <desc>Created with Sketch.</desc>
    <defs>
        <polygon id="path-1" points="0.111627907 0.0247042411 238.99907 0.0247042411 238.99907 37.2045871 0.111627907 37.2045871"></polygon>
        <path d="M32.2483222,175.21966 L32.2464437,175.21966 C14.9666158,175.21966 0.827550244,161.231574 0.827550244,144.130274 L0.827550244,31.5620535 C0.827550244,14.4626127 14.9666158,0.472668092 32.2464437,0.472668092 L32.2483222,0.472668092 C49.52815,0.472668092 63.6672156,14.4626127 63.6672156,31.5620535 L63.6672156,144.130274 C63.6672156,161.231574 49.52815,175.21966 32.2483222,175.21966 L32.2483222,175.21966 Z" id="path-3"></path>
        <path d="M12.8992504,192.11774 C6.0715698,192.11774 0.483910918,186.636259 0.483910918,179.934198 L0.483910918,12.8538333 C0.483910918,6.1517721 6.0715698,0.668436086 12.8992504,0.668436086 C19.7307116,0.668436086 25.3164802,6.1517721 25.3164802,12.8538333 L25.3164802,179.934198 C25.3164802,186.636259 19.7307116,192.11774 12.8992504,192.11774 L12.8992504,192.11774 Z" id="path-5"></path>
        <path d="M70.3335478,17.0852104 C71.2114653,26.0701212 74.4404797,88.0724831 65.3262357,99.6982729 C59.4896753,107.145293 46.6204153,116.385593 29.0676806,106.669675 C21.46031,102.459444 16.2751682,94.9643076 14.487511,86.5290401 C11.2940626,71.4554874 10.8111144,65.1614232 10.8111144,65.1614232 C10.8111144,65.1614232 -3.09330214,66.0700928 0.777771278,54.3129068 C2.63468851,47.2878354 11.6179,51.3315079 11.6179,51.3315079 C11.6179,51.3315079 9.93319684,26.1515499 14.8338111,12.3290372 C20.5936239,-3.92708151 65.4797309,-5.38354388 70.3335478,17.0852104" id="path-7"></path>
        <path d="M38.3687996,1.59277344 C38.3687996,11.7501172 29.9173493,19.9852109 19.4908419,19.9852109 C9.0643346,19.9852109 0.612884302,11.7501172 0.612884302,1.59277344" id="path-9"></path>
        <path d="M70.3335478,17.0852104 C71.2114653,26.0701212 74.4404797,88.0724831 65.3262357,99.6982729 C59.4896753,107.145293 46.6204153,116.385593 29.0676806,106.669675 C21.46031,102.459444 16.2751682,94.9643076 14.487511,86.5290401 C11.2940626,71.4554874 10.8111144,65.1614232 10.8111144,65.1614232 C10.8111144,65.1614232 -3.09330214,66.0700928 0.777771278,54.3129068 C2.63468851,47.2878354 11.6179,51.3315079 11.6179,51.3315079 C11.6179,51.3315079 9.93319684,26.1515499 14.8338111,12.3290372 C20.5936239,-3.92708151 65.4797309,-5.38354388 70.3335478,17.0852104" id="path-11"></path>
        <path d="M13.0901684,192.11774 C6.2605975,192.11774 0.674828897,186.636259 0.674828897,179.934198 L0.674828897,12.8538333 C0.674828897,6.1517721 6.2605975,0.668436086 13.0901684,0.668436086 C19.9197393,0.668436086 25.5073982,6.1517721 25.5073982,12.8538333 L25.5073982,179.934198 C25.5073982,186.636259 19.9197393,192.11774 13.0901684,192.11774 L13.0901684,192.11774 Z" id="path-13"></path>
        <polygon id="path-15" points="0.0166508509 0.0266509131 53.6592376 0.0266509131 53.6592376 11.9794286 0.0166508509 11.9794286"></polygon>
        <polygon id="path-17" points="0.0206780282 0.175942826 61.099095 0.175942826 61.099095 19.7918362 0.0206780282 19.7918362"></polygon>
        <polygon id="path-19" points="0.0237226277 0.036892625 25.8955032 0.036892625 25.8955032 24.3204538 0.0237226277 24.3204538"></polygon>
    </defs>
    <g id="Home" stroke="none" stroke-width="1" fill="none" fill-rule="evenodd">
        <g id="Home---Desktop" transform="translate(-220.000000, -1952.000000)">
            <g id="Site">
                <g id="Content" transform="translate(0.000000, 891.000000)">
                    <g id="Easier" transform="translate(201.000000, 1061.000000)">
                        <g id="Illustrations-/-Parcel-People-/-Hermes-integrations">
                            <g id="Group" transform="translate(19.000000, 0.000000)">
                                <g id="mans-handsup" transform="translate(101.000000, 0.910156)">
                                    <g id="Group-3" transform="translate(0.000000, 427.773438)">
                                        <mask id="mask-2" fill="white">
                                            <use xlink:href="#path-1"></use>
                                        </mask>
                                        <g id="Clip-2"></g>
                                        <path d="M169.949767,37.3164063 C156.251163,37.3164063 143.497674,36.3566248 132.75907,34.7035644 C119.624186,36.3640794 104.27907,37.3164063 87.8809302,37.3164063 C39.3451163,37.3164063 0,28.9691032 0,18.6686916 C0,8.37200725 39.3451163,0.0247042411 87.8809302,0.0247042411 C111.062326,0.0247042411 132.141395,1.92935789 147.845581,5.0397952 C154.786977,4.47697191 162.215814,4.16760547 169.949767,4.16760547 C208.085581,4.16760547 238.99907,11.5886728 238.99907,20.7429377 C238.99907,29.8953389 208.085581,37.3164063 169.949767,37.3164063" id="Fill-1" fill="#BEBFBA" opacity="0.5" mask="url(#mask-2)"></path>
                                    </g>
                                    <path d="M135.171871,157.457031 C130.73021,157.457031 126.808694,154.254061 126.0582,149.734294 C125.224112,144.724901 128.597619,139.986286 133.600292,139.120167 C135.162583,138.830843 168.240044,132.122596 193.821855,82.3031517 C208.155545,54.3926158 205.83533,14.7700038 205.811181,14.37311 C205.489806,9.28582184 209.35745,4.89587976 214.453007,4.56946244 C219.522556,4.24860905 223.943782,8.09884976 224.274445,13.1861379 C224.393335,15.0092529 226.981053,58.2224554 210.288137,90.7306535 C180.101192,149.511737 138.458068,157.039736 136.698866,157.330915 C136.186152,157.416229 135.675296,157.457031 135.171871,157.457031" id="Fill-4" fill="#D2B7A5"></path>
                                    <path d="M125.797075,160.1875 L122.281369,139.168902 L132.793013,137.433422 C134.577939,137.094113 167.048276,130.270856 192.287425,81.3825917 L197.181034,71.9023438 L216.273764,81.6236306 L211.380155,91.1038785 C180.717148,150.497734 138.177663,158.144231 136.381535,158.440895 L125.797075,160.1875" id="Fill-5" fill="#F4764C"></path>
                                    <path d="M108.476914,157.457031 C107.973486,157.457031 107.462628,157.41623 106.949912,157.33092 C105.1907,157.039751 63.5473659,149.512006 33.3621252,90.7329164 C16.6691242,58.2258208 19.2568551,15.0140838 19.3757459,13.1910307 C19.704553,8.10020585 24.1258019,4.222277 29.2046651,4.5727928 C34.3039626,4.90105364 38.1679112,9.29641058 37.8372464,14.3853808 C37.8130967,14.7748428 35.4947276,54.3961111 49.8266331,82.3057004 C75.8098297,132.904234 109.64353,139.054024 109.981625,139.109662 C115.021477,139.946078 118.42844,144.703078 117.592489,149.734556 C116.838276,154.25417 112.918598,157.457031 108.476914,157.457031" id="Fill-6" fill="#D2B7A5"></path>
                                    <path d="M117.75251,160.1875 L107.181466,158.440895 C105.387298,158.144231 62.894238,150.497734 32.2646944,91.1038785 L27.3764259,81.6236306 L46.4483197,71.9023438 L51.3384533,81.3825917 C76.7160457,130.597186 109.419513,137.183112 110.797777,137.438984 L121.368821,139.18559 L117.75251,160.1875" id="Fill-7" fill="#F4764C"></path>
                                    <path d="M125.932486,301.261719 L125.930631,301.261719 C108.867059,301.261719 94.904943,287.273392 94.904943,270.171798 L94.904943,157.601639 C94.904943,140.501904 108.867059,126.511719 125.930631,126.511719 L125.932486,126.511719 C142.996059,126.511719 156.958175,140.501904 156.958175,157.601639 L156.958175,270.171798 C156.958175,287.273392 142.996059,301.261719 125.932486,301.261719" id="Fill-16" fill="#F4764C"></path>
                                    <g id="Group-19" transform="translate(93.992395, 126.511719)">
                                        <mask id="mask-4" fill="white">
                                            <use xlink:href="#path-3"></use>
                                        </mask>
                                        <g id="Clip-18"></g>
                                        <polygon id="Fill-17" fill="#7DC8D4" mask="url(#mask-4)" points="0.827550244 175.21966 76.442881 175.21966 76.442881 128.731484 0.827550244 128.731484"></polygon>
                                    </g>
                                    <path d="M108.135944,452.347656 L108.135944,452.347656 C101.359669,452.347656 95.8174905,446.849178 95.8174905,440.126334 L95.8174905,272.52787 C95.8174905,265.805027 101.359669,260.304688 108.135944,260.304688 C114.912219,260.304688 120.456274,265.805027 120.456274,272.52787 L120.456274,440.126334 C120.456274,446.849178 114.912219,452.347656 108.135944,452.347656" id="Fill-8" fill="#7DC8D4"></path>
                                    <path d="M144.637846,452.347656 L144.637846,452.347656 C137.863446,452.347656 132.319392,446.849178 132.319392,440.126334 L132.319392,272.52787 C132.319392,265.805027 137.863446,260.304688 144.637846,260.304688 C151.415996,260.304688 156.958175,265.805027 156.958175,272.52787 L156.958175,440.126334 C156.958175,446.849178 151.415996,452.347656 144.637846,452.347656" id="Fill-12" fill="#7DC8D4"></path>
                                    <g id="Group-15" transform="translate(132.319392, 260.304688)">
                                        <mask id="mask-6" fill="white">
                                            <use xlink:href="#path-5"></use>
                                        </mask>
                                        <g id="Clip-14"></g>
                                        <polygon id="Fill-13" fill="#FFFFFE" mask="url(#mask-6)" points="0.483910918 192.11774 25.3164802 192.11774 25.3164802 170.685242 0.483910918 170.685242"></polygon>
                                    </g>
                                    <path d="M125.929648,134.703125 L125.929648,134.703125 C122.416531,134.703125 119.543726,131.876884 119.543726,128.421129 L119.543726,114.588711 C119.543726,111.134834 122.416531,108.308594 125.929648,108.308594 C129.444676,108.308594 132.319392,111.134834 132.319392,114.588711 L132.319392,128.421129 C132.319392,131.876884 129.444676,134.703125 125.929648,134.703125" id="Fill-20" fill="#BB9B87"></path>
                                    <path d="M152.951938,23.3493285 C153.825777,32.3617744 157.03979,94.5541489 147.967888,106.215567 C142.158442,113.685409 129.348968,122.954028 111.877777,113.208334 C104.305747,108.9852 99.1446938,101.467094 97.3653414,93.0059759 C94.1867287,77.8862287 93.7060241,71.5728757 93.7060241,71.5728757 C93.7060241,71.5728757 79.8662025,72.4843301 83.7192923,60.6911129 C85.5675829,53.6445125 94.5090616,57.7005773 94.5090616,57.7005773 C94.5090616,57.7005773 92.832185,32.4434526 97.7100327,18.5785795 C103.443088,2.27264218 148.12067,0.811716334 152.951938,23.3493285" id="Fill-21" fill="#D2B7A5"></path>
                                    <g id="Group-28" transform="translate(82.129278, 6.371094)">
                                        <mask id="mask-8" fill="white">
                                            <use xlink:href="#path-7"></use>
                                        </mask>
                                        <g id="Clip-23"></g>
                                        <path d="M60.1972507,61.7321668 C52.8369699,55.8082328 31.8043872,55.9266745 26.0164961,61.9542449 C23.1075753,64.9856113 64.0570927,64.8394099 60.1972507,61.7321668" id="Fill-22" fill="#BB9B87" mask="url(#mask-8)"></path>
                                        <path d="M33.3786487,61.0973935 C33.2251536,64.0713897 32.1600468,66.4346711 30.9994735,66.3773009 C29.8370284,66.3180801 29.0208833,63.8585648 29.1743785,60.8845686 C29.3278736,57.9087217 30.3929804,55.5454404 31.5535537,55.6046612 C32.7141269,55.663882 33.5321439,58.1215466 33.3786487,61.0973935" id="Fill-24" fill="#423D38" mask="url(#mask-8)"></path>
                                        <path d="M56.9457736,61.3509327 C56.7922784,64.3249289 55.7271717,66.6900609 54.5665984,66.6308401 C53.4060252,66.5734699 52.5880082,64.1139547 52.7396315,61.1399585 C52.8931266,58.1641116 53.9601053,55.8008302 55.1206786,55.8582004 C56.2831237,55.9174212 57.0992688,58.3750858 56.9457736,61.3509327" id="Fill-25" fill="#423D38" mask="url(#mask-8)"></path>
                                        <polygon id="Fill-26" fill="#D2B8A5" mask="url(#mask-8)" points="23.0794969 71.8052604 63.1061714 71.8052604 63.1061714 61.7173616 23.0794969 61.7173616"></polygon>
                                        <path d="M61.8594911,79.3466634 C61.8594911,89.6732962 53.3929219,98.0456415 42.9477625,98.0456415 C32.5026031,98.0456415 24.0360339,89.6732962 24.0360339,79.3466634 C24.0360339,77.9975388 61.8594911,78.2159156 61.8594911,79.3466634" id="Fill-27" fill="#494C4A" mask="url(#mask-8)"></path>
                                    </g>
                                    <g id="Group-32" transform="translate(105.855513, 84.644531)">
                                        <mask id="mask-10" fill="white">
                                            <use xlink:href="#path-9"></use>
                                        </mask>
                                        <g id="Clip-30"></g>
                                        <path d="M37.7129386,16.6758828 C37.7129386,21.0391719 28.0730907,24.5778594 16.1797719,24.5778594 C4.28645301,24.5778594 -5.35339489,21.0391719 -5.35339489,16.6758828 C-5.35339489,12.3107734 4.28645301,8.77390625 16.1797719,8.77390625 C28.0730907,8.77390625 37.7129386,12.3107734 37.7129386,16.6758828" id="Fill-29" fill="#E15F6A" mask="url(#mask-10)"></path>
                                        <polygon id="Fill-31" fill="#FFFFFE" mask="url(#mask-10)" points="2.87943509 3.65882812 36.1620424 3.65882812 36.1620424 0.61890625 2.87943509 0.61890625"></polygon>
                                    </g>
                                    <g id="Group-38" transform="translate(82.129278, 6.371094)">
                                        <mask id="mask-12" fill="white">
                                            <use xlink:href="#path-11"></use>
                                        </mask>
                                        <g id="Clip-34"></g>
                                        <path d="M10.2308277,62.5779143 C10.2308277,62.5779143 8.68464463,57.7144034 12.0933606,55.6435249 C11.2978064,55.0198555 6.9269377,56.9149221 7.36121673,59.689048 C6.31857268,60.6661918 4.44480842,60.4163539 3.31792922,58.8284953 C4.45229599,62.0245697 9.16010529,62.7000573 10.2308277,62.5779143" id="Fill-33" fill="#BB9B87" mask="url(#mask-12)"></path>
                                        <path d="M9.57940918,65.1688258 C6.76033928,65.0781439 0.0889148874,64.2157405 0.0963961594,58.0697284 C0.0982743492,56.9889482 0.306054402,55.74346 0.777771278,54.3129068 C1.17274057,52.8120288 1.89529102,51.8163785 2.78631179,51.1779039 L6.34665107,51.0520596 L6.29423808,50.1730004 C6.32044457,50.1730004 6.34477918,50.1730004 6.36911378,50.1730004 C9.04591986,50.1730004 11.6179,51.3315079 11.6179,51.3315079 C11.6179,51.3315079 11.338988,47.1453353 11.338988,41.2510117 C11.338988,37.7680865 11.4363264,33.6874009 11.7489324,29.5215854 L16.4754607,24.4878146 L33.0585551,14.8089096 L70.6536414,21.276935 C71.0186604,26.9343753 71.4679146,36.5577607 71.5821,47.2138094 C69.1579994,46.8917961 60.9441357,44.0047805 59.948289,37.8532164 C57.6458614,38.5305547 55.5324949,38.8377628 53.6194209,38.8377628 C48.5316174,38.8377628 44.8720679,36.6632478 42.9178122,33.4949332 C41.5176367,35.4936363 39.0074291,36.1284096 36.6563323,36.1284096 C34.644048,36.1284096 32.747821,35.6638962 31.7688213,35.1901296 C32.1825095,39.2671138 27.2313542,43.5199099 22.3026616,44.1250728 C20.8407137,52.0995281 14.6372624,52.662126 12.9113776,52.662126 C12.6287218,52.662126 12.4658672,52.6473208 12.4658672,52.6473208 C12.4658672,52.6473208 13.9109681,54.0778741 14.2797309,57.3442732 C14.2797309,62.6297326 10.6501316,64.1676236 10.6501316,64.1676236 C10.3244223,64.5285005 9.96501901,64.8616177 9.57940918,65.1688258 M3.31792922,58.8284953 C4.37180462,61.7950889 8.50681486,62.5908689 9.94817198,62.5908689 C10.0586136,62.5908689 10.1540801,62.5871676 10.2308277,62.5779143 C10.2308277,62.5779143 8.68464463,57.7144034 12.0933606,55.6435249 C11.9904066,55.5639469 11.8275519,55.5250832 11.6235156,55.5250832 C10.2476748,55.5250832 6.98309447,57.2739484 7.36121673,59.689048 C6.95314419,60.0702822 6.41778298,60.2664512 5.85059959,60.2664512 C4.96706639,60.2664512 4.00491372,59.7945352 3.31792922,58.8284953" id="Fill-35" fill="#C6A895" mask="url(#mask-12)"></path>
                                        <path d="M71.6064346,53.5781983 C69.8899093,51.7442031 68.9689383,48.5536807 71.5839719,47.411829 C71.5989471,48.9996876 71.6083065,50.609754 71.6083065,52.232775 C71.6083065,52.6806326 71.6083065,53.1284901 71.6064346,53.5781983" id="Fill-36" fill="#C6A895" mask="url(#mask-12)"></path>
                                        <path d="M9.94817198,62.5908689 C8.50681486,62.5908689 4.37180462,61.7950889 3.31792922,58.8284953 C4.00491372,59.7945352 4.96706639,60.2664512 5.85059959,60.2664512 C6.41778298,60.2664512 6.95314419,60.0702822 7.36121673,59.689048 C6.98309447,57.2739484 10.2476748,55.5250832 11.6235156,55.5250832 C11.8275519,55.5250832 11.9904066,55.5639469 12.0933606,55.6435249 C8.68464463,57.7144034 10.2308277,62.5779143 10.2308277,62.5779143 C10.1540801,62.5871676 10.0586136,62.5908689 9.94817198,62.5908689" id="Fill-37" fill="#BB9B87" mask="url(#mask-12)"></path>
                                    </g>
                                    <g id="Group-11" transform="translate(94.904943, 260.304688)">
                                        <mask id="mask-14" fill="white">
                                            <use xlink:href="#path-13"></use>
                                        </mask>
                                        <g id="Clip-10"></g>
                                        <polygon id="Fill-9" fill="#FFFFFE" mask="url(#mask-14)" points="0.674828897 192.11774 25.5092884 192.11774 25.5092884 170.685242 0.674828897 170.685242"></polygon>
                                    </g>
                                    <path d="M148.863501,70.8581788 C148.952507,71.0024685 149.095691,71.1659968 149.310467,71.3910888 C149.954795,72.0663646 152.017418,72.4876906 152.917155,72.6743053 C154.455416,72.9917426 156.218127,72.8012802 157.326835,71.6931352 C157.928595,71.0890423 158.274945,70.2752484 158.495526,69.453759 C159.008279,67.5510587 158.882509,65.3924847 157.737038,63.7879832 C156.283914,61.7563841 153.013901,61.0830321 151.278279,63.1357937 C149.875463,64.7941634 149.523308,67.1335805 149.049253,69.1786466 C148.807388,70.2156086 148.610027,70.4503199 148.863501,70.8581788" id="Fill-39" fill="#D2B7A5"></path>
                                    <path d="M114.980989,26.8496094 C114.980989,35.1430908 121.722752,41.8671875 130.038023,41.8671875 C138.353294,41.8671875 145.095057,35.1430908 145.095057,26.8496094 C145.095057,18.556128 138.353294,11.8320312 130.038023,11.8320312 C121.722752,11.8320312 114.980989,18.556128 114.980989,26.8496094" id="Fill-40" fill="#F8C361"></path>
                                    <path d="M82.1292776,35.9511719 C82.1292776,44.2446533 88.8691982,50.96875 97.1844693,50.96875 C105.501583,50.96875 112.243346,44.2446533 112.243346,35.9511719 C112.243346,27.6576905 105.501583,20.9335938 97.1844693,20.9335938 C88.8691982,20.9335938 82.1292776,27.6576905 82.1292776,35.9511719" id="Fill-41" fill="#F8C361"></path>
                                    <path d="M73.0038023,43.2324219 C73.0038023,51.5259033 79.7455654,58.25 88.0608365,58.25 C96.3779501,58.25 103.117871,51.5259033 103.117871,43.2324219 C103.117871,34.9371028 96.3779501,28.2148438 88.0608365,28.2148438 C79.7455654,28.2148438 73.0038023,34.9371028 73.0038023,43.2324219" id="Fill-42" fill="#F8C361"></path>
                                    <path d="M149.657795,44.1425781 C149.657795,48.4144514 153.129866,51.8789062 157.415406,51.8789062 C161.699031,51.8789062 165.171103,48.4144514 165.171103,44.1425781 C165.171103,39.8707049 161.699031,36.40625 157.415406,36.40625 C153.129866,36.40625 149.657795,39.8707049 149.657795,44.1425781" id="Fill-43" fill="#F8C361"></path>
                                    <path d="M96.730038,19.5683594 C96.730038,27.8618408 103.471389,34.5859375 111.787993,34.5859375 C120.100913,34.5859375 126.844106,27.8618408 126.844106,19.5683594 C126.844106,11.274878 120.100913,4.55078125 111.787993,4.55078125 C103.471389,4.55078125 96.730038,11.274878 96.730038,19.5683594" id="Fill-44" fill="#F8C361"></path>
                                    <path d="M126.844106,19.5701971 C126.844106,27.8636785 133.584027,34.5859375 141.901141,34.5859375 C150.216412,34.5859375 156.958175,27.8636785 156.958175,19.5701971 C156.958175,11.274878 150.216412,4.55078125 141.901141,4.55078125 C133.584027,4.55078125 126.844106,11.274878 126.844106,19.5701971" id="Fill-45" fill="#F8C361"></path>
                                    <path d="M114.980989,10.0117188 C114.980989,15.5395722 119.475217,20.0234375 125.018098,20.0234375 C130.562806,20.0234375 135.057034,15.5395722 135.057034,10.0117188 C135.057034,4.48204333 130.562806,0 125.018098,0 C119.475217,0 114.980989,4.48204333 114.980989,10.0117188" id="Fill-46" fill="#F8C361"></path>
                                    <path d="M142.357414,29.5800781 C142.357414,36.3657428 147.873313,41.8671875 154.676806,41.8671875 C161.480299,41.8671875 166.996198,36.3657428 166.996198,29.5800781 C166.996198,22.7944134 161.480299,17.2929688 154.676806,17.2929688 C147.873313,17.2929688 142.357414,22.7944134 142.357414,29.5800781" id="Fill-47" fill="#F8C361"></path>
                                    <path d="M86.6920152,19.5674226 C86.6920152,25.3493138 91.3901689,30.0351562 97.1853725,30.0351562 C102.982455,30.0351562 107.680608,25.3493138 107.680608,19.5674226 C107.680608,13.787405 102.982455,9.1015625 97.1853725,9.1015625 C91.3901689,9.1015625 86.6920152,13.787405 86.6920152,19.5674226" id="Fill-48" fill="#F8C361"></path>
                                    <path d="M138.707224,40.5019531 C138.707224,45.7799973 142.9985,50.0585938 148.288047,50.0585938 C153.581299,50.0585938 157.870722,45.7799973 157.870722,40.5019531 C157.870722,35.223909 153.581299,30.9453125 148.288047,30.9453125 C142.9985,30.9453125 138.707224,35.223909 138.707224,40.5019531" id="Fill-49" fill="#F8C361"></path>
                                    <path d="M110.418251,36.8622617 C110.418251,40.129747 113.072804,42.7773438 116.348874,42.7773438 C119.624944,42.7773438 122.281369,40.129747 122.281369,36.8622617 C122.281369,33.5947763 119.624944,30.9453125 116.348874,30.9453125 C113.072804,30.9453125 110.418251,33.5947763 110.418251,36.8622617" id="Fill-50" fill="#F8C361"></path>
                                    <path d="M148.745247,53.2432071 C148.745247,56.5106924 151.3998,59.1601562 154.67587,59.1601562 C157.95194,59.1601562 160.608365,56.5106924 160.608365,53.2432071 C160.608365,49.9775888 157.95194,47.328125 154.67587,47.328125 C151.3998,47.328125 148.745247,49.9775888 148.745247,53.2432071" id="Fill-51" fill="#F8C361"></path>
                                    <path d="M88.5171103,67.8057434 C88.5171103,70.0684736 90.3562015,71.9023438 92.6235741,71.9023438 C94.8909468,71.9023438 96.730038,70.0684736 96.730038,67.8057434 C96.730038,65.5448076 94.8909468,63.7109375 92.6235741,63.7109375 C90.3562015,63.7109375 88.5171103,65.5448076 88.5171103,67.8057434" id="Fill-52" fill="#F8C361"></path>
                                    <path d="M84.8669202,58.7060117 C84.8669202,61.973497 87.523345,64.6210938 90.7994151,64.6210938 C94.0754852,64.6210938 96.730038,61.973497 96.730038,58.7060117 C96.730038,55.4385263 94.0754852,52.7890625 90.7994151,52.7890625 C87.523345,52.7890625 84.8669202,55.4385263 84.8669202,58.7060117" id="Fill-53" fill="#F8C361"></path>
                                </g>
                                <path d="M160,307.5 C189.532134,300.599878 211.532134,294.766545 226,290 C240.467866,285.233455 259.134532,277.733455 282,267.5" id="Path-2" stroke="#D4E3E5" stroke-width="3" stroke-linecap="round" stroke-linejoin="round"></path>
                                <path d="M169.5,324.5 C193.257661,319.131583 210.924328,314.631583 222.5,311 C234.075672,307.368417 250.409006,301.20175 271.5,292.5" id="Path-3" stroke="#D4E3E5" stroke-width="2" stroke-linecap="round" stroke-linejoin="round"></path>
                                <path d="M8.15722907,248 C5.84615338,254.107135 4.79374369,259.107135 5,263 C5.20625631,266.892865 6.21796449,270.892865 8.03512454,275" id="Path-4" stroke="#D4E3E5" stroke-width="2" stroke-linecap="round" stroke-linejoin="round"></path>
                                <path d="M30,290.5 C15.6878313,278.494829 12.1878313,262.994829 19.5,244" id="Path-5" stroke="#D4E3E5" stroke-width="3" stroke-linecap="round" stroke-linejoin="round"></path>
                                <path d="M354,91.5 C363.594314,90.7291536 374.760981,92.0624869 387.5,95.5 C400.239019,98.9375131 410.072352,103.270846 417,108.5" id="Path-23" stroke="#D4E3E5" stroke-width="2" stroke-linecap="round" stroke-linejoin="round"></path>
                                <path d="M380,78.5 C389.333333,79.1666667 396.833333,80.1666667 402.5,81.5 C408.166667,82.8333333 415.166667,85.6666667 423.5,90" id="Path-23" stroke="#D4E3E5" stroke-linecap="round" stroke-linejoin="round"></path>
                                <path d="M354,232.5 C368.03628,224.210632 378.255234,217.710632 384.656863,213 C391.058491,208.289368 398.506204,201.789368 407,193.5" id="Path-26" stroke="#D4E3E5" stroke-width="3" stroke-linecap="round" stroke-linejoin="round"></path>
                                <g id="amazon-logo-rgb" transform="translate(0.000000, 202.000000)">
                                    <g id="Group-3" transform="translate(16.000000, 21.000000)">
                                        <mask id="mask-16" fill="white">
                                            <use xlink:href="#path-15"></use>
                                        </mask>
                                        <g id="Clip-2"></g>
                                        <path d="M53.1851538,4.78971429 C46.7449615,9.4968 37.4088462,12 29.3690769,12 C18.1017692,12 7.95496154,7.87474286 0.276923077,1.00765714 C-0.325730769,0.468342857 0.211846154,-0.267771429 0.936692308,0.149485714 C9.2205,4.92411429 19.4649231,7.79965714 30.0458077,7.79965714 C37.1831538,7.79965714 45.0290769,6.33257143 52.2488077,3.29931429 C53.3374615,2.84194286 54.2502692,4.00971429 53.1851538,4.78971429" id="Fill-1" fill="#EC912D" mask="url(#mask-16)"></path>
                                    </g>
                                    <path d="M71.0342176,22.9451447 C70.2123873,21.8772389 65.6028863,22.4392392 63.5317358,22.6909649 C62.9046586,22.7673941 62.8076273,22.2106527 63.3725493,21.8078215 C67.0504126,19.1853871 73.0756717,19.942317 73.7756087,20.8205521 C74.4810706,21.7061496 73.5901789,27.8397713 70.1447072,30.7665204 C69.6143159,31.2166816 69.1098226,30.9765255 69.3453219,30.3822706 C70.120881,28.4157954 71.8570839,24.0141023 71.0342176,22.9451447" id="Fill-4" fill="#EC912D"></path>
                                    <path d="M63.6646566,4.08254878 L63.6646566,1.62354708 C63.6671607,1.24901283 63.9647895,1 64.3239473,1.001015 L75.9769011,1 C76.3496525,1 76.6487122,1.25611782 76.6487122,1.62050208 L76.6487122,3.72932949 C76.6451349,4.08322545 76.3299775,4.54437285 75.7715658,5.27720137 L69.7352821,13.4283116 C71.9753679,13.3785767 74.3456664,13.6966094 76.3818479,14.7785972 C76.8408115,15.022535 76.9638696,15.383536 77,15.7381086 L77,18.3622166 C77,18.7232176 76.5811018,19.1420734 76.1414554,18.9238488 C72.5552433,17.1469258 67.7956868,16.9530612 63.829211,18.9458405 C63.4239064,19.1498551 63,18.7374276 63,18.3754116 L63,15.8815616 C63,15.4819908 63.0082277,14.7999122 63.4339227,14.1915901 L70.4271259,4.7023742 L64.3382563,4.70169753 C63.9658626,4.70169753 63.6671607,4.45099304 63.6646566,4.08254878" id="Fill-5" fill="#FFFFFF"></path>
                                    <path d="M23.0253274,19 L19.6108795,19 C19.2859729,18.9790953 19.02653,18.7364633 19,18.4259767 L19.0027564,0.995202193 C19.0027564,0.646333105 19.2973429,0.368060315 19.6618723,0.368060315 L22.8416846,0.367032214 C23.1741712,0.383824537 23.4411941,0.634338588 23.4618668,0.952707334 L23.4618668,3.22823852 L23.5262969,3.22823852 C24.3549293,1.02741604 25.9167549,0 28.0198619,0 C30.1553561,0 31.4942607,1.02741604 32.4503751,3.22823852 C33.279352,1.02741604 35.1598824,0 37.1678948,0 C38.6022385,0 40.1637197,0.587045922 41.119834,1.90747087 C42.2034302,3.37525703 41.9811982,5.5020562 41.9811982,7.37285812 L41.9777528,18.3728581 C41.9777528,18.7206991 41.6835107,19 41.3189814,19 L37.9090126,19 C37.5658451,18.9784099 37.2964103,18.7087046 37.2964103,18.3742289 L37.2953767,9.13296779 C37.2953767,8.40061686 37.3591177,6.56614119 37.1992485,5.86943112 C36.9446292,4.69499657 36.1797377,4.36463331 35.1919252,4.36463331 C34.3629482,4.36463331 33.5022731,4.91501028 33.151181,5.79506511 C32.8011226,6.67580535 32.8328208,8.1425634 32.8328208,9.13296779 L32.8328208,18.3728581 C32.8328208,18.7206991 32.5382342,19 32.174394,19 L28.7640806,19 C28.4209131,18.9784099 28.1507893,18.7087046 28.1507893,18.3742289 L28.1473438,9.13296779 C28.1473438,7.18917066 28.4660486,4.32899246 26.0442368,4.32899246 C23.5893487,4.32899246 23.685477,7.11583276 23.685477,9.13296779 L23.6840988,18.3728581 C23.6840988,18.7206991 23.3891677,19 23.0253274,19" id="Fill-6" fill="#FFFFFF"></path>
                                    <path d="M85.9665466,3.49103778 C83.366075,3.49103778 83.2016374,6.83650358 83.2016374,8.9239317 C83.2016374,11.0110236 83.1689132,15.4726533 85.9345167,15.4726533 C88.6677343,15.4726533 88.798701,11.8743696 88.798701,9.68036804 C88.798701,8.24112183 88.7328618,6.51342122 88.2712754,5.1461205 C87.8765959,3.95801115 87.0858134,3.49103778 85.9665466,3.49103778 Z M85.9345167,0 C91.1692691,0 94,4.24680173 94,9.6440591 C94,14.8607803 90.8731705,19 85.9345167,19 C80.7983451,19 78,14.7528621 78,9.46385915 C78,4.13821109 80.8310868,0 85.9345167,0 L85.9345167,0 Z" id="Fill-7" fill="#FFFFFF"></path>
                                    <path d="M101.013611,19 L97.6173992,19 C97.2761959,18.9784099 97.0058472,18.7087046 97.0058472,18.3742289 L97,0.936943112 C97.0288922,0.617888965 97.3116232,0.368060315 97.6548903,0.368060315 L100.816525,0.367032214 C101.11439,0.382796436 101.359973,0.584647019 101.422573,0.855037697 L101.422573,3.52124743 L101.486549,3.52124743 C102.441712,1.13639479 103.776945,0 106.131661,0 C107.658821,0 109.154681,0.55003427 110.109157,2.05448938 C111,3.44790953 111,5.79506511 111,7.48286498 L111,18.4516792 C110.962165,18.7601097 110.683561,19 110.346829,19 L106.929981,19 C106.61423,18.9801234 106.359703,18.7488005 106.323244,18.4516792 L106.323244,8.98766278 C106.323244,7.07984921 106.546127,4.29163811 104.191411,4.29163811 C103.363855,4.29163811 102.600275,4.84201508 102.218485,5.68540096 C101.741076,6.74948595 101.6771,7.81254284 101.6771,8.98766278 L101.6771,18.3728581 C101.671253,18.7206991 101.376827,19 101.013611,19" id="Fill-8" fill="#FFFFFF"></path>
                                    <g id="Group-12">
                                        <mask id="mask-18" fill="white">
                                            <use xlink:href="#path-17"></use>
                                        </mask>
                                        <g id="Clip-10"></g>
                                        <path d="M58.2792994,19.5040242 C58.0539089,19.7080209 57.7278853,19.7215283 57.4732009,19.5840297 C56.3390111,18.6367784 56.1356771,18.1989995 55.5149916,17.296773 C53.6405284,19.2158659 52.312999,19.7918362 49.8843645,19.7918362 C47.0090847,19.7918362 44.7724113,18.0081638 44.7724113,14.4422045 C44.7724113,11.6558659 46.2743255,9.76136339 48.4145014,8.83246839 C50.2672527,8.01509621 52.8557972,7.86651457 54.8370969,7.64277625 L54.8370969,7.19737768 C54.8370969,6.37965915 54.9008542,5.41474437 54.4214686,4.70854865 C54.0054956,4.07647059 53.2073237,3.81671248 52.5042707,3.81671248 C51.2015549,3.81671248 50.04393,4.48723474 49.7589178,5.87746014 C49.6996408,6.18674546 49.4752842,6.49326003 49.1661477,6.50919186 L45.8555954,6.14864761 C45.5757527,6.08492029 45.2655823,5.85979659 45.3455374,5.4306762 C46.1071781,1.39472787 49.7337596,0.175942826 52.9833117,0.175942826 C54.6454805,0.175942826 56.8173628,0.620995052 58.1273159,1.88480484 C59.7891401,3.44508521 59.6288853,5.52592084 59.6288853,7.79274327 L59.6288853,13.1389115 C59.6288853,14.7483727 60.2940286,15.4535294 60.9181604,16.3197361 C61.1366582,16.6328312 61.1852516,17.0037658 60.9067875,17.2323529 C60.2095933,17.820099 58.9699455,18.9017317 58.2882598,19.5119901 L58.2792994,19.5040242 Z M54.8370969,11.1353106 C54.8370969,12.4735844 54.8684586,13.5870808 54.1974566,14.776773 C53.6546584,15.7420341 52.7913507,16.3370533 51.8332687,16.3370533 C50.5236603,16.3370533 49.75685,15.333348 49.75685,13.8471853 C49.75685,10.9240407 52.3660726,10.3927488 54.8370969,10.3927488 L54.8370969,11.1353106 L54.8370969,11.1353106 Z" id="Fill-9" fill="#FFFFFF" mask="url(#mask-18)"></path>
                                        <path d="M13.5072327,19.5040242 C13.2818422,19.7080209 12.9551293,19.7215283 12.7004449,19.5840297 C11.5655658,18.6367784 11.3622319,18.1989995 10.7429249,17.296773 C8.86742777,19.2158659 7.53989836,19.7918362 5.11195321,19.7918362 C2.23632875,19.7918362 0,18.0081638 0,14.4422045 C0,11.6558659 1.50122485,9.76136339 3.64209004,8.83246839 C5.49484137,8.01509621 8.08338587,7.86651457 10.0636517,7.64277625 L10.0636517,7.19737768 C10.0636517,6.37965915 10.1280982,5.41474437 9.64905724,4.70854865 C9.23308423,4.07647059 8.43422308,3.81671248 7.73185939,3.81671248 C6.42914361,3.81671248 5.27048476,4.48723474 4.98685114,5.87746014 C4.92757412,6.18674546 4.70287288,6.49326003 4.39339173,6.50919186 L1.08318404,6.14864761 C0.803341396,6.08492029 0.492481705,5.85979659 0.573126016,5.4306762 C1.33373282,1.39472787 4.96031434,0.175942826 8.21090037,0.175942826 C9.87237994,0.175942826 12.0449514,0.620995052 13.3549045,1.88480484 C15.0160395,3.44508521 14.8568186,5.52592084 14.8568186,7.79274327 L14.8568186,13.1389115 C14.8568186,14.7483727 15.5212726,15.4535294 16.1454044,16.3197361 C16.3628684,16.6328312 16.4128403,17.0037658 16.1347208,17.2323529 C15.4368373,17.820099 14.1968449,18.9017317 13.5151592,19.5119901 L13.5072327,19.5040242 Z M10.0636517,11.1353106 C10.0636517,12.4735844 10.0957026,13.5870808 9.42504526,14.776773 C8.88224702,15.7420341 8.01928398,16.3370533 7.06051274,16.3370533 C5.75124892,16.3370533 4.98374943,15.333348 4.98374943,13.8471853 C4.98374943,10.9240407 7.59366123,10.3927488 10.0636517,10.3927488 L10.0636517,11.1353106 L10.0636517,11.1353106 Z" id="Fill-11" fill="#FFFFFF" mask="url(#mask-18)"></path>
                                    </g>
                                </g>
                                <g id="ebay_logo" transform="translate(40.000000, 290.000000)">
                                    <g id="Group-3" transform="translate(0.000000, 9.000000)">
                                        <mask id="mask-20" fill="white">
                                            <use xlink:href="#path-19"></use>
                                        </mask>
                                        <g id="Clip-2"></g>
                                        <path d="M5.38226886,10.0047604 C5.38226886,10.0047604 5.74878345,3.4576325 13.1126825,3.45564855 C20.4496959,3.4536655 20.4496959,10.0047604 20.4496959,10.0047604 L5.38226886,10.0047604 Z M13.2388078,0.0368926237 C0.43649635,0.0345128517 -0.0608880779,10.0341162 0.00434914842,12.6297207 C0.00434914842,12.6297207 -0.622718978,24.3204538 12.9256691,24.3204538 C24.5671533,24.3204538 25.1404501,16.9850841 25.1404501,16.9850841 L19.7842762,16.995795 C19.7842762,16.995795 18.7412713,21.0369724 12.9478102,20.9286734 C5.49969586,20.7898286 5.21067518,13.5500635 5.21067518,13.5500635 L25.8442214,13.5500635 C25.8442214,13.5500635 27.4099148,0.0396699447 13.2388078,0.0368926237 L13.2388078,0.0368926237 Z" id="Fill-1" fill="#FFFFFF" mask="url(#mask-20)"></path>
                                    </g>
                                    <path d="M39.9394448,30.4442569 C32.0446134,30.5485167 32.1728597,21.6318817 32.1728597,21.6318817 C32.1728597,21.6318817 31.8852653,13.0490397 39.9267738,12.8283969 C47.9675143,12.6077541 47.7060299,21.8149425 47.7060299,21.8149425 C47.7060299,21.8149425 47.8342763,30.339593 39.9394448,30.4442569 Z M41.0875186,9.26295522 C34.8360839,9.22618142 32.1467497,13.1589569 32.1467497,13.1589569 L32.1467497,0 L27.1347739,0 L27.2196315,27.8110916 C27.2196315,27.8110916 27.1896818,31.0504184 27,33.1913806 L31.8676027,33.1913806 L32.076483,30.0672245 C32.076483,30.0672245 34.3472885,34 40.9823105,34 C47.6184844,34 52.8577712,29.6994865 52.9975367,21.72321 C53.1369183,13.7473376 47.3397214,9.2993249 41.0875186,9.26295522 L41.0875186,9.26295522 Z" id="Fill-4" fill="#FFFFFF"></path>
                                    <path d="M63.088483,30.6159453 C63.088483,30.6159453 57.7956006,30.6224503 57.485278,26.3730968 C57.1543211,21.8379325 65.6281116,22.1107335 65.6281116,22.1107335 L71.6144659,22.1046351 C71.6144659,22.1046351 72.5838702,30.7411655 63.088483,30.6159453 Z M76.8895462,27.6627016 C76.9024931,24.0435144 77.0080919,20.8117778 76.8895462,18.5322022 C76.7507709,15.8891629 77,9.50984743 65.6281116,9.03864569 C65.6281116,9.03864569 54.7255509,8.04013707 53.5935004,16.194082 L59.1695976,16.194082 C59.1695976,16.194082 59.6025118,12.4582125 65.2603368,12.5659506 C70.6147173,12.6675903 71.5901904,15.306564 71.5626781,18.551717 C71.5626781,18.551717 66.9733825,18.5647269 65.441999,18.5724515 C62.6818673,18.5862745 53.0230246,18.893633 52.1215919,24.8054058 C51.0490166,31.8348089 57.2926919,34.0277875 62.1777447,33.9997349 C67.0632021,33.9720889 69.8504416,32.5023785 71.9207426,29.8674704 L72.1420549,33.1398629 L77,33.1122169 C77,33.1122169 76.8745762,31.2822953 76.8895462,27.6627016 L76.8895462,27.6627016 Z" id="Fill-5" fill="#FFFFFF"></path>
                                    <polyline id="Fill-6" fill="#FFFFFF" points="74 10 80.0011616 10 88.7787966 27.3895332 97.5746614 10 103 10 87.1202837 41 81.3176681 41 85.9131558 32.3857606 74 10"></polyline>
                                </g>
                                <g id="shopify-logo-default-cmyk" transform="translate(379.000000, 114.000000)">
                                    <path d="M48.1243068,1.31447117 C48.3458886,1.31447117 48.569069,1.38620845 48.7826572,1.52663036 C47.1375807,2.26567697 45.3741995,4.12718305 44.6295187,7.84439517 C43.5411143,8.1661445 42.4773302,8.48056747 41.4938016,8.77148503 C42.3660598,5.93618354 44.4373533,1.31447117 48.1243068,1.31447117 Z M49.6494797,2.69274273 C49.9650658,3.44796838 50.1703407,4.5316592 50.1703407,5.9941839 C50.1703407,6.06897383 50.1697012,6.13735319 50.1690617,6.20664835 C48.919507,6.57601902 47.5625188,6.97713726 46.2020135,7.37947655 C46.9658789,4.56493308 48.3976869,3.20558796 49.6494797,2.69274273 Z M53.4361931,5.24140036 C52.8660917,5.40990665 52.2179732,5.60130782 51.5154984,5.80888803 C51.5161379,5.67976093 51.5164576,5.55246542 51.5164576,5.41356983 C51.5164576,4.20166771 51.3405991,3.22604071 51.0576268,2.45249916 C52.193353,2.58864735 52.9495446,3.82191803 53.4361931,5.24140036 Z M62.6550159,7.39870825 C62.627518,7.20761235 62.452299,7.10199065 62.3074555,7.09039058 C62.1629318,7.07879051 59.1036332,6.86235761 59.1036332,6.86235761 C59.1036332,6.86235761 56.9789427,4.84852428 56.7458502,4.62568082 C56.512438,4.40314262 56.0568046,4.47060619 55.8799868,4.52036439 C55.8537679,4.52769075 55.4157204,4.65681785 54.6908636,4.87080863 C53.9810347,2.92108096 52.7286024,1.1291753 50.5249354,1.1291753 C50.4641842,1.1291753 50.4015147,1.13161742 50.3385253,1.13497534 C49.7121493,0.343728411 48.9358139,0 48.2653134,0 C43.1321634,0 40.6797365,6.12636365 39.9107552,9.23976157 C37.9162,9.82983885 36.4991002,10.249273 36.3181258,10.3036102 C35.2044618,10.6369596 35.1696098,10.6705387 35.0234874,11.6721132 C34.9131761,12.4303915 32,33.9393647 32,33.9393647 L54.7001361,38 L67,35.4595845 C67,35.4595845 62.682194,7.58980415 62.6550159,7.39870825 L62.6550159,7.39870825 Z" id="Fill-4" fill="#8DB849"></path>
                                    <path d="M62.421381,7.56819279 C62.2803661,7.55677192 59.2953411,7.34368255 59.2953411,7.34368255 C59.2953411,7.34368255 57.2222338,5.36095957 56.9948003,5.14185922 C56.9096298,5.05980929 56.7948211,5.01803295 56.6747088,5 L55,38 L67,35.4991302 C67,35.4991302 62.7870216,8.06019181 62.7605033,7.87174747 C62.733673,7.68360368 62.562708,7.57961366 62.421381,7.56819279" id="Fill-5" fill="#5A863E"></path>
                                    <path d="M51,13.5593457 L49.5014582,17.8045354 C49.5014582,17.8045354 48.188378,17.137172 46.5789384,17.137172 C44.2194381,17.137172 44.1006416,18.5474211 44.1006416,18.9027666 C44.1006416,20.841671 49.4076216,21.5845567 49.4076216,26.1261184 C49.4076216,29.6991306 47.0282166,32 43.8194478,32 C39.9686725,32 38,29.7177855 38,29.7177855 L39.0309386,26.4739418 C39.0309386,26.4739418 41.0549021,28.1288106 42.7629174,28.1288106 C43.8785301,28.1288106 44.3328635,27.2920487 44.3328635,26.6806499 C44.3328635,24.1514086 39.9787829,24.0385767 39.9787829,19.8827498 C39.9787829,16.3849589 42.6147378,13 47.9365673,13 C49.9870704,13 51,13.5593457 51,13.5593457" id="Fill-6" fill="#FFFFFF"></path>
                                    <path d="M8.57518716,56.8602062 C7.37447946,56.2245609 6.75738392,55.6890557 6.75738392,54.9526597 C6.75738392,54.0156783 7.61480875,53.4133113 8.95257926,53.4133113 C10.5106516,53.4133113 11.9022459,54.0492619 11.9022459,54.0492619 L13,50.7696742 C13,50.7696742 11.9908047,50 9.02111066,50 C4.8876345,50 2.02371037,52.3090227 2.02371037,55.5553321 C2.02371037,57.3957114 3.36148088,58.8013362 5.14517488,59.8051794 C6.58589895,60.6081319 7.10035385,61.1772206 7.10035385,62.014062 C7.10035385,62.8841816 6.37999182,63.5866887 5.04222131,63.5866887 C3.04917796,63.5866887 1.16628554,62.5828454 1.16628554,62.5828454 L0,65.8624331 C0,65.8624331 1.73894519,67 4.66482921,67 C8.91847002,67 11.9707773,64.9587299 11.9707773,61.277666 C11.9707773,59.3032578 10.4274126,57.897633 8.57518716,56.8602062" id="Fill-7" fill="#FFFFFF"></path>
                                    <path d="M25.9976622,49.9786221 C23.8373627,49.9786221 22.1374919,50.9659403 20.8269662,52.4638439 L20.7562056,52.4296806 L22.6331395,43 L17.7458091,43 L13,67 L17.8873304,67 L19.5167636,58.7958486 C20.1542555,55.6978622 21.8185844,53.7915524 23.3769339,53.7915524 C24.4748546,53.7915524 24.9000646,54.5061856 24.9000646,55.5276671 C24.9000646,56.1742844 24.8289809,56.9572442 24.6874596,57.6041721 L22.8457445,67 L27.733398,67 L29.6455506,57.297945 C29.8581556,56.2764636 30,55.0509343 30,54.2341218 C30,51.5787049 28.5476299,49.9786221 25.9976622,49.9786221" id="Fill-8" fill="#FFFFFF"></path>
                                    <path d="M37.7387535,63.4666202 C36.2159648,63.4666202 35.5680703,62.1334299 35.5680703,60.4669421 C35.5680703,57.8334049 36.8963723,53.5333798 39.3262724,53.5333798 C40.9134958,53.5333798 41.4319297,54.9334729 41.4319297,56.3001145 C41.4319297,59.1334478 40.1036277,63.4666202 37.7387535,63.4666202 Z M39.941654,50 C34.5637155,50 31,55.0000716 31,60.5666881 C31,64.1335194 33.1381702,67 37.1555893,67 C42.4362845,67 46,62.1334299 46,56.4333119 C46,53.1334836 44.1210467,50 39.941654,50 L39.941654,50 Z" id="Fill-9" fill="#FFFFFF"></path>
                                    <path d="M53.6592829,63.9998427 C52.4376156,63.9998427 51.7160605,63.3105781 51.7160605,63.3105781 L52.5001296,58.861974 C53.0456501,55.8966575 54.5795767,53.931105 56.2161382,53.931105 C57.6477408,53.931105 58.0909374,55.2759733 58.0909374,56.5516319 C58.0909374,59.6207629 56.2842505,63.9998427 53.6592829,63.9998427 Z M58.1593607,50 C54.9838963,50 53.1818747,52.8275265 53.1818747,52.8275265 L53.1137624,52.8275265 L53.3865227,50.2758946 L49.2276285,50.2758946 C49.0229806,52.0001573 48.6478963,54.6206842 48.2728121,56.5862367 L45,74 L49.7047257,74 L51.0001037,66.9654738 L51.1024276,66.9654738 C51.1024276,66.9654738 52.0681296,67.5861581 53.8639309,67.5861581 C59.3866263,67.5861581 63,61.86221 63,56.0690523 C63,52.8621313 61.6022981,50 58.1593607,50 L58.1593607,50 Z" id="Fill-10" fill="#FFFFFF"></path>
                                    <path d="M70.6687419,44 C69.1825803,44 68,45.1743097 68,46.6844425 C68,48.0601849 68.8783825,49 70.1959564,49 L70.2634531,49 C71.7160205,49 72.9660975,48.0265107 73,46.3155575 C73,44.9731831 72.087715,44 70.6687419,44" id="Fill-11" fill="#FFFFFF"></path>
                                    <polyline id="Fill-12" fill="#FFFFFF" points="63 67 67.7587888 67 71 50 66.206921 50 63 67"></polyline>
                                    <path d="M83.9173032,50.5522891 L80.6924328,50.5522891 L80.8603725,49.7802787 C81.1291372,48.2028786 82.0696605,46.7929873 83.6151344,46.7929873 C84.4401226,46.7929873 85.0928807,47.0278671 85.0928807,47.0278671 L86,43.4026948 C86,43.4026948 85.1937058,43 83.4805988,43 C81.8346063,43 80.1886139,43.4700658 78.9456153,44.5440208 C77.3667374,45.8868473 76.6278642,47.833563 76.2582744,49.7802787 L76.1240453,50.5522891 L73.9742339,50.5522891 L73.3024752,54.0433318 L75.4522867,54.0433318 L73,67 L77.6355021,67 L80.0877888,54.0433318 L83.2789486,54.0433318 L83.9173032,50.5522891" id="Fill-13" fill="#FFFFFF"></path>
                                    <path d="M95.0439242,51 C95.0439242,51 92.0751143,58.3369774 90.7418972,62.3419047 L90.6731326,62.3419047 C90.5817605,61.052506 89.5028783,51 89.5028783,51 L84.5122632,51 L87.3689774,66.1562091 C87.437742,66.4934175 87.4035167,66.6960505 87.2656735,66.9325583 C86.7149287,67.9789822 85.7858214,68.9915313 84.6843317,69.7340057 C83.7897638,70.3754716 82.791578,70.7804296 82,71.0505043 L83.3077836,75 C84.2714301,74.797367 86.2678017,74.0210178 87.9539476,72.4683193 C90.1223877,70.4767881 92.1184454,67.404958 94.1835816,63.2192625 L100,51 L95.0439242,51" id="Fill-14" fill="#FFFFFF"></path>
                                </g>
                            </g>
                            <g id="CSV" transform="translate(311.000000, 232.000000)">
                                <path d="M54.2498313,45.7333333 L29.7496993,45.7333333 C28.7839028,45.7333333 28,44.9541947 28,43.9939394 L28,9.20594428 C28,8.24568902 28.7839028,7.46666667 29.7496993,7.46666667 L54.2498313,7.46666667 C55.2160972,7.46666667 56,8.24568902 56,9.20594428 L56,43.9939394 C56,44.9541947 55.2162145,45.7333333 54.2498313,45.7333333 L54.2498313,45.7333333 Z" id="Path" fill="#F1F5F7" fill-rule="nonzero"></path>
                                <path d="M36.5557851,17.7333333 L29.7108816,17.7333333 C28.7665117,17.7333333 28,16.8970317 28,15.8664794 C28,14.8361768 28.7665117,14 29.7108816,14 L36.5557851,14 C37.500155,14 38.2666667,14.8361768 38.2666667,15.8664794 C38.2667814,16.8970317 37.5002697,17.7333333 36.5557851,17.7333333 L36.5557851,17.7333333 Z" id="Path" fill="#46B34C" fill-rule="nonzero"></path>
                                <path d="M36.5557851,24.2666667 L29.7108816,24.2666667 C28.7665117,24.2666667 28,23.4305588 28,22.3994382 C28,21.3698157 28.7665117,20.5333333 29.7108816,20.5333333 L36.5557851,20.5333333 C37.500155,20.5333333 38.2666667,21.3698157 38.2666667,22.3994382 C38.2667814,23.430434 37.5002697,24.2666667 36.5557851,24.2666667 L36.5557851,24.2666667 Z" id="Path" fill="#46B34C" fill-rule="nonzero"></path>
                                <path d="M36.5557851,31.7333333 L29.7108816,31.7333333 C28.7665117,31.7333333 28,30.8968509 28,29.8669788 C28,28.8363576 28.7665117,28 29.7108816,28 L36.5557851,28 C37.500155,28 38.2666667,28.8363576 38.2666667,29.8669788 C38.2667814,30.8968509 37.5002697,31.7333333 36.5557851,31.7333333 L36.5557851,31.7333333 Z" id="Path" fill="#46B34C" fill-rule="nonzero"></path>
                                <path d="M36.5557851,38.2666667 L29.7108816,38.2666667 C28.7665117,38.2666667 28,37.4305458 28,36.4000624 C28,35.369579 28.7665117,34.5333333 29.7108816,34.5333333 L36.5557851,34.5333333 C37.500155,34.5333333 38.2666667,35.369579 38.2666667,36.4000624 C38.2666667,37.4305458 37.5002697,38.2666667 36.5557851,38.2666667 L36.5557851,38.2666667 Z" id="Path" fill="#46B34C" fill-rule="nonzero"></path>
                                <path d="M49.100397,17.7333333 L44.3669048,17.7333333 C43.0607746,17.7333333 42,16.8970317 42,15.8664794 C42,14.8361768 43.0607746,14 44.3669048,14 L49.100397,14 C50.4063686,14 51.466667,14.8361768 51.466667,15.8664794 C51.466667,16.8970317 50.4063686,17.7333333 49.100397,17.7333333 L49.100397,17.7333333 Z" id="Path" fill="#46B34C" fill-rule="nonzero"></path>
                                <path d="M49.100397,24.2666667 L44.3669048,24.2666667 C43.0607746,24.2666667 42,23.4305588 42,22.3994382 C42,21.3698157 43.0607746,20.5333333 44.3669048,20.5333333 L49.100397,20.5333333 C50.4063686,20.5333333 51.466667,21.3698157 51.466667,22.3994382 C51.466667,23.430434 50.4063686,24.2666667 49.100397,24.2666667 L49.100397,24.2666667 Z" id="Path" fill="#46B34C" fill-rule="nonzero"></path>
                                <path d="M49.100397,31.7333333 L44.3669048,31.7333333 C43.0607746,31.7333333 42,30.8968509 42,29.8669788 C42,28.8363576 43.0607746,28 44.3669048,28 L49.100397,28 C50.4063686,28 51.466667,28.8363576 51.466667,29.8669788 C51.466667,30.8968509 50.4063686,31.7333333 49.100397,31.7333333 L49.100397,31.7333333 Z" id="Path" fill="#46B34C" fill-rule="nonzero"></path>
                                <path d="M49.100397,38.2666667 L44.3669048,38.2666667 C43.0607746,38.2666667 42,37.4305458 42,36.4000624 C42,35.369579 43.0607746,34.5333333 44.3669048,34.5333333 L49.100397,34.5333333 C50.4063686,34.5333333 51.466667,35.369579 51.466667,36.4000624 C51.466667,37.4305458 50.4063686,38.2666667 49.100397,38.2666667 L49.100397,38.2666667 Z" id="Path" fill="#46B34C" fill-rule="nonzero"></path>
                                <path d="M31.0957679,0.403005405 C30.6933439,0.072009097 30.1539018,-0.071061465 29.6463794,0.033911317 L1.43863043,5.25983156 C0.603044934,5.41385378 0,6.13142022 0,6.97096946 L0,45.2978021 C0,46.1339727 0.603044934,46.8548013 1.43863043,47.0090565 L29.6463794,52.2350933 C29.7519506,52.255715 29.861305,52.2666667 29.9707776,52.2666667 C30.3797038,52.2666667 30.77799,52.1269748 31.0957679,51.8653001 C31.5015021,51.5348864 31.7333333,51.0400813 31.7333333,50.5240719 L31.7333333,1.74493271 C31.7333333,1.22554463 31.5013839,0.734118221 31.0957679,0.403005405 L31.0957679,0.403005405 Z" id="Path" fill="#3CA241" fill-rule="nonzero"></path>
                                <path d="M8.5625,29.8990593 C7.90773482,29.8229128 7.31994308,29.6096583 6.79910714,29.263945 C6.27827121,28.9244321 5.86904911,28.491435 5.57142857,27.9650335 C5.27380804,27.4449577 5.125,26.8748671 5.125,26.25 C5.125,25.6251329 5.27380804,25.0688477 5.57142857,24.5763832 C5.86904911,24.077593 6.27827121,23.6825608 6.79910714,23.3913677 C7.31994308,23.0939727 7.90773482,22.935251 8.5625,22.9198494 C9.13393143,22.906408 9.64880723,23.005311 10.1071429,23.2195543 C10.5654785,23.4377882 10.9464271,23.7610963 11.25,24.1902267 L10.125,25.3152773 C9.72023607,24.769437 9.22916955,24.4974058 8.65178571,24.4928011 C8.3124983,24.4900952 8.01041799,24.5666919 7.74553571,24.7213217 C7.48065344,24.8742556 7.27529835,25.0904532 7.12946429,25.3699182 C6.98363022,25.6476841 6.91071429,25.9682278 6.91071429,26.3328334 C6.91071429,26.6974391 6.98363022,27.0247474 7.12946429,27.3160428 C7.27529835,27.6090374 7.48065344,27.8442864 7.74553571,28.0217945 C8.01041799,28.2009982 8.3124983,28.30562 8.65178571,28.334391 C9.22916955,28.3833522 9.72023607,28.1568789 10.125,27.6485898 L11.25,28.8780106 C10.9464271,29.2789775 10.5654785,29.5669437 10.1071429,29.7426562 C9.64880723,29.9143782 9.13393143,29.9655144 8.5625,29.8990593 Z M14.6849174,30.1819516 C14.1931794,30.1229602 13.7159114,29.9917404 13.2530992,29.7902531 C12.7902869,29.5913851 12.4142576,29.3566086 12.125,29.0859983 L12.6890496,27.6324931 C12.9609518,27.8680752 13.2762379,28.0676276 13.6349174,28.2308299 C13.9935968,28.3958689 14.3464859,28.4944936 14.693595,28.5253293 C15.3531025,28.5839172 15.6828512,28.4048965 15.6828512,27.9882619 C15.6828512,27.7689805 15.5888439,27.5997431 15.4008264,27.4810956 C15.212809,27.363183 14.9105393,27.2332437 14.4940083,27.09207 C14.0369812,26.9431752 13.6551668,26.7919114 13.3485537,26.637912 C13.0419406,26.485524 12.7787201,26.2556128 12.5588843,25.9488737 C12.3390485,25.6446824 12.2291322,25.2437437 12.2291322,24.7441348 C12.2291322,24.3061215 12.3303709,23.9111204 12.5328512,23.5570118 C12.7353316,23.2000927 13.0376013,22.9132607 13.4396694,22.6961798 C13.8417375,22.4758469 14.3349144,22.3565191 14.9192149,22.3406309 C15.3183904,22.3297766 15.7117749,22.3757569 16.0993802,22.4797874 C16.4869854,22.5854372 16.8283043,22.7477361 17.1233471,22.9672636 L16.5940083,24.6139148 C16.015493,24.208195 15.4543416,24.0074248 14.9105372,24.0052835 C14.5692132,24.0039395 14.3204553,24.0653097 14.1642562,24.1888433 C14.0080571,24.3116402 13.9299587,24.4717842 13.9299587,24.6698327 C13.9299587,24.8678812 14.0225197,25.0185697 14.2076446,25.1224267 C14.3927695,25.2269823 14.6907004,25.3390773 15.1014463,25.4594649 C15.5642585,25.597811 15.9475191,25.7446245 16.2512397,25.8995164 C16.5549602,26.0560039 16.8181807,26.2981348 17.0409091,26.6266304 C17.2636375,26.9576773 17.375,27.3992664 17.375,27.9494976 C17.375,28.4243546 17.2737613,28.8448234 17.071281,29.2088292 C16.8688006,29.5700498 16.5650847,29.8411024 16.160124,30.0215801 C15.7551633,30.1987289 15.2634326,30.2513533 14.6849174,30.1819516 Z M24.375,21.8929443 L21.7301637,30.5202591 L20.0110202,30.330878 L17.375,22.1138542 L19.2616499,22.0543143 L20.9367128,27.493907 L22.6470403,21.9474763 L24.375,21.8929443 Z" fill="#FFFFFF" fill-rule="nonzero"></path>
                            </g>
                        </g>
                    </g>
                </g>
            </g>
        </g>
    </g>
</svg>