<?xml version="1.0" encoding="UTF-8"?>
<svg width="270px" height="512px" viewBox="0 0 270 512" version="1.1" xmlns="http://www.w3.org/2000/svg" xmlns:xlink="http://www.w3.org/1999/xlink">
    <!-- Generator: Sketch 55.2 (78181) - https://sketchapp.com -->
    <title>Illustrations / Parcel People / hermes courier pda</title>
    <desc>Created with Sketch.</desc>
    <defs>
        <path d="M89.5566914,19.0043376 C89.5566914,19.0043376 76.7279275,-1.49053129 39.7534851,0.18482882 C7.83945167,1.62941085 0.938894052,77.9170999 0.934711896,112.387357 C0.932620818,140.912859 22.8513011,163.981791 49.7321097,163.981791 C75.8768587,163.981791 97.4358736,142.11113 98.4814126,114.391132 C98.9874535,100.94609 98.8243494,51.3487733 97.5571561,44.8936441 C94.0734201,27.1414839 89.5566914,19.0043376 89.5566914,19.0043376" id="path-1"></path>
        <path d="M0.561520264,188.227025 L0.561520264,7.67773651 C0.561520264,3.69216168 6.28960611,0.428571429 10.9812307,0.428571429 C15.6728552,0.428571429 20.4568851,3.69216168 20.4568851,7.67773651 L20.4568851,188.227025 C20.4568851,192.214433 15.6728552,197.47619 10.9812307,197.47619 C6.28960611,197.47619 0.561520264,192.214433 0.561520264,188.227025 Z" id="path-3"></path>
        <path d="M0.561520264,188.227025 L0.561520264,7.67773651 C0.561520264,3.69216168 6.28960611,0.428571429 10.9812307,0.428571429 C15.6728552,0.428571429 20.4568851,3.69216168 20.4568851,7.67773651 L20.4568851,188.227025 C20.4568851,192.214433 15.6728552,197.47619 10.9812307,197.47619 C6.28960611,197.47619 0.561520264,192.214433 0.561520264,188.227025 Z" id="path-5"></path>
        <path d="M48.7209698,30.4195114 C48.7209698,44.5138771 37.8802673,56.0467021 24.6317504,56.0467021 C11.3832336,56.0467021 0.542531114,44.5138771 0.542531114,30.4195114 L0.542531114,0.924548842 L48.7209698,0.924548842 L48.7209698,30.4195114 Z" id="path-7"></path>
        <path d="M8.0175697,31.018861 C4.09730019,31.018861 0.887286245,27.7239696 0.887286245,23.6951763 L0.887286245,7.57123975 C0.887286245,3.54244638 4.09730019,0.247555003 8.0175697,0.247555003 C11.9399721,0.247555003 15.1478532,3.54244638 15.1478532,7.57123975 L15.1478532,23.6951763 C15.1478532,27.7239696 11.9399721,31.018861 8.0175697,31.018861" id="path-9"></path>
        <path d="M75.6199714,15.1726972 C78.5280755,23.7762961 84.6312954,39.4498953 77.954052,61.3505671 C84.9795081,66.9156547 72.7519645,88.7721942 67.9297455,95.2773005 C61.3495796,104.156727 48.0183071,113.206062 28.2292708,101.621324 C9.76344295,89.4849314 12.6040149,67.213548 12.6040149,67.213548 C12.6040149,67.213548 -3.07189019,68.2947902 1.29237632,54.273947 C3.38798399,45.8998362 13.5156992,50.721294 13.5156992,50.721294 C13.5156992,50.721294 12.7475207,29.4473013 18.2724964,12.9660804 C24.7682471,-6.41684168 71.9816757,-1.55787147 75.6199714,15.1726972" id="path-11"></path>
        <polygon id="path-13" points="0 0.0349579832 45.8865471 0.0349579832 45.8865471 7.35723529 0 7.35723529"></polygon>
        <polygon id="path-15" points="0.0322073365 0.0325142857 2.03766307 0.0325142857 2.03766307 2.42857143 0.0322073365 2.42857143"></polygon>
        <polygon id="path-17" points="0.0226661882 0.0325142857 2.02811231 0.0325142857 2.02811231 2.42857143 0.0226661882 2.42857143"></polygon>
        <polygon id="path-19" points="0.000341148325 0.0325142857 2.00578727 0.0325142857 2.00578727 2.42857143 0.000341148325 2.42857143"></polygon>
    </defs>
    <g id="Home" stroke="none" stroke-width="1" fill="none" fill-rule="evenodd">
        <g id="Home---Desktop" transform="translate(-1006.000000, -2474.000000)">
            <g id="Site">
                <g id="Content" transform="translate(0.000000, 891.000000)">
                    <g id="Premium" transform="translate(201.000000, 1583.000000)">
                        <g id="Illustrations-/-Parcel-People-/-hermes-courier-pda" transform="translate(805.000000, 0.000000)">
                            <g id="group">
                                <path d="M160.384783,37.9228536 C160.384783,37.9228536 147.483804,17.5090136 110.301229,19.1777499 C78.2075478,20.6166206 71.2681462,96.6026976 71.2639405,130.936672 C71.2618377,159.349396 93.3039006,182.327122 120.336024,182.327122 C146.627945,182.327122 168.308318,160.542929 169.359742,132.932525 C169.868632,119.54064 169.704609,70.1394119 168.430283,63.7098037 C164.926936,46.0278288 160.384783,37.9228536 160.384783,37.9228536" id="Fill-1" fill="#2A2A2A"></path>
                                <g id="Group-4" transform="translate(70.260223, 19.080745)">
                                    <mask id="mask-2" fill="white">
                                        <use xlink:href="#path-1"></use>
                                    </mask>
                                    <g id="Clip-3"></g>
                                    <path d="M62.9979089,160.151763 L43.3585037,155.844645 C42.883829,155.869054 42.4112454,155.882368 41.9428439,155.882368 C27.2530204,155.882368 15.1707714,143.240611 15.1477695,127.465598 L19.1417286,66.0209336 L15.4760688,62.8832393 L97.1263941,43.1605894 L94.980948,119.039979 C94.9621283,119.419431 94.9391264,119.798884 94.9119424,120.178336 C93.7911245,121.017126 92.6933086,121.804878 91.6205855,122.543811 C84.8643123,127.186001 79.1075743,129.882111 75.1533457,131.39992 C73.177277,132.158825 71.65079,132.6226 70.6826208,132.884445 C70.1974907,133.017586 69.8524628,133.097471 69.6579926,133.141851 L69.4844331,133.177355 L69.5074349,133.308277 L69.6663569,134.271332 C67.7697491,134.617499 66.1324349,135.618277 64.9237918,137.018479 L60.2648699,134.803897 L63.3513011,154.504357 L72.6335967,152.86672 C73.0852695,152.786835 75.9082249,152.25427 80.4040428,150.612196 C75.5025558,155.096835 69.5868959,158.423146 62.9979089,160.151763" id="Fill-2" fill="#000000" mask="url(#mask-2)"></path>
                                </g>
                                <path d="M191.99631,512 C176.520839,512 162.110974,510.849746 149.981551,508.878517 C135.14082,510.86087 117.805265,512 99.2822002,512 C44.4507325,512 0,502.032612 0,489.738018 C0,477.443424 44.4507325,467.478261 99.2822002,467.478261 C125.468388,467.478261 149.283757,469.752071 167.022855,473.465368 C174.866731,472.795684 183.257072,472.426357 191.99631,472.426357 C235.076676,472.426357 270,481.283538 270,492.212066 C270,503.13837 235.076676,512 191.99631,512" id="Fill-5" fill="#BEBFBA" opacity="0.5"></path>
                                <path d="M117.929989,186.108078 C117.476521,185.935273 105.657629,181.635279 91.4819838,171.423004 C84.3973546,166.312672 76.7187471,159.710848 69.6325213,151.344064 C62.5510855,142.980635 56.0604348,132.832113 51.4778597,120.725694 C48.9055501,113.914155 46.8633503,106.163093 45.1644444,98.2593595 C42.6256659,86.4146639 40.8932289,74.2545571 39.7771244,64.9952264 C38.6642133,55.7426065 38.1756182,49.4041844 38.1676346,49.3119099 C37.8131637,44.7132823 41.0736579,40.6817237 45.4518533,40.3092701 C49.828452,39.9368165 53.663764,43.3643963 54.0182349,47.9630238 L54.0262185,48.0670424 C54.1204248,49.251512 55.0321496,60.3227792 57.0216578,73.9307574 C58.0148152,80.7305522 59.2794143,88.1662025 60.8266322,95.2730198 C62.3690599,102.376482 64.213267,109.167888 66.2554668,114.551688 C70.0572477,124.592836 75.4637283,133.088804 81.5136854,140.237565 C90.5782425,150.953156 101.110182,158.578388 109.339656,163.445451 C113.4512,165.881499 116.979943,167.631359 119.438885,168.753753 C120.668357,169.315789 121.631176,169.720119 122.263476,169.97681 C122.581222,170.105995 122.814343,170.196592 122.959644,170.253634 L123.108139,170.308999 L123.130493,170.317387 L122.008001,173.689602 L123.116122,170.312354 L123.130493,170.317387 L122.008001,173.689602 L123.116122,170.312354 C127.267584,171.817268 129.471052,176.573601 128.038798,180.93567 C126.606544,185.29774 122.079854,187.612992 117.929989,186.108078 Z" id="Fill-4" fill="#D2B7A5"></path>
                                <g id="PDA" transform="translate(43.422682, 37.825314) rotate(-15.000000) translate(-43.422682, -37.825314) translate(27.363202, 6.554093)">
                                    <rect id="Rectangle-25" fill="#4A4A4A" x="-3.63797881e-11" y="7.27595761e-12" width="31.5120602" height="62.0275658" rx="4"></rect>
                                    <path d="M2.10080401,15.5068915 C3.26104603,15.5068915 4.20160802,16.4474534 4.20160802,17.6076955 L4.20160802,39.8383629 C4.20160802,40.9986049 3.26104603,41.9391669 2.10080401,41.9391669 C0.940561994,41.9391669 4.58298077e-15,40.9986049 0,39.8383629 L0,17.6076955 C-5.86177877e-16,16.4474534 0.940561994,15.5068915 2.10080401,15.5068915 Z" id="Rectangle-25" fill="#9D9D9D"></path>
                                    <path d="M29.4112562,15.5068915 C30.5714982,15.5068915 31.5120602,16.4474534 31.5120602,17.6076955 L31.5120602,39.8383629 C31.5120602,40.9986049 30.5714982,41.9391669 29.4112562,41.9391669 C28.2510141,41.9391669 27.3104521,40.9986049 27.3104521,39.8383629 L27.3104521,17.6076955 C27.3104521,16.4474534 28.2510141,15.5068915 29.4112562,15.5068915 Z" id="Rectangle-25" fill="#9D9D9D"></path>
                                    <rect id="Rectangle-25" fill="#E7E7E7" x="5.35705023" y="6.64581062" width="20.7979597" height="42.0901339" rx="1"></rect>
                                    <rect id="Rectangle-25" fill="#E7E7E7" x="10.5040201" y="53.166485" width="4.20160802" height="4.43054041" rx="1"></rect>
                                    <rect id="Rectangle-25" fill="#E7E7E7" x="4.20160802" y="53.166485" width="4.20160802" height="4.43054041" rx="1"></rect>
                                    <rect id="Rectangle-25" fill="#E7E7E7" x="16.8064321" y="53.166485" width="4.20160802" height="4.43054041" rx="1"></rect>
                                    <rect id="Rectangle-25" fill="#E7E7E7" x="23.1088441" y="53.166485" width="4.20160802" height="4.43054041" rx="1"></rect>
                                </g>
                                <path d="M117.174055,185.06376 C116.1428,184.925782 105.757511,182.997203 92.5467761,174.181801 C85.9486825,169.779989 78.595736,163.56428 71.2799664,154.893586 C63.960964,146.224574 56.6872205,135.107307 50.181261,120.951175 L46.1710037,112.230001 L62.9264761,103.884058 L66.9367333,112.605232 C72.7557282,125.258758 79.0822686,134.838083 85.2342393,142.130688 C94.465428,153.059498 103.315149,158.886514 109.707962,162.036434 C112.90356,163.608029 115.48493,164.499834 117.174055,164.987802 C118.01781,165.230104 118.638502,165.373129 118.998957,165.447166 C119.179992,165.484184 119.294756,165.504376 119.340015,165.512789 L128.475836,166.741123 L128.475836,187.627329 L117.174055,185.06376 Z" id="Fill-5" fill="#204C7F"></path>
                                <g id="Group-15" transform="translate(133.494424, 286.571429)">
                                    <mask id="mask-4" fill="white">
                                        <use xlink:href="#path-3"></use>
                                    </mask>
                                    <use id="Fill-11" fill="#204C7F" xlink:href="#path-3"></use>
                                    <polygon id="Fill-12" fill="#FFFFFE" mask="url(#mask-4)" points="-2.64265474 203 20.9587439 203 20.9587439 171 -2.64265474 171"></polygon>
                                </g>
                                <g id="Group-15" transform="translate(106.116801, 286.571429)">
                                    <mask id="mask-6" fill="white">
                                        <use xlink:href="#path-5"></use>
                                    </mask>
                                    <use id="Fill-11" fill="#204C7F" xlink:href="#path-5"></use>
                                    <polygon id="Fill-12" fill="#FFFFFE" mask="url(#mask-6)" points="-2.64265474 203 20.9587439 203 20.9587439 171 -2.64265474 171"></polygon>
                                </g>
                                <path d="M152.565056,286.089328 C152.565056,298.709315 142.176049,309.035718 129.479554,309.035718 C116.783059,309.035718 106.394052,298.709315 106.394052,286.089328 L106.394052,159.149679 C106.394052,153.011608 111.337228,148.035718 117.434944,148.035718 C117.948105,148.035718 118.460642,148.071731 118.968826,148.143495 L141.812277,150.359001 C147.220494,151.122729 151.261486,155.751771 151.318681,161.248788 L152.565056,286.089328 Z" id="Fill-19" fill="#0091CD"></path>
                                <g id="Group-23" transform="translate(105.390335, 258.490683)">
                                    <mask id="mask-8" fill="white">
                                        <use xlink:href="#path-7"></use>
                                    </mask>
                                    <use id="Clip-21" fill="#204C7F" xlink:href="#path-7"></use>
                                </g>
                                <path d="M129.480605,154.766046 L129.480605,154.766046 C125.617081,154.766046 122.453532,151.474378 122.453532,147.449526 L122.453532,131.341364 C122.453532,127.316513 125.617081,124.024845 129.480605,124.024845 C133.346231,124.024845 136.505576,127.316513 136.505576,131.341364 L136.505576,147.449526 C136.505576,151.474378 133.346231,154.766046 129.480605,154.766046" id="Fill-24" fill="#D5B9A5"></path>
                                <g id="Group-27" transform="translate(121.449814, 124.024845)">
                                    <mask id="mask-10" fill="white">
                                        <use xlink:href="#path-9"></use>
                                    </mask>
                                    <g id="Clip-26"></g>
                                    <path d="M50.1146097,-7.36530904 C50.1146097,6.63578854 29.1716682,17.9838852 3.33798792,17.9838852 C-22.4956924,17.9838852 -43.4386338,6.63578854 -43.4386338,-7.36530904 C-43.4386338,-21.3620251 -22.4956924,-32.7101217 3.33798792,-32.7101217 C29.1716682,-32.7101217 50.1146097,-21.3620251 50.1146097,-7.36530904" id="Fill-25" fill="#C3A893" mask="url(#mask-10)"></path>
                                </g>
                                <path d="M160.724311,95.2490106 C160.820074,95.4125737 160.979677,95.6030238 161.21589,95.8674135 C161.926658,96.6538608 164.193028,97.1445501 165.184698,97.3618873 C166.874368,97.7338253 168.815146,97.5097663 170.032389,96.2191862 C170.694212,95.5134002 171.075132,94.5678711 171.319858,93.611139 C171.88379,91.3974356 171.743339,88.8812526 170.483535,87.0126001 C168.885372,84.6465367 165.288972,83.86233 163.380114,86.2552806 C161.83728,88.1844289 161.452104,90.9089869 160.930732,93.2907345 C160.664726,94.4984128 160.445537,94.7717648 160.724311,95.2490106" id="Fill-28" fill="#D2B7A5"></path>
                                <path d="M160.279419,44.5055007 C163.18243,53.1383848 169.274962,68.8653342 162.609412,90.840552 C169.622565,96.4245822 157.416434,118.355517 152.60266,124.882766 C146.034017,133.792416 132.72609,142.872554 112.971709,131.248383 C94.538218,119.070681 97.3738155,96.7234894 97.3738155,96.7234894 C97.3738155,96.7234894 81.7253621,97.808412 86.0819859,83.7398443 C88.171817,75.3372296 98.2839033,80.1750987 98.2839033,80.1750987 C98.2839033,80.1750987 97.5170701,58.8286931 103.03237,42.291373 C109.516746,22.8424749 156.647494,27.7179842 160.279419,44.5055007" id="Fill-30" fill="#D2B7A5"></path>
                                <g id="Group-42" transform="translate(85.315985, 28.621118)">
                                    <mask id="mask-12" fill="white">
                                        <use xlink:href="#path-11"></use>
                                    </mask>
                                    <g id="Clip-32"></g>
                                    <path d="M68.282179,63.1224804 C59.9841636,56.0613066 36.2698198,56.2003235 29.7487446,63.3872744 C26.4692136,67.0017128 72.6337832,66.82739 68.282179,63.1224804" id="Fill-31" fill="#BB9B87" mask="url(#mask-12)"></path>
                                    <path d="M38.0467601,62.3634042 C37.8758193,65.9116441 36.6729025,68.7294937 35.3644667,68.6610886 C34.0560309,68.5926835 33.1337947,65.6600897 33.3068459,62.1118499 C33.4798971,58.5658167 34.6807035,55.7457604 35.9912496,55.8163722 C37.2996854,55.8869839 38.2198113,58.817371 38.0467601,62.3634042" id="Fill-33" fill="#423D38" mask="url(#mask-12)"></path>
                                    <path d="M64.6164484,62.6679174 C64.4433972,66.2139506 63.2425908,69.0340068 61.934155,68.9656017 C60.6236088,68.8927834 59.703483,65.9623962 59.8765342,62.416363 C60.0495854,58.8681232 61.2503918,56.0502735 62.5588276,56.1186787 C63.8693737,56.191497 64.7894996,59.1218841 64.6164484,62.6679174" id="Fill-34" fill="#423D38" mask="url(#mask-12)"></path>
                                    <polygon id="Fill-35" fill="#D2B8A5" mask="url(#mask-12)" points="26.4354475 75.1308891 71.56171 75.1308891 71.56171 63.1026209 26.4354475 63.1026209"></polygon>
                                    <path d="M47.9782099,80.8747126 L34.1362253,80.8747126 C34.1362253,76.8785296 37.2342637,73.6392161 41.0582728,73.6392161 C44.8801716,73.6392161 47.9782099,76.8785296 47.9782099,80.8747126" id="Fill-36" fill="#E15F6A" mask="url(#mask-12)"></path>
                                    <path d="M59.1315699,80.8747126 L45.287475,80.8747126 C45.287475,76.8785296 48.3876237,73.6392161 52.2095224,73.6392161 C56.0335316,73.6392161 59.1315699,76.8785296 59.1315699,80.8747126" id="Fill-37" fill="#E15F6A" mask="url(#mask-12)"></path>
                                    <path d="M35.2779411,82.6620723 L58.3000801,82.6620723 C58.3000801,89.3084021 53.1465313,94.6991669 46.7879554,94.6991669 C40.4314898,94.6991669 35.2779411,89.3084021 35.2779411,82.6620723" id="Fill-38" fill="#E15F6A" mask="url(#mask-12)"></path>
                                    <path d="M59.8680927,79.0321876 C59.4945553,84.8686891 53.9421447,89.6239483 46.6338976,89.6239483 C39.3235402,89.6239483 33.3997026,84.8797221 33.3997026,79.0321876 L59.8680927,79.0321876" id="Fill-39" fill="#FFFFFE" mask="url(#mask-12)"></path>
                                    <path d="M11.949797,64.1309043 C11.949797,64.1309043 10.2066228,58.3319153 14.0517358,55.8627111 C13.1527138,55.1190813 8.22497569,57.3786569 8.71458393,60.6885821 C7.53910209,61.8514691 5.42661138,61.5535759 4.15827281,59.6625053 C5.4350529,63.4689193 10.7426594,64.2787476 11.949797,64.1309043" id="Fill-40" fill="#BB9B87" mask="url(#mask-12)"></path>
                                    <path d="M80.7861824,46.5044492 C59.0028367,48.6139749 37.8610466,30.9853132 37.8610466,30.9853132 C37.8610466,30.9853132 32.6737318,47.6938157 13.5156992,50.721294 C16.1621161,42.7554073 -11.6041578,19.4094014 -11.6041578,19.4094014 L97.4349728,19.4094014 C97.4349728,19.4094014 102.567418,44.3949236 80.7861824,46.5044492" id="Fill-41" fill="#BB9B87" mask="url(#mask-12)"></path>
                                </g>
                                <path d="M104.386617,28.3184168 C104.386617,28.3184168 121.149749,74.0549289 174.238938,77.3830228 C181.573725,61.2557537 160.623477,-4.9867505 104.386617,28.3184168" id="Fill-44" fill="#2A2A2A"></path>
                                <path d="M118.357421,32.657336 C118.357421,32.657336 120.87301,72.7192346 97.9078398,79.5031056 C90.2221488,67.9259204 94.0927791,25.2587668 118.357421,32.657336" id="Fill-45" fill="#2A2A2A"></path>
                                <path d="M131.486989,185.507246 L182.67658,185.507246 C188.219958,185.507246 192.713755,190.253213 192.713755,196.10766 L192.713755,239.569358 C192.713755,245.423805 188.219958,250.169772 182.67658,250.169772 L131.486989,250.169772 C125.94361,250.169772 121.449814,245.423805 121.449814,239.569358 L121.449814,196.10766 C121.449814,190.253213 125.94361,185.507246 131.486989,185.507246 Z" id="Rectangle-10" fill="#EF9C64"></path>
                                <path d="M86.0400939,15.5852479 L123.199945,0.438582237 C124.651783,-0.153199135 126.277585,-0.153199135 127.729423,0.438582237 L164.889274,15.5852479 C167.147967,16.5059098 168.624535,18.702291 168.624535,21.1414118 L168.624535,52.2924029 L125.464684,43.4962451 L82.3048327,52.2924029 L82.3048327,21.1414118 C82.3048327,18.702291 83.7814013,16.5059098 86.0400939,15.5852479 Z" id="Rectangle-22" fill="#0091CD"></path>
                                <g id="Logos-/-Brand-/-Hermes-with-Tag-line" transform="translate(103.382900, 19.080745)">
                                    <g id="Page-1">
                                        <g id="Group-3">
                                            <mask id="mask-14" fill="white">
                                                <use xlink:href="#path-13"></use>
                                            </mask>
                                            <g id="Clip-2"></g>
                                            <path d="M21.5321256,3.75503361 L19.531435,3.75459664 L19.5473184,3.69494958 C19.8002152,2.73010924 20.1013812,2.43536975 20.8318117,2.43536975 C21.1467982,2.43536975 21.364009,2.50484874 21.4956143,2.64664706 C21.5993722,2.75873109 21.6486726,2.91057983 21.645991,3.11246218 C21.6418655,3.37770588 21.5321256,3.75503361 21.5321256,3.75503361 L21.5321256,3.75503361 Z M21.0570673,1.46069748 C19.9297578,1.46069748 19.2950404,1.72135294 18.7944036,2.39036134 C18.2950045,3.0740084 17.8065381,4.72205882 17.790861,5.78303361 C17.7902422,5.79679832 17.7902422,5.81012605 17.7902422,5.82432773 C17.7902422,6.44002521 18.0144664,6.91392437 18.4090762,7.12957143 C18.7026099,7.28513445 19.1609596,7.35505042 19.8961345,7.35505042 C20.6954619,7.35505042 21.1556682,7.29452941 21.4161973,7.14268067 C21.601435,7.03037815 21.7200448,6.83177311 21.8363857,6.35568908 L22.0216233,5.60802521 L21.8419552,5.60802521 C21.5135605,6.05854622 21.1783587,6.20231092 20.2810493,6.20231092 C19.7960897,6.20231092 19.5221525,6.15468067 19.3917848,6.04871429 C19.2224305,5.93619328 19.1372377,5.74851261 19.1419821,5.49222689 C19.14487,5.38844538 19.1679731,5.25123529 19.1902511,5.13041176 L19.3001973,4.63138655 L21.7311839,4.63182353 C22.2761704,4.63182353 22.4048879,4.52520168 22.4979193,4.34494958 C22.6365381,4.05370588 22.7617489,3.35804202 22.7679372,2.92368908 C22.7757758,2.45612605 22.6753184,2.11659664 22.4612018,1.88368908 C22.1959283,1.599 21.7367534,1.46069748 21.0570673,1.46069748 L21.0570673,1.46069748 Z M27.3497848,2.22933613 L27.5257399,1.51684874 L26.521991,1.51684874 C26.1867892,1.51684874 26.1727623,1.52318487 26.0120717,1.76068067 L25.4561525,2.54133613 L25.6562422,1.76942017 C25.6692377,1.70081513 25.655417,1.6337395 25.6174619,1.58589076 C25.5832197,1.5400084 25.5279372,1.51619328 25.4586278,1.51619328 L24.1380359,1.51619328 L24.1046188,1.63942017 C24.3445202,1.70190756 24.2803677,1.92782353 24.2655157,2.00320168 C24.2665471,2.00123529 23.0474439,7.04763866 23.0474439,7.04763866 C23.0342422,7.11558824 23.0488879,7.18353782 23.0856054,7.23094958 C23.1208789,7.27661345 23.1763677,7.30042857 23.2460897,7.30042857 L24.5749327,7.30042857 L24.6000987,7.18266387 C24.4734439,7.13241176 24.4581794,7.085 24.4303318,7.03562185 C24.3866009,6.95784034 24.438583,6.7764958 24.4651928,6.66419328 L25.2183139,3.60231092 C25.3913812,2.86513445 25.6461345,2.61190756 26.2212377,2.61190756 L26.76313,2.61190756 C27.1515516,2.61190756 27.2782063,2.53019328 27.3497848,2.22933613 L27.3497848,2.22933613 Z M43.7061883,1.51815966 C42.9464664,1.51815966 42.5419552,1.71261345 42.2634798,2.21207563 C42.0219283,2.63441176 41.8352466,3.29227731 41.830296,3.74367227 C41.8296771,3.75219328 41.8296771,3.76005882 41.8296771,3.76792437 C41.8296771,4.22871429 42.0619462,4.49963866 42.5815605,4.64602521 L43.5353901,4.92153782 C44.018287,5.0604958 44.1453543,5.13368908 44.1453543,5.40395798 L44.1453543,5.42078151 C44.1401973,5.61217647 44.0667623,5.81558824 43.957435,5.93881513 C43.8448072,6.09153782 43.6535874,6.15205882 43.2777489,6.15205882 L42.2968969,6.15205882 C41.7378834,6.15205882 41.6050404,6.01987395 41.5049955,5.7642437 L41.3601883,5.7642437 L41.0491211,7.04960504 C41.0311749,7.12804202 41.0503587,7.30239496 41.2467354,7.30239496 L43.7670404,7.30283193 C44.3421435,7.30283193 44.7107623,7.1335042 45.0009955,6.73673109 C45.2963857,6.3344958 45.5067892,5.44241176 45.5175157,4.86101681 L45.5175157,4.82256303 C45.5175157,4.30693277 45.3145381,4.09303361 44.6418655,3.88328571 L43.6082063,3.5559916 C43.3612915,3.47318487 43.2492825,3.39911765 43.2492825,3.19439496 C43.2492825,3.18936975 43.2492825,3.185 43.2496951,3.17997479 C43.251139,3.01042857 43.3111659,2.83847899 43.4052287,2.73185714 C43.5442601,2.59683193 43.7010314,2.56252941 44.1680448,2.56252941 L45.1895336,2.56252941 C45.5152466,2.56252941 45.6495336,2.4604958 45.7250314,2.15592437 C45.7250314,2.15592437 45.8613812,1.61822689 45.8865471,1.51881513 C45.7757758,1.51881513 43.7061883,1.51815966 43.7061883,1.51815966 L43.7061883,1.51815966 Z M16.3238117,6.94953782 C16.3052466,6.86389076 16.3363946,6.75027731 16.3716682,6.5962437 C16.3716682,6.59515126 17.9032825,0.288731092 17.9043139,0.286546218 C17.9154529,0.221655462 17.9018386,0.154142857 17.8647085,0.106294118 C17.829435,0.0610672269 17.7735336,0.0372521008 17.7046368,0.0372521008 L16.2060269,0.0368151261 L16.1732287,0.171840336 C16.3087534,0.234327731 16.3698117,0.329588235 16.3693991,0.445386555 C16.3679552,0.498915966 16.3473274,0.601168067 16.3287623,0.684848739 L15.8303946,2.73841176 L13.6566368,2.73797479 C13.6566368,2.73797479 14.2527803,0.28807563 14.2531928,0.286546218 C14.2645381,0.221218487 14.2513363,0.153705882 14.2142063,0.105857143 C14.1787265,0.0604117647 14.1234439,0.0368151261 14.053722,0.0368151261 L12.5553184,0.0363781513 L12.5229327,0.171840336 C12.6586637,0.233890756 12.7193094,0.329151261 12.718278,0.445386555 C12.7178655,0.498915966 12.6968251,0.601168067 12.6782601,0.684411765 L11.1344753,7.04479832 C11.1317937,7.06140336 11.1307623,7.07757143 11.1307623,7.09395798 C11.1307623,7.14486555 11.1447892,7.1924958 11.172843,7.22898319 C11.2085291,7.27377311 11.2638117,7.29846218 11.3333274,7.29846218 L12.8201794,7.29846218 L12.8554529,7.16343697 C12.7430314,7.10859664 12.690843,7.02797479 12.6735157,6.94910084 C12.6555695,6.86279832 12.6858924,6.74984034 12.7211659,6.59515126 C12.7211659,6.59471429 13.3874439,3.82363866 13.3874439,3.82363866 L15.5671839,3.82407563 L14.7855964,7.04523529 C14.7820897,7.06140336 14.7804395,7.0780084 14.7804395,7.09395798 C14.7804395,7.14530252 14.7959103,7.19293277 14.8237578,7.22898319 C14.8590314,7.27421008 14.9145202,7.29889916 14.9838296,7.29889916 L16.4706816,7.29955462 L16.506574,7.16387395 C16.3935336,7.1092521 16.3413453,7.02884874 16.3238117,6.94953782 L16.3238117,6.94953782 Z M34.2355516,1.47140336 L33.5067713,1.47140336 C33.1558924,1.47140336 32.958278,1.53804202 32.7093004,1.93372269 L32.3427444,2.54330252 L32.3553274,2.35562185 C32.3716233,2.11113445 32.3064395,1.89177311 32.1705022,1.73817647 C32.0149686,1.56076471 31.7746547,1.47096639 31.4578117,1.47096639 L30.7793632,1.47096639 C30.2824395,1.47096639 30.1355695,1.66651261 30.004583,1.8399916 L29.5020897,2.53893277 L29.7009417,1.76701681 C29.7126996,1.70147059 29.6986726,1.63395798 29.6617489,1.58632773 C29.6258565,1.54044538 29.5707803,1.51728571 29.5016771,1.51728571 L28.1689148,1.51684874 L28.135704,1.63942017 C28.3512646,1.70147059 28.3256861,1.88631092 28.3102152,1.96081513 C27.8394888,3.91868067 27.0847175,7.04763866 27.0847175,7.04763866 C27.071722,7.11602521 27.0855426,7.18353782 27.1226726,7.23138655 C27.1581525,7.27726891 27.2130224,7.30108403 27.2823318,7.30108403 L28.6113812,7.30130252 L28.6369596,7.18310084 C28.5096861,7.13284874 28.4948341,7.08565546 28.4669865,7.03671429 C28.422843,6.95893277 28.4752377,6.77693277 28.5010224,6.66463025 C28.5010224,6.66463025 29.2626009,3.63879832 29.2830224,3.54768908 C29.4670224,2.72617647 29.7126996,2.63594118 30.0949327,2.5852521 C30.1801256,2.57389076 30.2545919,2.57170588 30.3791839,2.57170588 C30.5710224,2.57170588 30.7106726,2.62763866 30.7948341,2.73710084 C30.8742511,2.83891597 30.8983857,2.9857395 30.8649686,3.15878151 C30.8457848,3.25731933 30.1134978,6.28621008 30.0683229,6.47410924 C29.984574,6.82478151 29.9301166,7.04807563 29.9301166,7.04807563 C29.9177399,7.11668067 29.9315605,7.18419328 29.9684843,7.23204202 C30.0033453,7.27726891 30.0596592,7.30130252 30.1279372,7.30130252 L31.4573991,7.30130252 L31.4829776,7.18353782 C31.3559103,7.1335042 31.3406457,7.08609244 31.3130045,7.03715126 C31.268861,6.95893277 31.3210493,6.77758824 31.3470404,6.66528571 L32.1278027,3.54659664 C32.3297489,2.75021008 32.5422152,2.63834454 32.947139,2.5852521 C33.0327444,2.57432773 33.1076233,2.57170588 33.234278,2.57170588 C33.4277668,2.57170588 33.5690673,2.62807563 33.6542601,2.73841176 C33.7334709,2.84153782 33.7576054,2.98683193 33.7241883,3.15878151 C33.7194439,3.18128571 32.7944933,7.04851261 32.7944933,7.04851261 C32.7821166,7.11668067 32.7955247,7.18463025 32.8320359,7.23204202 C32.8679283,7.27770588 32.923417,7.30130252 32.9933453,7.30130252 L34.321157,7.3017395 L34.3461166,7.18353782 C34.2190493,7.1335042 34.2046099,7.08609244 34.1763498,7.03715126 C34.1332377,6.95893277 34.1852197,6.77758824 34.2112108,6.66528571 C34.2112108,6.66528571 35.1223408,2.82187395 35.1749417,2.58743697 C35.1860807,2.53936975 35.2046457,2.43886555 35.2046457,2.31694958 C35.2046457,2.15636134 35.1726726,1.9577563 35.048287,1.79170588 C34.8900717,1.57889916 34.6161345,1.47140336 34.2355516,1.47140336 L34.2355516,1.47140336 Z M39.4801704,3.757 L37.4790673,3.75656303 L37.4947444,3.6962605 C37.7482601,2.73185714 38.0483946,2.43733613 38.7792377,2.43733613 C39.0942242,2.43733613 39.3116413,2.50681513 39.4438655,2.64883193 C39.5476233,2.76047899 39.5973363,2.91232773 39.5936233,3.11442857 C39.589704,3.37945378 39.4801704,3.757 39.4801704,3.757 L39.4801704,3.757 Z M39.0044933,1.46266387 C37.8775964,1.46266387 37.2428789,1.72310084 36.7422422,2.39232773 C36.2432556,3.07597479 35.754583,4.72380672 35.738287,5.785 C35.7378744,5.79876471 35.7378744,5.81209244 35.7378744,5.82629412 C35.7378744,6.44177311 35.9620987,6.91610924 36.3571211,7.13088235 C36.6502422,7.28753782 37.1085919,7.35657983 37.8441794,7.35723529 C38.6430942,7.35723529 39.103713,7.29627731 39.3646547,7.14421008 C39.5498924,7.03234454 39.6678834,6.8337395 39.7840179,6.35765546 L39.9694619,5.6099916 L39.7895874,5.6099916 C39.4609865,6.06051261 39.1270224,6.20427731 38.2288879,6.20427731 C37.7441345,6.20427731 37.4697848,6.15642857 37.3387982,6.05046218 C37.1698565,5.93815966 37.08487,5.75004202 37.0900269,5.49419328 C37.0927085,5.3897563 37.1160179,5.25320168 37.1378834,5.13259664 L37.2480359,4.63357143 L39.6792287,4.63357143 C40.2233901,4.63357143 40.3533453,4.52738655 40.4463767,4.34735294 C40.5841704,4.05523529 40.7104126,3.35978992 40.7159821,2.92521849 C40.7242332,2.45787395 40.6237758,2.11834454 40.4088341,1.88631092 C40.1439731,1.60096639 39.6852108,1.46266387 39.0044933,1.46266387 L39.0044933,1.46266387 Z M9.03332735,2.64140336 L2.49575785,2.64031092 L2.49575785,2.97153782 L4.21178475,4.69081513 L8.5409417,4.6912521 L9.03332735,2.64140336 Z M5.10125561,5.24642857 L5.10125561,5.5839916 L6.81253812,7.29693277 L7.91591928,7.29736975 L8.40809865,5.24686555 L5.10125561,5.24642857 Z M9.6581435,0.0363781513 L0,0.0348487395 L0,0.467453782 L1.61309417,2.08557143 L9.16637668,2.0860084 L9.6581435,0.0363781513 Z M8.36189238,7.29736975 L9.34356951,7.29736975 L9.83636771,5.24642857 L8.85530942,5.24642857 L8.36189238,7.29736975 Z M8.98835874,4.6912521 L9.96941704,4.6912521 L10.4618027,2.64031092 L9.48053812,2.64031092 L8.98835874,4.6912521 Z M9.61317489,2.0860084 L10.5942332,2.0860084 L11.0870314,0.0352857143 L10.105148,0.0348487395 L9.61317489,2.0860084 Z" id="Fill-1" fill="#FFFFFF" mask="url(#mask-14)"></path>
                                        </g>
                                        <path d="M11.3484674,12.1533191 L11.306641,12.3888103 C11.2195698,12.4105581 11.133504,12.4285714 11.0305468,12.4285714 C10.7122241,12.4285714 10.5169674,12.2585433 10.5885548,11.8560994 L10.7633005,10.8745933 L10.4912281,10.8745933 L10.5356686,10.6246036 L10.807741,10.6246036 L10.8934046,10.1428571 L11.1489878,10.1428571 L11.0631231,10.6246036 L11.5672515,10.6246036 L11.522811,10.8745933 L11.0186826,10.8745933 L10.8471543,11.8380861 C10.8000997,12.102794 10.9265842,12.1752866 11.1290801,12.1752866 C11.1920207,12.1752866 11.2628038,12.1678177 11.3484674,12.1533191" id="Fill-4" fill="#FFFFFF"></path>
                                        <path d="M13.2984913,11.1783173 L13.0931427,12.2857143 L12.827299,12.2857143 L13.0257399,11.2143088 C13.0774433,10.9358136 12.9549877,10.7402744 12.6960518,10.7402744 C12.4369065,10.7402744 12.2171144,10.9391055 12.1660389,11.2143088 L11.9673888,12.2857143 L11.7017544,12.2857143 L12.2049735,9.57142857 L12.4706079,9.57142857 L12.257305,10.7220592 C12.39546,10.573704 12.588249,10.4832864 12.8057385,10.4832864 C13.1994802,10.4832864 13.3742673,10.7692432 13.2984913,11.1783173" id="Fill-6" fill="#FFFFFF"></path>
                                        <path d="M14.0428795,11.3376051 L15.0627129,11.3376051 C15.1173074,11.0092753 14.9308431,10.826747 14.6727235,10.826747 C14.401156,10.826747 14.1500614,11.0309575 14.0428795,11.3376051 M15.260618,11.5856224 L13.9892886,11.5856224 C13.9599842,11.939838 14.1578893,12.1697131 14.4756213,12.1697131 C14.6777414,12.1697131 14.8531664,12.0747983 15.0115306,11.9287757 L15.1269418,12.1183839 C14.9312445,12.3084346 14.6915907,12.4285714 14.4266468,12.4285714 C13.9399127,12.4285714 13.6440586,12.0236904 13.7359862,11.5019912 C13.8273115,10.983832 14.2608561,10.5714286 14.7243073,10.5714286 C15.1383825,10.5714286 15.40152,10.8997583 15.3178218,11.374332 C15.3011625,11.4692467 15.2728616,11.5528779 15.260618,11.5856224" id="Fill-8" fill="#FFFFFF"></path>
                                        <g id="Group-12" transform="translate(16.409357, 10.428571)">
                                            <mask id="mask-16" fill="white">
                                                <use xlink:href="#path-15"></use>
                                            </mask>
                                            <g id="Clip-11"></g>
                                            <path d="M1.74711962,0.9338 C1.81779479,0.559014286 1.61948857,0.283442857 1.27671398,0.283442857 C0.988608719,0.283442857 0.660384902,0.477585714 0.575158958,0.929942857 C0.489933014,1.38251429 0.74062201,1.58051429 1.03205316,1.58051429 C1.37150186,1.58051429 1.67665231,1.30815714 1.74711962,0.9338 M2.0188033,0.929942857 C1.92276821,1.43887143 1.49892504,1.83101429 1.02249123,1.83101429 C0.775751728,1.83101429 0.562479001,1.72515714 0.46332589,1.54151429 L0.296199894,2.42865714 L0.0322073365,2.42865714 L0.476629452,0.0715142857 L0.723368953,0.0715142857 L0.671401914,0.347085714 C0.839151515,0.1493 1.09753163,0.0325142857 1.36173206,0.0325142857 C1.84169963,0.0325142857 2.11400691,0.424657143 2.0188033,0.929942857" id="Fill-10" fill="#FFFFFF" mask="url(#mask-16)"></path>
                                        </g>
                                        <path d="M19.8304583,11.7062017 L19.8382675,11.6626162 L19.3593013,11.6626162 C19.1346357,11.6626162 18.9978741,11.7462473 18.968239,11.9141734 C18.9349997,12.1040029 19.073964,12.1951564 19.2525752,12.1951564 C19.5166874,12.1951564 19.7816006,11.9834235 19.8304583,11.7062017 M20.1574449,11.2940195 L19.9648171,12.3885258 L19.7269359,12.3885258 L19.767584,12.1586507 C19.6216114,12.3301168 19.4161686,12.4285714 19.1782873,12.4285714 C18.8545046,12.4285714 18.6500629,12.2389632 18.7047275,11.9287757 C18.7573898,11.6296504 19.0199001,11.4327411 19.3699139,11.4327411 L19.8785151,11.4327411 L19.9055471,11.279196 C19.9582093,10.980292 19.8326609,10.8305082 19.5947797,10.8305082 C19.3933416,10.8305082 19.2325515,10.9364852 19.0757661,11.1150311 L18.9341988,10.9619286 C19.1336346,10.6920079 19.3993487,10.5714286 19.6570533,10.5714286 C20.0234865,10.5714286 20.2415443,10.8159059 20.1574449,11.2940195" id="Fill-13" fill="#FFFFFF"></path>
                                        <path d="M21.7894737,10.585402 L21.744232,10.8227386 L21.6452399,10.8227386 C21.3746199,10.8227386 21.0880201,10.9971947 21.0261759,11.3219711 L20.8425113,12.2857143 L20.5789474,12.2857143 L20.9031103,10.585402 L21.1494491,10.585402 L21.1029623,10.8297253 C21.2579877,10.6622559 21.4704991,10.5714286 21.6688984,10.5714286 C21.723894,10.5714286 21.7566838,10.5784153 21.7894737,10.585402" id="Fill-15" fill="#FFFFFF"></path>
                                        <path d="M23.4035088,10.9581674 L23.1941208,11.1187923 C23.1062098,10.9437864 22.9745431,10.8305082 22.7667535,10.8305082 C22.4306938,10.8305082 22.1315967,11.1260935 22.0662628,11.4980088 C22.0003296,11.8739065 22.1955319,12.1697131 22.5317914,12.1697131 C22.7359847,12.1697131 22.9068117,12.0599748 23.0562604,11.8847476 L23.2099048,12.0418326 C23.0270899,12.2754689 22.7695507,12.4285714 22.4830408,12.4285714 C22.0149148,12.4285714 21.7142193,12.0199292 21.8059264,11.4980088 C21.8968344,10.980292 22.3409846,10.5714286 22.8089108,10.5714286 C23.0990171,10.5714286 23.3026109,10.7245311 23.4035088,10.9581674" id="Fill-17" fill="#FFFFFF"></path>
                                        <path d="M23.8615946,11.3376051 L24.8814332,11.3376051 C24.936028,11.0092753 24.7497635,10.826747 24.4916425,10.826747 C24.2198729,10.826747 23.968777,11.0309575 23.8615946,11.3376051 M25.0793393,11.5856224 L23.8080034,11.5856224 C23.7786989,11.939838 23.976605,12.1697131 24.2943386,12.1697131 C24.4964597,12.1697131 24.6718856,12.0747983 24.8300499,11.9287757 L24.9456624,12.1183839 C24.7499642,12.3084346 24.5103091,12.4285714 24.2453639,12.4285714 C23.7586273,12.4285714 23.4627717,12.0236904 23.5546997,11.5019912 C23.6460255,10.983832 24.0795723,10.5714286 24.5430259,10.5714286 C24.9569025,10.5714286 25.220242,10.8997583 25.1365434,11.374332 C25.119884,11.4692467 25.091583,11.5528779 25.0793393,11.5856224" id="Fill-19" fill="#FFFFFF"></path>
                                        <polygon id="Fill-21" fill="#FFFFFF" points="25.8345951 12.2857143 25.5555556 12.2857143 26.0837533 9.57142857 26.3625731 9.57142857"></polygon>
                                        <g id="Group-25" transform="translate(27.169591, 10.428571)">
                                            <mask id="mask-18" fill="white">
                                                <use xlink:href="#path-17"></use>
                                            </mask>
                                            <g id="Clip-24"></g>
                                            <path d="M1.73757847,0.9338 C1.80825364,0.559014286 1.60994742,0.283442857 1.26696497,0.283442857 C0.97906757,0.283442857 0.650843753,0.477585714 0.56561781,0.929942857 C0.480391866,1.38251429 0.731080861,1.58051429 1.02271988,1.58051429 C1.36196071,1.58051429 1.6669033,1.30815714 1.73757847,0.9338 M2.00926215,0.929942857 C1.91322706,1.43887143 1.48979963,1.83101429 1.01315795,1.83101429 C0.766210579,1.83101429 0.552937852,1.72515714 0.453784742,1.54151429 L0.286658745,2.42865714 L0.0226661882,2.42865714 L0.467088304,0.0715142857 L0.713827804,0.0715142857 L0.661860766,0.347085714 C0.829610367,0.1493 1.08799048,0.0325142857 1.35219091,0.0325142857 C1.83195061,0.0325142857 2.10446576,0.424657143 2.00926215,0.929942857" id="Fill-23" fill="#FFFFFF" mask="url(#mask-18)"></path>
                                        </g>
                                        <path d="M29.7797233,11.3376051 L30.7995619,11.3376051 C30.8541567,11.0092753 30.6678921,10.826747 30.4097712,10.826747 C30.1380016,10.826747 29.8869057,11.0309575 29.7797233,11.3376051 M30.997468,11.5856224 L29.7261321,11.5856224 C29.6968275,11.939838 29.8947336,12.1697131 30.2124672,12.1697131 C30.4145884,12.1697131 30.5900143,12.0747983 30.7481786,11.9287757 L30.863791,12.1183839 C30.6680928,12.3084346 30.4284378,12.4285714 30.1634925,12.4285714 C29.6767559,12.4285714 29.3809004,12.0236904 29.4728283,11.5019912 C29.5641542,10.983832 29.997701,10.5714286 30.4611545,10.5714286 C30.8750312,10.5714286 31.1383707,10.8997583 31.0546721,11.374332 C31.0380126,11.4692467 31.0097117,11.5528779 30.997468,11.5856224" id="Fill-26" fill="#FFFFFF"></path>
                                        <path d="M31.755301,11.5037684 C31.6880135,11.8801623 31.8853903,12.168997 32.2250904,12.168997 C32.5647905,12.168997 32.8724781,11.876394 32.9391539,11.5037684 C33.0078688,11.1198377 32.8039672,10.831003 32.4675294,10.831003 C32.1245669,10.831003 31.8199378,11.123606 31.755301,11.5037684 M33.2056534,11.4997783 C33.1126742,12.0189271 32.6561385,12.4285714 32.1786008,12.4285714 C31.7049373,12.4248031 31.3968419,12.0226955 31.4904328,11.4997783 C31.5838197,10.9770828 32.0328111,10.5714286 32.514019,10.5714286 C32.9880903,10.5714286 33.2990403,10.9770828 33.2056534,11.4997783" id="Fill-28" fill="#FFFFFF"></path>
                                        <g id="Group-32" transform="translate(33.356725, 10.428571)">
                                            <mask id="mask-20" fill="white">
                                                <use xlink:href="#path-19"></use>
                                            </mask>
                                            <g id="Clip-31"></g>
                                            <path d="M1.71525343,0.9338 C1.7859286,0.559014286 1.58762238,0.283442857 1.24463993,0.283442857 C0.956742531,0.283442857 0.628518713,0.477585714 0.54329277,0.929942857 C0.458066826,1.38251429 0.708755821,1.58051429 1.00039484,1.58051429 C1.33963567,1.58051429 1.64457826,1.30815714 1.71525343,0.9338 M1.98693711,0.929942857 C1.89090202,1.43887143 1.46747459,1.83101429 0.990832908,1.83101429 C0.74388554,1.83101429 0.530612812,1.72515714 0.431459702,1.54151429 L0.264333705,2.42865714 L0.000341148325,2.42865714 L0.444763264,0.0715142857 L0.691502764,0.0715142857 L0.639535726,0.347085714 C0.807285327,0.1493 1.06566544,0.0325142857 1.32986587,0.0325142857 C1.80962557,0.0325142857 2.08214072,0.424657143 1.98693711,0.929942857" id="Fill-30" fill="#FFFFFF" mask="url(#mask-20)"></path>
                                        </g>
                                        <polygon id="Fill-33" fill="#FFFFFF" points="35.9223144 12.2857143 35.6432749 12.2857143 36.1714726 9.57142857 36.4502924 9.57142857"></polygon>
                                        <path d="M36.7738753,11.3376051 L37.7937139,11.3376051 C37.8485094,11.0092753 37.6620442,10.826747 37.4039232,10.826747 C37.1321536,10.826747 36.8810577,11.0309575 36.7738753,11.3376051 M37.99162,11.5856224 L36.7202841,11.5856224 C36.6909796,11.939838 36.8888857,12.1697131 37.2066193,12.1697131 C37.4087404,12.1697131 37.5841663,12.0747983 37.7423306,11.9287757 L37.8579431,12.1183839 C37.6622449,12.3084346 37.4225898,12.4285714 37.1576446,12.4285714 C36.670908,12.4285714 36.3750524,12.0236904 36.4669804,11.5019912 C36.5583062,10.983832 36.991853,10.5714286 37.4553066,10.5714286 C37.8691832,10.5714286 38.1325227,10.8997583 38.0488241,11.374332 C38.0321647,11.4692467 38.0040644,11.5528779 37.99162,11.5856224" id="Fill-35" fill="#FFFFFF"></path>
                                    </g>
                                </g>
                                <path d="M93.8365794,42.329379 L135.501859,37.1014493 L177.167138,42.329379 C179.16803,42.5804399 180.669145,44.2816772 180.669145,46.2982583 L180.669145,51.2694512 C180.669145,53.4785902 178.878284,55.2694512 176.669145,55.2694512 C176.52626,55.2694512 176.383479,55.2617952 176.241413,55.2465161 L135.501859,50.8649948 L94.7623041,55.2465161 C92.5658318,55.4827458 90.5937372,53.8936551 90.3575075,51.6971828 C90.3422285,51.5551176 90.3345725,51.4123357 90.3345725,51.2694512 L90.3345725,46.2982583 C90.3345725,44.2816772 91.8356876,42.5804399 93.8365794,42.329379 Z" id="Rectangle-23" fill="#204C7F"></path>
                                <path d="M151.561338,185.507246 L166.6171,185.507246 L166.6171,200.407867 C166.6171,200.960152 166.169385,201.407867 165.6171,201.407867 L152.561338,201.407867 C152.009054,201.407867 151.561338,200.960152 151.561338,200.407867 L151.561338,185.507246 Z" id="Rectangle-10" fill="#FFFFFF"></path>
                                <path d="M131.486989,212.008282 L148.550186,212.008282 C150.213199,212.008282 151.561338,213.432072 151.561338,215.188406 L151.561338,224.728778 C151.561338,226.485113 150.213199,227.908903 148.550186,227.908903 L131.486989,227.908903 C129.823975,227.908903 128.475836,226.485113 128.475836,224.728778 L128.475836,215.188406 C128.475836,213.432072 129.823975,212.008282 131.486989,212.008282 Z" id="Rectangle-10" fill="#FFFFFF"></path>
                                <polygon id="Rectangle-10" fill="#EF9C64" points="132.490706 217.308489 147.546468 217.308489 147.546468 219.428571 132.490706 219.428571"></polygon>
                                <rect id="Rectangle-10" fill="#EF9C64" x="132.490706" y="221.548654" width="15.0557621" height="2.12008282"></rect>
                                <path d="M152.561338,234.269151 L165.6171,234.269151 C166.169385,234.269151 166.6171,234.716866 166.6171,235.269151 L166.6171,250.169772 L151.561338,250.169772 L151.561338,235.269151 C151.561338,234.716866 152.009054,234.269151 152.561338,234.269151 Z" id="Rectangle-10" fill="#FFFFFF"></path>
                                <path d="M165.882377,178.004052 C173.841304,189.162272 181.833099,207.255992 183.583307,234.610695 C183.647399,235.610498 183.680297,236.591535 183.680297,237.553803 C183.68684,242.933294 182.638359,247.783878 180.574264,251.853046 C179.037696,254.898524 176.95388,257.440687 174.646564,259.387404 C171.174086,262.320276 167.313768,263.946237 163.706531,264.877795 C160.084505,265.807646 156.649824,266.066981 153.680223,266.070393 C148.253756,266.061863 144.339206,265.184902 143.969444,265.109831 C139.552018,264.120264 136.741825,259.600673 137.694989,255.012836 C138.646511,250.426705 143.001489,247.509188 147.418915,248.498755 L146.677747,252.066315 L147.389334,248.49193 L146.677747,252.066315 L147.389334,248.49193 C147.422202,248.503874 150.248829,249.083965 153.680223,249.07714 C155.453438,249.080552 157.381132,248.923586 159.119836,248.539703 C160.424686,248.254776 161.617786,247.843593 162.597245,247.338573 C163.335126,246.961514 163.956326,246.536683 164.478924,246.064079 C165.259533,245.34579 165.859369,244.555843 166.381967,243.293292 C166.891417,242.032447 167.310481,240.229046 167.312124,237.553803 C167.312124,236.989068 167.294047,236.388503 167.251319,235.750403 C165.644086,211.255208 158.774725,196.659095 152.712267,188.092516 C150.683231,185.239833 152.944533,184.982624 152.712267,184.289326 C153.26821,186.865518 151.619232,162.186335 152.712267,162.186335 C153.599697,162.638465 157.934954,166.823651 165.882377,178.004052 Z" id="Fill-2" fill="#D2B7A5"></path>
                                <path d="M149.937267,156.886128 C150.69036,157.273231 152.697465,157.529322 163.066735,170.184615 C168.23713,176.509635 173.421765,184.764915 177.290069,195.179915 C181.161537,205.587909 183.686614,218.136356 183.680297,232.80949 C183.680297,233.119523 183.678703,233.431307 183.677121,233.744843 L183.604343,243.809524 L165.422524,243.648377 L165.495302,233.583696 C165.496884,233.32446 165.498466,233.066975 165.498466,232.80949 C165.492138,220.665663 163.451192,210.865473 160.473626,202.836149 C158.238079,196.815908 156.972879,194.78094 154.05227,190.591118 C149.672939,184.309889 152.406269,187.890471 149.937267,184.746191 C148.845133,183.355356 150.491134,173.826077 149.937267,156.886128 Z" id="Fill-3" fill="#204C7F"></path>
                            </g>
                        </g>
                    </g>
                </g>
            </g>
        </g>
    </g>
</svg>