<svg xmlns="http://www.w3.org/2000/svg" width="60" height="60" viewBox="0 0 381 382">
    <g fill="none" fill-rule="evenodd">
        <path fill="#70706F" fill-rule="nonzero" d="M360.525 248.8l-63.879-34.738c-4.798-2.557-10.646-2.557-15.445 0l-34.788 18.948-29.09-15.94c-4.35-2.407-9.298-2.407-13.646 0-2.55 1.353-4.949 2.706-7.348 4.06v-5.414c0-5.263-3.149-10.076-7.648-12.632l-57.13-31.28c-4.35-2.406-9.298-2.406-13.646 0L8.89 231.206c-4.648 2.557 11.547 13.534 11.547 18.798 0 30.076-16.795 14.286-19.344 27.068-.75 3.76 3.149 7.068 7.797 9.625l57.132 31.28c4.348 2.405 9.447 2.405 13.795 0 2.55-1.354 3.449-1.956 3.449-1.956 0 7.67 6.748 13.384 11.396 15.94l57.132 31.28c4.348 2.406 9.446 2.406 13.795 0 17.694-9.624 32.69-17.745 45.135-24.512 1.5 2.707 3.6 4.962 6.448 6.466l63.88 34.889c4.798 2.556 10.646 2.556 15.444 0l63.88-34.889c5.098-2.857 11.995-7.67 6.747-13.233-9.897-10.527-34.489 15.489-34.489-52.634.15-6.165 32.99-27.82 27.891-30.527z" opacity=".3" style="mix-blend-mode:multiply"/>
        <g>
            <path fill="#F4BEB0" fill-rule="nonzero" d="M55.182 188.865c-.151.451-.453 1.203-.453 2.105v.602c0 .451 0 .902.151 1.203.15 1.052.302 1.955.302 1.955s-.151 1.353-1.056 1.353c-.15 0-.301 0-.452-.15-1.357-.602-5.428-2.406-6.634-3.158h-.15c-.905-.602-1.207-.902-1.207-2.256v-4.962c0-.601 0-1.053.302-1.353l9.197 4.661z" transform="translate(246 76)"/>
            <path fill="#EE936E" fill-rule="nonzero" d="M97.85 30.224v142.852c0 3.308-1.96 6.466-5.127 7.97l-39.05 20c-2.864 1.503-6.482 1.503-9.347 0l-39.05-20c-3.165-1.654-5.125-4.662-5.125-7.97V30.224c0-3.308 1.96-6.465 5.126-8.12l39.05-19.999c2.864-1.504 6.482-1.504 9.347 0l39.05 20c3.165 1.654 5.125 4.811 5.125 8.12z" transform="translate(246 76)"/>
            <path fill="#FDDACE" fill-rule="nonzero" d="M52.468 201.647c.452-.15.904-.301 1.206-.602l39.05-20c3.165-1.653 5.125-4.66 5.125-7.969 0 3.308-1.96 6.466-5.126 7.97l-39.05 20c-.3.3-.753.45-1.205.6z" transform="translate(246 76)"/>
            <path d="M44.326 2.105l-39.05 20C2.715 23.457.906 25.863.303 28.57v146.16c.452 2.707 2.261 5.113 4.975 6.466l39.05 20c.451.3 1.055.45 1.658.601h5.277c.904-.15 1.658-.601 2.412-.902l39.05-19.699c3.165-1.654 4.824-4.661 4.824-7.97l.301-142.851c0-3.308-1.96-6.466-5.126-7.97l-39.05-20c-1.507-.75-3.015-1.202-4.673-1.202-1.508-.15-3.166.15-4.674.902z" transform="translate(246 76)"/>
            <path fill="#FFF" fill-rule="nonzero" d="M53.825 2.105c-1.357-.752-3.016-1.052-4.523-1.203 1.507.15 3.015.451 4.523 1.203z" transform="translate(246 76)"/>
            <path fill="#F2AA84" fill-rule="nonzero" d="M55.483 45.713c6.935-3.459 18.243-9.173 27.742-13.985-9.8 4.962-21.108 10.676-27.742 13.985z" transform="translate(246 76)"/>
            <path fill="#F19A84" fill-rule="nonzero" d="M18.243 32.931L5.277 26.315l12.966 6.616zM42.97 45.562l-11.76-6.015 11.76 6.015.302.15-.302-.15z" transform="translate(246 76)"/>
            <path fill="#FFF" fill-rule="nonzero" d="M19.45 44.66c-1.358-.752-1.66-1.203-1.66-3.007 0 1.804.302 2.255 1.66 3.007z" transform="translate(246 76)"/>
            <path fill="#EC856D" fill-rule="nonzero" d="M59.252 183.452l9.951-4.36c.302-.151.452-.452.302-.903-.151-.3-.302-.3-.603-.3H68.6l-10.102 4.36c-.301.15-.452.451-.301.902.15.3.301.3.603.3h.452zm0 3.76l9.951-4.362c.302-.15.452-.45.302-.902-.151-.3-.302-.3-.603-.3H68.6l-10.102 4.36c-.301.15-.452.451-.301.902.15.15.301.301.603.301h.452zm-1.357 3.758c-1.206 0-2.412-.902-2.412-2.255v-7.519c0-.902.452-1.654 1.357-1.955l11.308-5.262c.301-.15.754-.301 1.055-.301 1.206 0 2.412.902 2.412 2.255v7.519c0 .902-.452 1.654-1.357 1.955l-11.307 5.263c-.302.15-.603.3-1.056.3zm-5.427 10.677c.452-.15.904-.301 1.206-.602l39.05-20c3.165-1.653 5.125-4.66 5.125-7.969V30.224c0-1.503-.301-2.857-1.055-4.21-.302 0-.452-.15-.754-.15h-.15c-.453 0-1.056.15-1.508.3-3.167 1.504-7.087 3.459-11.157 5.564-9.65 4.812-20.807 10.526-27.742 13.985-.301.15-.603.3-1.055.45-3.166 1.204-5.277 4.06-5.277 7.369v107.213c0 9.474.15 25.414.15 36.24 0 2.256 1.357 3.91 3.167 4.662z" transform="translate(246 76)"/>
            <path fill="#F3D9C8" fill-rule="nonzero" d="M68.902 177.888c.301 0 .452.15.603.3.15.302 0 .753-.302.903l-9.95 4.36h-.302c-.302 0-.453-.15-.603-.3-.151-.3 0-.752.301-.902l10.102-4.36h.15zm0 3.76c.301 0 .452.15.603.3.15.3 0 .752-.302.902l-9.95 4.361h-.302c-.302 0-.453-.15-.603-.3-.151-.301 0-.752.301-.903l10.102-4.36h.15zm-10.856 9.322c.302 0 .754-.15 1.056-.3l11.307-5.263c.754-.301 1.357-1.203 1.357-1.955v-7.519c0-1.353-1.206-2.255-2.412-2.255-.302 0-.754.15-1.056.3l-11.307 5.263c-.754.452-1.357 1.203-1.357 1.955v7.519c0 1.203 1.055 2.105 2.412 2.255z" transform="translate(246 76)"/>
            <path fill="#F0AD80" fill-rule="nonzero" d="M93.477 26.616c.905-.452 1.357-1.354 1.357-2.106 0-.902-.452-1.654-1.357-2.105l-39.35-20.3c-1.509-.752-3.016-1.052-4.675-1.203h-.15c-1.659 0-3.167.451-4.674 1.203L30.606 9.323l2.865-1.504c13.72 7.218 40.858 21.353 44.627 23.458 1.207.752 1.96 1.353 2.262 1.955 0 .15 0 .15 13.117-6.616zM49.15 47.818c2.11 0 4.221-.451 6.03-1.504l.302-.15 11.91-6.165c-.602-1.354-1.507-1.955-1.507-1.955L21.56 13.984l-6.03 3.158-10.253 5.263-.905.451c-.754.451-1.055 1.203-1.055 1.955 0 .902.452 1.654 1.357 2.105 2.864 1.504 6.483 3.158 10.252 5.113 9.95 4.962 21.41 10.676 28.043 14.135 1.81.902 3.92 1.353 5.88 1.503l.302.15z" transform="translate(246 76)"/>
            <path fill="#FFF" fill-rule="nonzero" d="M21.41 13.984l44.325 24.06s2.413 1.503 2.111 5.413c-.15 2.256-.452 4.21-.452 4.21s.15 2.557 2.261 1.805c1.96-.752 8.293-3.609 9.499-4.511 1.357-.752 1.658-1.203 1.658-3.158v-6.767c0-1.503-.452-2.556-2.714-3.91-3.769-2.105-30.907-16.24-44.627-23.457l-12.062 6.315z" transform="translate(246 76)"/>
            <path fill="#FBC2B3" fill-rule="nonzero" d="M67.394 39.999c.301.751.603 1.654.603 2.857v.751c0 .602-.15 1.053-.15 1.654-.152 1.504-.302 2.557-.302 2.557s.15 1.955 1.507 1.955c.151 0 .453 0 .754-.15 1.96-.753 7.539-3.309 9.348-4.362l.15-.15c1.358-.752 1.66-1.203 1.66-3.158v-6.766c0-.752-.152-1.354-.453-1.955l-13.117 6.767z" transform="translate(246 76)"/>
        </g>
        <g fill-rule="nonzero">
            <path fill="#EC856D" d="M.902 74.25v30c0 5.25 2.858 10.05 7.52 12.6l57.295 31.2c4.36 2.4 9.474 2.4 13.835 0L188.879 88.8c4.662-2.55 7.52-7.35 7.52-12.6V46.05c0-5.25-3.159-10.05-7.67-12.6l-57.295-31.2c-4.361-2.4-9.324-2.4-13.685 0L8.42 61.65C3.76 64.2.902 69 .902 74.25z" transform="translate(0 162)"/>
            <path fill="#F0AA80" d="M188.729 33.75c-.15-.15-.15-.15 0 0l-57.446-31.2c-2.105-1.2-4.36-1.8-6.767-1.8h-.3c-2.256 0-4.663.6-6.768 1.8l-13.233 7.2-19.25 10.35-15.038 8.1c-.45.3-3.609 1.95-4.06 2.25l-13.233 7.2L23.61 53.4 8.572 61.65c-.451.3-.903.45-1.354.75-1.052.75-1.654 1.95-1.654 3v.15c0 1.35.752 2.55 1.955 3.3 4.21 2.25 9.324 4.95 14.888 7.95 14.437 7.65 31.129 16.5 40.904 21.75h.3c2.707 1.5 5.715 2.25 8.572 2.25h.451c3.008 0 6.016-.75 8.873-2.4l.451-.3L108.275 84l14.436-7.8c3.91-1.8 8.572-4.65 10.377-5.7l.45-.3 36.243-19.65 18.948-10.35c1.203-.75 1.955-1.95 1.955-3.3-.15-1.2-.752-2.55-1.955-3.15z" transform="translate(0 162)"/>
            <path fill="#EE936E" d="M67.672 148.95c-.602-.15-1.203-.45-1.805-.9l-57.446-31.2C3.76 114.3.902 109.5.902 104.25v-30c0-2.25.602-4.5 1.504-6.45.3-.15.752-.15 1.053-.15h.3c.752 0 1.504.15 2.106.6 4.662 2.4 10.376 5.4 16.391 8.55 14.136 7.5 30.678 16.35 40.904 21.75h.301c.451.3.902.45 1.504.75 4.662 1.95 7.67 6.45 7.67 11.55v5.4c-.151 14.7-.151 8.7-.151 25.5-.15 3.3-2.105 6-4.812 7.2z" transform="translate(0 162)"/>
            <path fill="#F49B84" d="M81.356 98.55L81.808 98.25 108.275 84 99.102 88.8 81.808 98.25z" transform="translate(0 162)"/>
            <path fill="#FFF" d="M166.773 21.75L45.866 86.7s-3.458 2.4-3.007 8.55c.3 3.6.752 6.75.752 6.75s-.301 4.05-3.158 2.85c-2.858-1.35-11.88-5.7-13.835-7.05-1.955-1.2-2.407-1.95-2.407-4.95V82.2c0-2.4.602-4.05 3.91-6.3 5.414-3.3 35.49-19.8 121.208-63.75l17.444 9.6z" transform="translate(0 162)"/>
            <path fill="#F6D9C8" d="M184.97 70.35c.45 0 .751.15.902.6.3.45 0 1.05-.451 1.35l-14.738 6.9-.45.15c-.302 0-.753-.15-.903-.6-.301-.45 0-1.05.45-1.35l14.738-6.9.451-.15zm0 5.85c.45 0 .751.15.902.6.3.45 0 1.05-.451 1.35l-14.738 6.9-.45.15c-.302 0-.753-.15-.903-.6-.301-.45 0-1.05.45-1.35l14.738-6.9.451-.15zm-16.242 14.55c.602 0 1.203-.15 1.654-.3l16.542-8.25c1.203-.6 1.955-1.8 1.955-3.15V67.2c0-1.95-1.654-3.45-3.458-3.45-.602 0-1.053.15-1.504.3l-16.542 8.25c-1.203.6-1.955 1.8-1.955 3.15v11.7c-.15 2.1 1.504 3.45 3.308 3.6z" transform="translate(0 162)"/>
            <path fill="#F4BEB0" d="M43.61 89.55c-.45 1.05-.902 2.55-.902 4.35v1.05c0 .9.15 1.8.15 2.55.302 2.4.602 4.05.602 4.05s-.15 3-2.105 3c-.3 0-.602 0-1.053-.3-2.707-1.2-10.978-5.25-13.534-6.75l-.15-.15c-1.955-1.2-2.407-1.95-2.407-4.8v-10.5c0-1.2.15-2.1.602-3l18.798 10.5z" transform="translate(0 162)"/>
        </g>
        <g fill-rule="nonzero">
            <path fill="#EC856D" d="M.353 73.8v30c0 5.25 2.858 10.05 7.52 12.6l57.295 31.2c4.361 2.4 9.474 2.4 13.835 0l109.328-59.25c4.661-2.55 7.519-7.35 7.519-12.6V45.6c0-5.25-3.158-10.05-7.67-12.6L130.885 1.8c-4.361-2.4-9.324-2.4-13.685 0L7.873 61.05C3.21 63.75.353 68.7.353 73.8z" transform="translate(86 209)"/>
            <path fill="#F0AA80" d="M188.03 33.3L130.584 2.1C128.479.9 126.223.3 123.817.3h-.301c-2.256 0-4.662.6-6.767 1.8l-13.234 7.2-19.249 10.35-15.038 8.1c-.45.3-3.609 1.95-4.06 2.25l-13.234 7.2-29.023 15.75L7.873 61.2c-.452.3-.903.45-1.354.75-1.053.75-1.654 1.95-1.654 3v.15c0 1.35.752 2.55 1.955 3.3 4.21 2.25 9.324 4.95 14.888 7.95C36.144 84 52.837 92.85 62.61 98.1h.301c2.707 1.5 5.715 2.25 8.572 2.25h.451c3.008 0 6.015-.75 8.873-2.4l.45-.3 26.468-14.25 14.437-7.8c3.91-1.8 8.571-4.65 10.376-5.7l.451-.3 36.242-19.65L188.18 39.6c1.203-.75 1.955-1.95 1.955-3.3-.15-1.05-.902-2.25-2.105-3z" transform="translate(86 209)"/>
            <path fill="#EE936E" d="M66.973 148.5c-.602-.15-1.204-.45-1.805-.9L7.873 116.4c-4.662-2.55-7.52-7.35-7.52-12.6v-30c0-2.25.602-4.5 1.504-6.45.301-.15.752-.15 1.053-.15h.3c.753 0 1.505.15 2.106.6 4.662 2.4 10.376 5.4 16.392 8.55C35.844 83.85 52.385 92.7 62.61 98.1h.301c.451.3.903.45 1.504.75 4.662 1.95 7.67 6.45 7.67 11.55v5.4c-.15 14.7-.15 8.7-.15 25.5-.151 3.45-2.106 6.15-4.963 7.2z" transform="translate(86 209)"/>
            <path fill="#F1A782" d="M53.589 98.25L53.589 98.25 53.438 98.25z" transform="translate(86 209)"/>
            <path fill="#F49B84" d="M80.657 98.1L81.108 97.95 107.576 83.55 98.402 88.5 81.108 97.95z" transform="translate(86 209)"/>
            <path fill="#FFF" d="M166.074 21.3L45.167 86.25s-3.459 2.4-3.007 8.55c.3 3.6.751 6.75.751 6.75s-.3 4.05-3.158 2.85c-2.857-1.35-11.88-5.7-13.835-7.05-1.955-1.2-2.406-1.95-2.406-4.95V81.75c0-2.4.602-4.05 3.91-6.3 5.414-3.3 35.49-19.8 121.208-63.75l17.444 9.6z" transform="translate(86 209)"/>
            <path fill="#F6D9C8" d="M184.27 70.05c.451 0 .752.15.903.6.3.45 0 1.05-.452 1.35l-14.737 6.9-.451.15c-.3 0-.752-.15-.902-.6-.301-.45 0-1.05.45-1.35l14.738-6.9c.15 0 .15 0 .451-.15zm0 5.85c.451 0 .752.15.903.6.3.45 0 1.05-.452 1.35l-14.737 6.9-.451.15c-.3 0-.752-.15-.902-.6-.301-.45 0-1.05.45-1.35l14.738-6.9c.15 0 .15 0 .451-.15zm-16.09 14.4c.6 0 1.202-.15 1.654-.3l16.542-8.25c1.203-.6 1.955-1.8 1.955-3.15V66.75c0-1.95-1.655-3.45-3.46-3.45-.6 0-1.052.15-1.503.3l-16.542 8.25c-1.203.6-1.955 1.8-1.955 3.15v11.7c-.15 2.1 1.504 3.6 3.308 3.6z" transform="translate(86 209)"/>
            <path fill="#F4BEB0" d="M43.062 89.25c-.451 1.05-.902 2.55-.902 4.35v1.05c0 .9.15 1.8.15 2.55.3 2.4.601 4.05.601 4.05s-.15 3-2.105 3c-.3 0-.601 0-1.053-.3-2.706-1.2-10.977-5.25-13.534-6.75l-.15-.15c-1.955-1.2-2.406-1.95-2.406-4.8v-10.5c0-1.2.15-2.1.601-3l18.798 10.5z" transform="translate(86 209)"/>
        </g>
        <g>
            <path fill="#F4BEB0" fill-rule="nonzero" d="M98.019 207.3c.601 1.35.902 3 .902 5.1v1.35c-.15 1.05-.15 2.1-.3 3-.302 2.7-.602 4.8-.602 4.8s.15 3.45 2.405 3.45c.3 0 .752-.15 1.203-.3 3.157-1.35 12.478-6 15.334-7.8h.15l.301-.15c2.255-1.5 2.706-2.25 2.706-5.55v-12.3c0-1.35-.15-2.4-.752-3.45L98.02 207.3z" transform="translate(46 44)"/>
            <path fill="#EC856D" fill-rule="nonzero" d="M.3 72.45v96c0 8.25 4.51 15.75 11.577 19.65l89.299 49.05c6.765 3.75 14.883 3.75 21.498 0l89.3-49.05c7.215-3.9 11.725-11.55 11.725-19.65v-96c0-8.25-4.51-15.75-11.726-19.8l-89.3-49.05c-6.764-3.75-14.882-3.75-21.497 0l-89.15 49.2C4.812 56.7.302 64.35.302 72.45z" transform="translate(46 44)"/>
            <path fill="#F0AD80" fill-rule="nonzero" d="M182.507 79.35l29.466-16.2c1.955-1.2 3.007-3.15 3.007-5.25 0-1.95-1.052-4.05-3.007-5.1h-.15l-89.3-49.05c-3.307-1.8-6.915-2.7-10.523-2.85h-.451c-3.608 0-7.216.9-10.523 2.85l-31.571 17.4 6.615-3.6c31.27 17.4 92.757 51.75 101.326 56.85 2.706 1.8 4.21 3.3 5.111 4.95zM111.7 114.3c4.811-.15 9.471-1.2 13.68-3.6l.753-.3 26.91-14.7c-1.353-3.3-3.458-4.65-3.458-4.65L49.009 32.4l-13.83 7.5-23.152 12.9c-.752.3-1.353.75-1.955 1.2-1.653 1.2-2.555 2.85-2.555 4.65v.15c0 2.1 1.052 4.05 3.157 5.25 6.615 3.45 14.582 7.8 23.152 12.3 22.55 12 48.408 25.95 63.591 34.2h.15l.151.15c4.21 2.25 8.72 3.45 13.38 3.45l.601.15z" transform="translate(46 44)"/>
            <path fill="#FDDACE" fill-rule="nonzero" d="M104.183 238.5c-1.053-.45-1.955-.9-2.857-1.35l-89.3-48.9C4.812 184.35.452 176.7.452 168.6c0 8.25 4.51 15.75 11.576 19.65l89.3 49.05c.75.45 1.803.9 2.856 1.2z" transform="translate(46 44)"/>
            <path d="M122.824 3.75l89.15 49.05c6.013 3.3 10.072 9.15 11.274 15.75V172.5c-1.202 6.6-5.261 12.45-11.275 15.75l-89.3 49.05c-1.202.6-2.405 1.2-3.607 1.5h-12.177c-1.955-.6-3.91-1.35-5.713-2.25l-89.15-48.3c-7.215-3.9-10.823-11.4-10.823-19.65l-.752-96c0-8.25 4.51-15.75 11.576-19.65l89.3-49.05c3.307-1.8 7.065-2.85 10.823-2.85 3.458 0 7.216.9 10.674 2.7z" transform="translate(46 44)"/>
            <path fill="#FFF" fill-rule="nonzero" d="M101.176 3.75c3.307-1.8 6.915-2.7 10.523-2.85-3.608.15-7.216 1.05-10.523 2.85z" transform="translate(46 44)"/>
            <path fill="#F2AA84" fill-rule="nonzero" d="M97.267 110.7c-15.184-8.25-41.041-22.2-63.592-34.2 22.1 11.7 47.807 25.65 63.592 34.2z" transform="translate(46 44)"/>
            <path fill="#F19A84" fill-rule="nonzero" d="M182.507 79.35l29.466-16.2-29.466 16.2zm-57.127 31.2l.752-.3 26.91-14.7-26.91 14.7-.752.3z" transform="translate(46 44)"/>
            <path fill="#FFF" fill-rule="nonzero" d="M49.01 32.4l100.424 58.35s5.412 3.75 4.81 13.2c-.3 5.55-1.202 10.35-1.202 10.35s.45 6.3 4.96 4.35c4.51-1.95 18.642-8.85 21.649-10.8 3.007-1.95 3.608-2.85 3.909-7.5 0-5.25-.15-12.6-.15-16.35 0-3.75-.903-6.15-6.164-9.6-8.42-5.1-70.057-39.45-101.327-56.85L49.01 32.4z" transform="translate(46 44)"/>
            <path fill="#FFF" fill-rule="nonzero" d="M179.651 107.85c.15 0 .15 0 0 0 3.157-1.95 3.758-3 3.909-7.5-.15 4.5-.752 5.55-3.909 7.5zm-25.707.15c.15-1.2.3-2.55.3-3.9v-1.65 1.65c-.15 1.35-.15 2.55-.3 3.9zm2.405 10.95c.451 0 1.052-.15 1.654-.3 4.36-1.8 17.138-8.1 21.047-10.35-3.91 2.25-16.838 8.55-21.047 10.35-.602.15-1.203.3-1.654.3-3.007 0-3.307-4.65-3.307-4.65s.3 4.65 3.307 4.65z" transform="translate(46 44)"/>
            <path d="M177.396 74.4c5.262 3.45 6.164 5.85 6.164 9.6s.15 10.95.15 16.35c-.15 4.65-.752 5.55-3.909 7.5-3.006 1.95-17.138 8.85-21.648 10.8-4.66 1.95-4.961-4.35-4.961-4.35s.752-4.8 1.203-10.35c.751-9.6-4.811-13.2-4.811-13.2L49.009 32.4l27.06-14.85c31.27 17.4 92.758 51.75 101.327 56.85z" transform="translate(46 44)"/>
            <path fill="#FBC2B3" fill-rule="nonzero" d="M153.042 95.55c.751 1.65 1.353 4.05 1.353 6.75v1.65c-.15 1.35-.15 2.7-.301 3.9-.3 3.75-.752 6.3-.752 6.3s.301 4.65 3.308 4.65c.45 0 1.052-.15 1.653-.3 4.36-1.8 17.139-8.1 21.047-10.35h.15l.151-.15.3-.15h.151c3.007-1.95 3.608-2.85 3.909-7.5 0-5.25-.15-12.6-.15-16.35 0-1.8-.15-3.3-1.053-4.65l-29.766 16.2z" transform="translate(46 44)"/>
            <path fill="#EE936E" fill-rule="nonzero" d="M89.45 194.1c.601 0 1.052-.3 1.353-.9.3-.75 0-1.65-.752-2.1L67.05 180.3l-.602-.15c-.601 0-1.202.3-1.353.9-.3.75 0 1.65.752 2.1l23.001 10.8.602.15zm0 9.3c.601 0 1.052-.3 1.353-.9.3-.75 0-1.65-.752-2.1L67.05 189.6l-.602-.15c-.601 0-1.202.3-1.353.9-.3.75 0 1.65.752 2.1l23.001 10.8.602.15zm2.104 8.85c-.751 0-1.653-.3-2.405-.6l-25.707-12.9c-1.804-.9-3.007-2.85-3.007-4.8v-18.6c0-3.15 2.706-5.4 5.412-5.4.902 0 1.654.15 2.405.6l25.708 12.9c1.804.9 3.006 2.85 3.006 4.95v18.3c0 3.15-2.555 5.4-5.412 5.55zm12.629 26.25c4.209-1.8 7.366-6 7.366-11.25 0-26.55.15-65.7.3-88.8v-5.25-3.15c0-7.95-4.81-15-12.026-18-.752-.3-1.504-.75-2.255-1.05l-.15-.15h-.15c-15.786-8.7-41.494-22.65-63.593-34.35-9.471-5.1-18.34-9.75-25.557-13.5-1.052-.6-2.255-.9-3.307-.9h-.3c-.602 0-1.204.15-1.805.3C1.203 65.55.301 69 .301 72.6v96c0 8.25 4.51 15.75 11.576 19.65l89.299 49.05c.902.45 1.954.9 3.007 1.2z" transform="translate(46 44)"/>
            <path fill="#F3D9C8" fill-rule="nonzero" d="M66.599 180.3l.601.15 23.001 10.8c.752.3 1.053 1.2.752 2.1-.3.6-.752.9-1.353.9l-.601-.15-23.002-10.8c-.751-.3-1.052-1.2-.751-2.1.15-.45.751-.9 1.353-.9zm0 9.3l.601.15 23.001 10.8c.752.3 1.053 1.35.752 2.1-.3.6-.752.9-1.353.9l-.601-.15-23.002-10.8c-.751-.3-1.052-1.2-.751-2.1.15-.6.751-.9 1.353-.9zm25.106 22.65c2.856 0 5.412-2.4 5.412-5.55v-18.3c0-2.1-1.203-4.05-3.007-4.95l-25.707-12.9c-.752-.45-1.654-.6-2.406-.6-2.856 0-5.412 2.25-5.412 5.4v18.6c0 2.1 1.203 3.9 3.007 4.8l25.707 12.9c.752.3 1.504.6 2.406.6z" transform="translate(46 44)"/>
        </g>
        <g fill-rule="nonzero">
            <path fill="#EC856D" d="M.053 66v27c0 4.65 2.557 9 6.619 11.25l50.995 27.9c3.76 2.1 8.424 2.1 12.335 0l97.176-53.1c4.061-2.25 6.619-6.6 6.619-11.25v-27c0-4.65-2.708-9-6.92-11.25l-50.845-27.9c-3.91-2.1-8.273-2.1-12.034 0L6.672 54.75C2.61 57 .053 61.2.053 66z" transform="translate(65)"/>
            <path fill="#F0AA80" d="M167.027 29.55c-.15 0-.15 0 0 0l-51.145-27.9C114.077.6 111.971.15 109.865 0h-.3c-2.107 0-4.213.6-6.018 1.65L91.663 8.1l-17.148 9.3-13.389 7.35c-.45.3-3.309 1.65-3.61 1.95l-11.884 6.45L20.06 47.4 6.672 54.75c-.451.15-.752.45-1.204.75-.902.75-1.353 1.65-1.353 2.7v.15c0 1.2.601 2.4 1.805 3 3.76 1.95 8.273 4.5 13.237 7.05 12.787 6.9 27.679 14.85 36.253 19.5h.15c2.408 1.35 4.965 1.95 7.672 1.95h.452c2.707 0 5.415-.75 7.822-2.1l.451-.3L95.424 74.7l12.786-7.05c3.46-1.65 7.672-4.2 9.176-5.1l.452-.3 32.191-17.7 16.848-9.3c1.203-.6 1.655-1.8 1.655-3 .15-.9-.452-1.95-1.505-2.7z" transform="translate(65)"/>
            <path fill="#EE936E" d="M59.321 132.9c-.601-.15-1.053-.45-1.654-.75L6.672 104.1C2.61 101.85.053 97.5.053 92.85v-27c0-2.1.451-4.05 1.354-5.85.3-.15.602-.15 1.053-.15h.15c.602 0 1.354.15 1.956.45 4.061 2.1 9.176 4.8 14.591 7.65 12.636 6.75 27.228 14.7 36.253 19.5h.15c.452.3.903.45 1.355.6 4.061 1.8 6.92 5.85 6.769 10.35v4.8c0 13.2-.15 7.8-.15 22.95 0 3.3-1.655 5.7-4.213 6.75z" transform="translate(65)"/>
            <path fill="#F1A782" d="M47.438 87.75L47.438 87.75 47.287 87.75z" transform="translate(65)"/>
            <path fill="#F49B84" d="M71.506 87.75L71.957 87.45 95.424 74.7 87.301 79.05 71.957 87.45z" transform="translate(65)"/>
            <path fill="#FFF" d="M147.472 18.9L39.916 77.1s-3.008 2.1-2.707 7.65c.15 3.15.601 6 .601 6s-.15 3.75-2.707 2.55c-2.558-1.2-10.53-5.1-12.185-6.3-1.655-1.05-2.106-1.8-2.106-4.35V73.2c0-2.1.451-3.6 3.46-5.55 4.813-3 31.59-17.85 107.706-57.15l15.494 8.4z" transform="translate(65)"/>
            <path fill="#F6D9C8" d="M163.718 62.55c.3 0 .602.15.752.45.15.45 0 .9-.451 1.2l-13.087 6.15-.301.15c-.301 0-.602-.15-.752-.45-.15-.45 0-.9.45-1.2l13.088-6.15c-.15-.15-.15-.15.3-.15zm0 5.25c.3 0 .602.15.752.45.15.45 0 1.05-.451 1.2l-13.087 6.15-.301.15c-.301 0-.602-.15-.752-.45-.15-.45 0-.9.45-1.2l13.088-6.15c-.15-.15-.15-.15.3-.15zm-14.441 12.9c.602 0 1.053-.15 1.504-.3l14.742-7.35c1.053-.6 1.655-1.65 1.805-2.7V59.7c0-1.8-1.504-3.15-3.159-3.15-.451 0-.902.15-1.354.3l-14.741 7.35c-1.053.6-1.806 1.65-1.806 2.85v10.5c0 1.8 1.354 3.15 3.009 3.15z" transform="translate(65)"/>
            <path fill="#F4BEB0" d="M38.111 79.8c-.451 1.05-.752 2.25-.752 3.9v1.05c0 .75.15 1.65.15 2.25.15 2.1.452 3.75.452 3.75s-.15 2.7-1.956 2.7c-.3 0-.602 0-.902-.15-2.407-1.05-9.778-4.65-12.035-6l-.15-.15c-1.805-1.05-2.106-1.65-2.256-4.35v-9.45c0-1.05.15-1.95.601-2.7l16.848 9.15z" transform="translate(65)"/>
        </g>
        <g>
            <path fill="#F4BEB0" fill-rule="nonzero" d="M90.28 146.55c-.3.9-.601 2.1-.601 3.6v.9c0 .75.15 1.5.15 2.1.15 1.95.451 3.3.451 3.3s-.15 2.4-1.655 2.4c-.3 0-.602 0-.903-.15-2.257-1.05-8.877-4.35-10.984-5.55l-.15-.15c-1.505-1.05-1.956-1.5-1.956-3.9v-8.7c0-.9.15-1.65.451-2.4l15.197 8.55z" transform="translate(208 204)"/>
            <path fill="#EE936E" fill-rule="nonzero" d="M160.549 51.15v67.95c0 5.85-3.16 11.1-8.427 13.95l-64.099 34.8c-4.815 2.55-10.683 2.55-15.498 0l-64.099-34.8C3.31 130.2 0 124.95 0 119.1V51.15C0 45.3 3.16 39.9 8.426 37.2l64.1-34.65C77.34 0 83.207 0 88.022 2.55l64.1 34.65c5.115 2.85 8.426 8.25 8.426 13.95z" transform="translate(208 204)"/>
            <path d="M72.525 2.55L8.426 37.2C4.063 39.6 1.204 43.65.301 48.3v73.65c.903 4.65 3.762 8.85 8.125 11.1l64.1 34.8c.902.45 1.654.9 2.708 1.05h8.727c1.354-.45 2.859-.9 4.062-1.65l64.1-34.2c5.115-2.85 7.824-8.1 7.824-13.95l.602-67.95c0-5.85-3.16-11.25-8.427-13.95L88.023 2.55C85.616 1.2 82.907.6 80.35.6c-2.86 0-5.417.6-7.825 1.95z" transform="translate(208 204)"/>
            <path fill="#FFF" fill-rule="nonzero" d="M88.023 2.55C85.616 1.2 83.058.6 80.5.6c2.558 0 5.116.6 7.523 1.95z" transform="translate(208 204)"/>
            <path fill="#F2AA84" fill-rule="nonzero" d="M90.732 78.3c11.285-6 29.943-15.9 45.742-24.15-16.25 8.4-34.758 18.3-45.742 24.15z" transform="translate(208 204)"/>
            <path fill="#F19A84" fill-rule="nonzero" d="M29.492 55.95L8.276 44.55l21.216 11.4zm40.626 21.9l-19.41-10.5 19.41 10.5.451.3-.451-.3z" transform="translate(208 204)"/>
            <path fill="#EC856D" fill-rule="nonzero" d="M96.9 137.25l16.402-7.65c.602-.3.752-.9.602-1.5-.15-.45-.602-.6-1.054-.6l-.45.15-16.552 7.65c-.602.3-.753.9-.602 1.5.15.45.602.6 1.053.6l.602-.15zm0 6.45l16.402-7.65c.602-.3.752-.9.602-1.5-.15-.45-.602-.6-1.054-.6l-.45.15-16.552 7.65c-.602.3-.753.9-.602 1.5.15.45.602.6 1.053.6l.602-.15zm-2.106 6.45c-1.956 0-3.912-1.65-3.912-3.9V133.2c0-1.5.903-2.85 2.107-3.45l18.507-9.15c.602-.3 1.204-.45 1.806-.45 2.106 0 3.912 1.65 3.912 3.9v13.2c0 1.5-.903 2.85-2.107 3.45L96.6 149.85c-.602.15-1.204.3-1.806.3zm-8.877 18.6c.752-.3 1.354-.6 2.106-.9l64.1-34.8c5.115-2.85 8.426-8.1 8.426-13.95V51.15c0-2.55-.602-4.95-1.806-7.2-.451-.15-.903-.15-1.204-.15h-.3c-.753 0-1.656.15-2.408.6-5.116 2.7-11.586 6-18.357 9.6-15.8 8.4-34.307 18.15-45.742 24.15h-.301c-.602.3-1.053.6-1.655.75-5.267 2.25-8.577 7.2-8.577 12.75v6c.15 16.35.15 44.1.15 62.85.301 4.05 2.408 6.9 5.568 8.25z" transform="translate(208 204)"/>
            <path fill="#F3D9C8" fill-rule="nonzero" d="M112.85 127.5c.452 0 .753.3 1.054.6.3.6 0 1.2-.602 1.5L96.9 137.25l-.451.15c-.452 0-.753-.15-1.054-.6-.3-.6 0-1.2.602-1.5l16.552-7.65.3-.15zm0 6.6c.452 0 .753.15 1.054.6.3.6 0 1.2-.602 1.5L96.9 143.85l-.451.15c-.452 0-.753-.3-1.054-.6-.3-.6 0-1.2.602-1.5l16.552-7.65.3-.15zm-17.905 16.05c.602 0 1.204-.15 1.655-.45l18.507-9.15c1.355-.6 2.107-1.95 2.107-3.45v-13.2c0-2.25-1.956-3.9-3.912-3.9-.602 0-1.204.15-1.806.45L92.99 129.6c-1.354.6-2.107 1.95-2.107 3.45v13.05c0 2.4 1.806 4.05 4.063 4.05z" transform="translate(208 204)"/>
            <path fill="#F0AD80" fill-rule="nonzero" d="M153.176 45.15c1.504-.75 2.106-2.25 2.257-3.75 0-1.5-.753-2.85-2.107-3.6h-.15L88.324 2.7C85.917 1.35 83.36.75 80.65.75h-.3c-2.558 0-5.267.75-7.674 1.95L49.654 15.15l4.815-2.55c22.72 12.45 67.41 37.05 73.579 40.8 1.956 1.35 3.16 2.4 3.761 3.45-.15-.15-.15-.15 21.367-11.7zm-72.977 36.6c3.46 0 6.922-.9 9.93-2.7l.452-.3 19.561-10.65c-1.053-2.4-2.558-3.3-2.558-3.3L34.607 22.95l-9.93 5.4L7.674 37.5c-.452.3-1.053.6-1.505.9-1.204.75-1.805 2.1-1.805 3.45V42c0 1.5.752 3 2.257 3.75 4.815 2.55 10.532 5.55 16.852 8.85 16.4 8.55 35.21 18.6 46.193 24.45h.301c3.01 1.65 6.47 2.4 9.78 2.55l.452.15z" transform="translate(208 204)"/>
            <path fill="#FFF" fill-rule="nonzero" d="M34.758 23.1l72.977 41.85s3.912 2.7 3.46 9.45c-.3 4.05-.902 7.35-.902 7.35s.3 4.5 3.61 3.15c3.311-1.35 13.543-6.3 15.8-7.8 2.257-1.35 2.708-2.1 2.859-5.4V60c0-2.7-.602-4.35-4.514-6.9-6.17-3.6-50.858-28.2-73.579-40.8L34.758 23.1z" transform="translate(208 204)"/>
            <path fill="#FBC2B3" fill-rule="nonzero" d="M110.293 68.4c.601 1.2.902 2.85.902 4.95v1.2c-.15 1.05-.15 1.95-.3 2.85-.302 2.7-.602 4.5-.602 4.5s.15 3.3 2.407 3.3c.3 0 .752-.15 1.204-.3 3.16-1.35 12.489-5.85 15.347-7.5h.15l.302-.15c2.257-1.35 2.708-2.1 2.859-5.4v-11.7c0-1.2-.15-2.25-.753-3.3L110.293 68.4z" transform="translate(208 204)"/>
        </g>
        <g fill-rule="nonzero">
            <path fill="#FFC961" d="M30.89 42.3c-.15.9-1.054 1.35-1.958 1.2-.905-.15-1.357-1.05-1.206-1.95.15-.9 1.055-1.35 1.959-1.2.904.3 1.356 1.05 1.205 1.95m1.357-4.35H17.63l15.822 15.6V39c-.15-.6-.603-1.05-1.205-1.05m1.054 15.6L16.726 70.2c-1.055 1.05-2.863 1.05-4.068 0L.904 58.65C-.15 57.6-.15 55.8.904 54.6L17.48 37.95l15.822 15.6z" transform="translate(181 306)"/>
            <path fill="#7CD0E3" d="M31.342 40.05c.302-.3.754-.6 1.206-.9l.301.45c-.452.3-.904.6-1.205.9l-.302-.45zm2.411-1.65c.452-.3.754-.6 1.206-.9l.301.45c-.452.3-.904.6-1.205.9l-.302-.45zm2.411-1.8c.452-.3.754-.6 1.206-.9l.301.45c-.452.3-.753.6-1.205.9l-.302-.45zm2.411-1.95c.452-.3.754-.6 1.206-.9l.301.45c-.452.3-.753.6-1.205 1.05l-.302-.6zm2.26-1.95c.302-.3.754-.6 1.055-1.05l.302.3L41.137 33l-.301-.3zm2.26-2.1l1.056-1.05.301.3-1.055 1.05-.301-.3zm2.11-2.1l1.055-1.05.302.3c-.302.45-.754.75-1.055 1.2l-.302-.45zm1.96-2.25c.3-.45.602-.75.903-1.2l.453.3c-.302.45-.603.75-.905 1.2l-.452-.3zm1.808-2.4c.301-.45.602-.9.904-1.2l.452.3c-.302.45-.603.9-.904 1.2l-.452-.3zm1.657-2.55c.302-.45.452-.9.754-1.35l.452.15c-.151.45-.452.9-.754 1.35l-.452-.15zm1.356-2.7l.452-1.35.452.15c-.15.45-.301.9-.602 1.5l-.302-.3zm.904-2.85l.151-.45c0-.3.15-.75.15-1.05h.453c0 .3-.15.75-.15 1.05l-.152.45h-.452zm.302-2.85v-1.5h.452v1.5h-.452zm-.15-3c-.152-.45-.152-1.05-.302-1.5l.452-.15c.15.45.301.9.301 1.5l-.452.15zm-.905-2.85c-.15-.45-.452-.9-.753-1.35l.452-.3c.301.45.452.9.753 1.35l-.452.3zm-1.658-2.4c-.3-.45-.753-.75-1.054-1.05l.301-.45c.452.3.753.75 1.055 1.05l-.302.45zM48.22 2.7c-.452-.3-.904-.45-1.356-.6l.15-.45c.453.15.905.45 1.357.75l-.15.3zm-2.712-1.2l-.452-.15c-.302 0-.754-.15-1.055-.15V.75c.301 0 .753.15 1.055.15l.452.15v.45zm-2.863-.15c-.452 0-1.055.15-1.507.15l-.15-.45C41.437.9 42.04.9 42.492.75l.15.6zm-2.863.6c-.452.15-.904.45-1.356.6l-.302-.45c.452-.3.904-.45 1.356-.75l.302.6zm-2.562 1.5c-.301.3-.753.6-1.055 1.05l-.452-.3c.302-.45.754-.75 1.055-1.05l.452.3zM35.411 5.7c-.301.45-.452.9-.603 1.35l-.452-.15c.15-.45.452-.9.754-1.35l.301.15zm-1.206 2.7c-.15.3-.15.6-.3 1.05l-.152.45-.452-.15.151-.45c0-.3.15-.75.301-1.05l.452.15zm-.452 3v1.5h-.452v-1.5h.452zm0 3c0 .45.151 1.05.151 1.5h-.452c0-.45-.15-1.05-.15-1.5h.451zm.302 3c.15.45.15 1.05.301 1.5l-.452.15c-.15-.45-.301-1.05-.301-1.5l.452-.15zm.904 2.85c.15.45.301.9.603 1.35l-.452.15c-.151-.45-.452-.9-.603-1.5h.452zm1.055 2.7c.301.45.452.9.753 1.35l-.452.3c-.301-.45-.452-.9-.753-1.35l.452-.3zm1.657 2.55c.302.45.603.75.904 1.2l-.452.3c-.301-.45-.602-.75-.904-1.2l.452-.3zm1.96 2.25l1.054 1.05-.301.3c-.452-.3-.754-.75-1.055-1.05l.301-.3zm2.26 1.95c.451.3.753.6 1.205.9l-.301.45c-.453-.3-.754-.6-1.206-.9l.301-.45zm2.41 1.8c.452.3.904.45 1.357.75l-.302.45c-.452-.3-.904-.45-1.356-.75l.301-.45zm2.562 1.5c.452.15.904.45 1.356.6l-.15.45c-.453-.15-.905-.45-1.357-.6l.151-.45zm2.863 1.2c.452.15.904.3 1.356.6l-.15.45c-.453-.15-.905-.3-1.357-.6l.151-.45zm2.712 1.05c.452.15.904.3 1.507.45l-.15.45c-.453-.15-.905-.3-1.507-.45l.15-.45zm3.014.75c.452.15.904.3 1.507.3l-.15.45c-.453-.15-1.056-.3-1.508-.3l.151-.45zm2.863.6h.301c.452.15.905.15 1.206.3l-.15.45c-.453 0-.905-.15-1.206-.3h-.302l.151-.45zm3.014.6c.452 0 1.055.15 1.507.15v.45c-.452 0-1.055-.15-1.507-.15v-.45zm3.013.3c.453 0 1.055.15 1.507.15v.45c-.452 0-1.054-.15-1.507-.15v-.45zm3.014.3h1.507v.45h-1.507v-.45zm3.014 0h1.507v.45H70.37v-.45zm3.014-.15c.452 0 1.054-.15 1.506-.15v.45c-.452 0-1.054.15-1.506.15v-.45zm3.013-.3c.452 0 1.055-.15 1.507-.3l.15.45c-.451.15-1.054.15-1.506.3l-.15-.45zm3.014-.6c.452-.15 1.055-.15 1.507-.3l.15.45c-.452.15-1.054.3-1.506.3l-.151-.45zm2.863-.75c.452-.15.904-.3 1.507-.45l.15.45c-.452.15-.904.3-1.506.45l-.151-.45zm2.863-.9c.452-.15.904-.3 1.356-.6l.15.45c-.451.15-.903.45-1.355.6l-.151-.45zM88 33.9c.452-.15.904-.45 1.356-.6l.15.45c-.451.15-.903.45-1.355.6L88 33.9zm2.712-1.35c.452-.3.904-.45 1.356-.75l.302.45c-.452.3-.904.45-1.356.75l-.302-.45zm2.562-1.5c.452-.3.904-.6 1.205-.9l.302.45c-.452.3-.904.6-1.206.9l-.301-.45zm2.41-1.65c.453-.3.754-.6 1.206-.9l.302.45c-.452.3-.754.6-1.206.9l-.301-.45zm2.412-1.95c.301-.3.753-.6 1.055-1.05l.301.3-1.055 1.05-.301-.3zm2.11-2.1l1.054-1.05.302.3c-.302.45-.754.75-1.055 1.05l-.302-.3zm1.958-2.25c.302-.45.603-.75.904-1.2l.453.3c-.302.45-.603.75-.905 1.2l-.452-.3zm1.809-2.4c.301-.45.602-.9.753-1.2l.452.3-.904 1.35-.301-.45zm1.657-2.55c.302-.45.452-.9.754-1.35l.452.3c-.302.45-.452.9-.754 1.35l-.452-.3zm1.356-2.7c.151-.45.452-.9.603-1.35l.452.15c-.15.45-.452.9-.603 1.35l-.452-.15zm1.055-2.7l.452-1.35.452.15c-.15.45-.301.9-.452 1.5l-.452-.3z" transform="translate(181 306)"/>
        </g>
        <g fill-rule="nonzero">
            <path fill="#FFC961" d="M73.458 37.942c-.15-.756.15-1.512 1.055-1.814.754-.151 1.507.151 1.809 1.058.15.756-.151 1.512-1.055 1.814-.754.151-1.658-.302-1.809-1.058m-1.507-3.93c-.452 0-.905.453-.905 1.058l.603 13.453 13.716-15.116-13.414.605m13.565-.605l15.977 14.663c1.055.907 1.206 2.57.15 3.628L91.394 62.884c-.904 1.058-2.562 1.209-3.617.15L71.8 48.373l13.716-14.965z" transform="translate(278 150)"/>
            <path fill="#7CD0E3" d="M73.006 35.977l-.302.453c-.301-.15-.753-.453-1.205-.756l.301-.453c.452.302.754.605 1.206.756zm-2.412-1.512l-.301.454c-.302-.303-.754-.454-1.206-.756l.301-.454c.453.303.905.454 1.206.756zm-2.26-1.512l-.302.454c-.302-.302-.754-.605-1.206-.756l.302-.302c.452 0 .753.302 1.205.604zm-2.262-1.662l-.301.302c-.301-.302-.754-.605-1.055-.907l.301-.302c.302.302.603.604 1.055.907zm-2.26-1.814l-.302.302c-.301-.302-.753-.605-1.055-.907l.302-.302c.301.453.753.756 1.055.907zm-2.11-1.814l-.302.302c-.301-.302-.754-.605-1.055-.907l.301-.302c.453.302.754.604 1.055.907zm-1.96-1.814l-.301.302-1.055-1.058.301-.302c.301.453.603.756 1.055 1.058zm-1.96-1.965l-.3.302c-.302-.302-.604-.756-.905-1.058l.301-.302c.302.302.603.604.905 1.058zm-1.808-2.117l-.302.303c-.301-.303-.602-.756-.904-1.058l.302-.303c.301.303.602.605.904 1.058zM54.316 19.5l-.452.302c-.302-.453-.452-.755-.754-1.209l.452-.151c.302.302.603.605.754 1.058zm-1.357-2.419l-.452.152c-.15-.454-.452-.907-.603-1.36l.453-.152c.301.453.452.907.602 1.36zm-.904-2.57l-.452.152-.15-.454c-.152-.302-.152-.604-.152-1.058h.453c0 .302.15.605.15.907l.151.454zm-.452-2.72h-.452v-1.36h.452v1.36zm.15-2.721h-.452c0-.454.151-.907.302-1.36l.452.15c-.15.303-.301.756-.301 1.21zm.604-2.721l-.453-.151c.151-.454.453-.907.603-1.36l.452.302c-.15.453-.452.755-.602 1.209zm1.356-2.268l-.301-.302c.301-.453.602-.756.904-1.058l.301.302c-.301.303-.603.605-.904 1.058zm1.96-1.965l-.302-.453c.452-.303.754-.454 1.206-.756l.15.453c-.3.303-.602.605-1.055.756zm2.411-1.058l-.15-.453.452-.152c.301-.15.602-.15 1.055-.15v.453c-.302 0-.603.151-.905.151l-.452.151zm2.713-.453V.15c.452 0 .904 0 1.357.151l-.151.454c-.302 0-.754-.151-1.206-.151zm2.713.604l.15-.453c.453.151.905.302 1.357.604l-.15.454c-.603-.302-.905-.454-1.357-.605zm2.412 1.21l.301-.303c.302.303.754.605 1.055.907l-.301.303c-.452-.303-.754-.605-1.055-.907zm1.808 1.965l.453-.303c.301.454.452.756.753 1.21l-.452.15c-.301-.301-.452-.604-.754-1.057zm1.206 2.418l.452-.15c.151.301.151.604.302.906l.15.454-.452.15-.15-.453c-.151-.302-.302-.604-.302-.907zm.452 2.721h.453v1.361h-.453V9.523zm.151 2.721h.452v1.36h-.452v-1.36zm-.15 2.872h.452c0 .454-.151.907-.302 1.36l-.452-.15c.15-.303.15-.756.301-1.21zm-.603 2.57l.452.151-.452 1.36-.453-.15.453-1.361zm-1.056 2.721l.453.151c-.151.454-.453.907-.603 1.21l-.452-.152c.301-.453.452-.907.602-1.209zm-1.205 2.419l.452.302c-.302.453-.603.756-.754 1.21l-.301-.303c0-.454.301-.907.603-1.21zm-1.81 2.116l.302.302c-.301.303-.603.756-.904 1.058L63.812 26c.301-.302.602-.756.904-1.058zm-1.808 1.965l.302.302c-.302.303-.754.605-1.055.907l-.302-.302c.302-.302.603-.605 1.055-.907zm-2.26 1.663l.3.453c-.451.303-.753.454-1.205.756l-.301-.453c.452-.152.904-.454 1.205-.756zm-2.412 1.511l.15.454c-.452.302-.753.453-1.205.605l-.151-.454c.452-.151.904-.453 1.206-.605zm-2.412 1.21l.15.453c-.451.151-.903.454-1.356.605l-.15-.454c.603-.15.904-.453 1.356-.604zm-2.562 1.058l.15.453-1.356.454-.15-.454 1.356-.453zm-2.562.907l.15.453-1.356.454-.151-.454 1.357-.453zm-2.713.756l.15.453h-.15c-.453.151-.754.151-1.206.302l-.151-.453c.452-.151.754-.151 1.206-.302h.15zm-2.714.604l.151.454c-.452.15-.904.15-1.356.302l-.151-.453c.452-.152.904-.303 1.356-.303zm-2.713.454v.453c-.452 0-.904.151-1.356.151v-.453c.452 0 .904-.151 1.356-.151zm-2.863.302v.454c-.453 0-.905.15-1.357.15v-.453c.452 0 .904 0 1.357-.15zm-2.713.302v.454h-1.357v-.454h1.357zm-2.713 0v.454h-1.357v-.454c.452-.15.904-.15 1.357 0zm-2.864-.302v.454c-.452 0-.905-.152-1.357-.152v-.453c.452.151.905.151 1.357.151zm-2.713-.302l-.151.453c-.452-.15-.904-.15-1.356-.302l.15-.454c.452.152.905.152 1.357.303zm-2.713-.605l-.151.454c-.452-.152-.904-.303-1.357-.303l.151-.453c.452.151.905.151 1.357.302zm-2.713-.756l-.151.454-1.357-.454.151-.453c.603.151.904.302 1.357.453zm-2.563-.907l-.15.454c-.453-.151-.905-.303-1.357-.605l.15-.453c.453.302.905.453 1.357.604zm-2.562-1.058l-.15.454c-.453-.151-.905-.454-1.206-.605l.15-.453c.452.15.754.302 1.206.604zm-2.412-1.36l-.301.453c-.452-.302-.754-.453-1.206-.756l.302-.453c.452.302.753.605 1.205.756zm-2.411-1.512l-.302.454c-.452-.303-.753-.605-1.205-.756l.301-.303c.452.152.904.454 1.206.605zm-2.11-1.663l-.302.303c-.301-.303-.753-.605-1.055-.907l.302-.303c.301.454.603.605 1.055.907zm-2.11-1.814l-.302.303-1.055-1.058.301-.303L9.1 25.395zm-1.96-1.965l-.301.303c-.302-.303-.603-.756-.905-1.059l.302-.302c.301.454.603.756.904 1.058zm-1.658-2.116l-.301.302c-.302-.302-.603-.756-.754-1.209l.452-.302c0 .453.302.755.603 1.209zm-1.658-2.267l-.452.302c-.301-.454-.452-.756-.754-1.21l.453-.302c.301.454.602.756.753 1.21zm-1.356-2.42l-.453.152c-.15-.453-.452-.907-.602-1.21l.452-.15c.15.302.452.755.603 1.209zM1.26 14.059l-.452.151-.452-1.36.452-.151c.15.604.301.907.452 1.36z" transform="translate(278 150)"/>
        </g>
        <g fill-rule="nonzero">
            <path fill="#FFC961" d="M29.1 38.151c-.15.756-1.05 1.21-1.8 1.058-.75-.15-1.2-1.058-1.05-1.814.15-.755 1.05-1.209 1.8-1.058.9.151 1.35.907 1.05 1.814m1.5-3.93l-13.35-.605L30.9 48.733l.6-13.454c0-.605-.3-1.058-.9-1.058m.3 14.36L15 63.244c-1.05.907-2.7.907-3.6-.151L1.2 51.907c-.9-1.058-.9-2.721.15-3.628l15.9-14.663L30.9 48.581z" transform="translate(6 95)"/>
            <path fill="#7CD0E3" d="M29.7 36.035c.3-.151.75-.454 1.2-.756l.3.454c-.45.302-.9.453-1.2.755l-.3-.453zm2.25-1.512c.3-.302.75-.453 1.2-.756l.3.454c-.45.302-.75.605-1.2.756l-.3-.454zm2.4-1.511c.3-.303.75-.605 1.2-.756l.3.302c-.45.302-.75.605-1.2.756l-.3-.302zm2.25-1.663c.3-.302.75-.605 1.05-.907l.3.302c-.3.303-.75.605-1.05.907l-.3-.302zm2.1-1.663c.3-.302.75-.605 1.05-.907l.3.302c-.3.303-.75.605-1.05.907l-.3-.302zm2.1-1.814c.3-.302.75-.605 1.05-.907l.3.302c-.3.303-.75.605-1.05.907l-.3-.302zm2.1-1.965l1.05-1.058.3.302-1.05 1.058-.3-.302zm1.95-1.965c.3-.302.6-.756.9-1.058l.3.302c-.3.302-.6.756-.9 1.058l-.3-.302zm1.8-2.116c.3-.303.6-.756.9-1.059l.3.303c-.3.453-.6.756-.9 1.058l-.3-.302zm1.5-2.268c.3-.453.45-.756.75-1.21l.45.152c-.3.453-.45.756-.75 1.21l-.45-.152zm1.35-2.418c.15-.454.45-.907.6-1.21l.45.151c-.15.454-.3.907-.6 1.36l-.45-.301zm1.05-2.57l.15-.454c.15-.302.15-.604.15-.907h.45c0 .303-.15.605-.15 1.058l-.15.454-.45-.151zm.3-2.721v-1.36h.45v1.36h-.45zm0-2.721c0-.454-.15-.907-.3-1.36l.45-.152c.15.454.15.907.3 1.36l-.45.152zm-.75-2.721c-.15-.454-.3-.907-.6-1.21l.45-.302c.3.454.45.907.6 1.36l-.45.152zM48.75 4.14c-.3-.303-.6-.756-.9-1.059l.3-.302c.3.302.6.605.9 1.058l-.3.303zM46.8 2.174c-.45-.302-.75-.453-1.2-.604l.15-.454c.45.151.9.454 1.2.756l-.15.302zm-2.4-1.058l-.45-.15c-.3 0-.6-.152-.9-.152V.36c.3 0 .6.152 1.05.152l.45.15-.15.454zM41.7.814c-.45 0-.9 0-1.35.151L40.2.512c.45-.152.9-.152 1.35-.152l.15.454zm-2.55.453c-.45.152-.9.303-1.2.605l-.15-.453c.45-.303.9-.454 1.35-.605v.453zm-2.4 1.21c-.3.302-.75.604-1.05.907l-.3-.303c.3-.302.75-.604 1.05-.907l.3.303zm-1.8 1.965c-.3.302-.45.756-.75 1.21l-.45-.152c.15-.453.45-.907.75-1.21l.45.152zm-1.2 2.57c-.15.302-.15.604-.3.907l-.15.453-.45-.151.15-.454c.15-.302.15-.604.3-.907l.45.152zm-.6 2.57v1.36h-.45V9.58h.45zM33 12.452v1.361h-.45v-1.36H33zm.3 2.721c0 .454.15.907.3 1.36H33c-.15-.453-.15-.906-.3-1.36h.6zm.6 2.721l.45 1.36-.45.152-.45-1.36.45-.152zm.9 2.57c.15.454.45.756.6 1.21l-.45.15c-.3-.453-.45-.755-.6-1.209l.45-.15zm1.35 2.419c.3.453.45.756.75 1.058l-.3.302c-.3-.302-.6-.756-.75-1.21l.3-.15zM37.8 25c.3.302.6.605.9 1.058l-.3.302c-.3-.302-.6-.604-.9-1.058l.3-.302zm1.95 1.965c.3.302.75.605 1.05.907l-.3.302c-.3-.302-.75-.604-1.05-.907l.3-.302zm2.1 1.663c.3.302.75.453 1.2.756l-.3.453c-.45-.302-.75-.453-1.2-.756l.3-.453zm2.4 1.512c.45.15.75.453 1.2.604l-.15.454c-.45-.151-.9-.454-1.2-.605l.15-.453zm2.4 1.209c.45.151.9.302 1.2.604l-.15.454c-.45-.151-.9-.302-1.35-.605l.3-.453zm2.55 1.058l1.35.453-.15.454-1.35-.454.15-.453zm2.7.907l1.35.453-.15.454-1.35-.454.15-.453zm2.7.756c.6.15.9.15 1.35.302l-.15.454c-.45-.152-.75-.152-1.2-.303h-.15l.15-.453zm2.7.604c.45.152.9.152 1.35.303l-.15.453c-.45-.15-.9-.15-1.35-.302l.15-.454zm2.7.454c.45 0 .9.151 1.35.151v.454c-.45 0-.9-.152-1.35-.152v-.453zm2.7.302c.45 0 .9.151 1.35.151v.454c-.45 0-.9 0-1.35-.151v-.454zm2.7.303h1.35v.453H65.4v-.453zm2.85 0h1.35v.453h-1.35v-.453zm2.7-.152c.45 0 .9-.15 1.35-.15v.453c-.45 0-.9.15-1.35.15v-.453zm2.7-.453c.45-.151.9-.151 1.35-.302l.15.453c-.45.151-.9.151-1.35.302l-.15-.453zm2.7-.605c.45-.15.9-.15 1.35-.302l.15.453c-.45.152-.9.303-1.35.303l-.15-.454zm2.7-.756l1.35-.453.15.453-1.35.454-.15-.454zm2.55-.907c.45-.15.9-.302 1.2-.604l.15.453c-.45.151-.9.303-1.35.605v-.454zm2.55-1.058c.45-.15.75-.453 1.2-.604l.15.453c-.45.151-.9.454-1.2.605l-.15-.454zm2.4-1.36c.45-.302.75-.454 1.2-.756l.3.454c-.45.302-.75.453-1.2.755l-.3-.453zm2.4-1.36c.45-.303.75-.605 1.05-.756l.3.302c-.3.302-.75.605-1.2.756l-.15-.303zm2.25-1.663c.3-.303.75-.605 1.05-.907l.3.302c-.3.302-.75.605-1.05.907l-.3-.302zm1.95-1.966c.3-.302.6-.604 1.05-.906l.3.302-1.05 1.058-.3-.454zm1.95-1.965c.3-.302.6-.755.9-1.058l.3.303c-.3.302-.6.755-.9 1.058l-.3-.303zm1.8-2.116c.3-.302.6-.756.75-1.058l.45.302c-.3.454-.6.756-.75 1.21l-.45-.454zm1.5-2.267c.3-.454.45-.756.75-1.21l.45.303c-.3.453-.45.755-.75 1.209l-.45-.302zm1.35-2.419c.15-.453.45-.756.6-1.21l.45.152c-.15.453-.45.907-.6 1.21l-.45-.152zm1.2-2.57l.45-1.36.45.151-.45 1.36-.45-.15z" transform="translate(6 95)"/>
        </g>
    </g>
</svg>
