<svg xmlns="http://www.w3.org/2000/svg" xmlns:xlink="http://www.w3.org/1999/xlink" width="60" height="60" viewBox="0 0 60 60">
    <defs>
        <path id="prefix__a" d="M4.36.118h-.002C4.165.068 3.96.042 3.744.042c-1.668 0-2.405.27-2.688.502-1.348 1.19-1.18 3.361-.574 4.19.379.52.887.706 1.608.917 1.133.332 2.168.043 2.168.043.867-.194 1.79-1.543 1.79-3.107 0-1.31-.687-2.211-1.689-2.469"/>
        <path id="prefix__c" d="M4.366.085h-.001C4.17.035 3.965.01 3.75.01c-1.668 0-2.406.268-2.689.499C-.286 1.69-.118 3.849.49 4.67c.378.518.886.702 1.608.912 1.133.33 2.168.043 2.168.043.866-.194 1.79-1.534 1.79-3.087 0-1.302-.687-2.197-1.69-2.454"/>
        <path id="prefix__e" d="M4.366.085h-.001C4.17.035 3.965.01 3.75.01c-1.668 0-2.406.268-2.689.499C-.286 1.69-.118 3.849.49 4.67c.378.518.886.702 1.608.912 1.133.33 2.168.043 2.168.043.866-.194 1.79-1.534 1.79-3.087 0-1.302-.687-2.197-1.69-2.454"/>
        <path id="prefix__g" d="M13.286 10.274L.042 5.64 20.202.034 32.21 4.56c.326.105.436.278.436.278l-19.36 5.436"/>
        <path id="prefix__i" d="M0.042 0.059L27.007 0.059 27.007 26.588 0.042 26.588z"/>
        <path id="prefix__k" d="M16.099.059h.015c.2 0 .39.027.597.081l9.125 3.352c.678.179 1.152.788 1.158 1.488.027 3.12.005 12.666-.006 16.164-.003.886-.604 1.658-1.463 1.879-2.824.724-8.08 2.359-11.729 3.282-1.33.336-2.628.424-3.925-.022l-8.813-3.138c-.61-.225-1.016-.807-1.016-1.456V5.587c0-.756.545-1.402 1.291-1.53L15.393.145c.268-.056.492-.086.706-.086"/>
        <path id="prefix__m" d="M3.373.039L14.24 3.9c.309.11.515.399.515.722v1.912c0 .266-.19.496-.454.552l-2.128.622c-.357.076-.694-.192-.694-.551V5.56c0-.323-.206-.611-.515-.722L.017.958l3.356-.92z"/>
        <path id="prefix__n" d="M16.114.059c.2 0 .39.027.597.081l9.125 3.352c.678.179 1.152.788 1.158 1.488.027 3.12.005 12.666-.006 16.164-.003.886-.604 1.658-1.463 1.879-2.824.724-8.08 2.359-11.729 3.282-1.33.336-2.628.424-3.925-.022l-8.813-3.138c-.61-.225-1.016-.807-1.016-1.456V5.587c0-.756.545-1.402 1.291-1.53L15.393.145c.268-.056.492-.086.706-.086h.015z"/>
        <path id="prefix__p" d="M16.439 1.22L6.785.02l-.068 9.943c-.005.76-.51 1.427-1.241 1.64L.07 13.183l7.543 2.878 7.736-2.032.382.254.707-.677V1.221"/>
        <path id="prefix__r" d="M0.005 0.067L44.5 0.067 44.5 28.765 0.005 28.765z"/>
        <path id="prefix__t" d="M.005 23.908V22.74c.013-.251.05-.5.112-.745l.554-2.207c.15-.6.47-1.143.92-1.565l2.61-2.449c.328-.306.538-.717.596-1.161L6.296 3.082c.064-.49.415-.896.892-1.03l6.939-1.94c.243-.068.502-.06.74.024l8.718 3.058c.494.173.825.64.825 1.164v16.034c0 .754.72 1.298 1.445 1.094l16.71-4.707s.158.188.174.438v1.378c0 .734-.487 1.38-1.193 1.58-.342.098-.707-.04-.895-.342-.405-.65-1.209-1.01-2.017-.782l-6.97 1.964c-.778.22-1.315.932-1.31 1.741.002.366-.25.686-.601.786l-6.95 1.986c-.51.146-1.046-.044-1.381-.456-.433-.53-1.309-.994-2.037-.789l-1.722.49c-.775.218-1.159 1.116-1.159 1.921 0 .373-.408.755-1.055.93l-3.82 1.043c-.522.149-1.077.128-1.585-.06l-8.967-3.285C.47 25.099.055 24.544.005 23.908m22.875-7.37c.303-.086.512-.362.511-.676l-.017-10.637c0-.464-.444-.8-.891-.674l-4.697 1.321c-.27.076-.468.305-.505.582l-1.479 11.063c-.067.5.4.904.886.767m-.98-11.642c.041-.312-.142-.61-.44-.714L8.026 3.396c-.398-.14-.824.122-.879.54l-1.466 11.16c-.04.31.14.606.433.712l7.22 2.603c.399.144.829-.117.884-.537"/>
        <path id="prefix__v" d="M0.005 0.022L10.894 0.022 10.894 6.064 0.005 6.064z"/>
    </defs>
    <g fill="none" fill-rule="evenodd">
        <path fill="#0097C4" fill-rule="nonzero" d="M18.726.021c10.33 0 18.707 8.367 18.708 18.686l-.001-.04h-3.364c-.022-8.34-6.713-15.114-15.026-15.282l-.317-.004c-8.474 0-15.344 6.863-15.344 15.326 0 8.465 6.869 15.327 15.344 15.327h-.042v3.36C8.485 37.372.2 29.196.022 19.044l-.003-.337C.018 8.388 8.394.021 18.726.021z" transform="translate(.938 .234)"/>
        <path fill="#9D2C50" d="M18.691 18.854c-.192-.253-.136-.616.126-.811l6.151-4.593c.262-.196.63-.15.821.103.192.253.136.616-.126.811l-6.15 4.593c-.262.196-.63.15-.822-.103z" transform="translate(.938 .234)"/>
        <path fill="#9D2C50" d="M18.47 19.008c-.163.278-.452.407-.647.287l-4.576-2.824c-.194-.12-.22-.442-.058-.72.163-.278.453-.407.647-.287l4.577 2.824c.194.12.22.442.057.72z" transform="translate(.938 .234)"/>
        <path fill="#9D2C50" d="M20.005 18.997c-.1.787-.819 1.345-1.607 1.246-.789-.1-1.348-.818-1.249-1.606.1-.787.82-1.345 1.608-1.246.788.1 1.347.818 1.248 1.606" transform="translate(.938 .234)"/>
        <path fill="#0097C4" fill-rule="nonzero" d="M31.425 13.709c-.659-.651-1.73-.653-2.39-.004-.662.65-.663 1.703-.004 2.355l4.585 4.532c.98.97 2.573.972 3.557.006l.028-.028 4.464-4.525c.65-.66.635-1.714-.034-2.355-.67-.64-1.74-.626-2.39.034l-3.851 3.904-3.965-3.92z" transform="translate(.938 .234)"/>
        <path fill="#B0C1C4" d="M21.682 43.205c-.078.015-.16.012-.242-.013l-8.658-2.65c-.269-.083-.422-.37-.342-.64.056-.19.21-.322.389-.356.078-.015.16-.012.242.013l8.658 2.65c.268.082.421.369.342.64-.056.19-.21.321-.389.356M29.04 23.864c-.079.015-.162.012-.243-.013l-5.41-1.68c-.269-.084-.423-.374-.343-.648.055-.192.209-.324.388-.36.078-.014.161-.011.243.014l5.41 1.68c.268.084.422.374.343.649-.056.19-.21.323-.389.358M18.1 24.258c-.078.014-.16.009-.242-.018l-4.864-1.616c-.267-.089-.416-.383-.332-.657.058-.191.214-.322.394-.354.078-.014.161-.009.242.018l4.864 1.616c.268.09.417.384.333.658-.059.19-.215.321-.395.353" transform="translate(.938 .234)"/>
        <path fill="#FFFFFE" d="M7.922 38.62c-.165-.308-.414-.562-.716-.73.302-.17.55-.423.716-.73.165.307.413.56.716.73-.303.168-.551.422-.716.73" transform="translate(.938 .234)"/>
        <path fill="#F8C361" d="M4.766 35.16c-.295-.55-.738-1.001-1.276-1.302.538-.3.981-.753 1.276-1.303.295.55.738 1.002 1.277 1.303-.54.3-.982.753-1.277 1.303M10.775 28.29c-.295-.55-.738-1.002-1.277-1.303.539-.3.982-.753 1.277-1.303.294.55.737 1.003 1.276 1.303-.539.301-.982.753-1.276 1.303" transform="translate(.938 .234)"/>
        <g>
            <path fill="#BEBFBA" d="M14.227 38.16c-.835 0-1.668-.148-2.46-.442L.91 33.698c-.436-.163-.406-.792.044-.912l2.586-.682L10 34.486l.047.017c.27.094.552.14.834.14.236 0 .472-.032.702-.098l3.818-1.048c.097-.026.189-.057.274-.092.076.422.216.785.394 1.032.381.535.892.725 1.619.941.416.124.818.164 1.162.164.099 0 .192-.004.28-.01.446-.026.74-.11.74-.11.872-.2 1.801-1.582 1.801-3.185 0-.461-.081-.873-.229-1.225.255.27.603.426.963.426.115 0 .231-.016.346-.049l6.947-1.996c.082-.024.159-.06.228-.105.066.497.22.93.422 1.21.381.535.892.725 1.619.942.415.123.818.163 1.162.163.099 0 .192-.003.28-.009.446-.027.74-.11.74-.11.522-.12 1.065-.665 1.417-1.427.27.148.588.252.961.364.416.124.819.163 1.163.163.098 0 .192-.003.28-.009.446-.027.74-.11.74-.11.871-.2 1.8-1.583 1.8-3.186 0-.308-.036-.593-.104-.854l5.596 1.9c.466.126.472.788.008.921l-29.835 8.64c-.638.183-1.294.274-1.95.274m20.62-12.14l-.099-.057.153-.043c-.02.033-.037.067-.055.1" style="mix-blend-mode:multiply" opacity=".5" transform="translate(.938 .234) matrix(-1 0 0 1 58.012 21.73)"/>
            <path fill="#9AAFB2" d="M19.932 29.716c-.194-.05-.399-.076-.613-.076-1.664 0-2.4.27-2.682.502-1.344 1.187-1.177 3.356-.572 4.183.378.52.885.705 1.604.916 1.13.33 2.163.043 2.163.043.864-.195 1.785-1.541 1.785-3.103 0-1.308-.685-2.207-1.685-2.465" transform="translate(.938 .234) matrix(-1 0 0 1 58.012 21.73)"/>
            <g transform="translate(.938 .234) matrix(-1 0 0 1 58.012 21.73) translate(15.612 29.64)">
                <mask id="prefix__b" fill="#fff">
                    <use xlink:href="#prefix__a"/>
                </mask>
                <path fill="#B0C1C4" d="M3.523 5.802c-.722-.165-1.244-.906-1.398-1.87l.051.002c.085 0 .17-.016.25-.047l.413-.16c.14.666.532 1.163 1.06 1.245.052.008.102.012.153.012.722 0 1.41-.784 1.577-1.84.028-.173.04-.344.037-.509l.38-.146.002.098c0 1.564-.923 2.913-1.79 3.107 0 0-.291.081-.735.108" mask="url(#prefix__b)"/>
                <path fill="#99B0B6" d="M4.052 4.984c-.05 0-.101-.004-.152-.012.049.008.097.011.144.011.709 0 1.273-.818 1.441-1.877.023-.142.037-.282.043-.417l.138-.054c.003.165-.01.336-.037.509-.168 1.056-.855 1.84-1.577 1.84" mask="url(#prefix__b)"/>
                <path fill="#D5E4E5" d="M5.485 3.106c-.18 1.13-.81 1.986-1.585 1.866-.776-.12-1.259-1.133-1.08-2.263C3 1.579 3.775.76 4.55.88c.776.12 1.115 1.096.935 2.226" mask="url(#prefix__b)"/>
                <path fill="#8AA0A5" d="M2.125 3.932c-.07-.005-.14-.021-.207-.049l-1.27-.512c.142-.146.22-.307.22-.467 0-.79.38-1.67 1.15-1.884l.996-.28c-.43.462-.76 1.14-.884 1.925-.07.443-.068.874-.005 1.267" mask="url(#prefix__b)"/>
                <path fill="#9DB0B4" d="M2.176 3.934c-.017 0-.034 0-.051-.002-.063-.393-.065-.824.005-1.267.125-.785.453-1.463.884-1.925l.714-.2c.12-.033.244-.049.37-.049.63 0 1.294.388 1.652.823l.07.079c.136.318.215.686.226 1.096l-.38.146C5.654 1.77 5.25 1.055 4.646.9 4.615.892 4.583.885 4.55.88 4.5.872 4.449.87 4.398.87c-.722 0-1.41.784-1.577 1.84-.026.159-.038.315-.038.467 0 .192.02.377.056.55-.156.06-.294.115-.413.16-.08.032-.165.048-.25.048" mask="url(#prefix__b)"/>
                <path fill="#8AA1A9" d="M5.528 2.689C5.57 1.79 5.26 1.059 4.646.9c.604.156 1.008.87 1.02 1.735l-.138.054" mask="url(#prefix__b)"/>
                <path fill="#BBCDCF" d="M2.839 3.727c-.037-.174-.056-.359-.056-.55 0-.153.012-.31.038-.468.167-1.056.855-1.84 1.577-1.84.05 0 .101.003.152.011.033.005.065.012.096.02.614.16.924.89.882 1.789l-1.008.388c-.634.245-1.214.468-1.661.642l-.02.008" mask="url(#prefix__b)"/>
            </g>
            <path fill="#9AAFB2" d="M38.787 24.916c-.194-.05-.399-.076-.613-.076-1.664 0-2.4.27-2.682.502-1.345 1.187-1.177 3.356-.572 4.182.378.521.884.706 1.604.917 1.13.33 2.162.043 2.162.043.865-.195 1.785-1.541 1.785-3.103 0-1.308-.684-2.208-1.684-2.465" transform="translate(.938 .234) matrix(-1 0 0 1 58.012 21.73)"/>
            <g transform="translate(.938 .234) matrix(-1 0 0 1 58.012 21.73) translate(34.467 24.84)">
                <mask id="prefix__d" fill="#fff">
                    <use xlink:href="#prefix__c"/>
                </mask>
                <path fill="#B0C1C4" d="M3.53 5.733c-.867-.196-1.446-1.22-1.446-2.46.033.004.066.006.099.006.084 0 .169-.015.25-.046l.357-.138v.03c0 .923.45 1.68 1.116 1.783.051.008.102.012.152.012.723 0 1.41-.78 1.578-1.828.06-.383.045-.751-.033-1.076.128-.05.257-.098.385-.147.043.209.066.432.066.67 0 1.553-.923 2.893-1.79 3.087 0 0-.29.08-.734.107" mask="url(#prefix__d)"/>
                <path fill="#99B0B6" d="M4.058 4.92c-.05 0-.1-.004-.152-.012.05.008.097.012.145.012.708 0 1.272-.814 1.44-1.865.058-.358.062-.7.017-1.003l.095-.036c.078.325.094.693.033 1.076C5.468 4.14 4.78 4.92 4.058 4.92" mask="url(#prefix__d)"/>
                <path fill="#D5E4E5" d="M5.492 3.055c-.18 1.122-.81 1.973-1.586 1.853-.775-.119-1.258-1.126-1.079-2.248.18-1.123.954-1.937 1.73-1.817.775.119 1.114 1.089.935 2.212" mask="url(#prefix__d)"/>
                <path fill="#8AA0A5" d="M2.084 3.272c-.054-.008-.108-.022-.16-.043l-.432-.174C1.382 2.263.99 1.661.425 1.32l.054-.097L3.311.439c-.57.44-1.023 1.23-1.174 2.177-.036.223-.053.443-.053.656" mask="url(#prefix__d)"/>
                <path fill="#9DB0B4" d="M2.183 3.28c-.033 0-.066-.003-.1-.008 0-.213.018-.433.054-.656C2.288 1.67 2.74.878 3.31.44l.821-.227c.145-.04.29-.062.431-.066.72.256 1.247.863 1.425 1.723l-.385.147c-.141-.59-.487-1.035-.95-1.154-.032-.008-.064-.014-.097-.02-.05-.007-.1-.01-.151-.01-.723 0-1.41.778-1.578 1.828-.023.147-.036.293-.037.435-.133.05-.253.097-.358.138-.08.03-.165.046-.25.046" mask="url(#prefix__d)"/>
                <path fill="#8AA1A9" d="M5.508 2.052c-.09-.61-.383-1.068-.856-1.19.464.12.81.564.951 1.154l-.095.036" mask="url(#prefix__d)"/>
                <path fill="#BBCDCF" d="M2.79 3.095c.001-.142.014-.288.037-.435C2.995 1.61 3.682.83 4.405.83c.05 0 .1.004.151.012.033.005.065.011.096.02.473.12.765.578.856 1.19l-.981.375-1.662.637-.075.03" mask="url(#prefix__d)"/>
            </g>
            <path fill="#9AAFB2" d="M34.343 25.876c-.194-.05-.398-.076-.613-.076-1.663 0-2.4.27-2.682.502-1.344 1.187-1.177 3.356-.572 4.182.378.521.885.706 1.605.917 1.13.33 2.162.043 2.162.043.864-.195 1.785-1.541 1.785-3.103 0-1.308-.685-2.208-1.685-2.465" transform="translate(.938 .234) matrix(-1 0 0 1 58.012 21.73)"/>
            <g transform="translate(.938 .234) matrix(-1 0 0 1 58.012 21.73) translate(29.783 25.8)">
                <mask id="prefix__f" fill="#fff">
                    <use xlink:href="#prefix__e"/>
                </mask>
                <path fill="#B0C1C4" d="M3.53 5.733c-.722-.164-1.244-.9-1.399-1.858l.052.002c.084 0 .169-.016.25-.047l.412-.16c.14.663.533 1.157 1.061 1.238.051.008.102.012.152.012.723 0 1.41-.78 1.578-1.828.027-.172.04-.342.037-.505l.38-.146.001.098c0 .622-.148 1.21-.381 1.705-.35.738-.889 1.266-1.408 1.382 0 0-.292.08-.735.107" mask="url(#prefix__f)"/>
                <path fill="#99B0B6" d="M4.058 4.92c-.05 0-.1-.004-.152-.012.05.008.097.012.145.012.708 0 1.272-.814 1.44-1.865.023-.142.037-.28.044-.416l.138-.052c.002.163-.01.333-.037.505C5.468 4.14 4.78 4.92 4.058 4.92" mask="url(#prefix__f)"/>
                <path fill="#D5E4E5" d="M5.492 3.055c-.18 1.122-.81 1.973-1.586 1.853-.775-.119-1.258-1.126-1.079-2.248.18-1.123.954-1.937 1.73-1.817.775.119 1.114 1.089.935 2.212" mask="url(#prefix__f)"/>
                <path fill="#8AA0A5" d="M2.131 3.875c-.07-.005-.14-.021-.207-.048-.28-.114-.883-.356-1.573-.63.058-.11.09-.234.09-.363-.005-.789.528-1.482 1.3-1.696L2.927.81c-.384.454-.674 1.085-.79 1.806-.07.44-.068.868-.005 1.259" mask="url(#prefix__f)"/>
                <path fill="#9DB0B4" d="M2.183 3.877c-.018 0-.035 0-.052-.002-.063-.39-.065-.818.006-1.259.115-.721.405-1.352.789-1.806L4.858.276c.706.378 1.167 1.14 1.195 2.165l-.38.146c-.012-.86-.417-1.57-1.02-1.725-.032-.008-.064-.014-.097-.02-.05-.007-.1-.01-.151-.01-.723 0-1.41.778-1.578 1.828-.025.157-.037.313-.037.464 0 .19.019.374.055.547l-.413.159c-.08.031-.165.047-.25.047" mask="url(#prefix__f)"/>
                <path fill="#8AA1A9" d="M5.535 2.64c.042-.893-.268-1.62-.883-1.778.604.155 1.009.864 1.02 1.725l-.137.052" mask="url(#prefix__f)"/>
                <path fill="#BBCDCF" d="M2.845 3.67c-.036-.172-.055-.355-.055-.546 0-.151.012-.307.037-.464C2.995 1.61 3.682.83 4.405.83c.05 0 .1.004.151.012.033.005.065.011.096.02.615.157.925.884.883 1.776l-1.008.386-1.662.638-.02.008" mask="url(#prefix__f)"/>
            </g>
            <path fill="#0E1B2A" d="M23.068 28.2l-13.22-4.671L29.97 17.88l11.987 4.56c.325.107.435.282.435.282L23.068 28.2" transform="translate(.938 .234) matrix(-1 0 0 1 58.012 21.73)"/>
            <g transform="translate(.938 .234) matrix(-1 0 0 1 58.012 21.73) translate(9.848 17.88)">
                <mask id="prefix__h" fill="#fff">
                    <use xlink:href="#prefix__g"/>
                </mask>
                <path fill="#1B2D44" d="M30.565 5.423l1.636-.465s.52-.3-.366-.587c1.26-.007 1.386.356 1.386.356l-1.147.79-1.509-.094" mask="url(#prefix__h)"/>
            </g>
            <g transform="translate(.938 .234) matrix(-1 0 0 1 58.012 21.73) translate(14.531)">
                <mask id="prefix__j" fill="#fff">
                    <use xlink:href="#prefix__i"/>
                </mask>
                <path fill="#E49264" d="M15.392.145L1.333 4.057c-.746.128-1.29.774-1.29 1.53v16.102c0 .65.404 1.23 1.015 1.456l8.813 3.138c1.297.446 2.596.358 3.925.022 3.649-.923 8.905-2.558 11.729-3.282.86-.22 1.46-.993 1.463-1.879.01-3.498.033-13.045.006-16.164-.006-.7-.48-1.31-1.158-1.488L16.71.14c-.432-.114-.791-.105-1.319.005" mask="url(#prefix__j)"/>
            </g>
            <g transform="translate(.938 .234) matrix(-1 0 0 1 58.012 21.73) translate(14.531)">
                <mask id="prefix__l" fill="#fff">
                    <use xlink:href="#prefix__k"/>
                </mask>
                <path fill="#E58D68" d="M10.817 26.517c-.315-.049-.63-.126-.946-.234V10.336c0-.523-.33-.99-.825-1.162L.335 6.122C.24 6.088.142 6.067.042 6.058v-.471c0-.088.008-.175.022-.26.153-.642.532-.963 1.047-.963.126 0 .26.019.4.057l3.307 1.193 5.749 2.135c.67.42 1.092 1.126 1.19 1.924-.036.201-.053.414-.052.634l.081 14.167c-.004.814-.378 1.55-.969 2.043" mask="url(#prefix__l)"/>
                <path fill="#E37E66" d="M14.561 23.408c-.012 0-.025-.001-.037-.004-.063-.015-.123-.064-.15-.13-.04-.092-.004-.183.08-.202l2.49-.586c.01-.003.021-.004.032-.004.075 0 .154.055.188.134.039.092.003.183-.08.202l-2.49.587c-.01.002-.022.003-.033.003m0-.994c-.012 0-.025-.002-.037-.005-.063-.014-.123-.063-.15-.13-.04-.092-.004-.182.08-.202l2.49-.586c.01-.002.022-.004.033-.004.074 0 .153.055.187.135.039.092.003.182-.08.202l-2.49.586c-.01.003-.022.004-.033.004" mask="url(#prefix__l)"/>
                <path fill="#E37E66" d="M12.83 26.502c-.62-.493-1.039-1.222-1.044-2.028l-.007-14.419c.001-.13-.006-.257-.022-.382.143-.798.586-1.433 1.382-1.765l5.782-1.684c.253.133.416.398.416.69v1.622c0 .324.264.574.573.574.04 0 .08-.004.121-.013l2.13-.632c.264-.057.453-.29.453-.56V5.96c0-.293-.164-.558-.42-.692l3.352-.976c.116-.022.21-.052.288-.087.063-.009.125-.013.187-.013.35 0 .673.139.912.367.038.134.06.275.06.42.01 1.087.014 2.956.014 5.077V10.075c0 3.96-.012 8.794-.019 11.07-.003.885-.604 1.657-1.463 1.878-2.824.724-8.08 2.359-11.729 3.282-.323.082-.645.149-.965.197m4.121-6.135c-.045 0-.09.005-.134.017l-2.796.751c-.201.055-.328.23-.328.455v1.988c0 .392.366.747.725.747.045 0 .09-.006.135-.018l2.795-.75c.202-.055.329-.231.329-.456v-1.988c0-.392-.367-.746-.726-.746" mask="url(#prefix__l)"/>
                <path fill="#E47B68" d="M11.786 24.474l-.08-14.167c-.002-.22.015-.433.051-.634.016.125.023.253.022.382l.007 14.42" mask="url(#prefix__l)"/>
                <path fill="#E8A67A" d="M12.14 8.036c-.495 0-.987-.082-1.458-.244l-.115-.043c-.133-.083-.275-.155-.427-.214l-5.322-1.92L1.12 4.24c-.055-.017-.098-.047-.128-.084.108-.046.222-.08.341-.1L7.87 2.238 18.822 6.18c.024.008.046.018.068.028l.023.012-5.715 1.665-.06.023-.176.052c-.272.05-.547.076-.822.076m10.048-2.77c-.028-.014-.058-.027-.089-.038L11.227 1.304 15.392.145c.272-.057.499-.086.714-.086.203 0 .396.026.605.081l9.125 3.352c.069.019.136.041.2.068.13.264.11.504-.202.646l-.012.002-3.634 1.058" mask="url(#prefix__l)"/>
                <path fill="#E8A17D" d="M10.567 7.749L4.818 5.614l5.322 1.921c.152.06.294.131.427.214" mask="url(#prefix__l)"/>
                <path fill="#EA937C" d="M13.139 7.908l.059-.023 5.715-1.665.008.004-5.782 1.684m9.056-2.639c-.003 0-.005-.002-.007-.003l3.634-1.058.012-.002c-.077.035-.172.065-.288.087l-3.351.976" mask="url(#prefix__l)"/>
                <path fill="#D4E3E5" d="M22.1 5.228L9.007.503l-3.974.714L18.822 6.18c.31.112.515.405.515.734v1.622c0 .365.337.638.694.56l2.13-.631c.264-.057.453-.29.453-.56V5.96c0-.328-.206-.621-.515-.733" mask="url(#prefix__l)"/>
            </g>
            <g transform="translate(.938 .234) matrix(-1 0 0 1 58.012 21.73) translate(22.454 1.32)">
                <path fill="#DDACA4" d="M11.38 7.338V5.651c0-.304-.17-.578-.433-.717l-.007-.004-.024-.012 3.448-.968c.256.142.42.412.42.71v2.021c0 .281-.197.524-.472.583l-2.211.657c-.043.01-.085.014-.126.014-.32 0-.595-.26-.595-.597z"/>
            </g>
            <g transform="translate(.938 .234) matrix(-1 0 0 1 58.012 21.73) translate(14.531)">
                <mask id="prefix__o" fill="#fff">
                    <use xlink:href="#prefix__n"/>
                </mask>
                <path fill="#F5CFBF" d="M14.42 24.325c-.36 0-.726-.355-.726-.747V21.59c0-.224.127-.4.328-.455l2.796-.75c.044-.013.089-.018.134-.018.359 0 .726.354.726.746v1.988c0 .225-.127.401-.329.455l-2.795.751c-.044.012-.09.018-.135.018m2.557-1.843c-.01 0-.022.001-.032.004l-2.49.586c-.084.02-.12.11-.08.202.027.066.087.115.15.13.012.003.025.004.037.004l.033-.003 2.49-.587c.083-.02.119-.11.08-.202-.034-.08-.113-.134-.188-.134m0-.995c-.01 0-.022.002-.032.004l-2.49.586c-.084.02-.12.11-.08.202.027.067.087.116.15.13.012.003.025.005.037.005.011 0 .022-.001.033-.004l2.49-.586c.083-.02.119-.11.08-.202-.034-.08-.113-.135-.187-.135" mask="url(#prefix__o)"/>
            </g>
            <path fill="#482638" d="M14.385 9.48l-.067 9.893c-.005.757-.508 1.42-1.238 1.633l-5.394 1.57 7.527 2.864 7.72-2.021.38.252.706-.673V10.674L14.385 9.48z" transform="translate(.938 .234) matrix(-1 0 0 1 58.012 21.73)"/>
            <g transform="translate(.938 .234) matrix(-1 0 0 1 58.012 21.73) translate(7.566 9.36)">
                <mask id="prefix__q" fill="#fff">
                    <use xlink:href="#prefix__p"/>
                </mask>
                <path fill="#6C7484" d="M11.011 12.745c-.038-.035-.078-.062-.119-.077l-.854-.274-1.51-.545 1.185-8.851c.037-.278.236-.508.507-.584l4.714-1.323c.064-.018.129-.027.192-.027.375 0 .702.304.703.702l.017 10.658c0 .315-.21.592-.513.678l-1.874.527-2.448-.884z" mask="url(#prefix__q)"/>
                <path fill="#5D6976" d="M8.806 14.87c-.355-.062-.63-.395-.578-.787l.3-2.234 1.51.545-1.19-.382c-.03 0-.04 1.717-.042 2.857m2.359-.594l.014-1.202c0-.105-.075-.24-.168-.328l2.448.884-2.294.646" mask="url(#prefix__q)"/>
            </g>
            <path fill="#482638" d="M12.278 22.11c-.368 0-.75.163-1.06.458-.349.33-.573.789-.615 1.259-.042.46.093.903.38 1.245.278.33.664.534 1.087.573.41.038.81-.108 1.132-.41.327-.308.53-.739.573-1.215.043-.475-.08-.937-.347-1.298-.261-.355-.63-.57-1.04-.608-.036-.003-.073-.005-.11-.005m-.08 3.931c-.055 0-.108-.003-.162-.007-.526-.048-1.005-.3-1.35-.71-.353-.423-.52-.966-.47-1.532.052-.563.32-1.112.736-1.506.423-.402.958-.605 1.472-.558.52.047.987.318 1.315.763.324.439.474.994.422 1.565-.051.571-.298 1.091-.695 1.464-.36.34-.806.52-1.269.521" transform="translate(.938 .234) matrix(-1 0 0 1 58.012 21.73)"/>
            <path fill="#B6DFE2" d="M8.048 22.32l-1.96-.696c-.269-.095-.444-.346-.444-.621 0-.029.002-.058.006-.086L7.132 9.815c.046-.34.34-.575.666-.575.073 0 .148.012.222.037l6.391 2.2-.053 7.757c-.006.755-.514 1.417-1.25 1.63l-5.06 1.456" transform="translate(.938 .234) matrix(-1 0 0 1 58.012 21.73)"/>
            <path fill="#6C7484" d="M8.046 22.44l5.024-1.467c.73-.213 1.235-.88 1.24-1.64l.053-7.813.922.322c.27.094.447.349.447.628 0 .03-.002.058-.006.088L14.632 20.8c-.146-.016-.293-.024-.44-.024-.282 0-.564.03-.842.088-.089.044-.183.08-.28.11L8.046 22.44" transform="translate(.938 .234) matrix(-1 0 0 1 58.012 21.73)"/>
            <path fill="#5D6976" d="M14.3 23.28c-.067-.307-.2-.595-.397-.843-.337-.43-.818-.69-1.353-.736-.05-.004-.1-.006-.15-.006-.481 0-.97.194-1.365.544-.28.248-.494.56-.624.896l-2.365-.802 5.039-1.386c.098-.027.192-.062.281-.104.278-.055.561-.083.844-.083.147 0 .295.008.441.023L14.3 23.28" transform="translate(.938 .234) matrix(-1 0 0 1 58.012 21.73)"/>
            <path fill="#5D6976" d="M13.574 24.24c-.074 0-.15-.012-.224-.039l-2.542-.896c.107-.29.285-.558.516-.772.317-.291.703-.453 1.078-.453.037 0 .075.002.112.005.415.037.79.25 1.056.6.27.358.396.814.352 1.284-.006.064-.014.127-.026.189-.097.053-.207.082-.322.082" transform="translate(.938 .234) matrix(-1 0 0 1 58.012 21.73)"/>
            <path fill="#6C7484" d="M13.897 24.24c.013-.063.022-.128.028-.193.045-.481-.084-.948-.364-1.313-.274-.36-.661-.578-1.09-.615-.039-.004-.077-.005-.116-.005-.387 0-.786.165-1.112.464-.24.218-.423.492-.533.789l-.382-.134c.132-.354.35-.681.636-.942.402-.367.9-.571 1.39-.571.052 0 .103.002.154.007.545.048 1.035.322 1.38.772.199.261.336.564.403.886l-.05.365c-.03.218-.164.393-.344.49" transform="translate(.938 .234) matrix(-1 0 0 1 58.012 21.73)"/>
            <path fill="#D4E3E5" d="M5.184 21.07l-.295-.094.003-.02.067-4.827c0-.136-.082-.258-.205-.303l-1.55-.568c-.2-.073-.41.083-.408.305l-.034 4.584c.001.178.108.337.268.398l1.409.54.652.265c.083.033.175-.02.19-.112.014-.074-.028-.146-.097-.168" transform="translate(.938 .234) matrix(-1 0 0 1 58.012 21.73)"/>
            <g transform="translate(.938 .234) matrix(-1 0 0 1 58.012 21.73) translate(0 5.88)">
                <mask id="prefix__s" fill="#fff">
                    <use xlink:href="#prefix__r"/>
                </mask>
                <path fill="#0E1B2A" d="M41.424 19.865l2.654-.754c.25-.071.422-.3.422-.56 0-.386-.369-.665-.741-.56l-2.653.747c-.252.071-.425.3-.425.56v.008c0 .387.37.666.743.56" mask="url(#prefix__s)"/>
                <path fill="#1B2D44" d="M22.894 16.537l-6.196 1.747c-.486.137-.953-.267-.886-.767l1.48-11.063c.037-.277.235-.506.505-.582l4.7-1.32c.446-.126.89.209.891.673l.017 10.637c0 .314-.208.59-.51.675m-7.178-9.895l-1.49 11.232c-.056.42-.486.681-.885.537l-7.224-2.603c-.294-.106-.474-.402-.434-.712l1.468-11.16c.055-.418.48-.68.879-.54l7.247 2.532c.297.104.48.402.44.714M25.87 21.486c-.726.204-1.446-.34-1.446-1.094V4.358c0-.524-.331-.99-.826-1.164L14.877.136c-.239-.083-.498-.092-.742-.024l-6.943 1.94c-.477.134-.828.54-.892 1.03L4.8 14.614c-.058.444-.268.855-.596 1.161l-2.612 2.449c-.45.422-.77.965-.92 1.565l-.555 2.207c-.078.308-.117.625-.117.943v.84c0 .689.43 1.305 1.077 1.543l8.973 3.286c.509.187 1.064.208 1.585.059l3.823-1.042c.648-.176 1.056-.558 1.056-.93 0-.806.385-1.704 1.16-1.922l1.723-.49c.729-.205 1.605.258 2.038.79.335.41.87.6 1.381.455l6.955-1.986c.352-.1.603-.42.601-.786-.004-.81.533-1.521 1.311-1.74l6.975-1.965c.808-.228 1.613.133 2.018.782.187.301.553.44.895.343.707-.202 1.194-.847 1.194-1.581v-1.378c-.016-.25-.175-.438-.175-.438l-16.719 4.707" mask="url(#prefix__s)"/>
            </g>
            <g transform="translate(.938 .234) matrix(-1 0 0 1 58.012 21.73) translate(0 5.88)">
                <mask id="prefix__u" fill="#fff">
                    <use xlink:href="#prefix__t"/>
                </mask>
                <path fill="#384E65" d="M9.98 22.143c-.328 0-.66-.056-.978-.172L1.76 19.49c-.401-.145-.585-.574-.466-.946.091-.112.19-.22.297-.32l2.61-2.448c.328-.306.538-.717.596-1.161L6.296 3.082c.029-.22.114-.422.243-.59.148-.119.337-.193.519-.193.067 0 .133.01.196.032l8.544 2.858.063.022c.3.104.49.4.446.716l-1.582 11.83c-.097.702-.428 1.351-.94 1.843l-1.812 1.74c-.545.524-1.262.803-1.993.803m-4.305-6.96c0 .277.173.529.44.625l7.219 2.603c.075.028.151.04.226.04.321 0 .613-.236.658-.577l1.49-11.232c.004-.029.006-.058.006-.087 0-.279-.176-.533-.446-.627L8.026 3.396c-.073-.026-.148-.038-.22-.038-.322 0-.614.237-.659.578l-1.466 11.16c-.004.03-.006.058-.006.087" mask="url(#prefix__u)"/>
                <path fill="#304962" d="M10.092 28.625l-.048-.017-8.967-3.286C.43 25.084 0 24.468 0 23.778v-.839c0-.318.04-.635.117-.943l.554-2.207c.018-.074.04-.148.063-.22.17-.114.37-.175.574-.175.113 0 .228.02.34.058l8.679 2.98c.322.119.535.425.535.768l-.01 4.608c0 .448-.351.788-.76.817" mask="url(#prefix__u)"/>
                <path fill="#546B83" d="M16.664 5.343c-.267 0-.533-.043-.79-.128l-.013-.004h-.002l-.061-.022-8.453-2.83c-.14-.047-.204-.174-.193-.296l.036-.01 6.939-1.94c.108-.031.22-.046.332-.046.138 0 .277.023.409.07l8.717 3.057c.073.026.142.058.208.096.041.141-.028.312-.201.357l-6.3 1.616c-.206.053-.417.08-.628.08" mask="url(#prefix__u)"/>
                <path fill="#708598" d="M15.86 5.21l-.062-.02.061.02h.002" mask="url(#prefix__u)"/>
                <path fill="#D5E4E5" d="M9.096 23.944c-.043.475.257.848.63.882.374.034.712-.324.755-.799.043-.475-.225-.887-.599-.921-.373-.034-.743.363-.786.838M1.178 21.127c-.043.475.258.849.631.883.374.034.711-.324.755-.8.043-.474-.225-.887-.599-.92-.374-.034-.743.362-.787.837" mask="url(#prefix__u)"/>
            </g>
            <g transform="translate(.938 .234) matrix(-1 0 0 1 58.012 21.73) translate(0 28.68)">
                <mask id="prefix__w" fill="#fff">
                    <use xlink:href="#prefix__v"/>
                </mask>
                <path fill="#9AAFB2" d="M.083 2.078c0 .299.157.536.44.639l9.28 3.297c.527.193 1.086-.194 1.086-.752l.005-1.098c0-.336-.21-.636-.529-.752L1.022.098C.558-.05.083.294.083.778v1.3" mask="url(#prefix__w)"/>
                <path fill="#D5E4E5" d="M0 1.723c0 .299.188.566.471.67l9.156 3.342c.528.193 1.087-.194 1.087-.752l-.014-.908c0-.336-.212-.636-.53-.752L.94.057C.474-.09 0 .253 0 .737v.986" mask="url(#prefix__w)"/>
            </g>
            <path fill="#FFFFFE" d="M2.282 30.472l.007.494c0 .198.117.375.293.443l4.021 1.561c.293.114.603-.114.603-.442v-.537c0-.198-.117-.375-.293-.443l-4.03-1.518c-.291-.114-.601.114-.601.442" transform="translate(.938 .234) matrix(-1 0 0 1 58.012 21.73)"/>
            <path fill="#5C6475" d="M18.494 21.96l-.96-.24.843.187c.04.01.08.029.117.053" transform="translate(.938 .234) matrix(-1 0 0 1 58.012 21.73)"/>
            <path fill="#4D5B67" d="M16.572 24.48c-.04 0-.08-.004-.12-.01.002-1.193.012-2.99.043-2.99l1.205.4.985.367c.094.091.17.233.17.343l-.015 1.258-2.072.604c-.066.019-.132.028-.196.028" transform="translate(.938 .234) matrix(-1 0 0 1 58.012 21.73)"/>
            <path fill="#152338" d="M18.556 26.88c-.025 0-.052-.005-.083-.016l-1.683-.591c-.217-.076-.444-.39-.442-.613l.024-.115c.001-.14-.19-.198-.328-.252l-1.141-.455c-.06-.024-.123-.105-.132-.172l1.559.427c-.002-.017-.004-.432-.003-.983.04.007.08.01.12.01.065 0 .13-.009.197-.027l2.09-.573-.038 3.192c0 .107-.053.168-.14.168" transform="translate(.938 .234) matrix(-1 0 0 1 58.012 21.73)"/>
            <path fill="#D4E3E5" d="M14.839 24.834l3.115 1.074c.14.048.287-.054.287-.2l.013-4.779c0-.136-.087-.258-.219-.303l-1.653-.568c-.214-.073-.436.083-.435.305l.024 4.328c0 .14-.136.239-.271.198l-.798-.243c-.06-.017-.12.02-.13.08-.006.047.021.092.067.108" transform="translate(.938 .234) matrix(-1 0 0 1 58.012 21.73)"/>
        </g>
        <path fill="#B0C1C4" d="M19.672 36.944c-.078.015-.16.012-.242-.013l-5.41-1.68c-.27-.084-.423-.374-.344-.648.056-.192.21-.324.389-.36.078-.014.16-.011.242.014l5.41 1.68c.27.084.423.374.343.649-.055.19-.209.323-.388.358M17.921 31.486c-.078.014-.16.009-.242-.018l-4.864-1.616c-.268-.09-.416-.383-.333-.658.059-.19.215-.321.395-.353.078-.014.161-.009.242.018l4.864 1.616c.268.09.417.383.333.657-.059.191-.215.322-.395.354" transform="translate(.938 .234)"/>
    </g>
</svg>
