<svg xmlns="http://www.w3.org/2000/svg" xmlns:xlink="http://www.w3.org/1999/xlink" width="60" height="60" viewBox="0 0 60 60">
    <defs>
        <path id="prefix__a" d="M.505 0h43.556c.278 0 .505.226.505.504v47.85c0 .452-.368.818-.82.818H.82c-.453 0-.82-.366-.82-.819V.504C0 .226.226 0 .505 0z"/>
        <path id="prefix__c" d="M.003 1.076v1.436c0 .123.065.236.168.295l1.285.733c.096.055.213.055.31 0l1.284-.733c.104-.059.168-.172.168-.295V1.076c0-.123-.064-.236-.168-.295L1.766.048c-.097-.055-.214-.055-.31 0L.17.781c-.103.06-.168.172-.168.295"/>
        <path id="prefix__e" d="M.007.21L.372.005c.422.242 1.251.72 1.366.79.07.048.083.082.083.134v.226c-.001.063-.01.078-.05.104-.042.027-.232.122-.294.15-.061.028-.066-.06-.066-.06s.01-.066.015-.143c.01-.132-.064-.183-.064-.183L.007.21"/>
        <path id="prefix__g" d="M.003 2.512c0 .123.065.236.168.295l1.285.733c.096.055.213.055.31 0l1.284-.733c.104-.059.168-.172.168-.295V1.076c0-.123-.064-.236-.168-.295L1.766.048c-.097-.055-.214-.055-.31 0L.17.781c-.103.06-.168.172-.168.295v1.436z"/>
        <path id="prefix__i" d="M0.001 0.003L0.991 0.003 0.991 2.89 0.001 2.89z"/>
    </defs>
    <g fill="none" fill-rule="evenodd" transform="translate(0 3.047)">
        <path fill="#BEBFBA" d="M29.605 45.852c15.852.032 28.622 1.603 28.622 3.538 0 .541-1.002 1.055-2.792 1.514 2.719.261 4.565.773 4.565 1.36 0 .856-3.904 1.549-8.72 1.549-4.323 0-7.912-.56-8.6-1.292-4.05.26-8.667.407-13.567.407h-.49C12.77 52.896 0 51.324 0 49.39c0-1.954 13.034-3.539 29.113-3.539z" style="mix-blend-mode:multiply" opacity=".5"/>
        <g transform="translate(7.5)">
            <mask id="prefix__b" fill="#fff">
                <use xlink:href="#prefix__a"/>
            </mask>
            <use fill="#DABA99" fill-rule="nonzero" xlink:href="#prefix__a"/>
            <path fill="#735C46" fill-rule="nonzero" d="M0 38.82L44.566 38.82 44.566 49.172 0 49.172z" mask="url(#prefix__b)"/>
            <path fill="#0091CD" fill-rule="nonzero" d="M2.25 1.685h39.938c.31 0 .562.251.562.561v5.99c0 .31-.252.561-.563.561H2.25c-.31 0-.563-.251-.563-.561v-5.99c0-.31.252-.561.563-.561z" mask="url(#prefix__b)"/>
            <g fill="#FFF" mask="url(#prefix__b)">
                <g>
                    <path d="M4.309.937L4.507.146 4.111.146 3.91.937 4.309.937M3.658 1.941L4.057 1.941 4.255 1.15 3.856 1.15zM3.406 2.949L3.801 2.949 4.002 2.158 3.603 2.158zM3.931.146L.017.146.017.314.672.937 3.73.937zM2.083 2.158L2.083 2.285 2.775 2.949 3.225 2.949 3.423 2.158zM3.675 1.15L1.03 1.15 1.03 1.277 1.722 1.941 3.477 1.941zM17.622.737l-.069.255c-.03.117-.085.162-.221.162h-.389c-.174 0-.232.01-.28.055-.033.034-.054.096-.054.151 0 .065.027.09.126.12l.396.117c.269.08.35.165.347.375-.003.21-.081.54-.2.692-.113.148-.26.213-.485.213h-.961c-.075 0-.102-.058-.092-.113l.123-.482h.054c.03.11.102.14.317.14h.375c.14 0 .208-.02.249-.071.04-.045.065-.117.068-.176.004-.09-.03-.113-.221-.165l-.365-.1c-.212-.055-.304-.165-.3-.344.003-.165.075-.409.167-.567.109-.19.273-.262.566-.262h.849zM8.257.717c-.437 0-.682.096-.88.344-.19.247-.382.856-.388 1.245-.004.237.085.423.245.506.11.055.286.082.576.082.314 0 .508-.027.61-.082.075-.045.092-.076.147-.293l.078-.292h-.047c-.13.151-.28.217-.641.217-.18 0-.283-.018-.33-.052-.066-.041-.09-.103-.09-.19 0-.037.01-.085.018-.126l.037-.169h.914c.197 0 .259-.02.3-.096.054-.11.109-.379.112-.544.014-.385-.184-.55-.661-.55zm.167.832h-.73c.096-.34.205-.447.474-.447.201 0 .297.072.293.227 0 .062-.006.114-.037.22zm6.58-.832c-.437 0-.682.096-.88.344-.191.247-.382.856-.385 1.245-.004.237.081.423.245.506.11.055.286.082.576.082.314 0 .508-.027.61-.082.075-.045.092-.076.147-.293l.075-.292h-.048c-.13.151-.28.217-.64.217-.181 0-.284-.018-.331-.052-.062-.041-.089-.103-.089-.19 0-.037.01-.085.017-.126l.038-.169h.917c.197 0 .259-.02.3-.096.054-.11.112-.379.112-.544.014-.385-.187-.55-.665-.55zm.166.832h-.73c.096-.34.205-.447.475-.447.2 0 .296.072.293.227.003.062-.007.114-.038.22zM10.711.737l-.071.282c-.03.117-.082.152-.242.152h-.208c-.225 0-.297.062-.358.32l-.293 1.142c-.014.051-.02.096-.024.117 0 .044.024.069.071.086l-.01.044h-.521c-.075 0-.103-.058-.092-.113l.47-1.854.01-.045c0-.045-.024-.069-.071-.082L9.385.74h.518c.075 0 .103.058.092.113l-.05.193.153-.21c.064-.093.078-.096.208-.096h.405V.737zM7.074.311l-.587 2.294c-.02.083-.05.186.052.217-.007.017-.01.034-.017.052h-.583c-.075 0-.103-.059-.092-.114l.296-1.152h-.798l-.252.994c-.013.051-.024.096-.024.12 0 .048.024.08.069.097-.004.017-.007.034-.014.051H4.55c-.075 0-.102-.058-.092-.113L5.045.462c.018-.082.052-.179-.05-.213l.013-.055h.586c.075 0 .103.058.092.113l-.221.87h.79L6.44.463c.013-.055.02-.093.02-.12 0-.048-.024-.076-.075-.093L6.4.194h.586c.072.003.1.062.089.117zm6.146.41h-.28c-.146 0-.224.03-.32.175l-.105.165c.01-.169-.082-.34-.362-.34h-.259c-.218 0-.269.092-.324.157l-.122.166.05-.193c.011-.055-.016-.114-.091-.114h-.522l-.01.045c.048.017.068.041.068.083 0 .017 0 .03-.007.044l-.467 1.855c-.01.055.017.113.092.113h.522l.014-.045c-.052-.017-.072-.041-.072-.086 0-.02.01-.065.02-.117 0 0 .287-1.094.294-1.135.068-.285.146-.32.296-.337.03-.003.058-.003.106-.003.15 0 .19.089.17.192-.013.059-.358 1.414-.358 1.414-.01.055.017.114.092.114h.522l.014-.045c-.048-.017-.072-.041-.068-.086 0-.02.01-.065.02-.117 0 0 .293-1.125.293-1.135.075-.282.15-.32.3-.337.03-.004.058-.004.11-.004.15 0 .19.09.17.193l-.355 1.414c-.01.055.017.113.092.113h.522l.013-.045c-.05-.017-.071-.04-.071-.086 0-.02.01-.065.024-.117 0 0 .337-1.362.364-1.486.031-.12.028-.416-.375-.416z" transform="translate(13.5 2.808)"/>
                    <path fill-rule="nonzero" d="M4.34 4.277c-.004.014-.004.024-.004.034 0 .08.062.097.14.097.02 0 .034 0 .058-.004l-.014.086c-.02.004-.044.007-.071.007-.106 0-.208-.038-.208-.172 0-.014 0-.03.003-.051L4.3 3.95h-.157l.024-.09h.146l.031-.181h.099l-.03.182h.194l-.024.09h-.184l-.058.326zM5.247 4.057c0 .02-.004.041-.007.069l-.062.354H5.08l.06-.358c.004-.02.008-.034.008-.051 0-.083-.055-.131-.137-.131-.092 0-.167.055-.184.155l-.064.385h-.1l.168-.97h.099l-.069.406c.045-.041.106-.069.174-.069.13.004.212.09.212.21zM6.297 4.398h-.808c.011.192.152.309.356.309.13 0 .226-.048.316-.117l.085.106c-.107.096-.254.155-.413.155-.299 0-.508-.203-.508-.469 0-.287.249-.531.56-.531.254 0 .44.164.44.404 0 .064-.011.111-.028.143zm-.791-.133h.655V4.25c0-.164-.124-.255-.288-.255-.18-.005-.322.107-.367.271zM7.382 4.193c0 .191-.163.403-.456.403-.163 0-.274-.068-.326-.148l-.083.403h-.135l.2-.985h.125l-.018.104c.074-.08.19-.12.307-.12.232 0 .386.156.386.343zm-.135.012c0-.131-.107-.247-.284-.247-.214 0-.32.171-.32.307 0 .143.125.231.274.231.19-.004.33-.14.33-.29z" transform="translate(13.5 2.808)"/>
                    <path fill-rule="nonzero" d="M8.207 4.17c0 .032-.006.064-.012.101l-.11.564H7.92l.019-.102c-.092.076-.22.124-.36.124-.183 0-.372-.08-.372-.258 0-.145.122-.29.451-.29h.354l.006-.032c.006-.038.006-.065.006-.086 0-.135-.11-.194-.256-.194-.14 0-.232.054-.323.124l-.086-.113c.128-.102.269-.15.433-.15.232-.011.415.091.415.311zm-.232.327l.012-.064h-.323c-.195 0-.274.059-.274.145 0 .112.122.15.231.15.183 0 .33-.107.354-.231z" transform="translate(13.5 2.808)"/>
                    <path fill-rule="nonzero" d="M8.342 3.868l-.014.086c-.023-.004-.04-.007-.054-.007-.092 0-.184.058-.205.175l-.061.358h-.099l.106-.62h.092l-.01.07c.05-.052.116-.076.184-.076.017.003.037.003.061.014zM8.98 3.998l-.075.052c-.041-.065-.106-.11-.188-.11-.133 0-.242.107-.242.248 0 .123.089.216.211.216.079 0 .147-.037.188-.09l.065.056c-.062.08-.15.124-.256.124-.174 0-.307-.127-.307-.303 0-.193.157-.344.344-.344.116.004.208.062.26.151zM10.058 4.398H9.25c.012.192.153.309.362.309.13 0 .226-.048.316-.117l.085.106c-.107.096-.254.155-.412.155-.3 0-.509-.203-.509-.469 0-.287.249-.531.56-.531.254 0 .44.164.44.404-.011.064-.023.111-.034.143zm-.796-.133h.655V4.25c0-.164-.124-.255-.288-.255-.175-.005-.322.107-.367.271z" transform="translate(13.5 2.808)"/>
                    <path fill-rule="nonzero" d="M9.897 4.48L9.798 4.48 9.965 3.51 10.064 3.51zM11.422 4.193c0 .191-.163.403-.456.403-.163 0-.275-.068-.326-.148l-.084.403h-.134l.2-.985h.125l-.018.104c.074-.08.19-.12.307-.12.232 0 .386.156.386.343zm-.135.012c0-.131-.107-.247-.284-.247-.214 0-.32.171-.32.307 0 .143.125.231.273.231.191-.004.33-.14.33-.29z" transform="translate(13.5 2.808)"/>
                    <path fill-rule="nonzero" d="M12.254 4.398h-.808c.011.192.152.309.361.309.13 0 .226-.048.317-.117l.084.106c-.107.096-.254.155-.412.155-.3 0-.508-.203-.508-.469 0-.287.248-.531.559-.531.254 0 .44.164.44.404-.01.064-.022.111-.033.143zm-.797-.133h.655V4.25c0-.164-.124-.255-.288-.255-.175-.005-.322.107-.367.271z" transform="translate(13.5 2.808)"/>
                    <path fill-rule="nonzero" d="M13 4.326c0 .292-.245.521-.531.521-.271 0-.469-.207-.469-.473 0-.293.245-.527.526-.527.27.005.474.213.474.479zm-.844.053c0 .191.136.33.323.33.203 0 .37-.17.37-.378 0-.191-.14-.335-.323-.335-.208-.005-.37.17-.37.383z" transform="translate(13.5 2.808)"/>
                    <path fill-rule="nonzero" d="M13.733 4.193c0 .191-.164.403-.455.403-.165 0-.277-.068-.33-.148l-.084.403h-.131l.202-.985h.127l-.02.104c.076-.08.193-.12.31-.12.23 0 .381.156.381.343zm-.136.012c0-.131-.108-.247-.287-.247-.216 0-.324.171-.324.307 0 .143.127.231.277.231.193-.004.334-.14.334-.29z" transform="translate(13.5 2.808)"/>
                    <path fill-rule="nonzero" d="M13.677 4.48L13.578 4.48 13.745 3.51 13.844 3.51zM14.868 4.398h-.808c.012.192.153.309.362.309.13 0 .226-.048.316-.117l.085.106c-.107.096-.254.155-.412.155-.3 0-.509-.203-.509-.469 0-.287.249-.531.56-.531.254 0 .44.164.44.404-.005.064-.017.111-.034.143zm-.79-.133h.655V4.25c0-.164-.125-.255-.288-.255-.175-.005-.322.107-.368.271z" transform="translate(13.5 2.808)"/>
                </g>
            </g>
        </g>
        <path fill="#E1ECF2" fill-rule="nonzero" d="M49.543 20.224H1.047c0-2.048-.067 0-.067 0v3.845c-.051 2.422 1.727 4.513 4.177 4.913 1.899.265 3.778-.59 4.791-2.179h1.441c.878 1.393 2.434 2.241 4.11 2.241 1.677 0 3.233-.848 4.11-2.24h1.475c.878 1.392 2.434 2.24 4.11 2.24 1.676 0 3.232-.848 4.11-2.24h1.397c.877 1.392 2.434 2.24 4.11 2.24 1.676 0 3.232-.848 4.11-2.24h1.396c.878 1.392 2.434 2.24 4.11 2.24 1.677 0 3.233-.848 4.11-2.24h1.698c1.013 1.588 2.893 2.443 4.792 2.178 2.45-.4 4.228-2.491 4.177-4.913v-1.678s0-2.178-.067-2.178l-9.594.01z" opacity=".7" style="mix-blend-mode:multiply"/>
        <path fill="#FFE6B3" fill-rule="nonzero" d="M33.133 30.813h10.138c1.485 0 2.69 1.205 2.69 2.69v4.94c0 1.486-1.205 2.69-2.69 2.69H33.133c-1.485 0-2.69-1.204-2.69-2.69v-4.94c0-1.485 1.205-2.69 2.69-2.69zM19.612 29.634h3.929c1.771 0 3.208 1.492 3.208 3.332v16.276H16.404V32.966c0-1.84 1.436-3.332 3.208-3.332z"/>
        <path fill="#7DD1E4" fill-rule="nonzero" d="M44.537 10.32H7.274l-5.707 7.306C.97 18.39.65 19.337.658 20.309v.383c-.042 2.575 1.854 4.768 4.396 5.085 1.375.137 2.743-.319 3.765-1.254 1.022-.934 1.602-2.261 1.595-3.65l1.121-2.086h8.635v1.871c-.043 2.575 1.853 4.768 4.396 5.085 1.37.137 2.735-.316 3.757-1.246 1.02-.93 1.603-2.25 1.603-3.636v-2.063h9.755v1.872c-.042 2.575 1.854 4.767 4.396 5.084 1.37.134 2.731-.32 3.75-1.25 1.018-.93 1.599-2.248 1.599-3.632v-2.074l-4.89-8.478z"/>
        <path fill="#E1ECF2" fill-rule="nonzero" d="M14.625 10.32l-3.896 7.475c-.346.665-.527 1.405-.526 2.156v.734c-.042 2.58 1.85 4.776 4.388 5.093 1.367.133 2.727-.321 3.744-1.252 1.017-.931 1.597-2.252 1.596-3.637V18.81l2.833-8.49h-8.139zM37.613 10.32h-7.49V20.89c0 1.755.887 3.376 2.327 4.254 1.44.877 3.215.877 4.655 0 1.44-.878 2.328-2.5 2.328-4.254V18.81l-1.82-8.49zM52.62 10.32h-8.254l4.392 7.418c.417.704.636 1.502.636 2.315v.632c-.044 2.58 1.91 4.776 4.531 5.093 1.412.133 2.816-.321 3.866-1.252 1.05-.931 1.648-2.252 1.648-3.637v-.565c.002-.965-.327-1.904-.936-2.665L52.62 10.32z"/>
        <path fill="#979797" fill-rule="nonzero" d="M40.43 35.055L40.173 35.212 37.734 32.445 37.991 32.288z"/>
        <path fill="#979797" fill-rule="nonzero" d="M36.481 35.914L36.211 35.788 37.816 32.171 38.086 32.296z"/>
        <path fill="#0091CD" d="M35.643 35.473l5.343-.84c.239-.038.464.124.501.362l.343 2.15c.038.237-.125.46-.364.497l-5.342.84c-.24.038-.464-.124-.502-.362l-.343-2.15c-.038-.237.125-.46.364-.497z"/>
        <path fill="#FFF" d="M36.889 37.371c-.131.02-.253.012-.366-.025-.112-.038-.206-.1-.28-.186-.074-.086-.121-.189-.14-.309-.02-.12-.007-.232.036-.337.044-.104.114-.192.209-.262.096-.07.209-.115.34-.135.13-.02.252-.012.364.025.113.038.207.1.281.185.074.087.121.19.14.31.02.12.007.232-.036.336-.044.105-.114.192-.21.262-.095.07-.208.116-.338.136zm-.053-.327c-.05.008-.099.003-.144-.016-.045-.018-.083-.047-.115-.089-.031-.041-.052-.092-.061-.153-.01-.06-.007-.115.01-.164.018-.049.045-.089.082-.12.037-.03.08-.05.132-.058.05-.008.099-.003.144.015.045.018.083.048.114.09.032.04.053.092.062.152.01.06.006.115-.01.164-.018.05-.045.09-.082.12-.037.031-.081.05-.132.059zm1.322-.878c.083-.013.163-.005.24.023.076.029.14.077.193.145.053.067.087.15.103.247s.009.186-.02.266c-.03.08-.076.145-.14.195-.063.05-.137.082-.22.096-.105.016-.19.002-.254-.043l.063.396-.392.06-.204-1.269.373-.058.013.077c.046-.072.128-.117.245-.135zm.014.685c-.045.007-.085-.004-.119-.031-.034-.027-.056-.07-.065-.129-.01-.058-.002-.106.021-.143.024-.037.059-.059.104-.066.045-.007.084.004.118.032.035.028.056.07.066.13.01.057.002.105-.022.141-.024.037-.058.059-.103.066zm1.626-.445l.01.092-.66.103c.02.033.047.057.082.07.036.015.078.018.126.01.042-.006.076-.017.103-.032.027-.014.055-.037.084-.067l.238.171c-.077.115-.207.187-.39.216-.115.018-.22.013-.313-.015-.093-.028-.17-.076-.229-.143-.06-.066-.096-.146-.111-.239s-.005-.18.03-.262c.035-.08.09-.148.165-.202.075-.054.163-.089.265-.105.096-.015.187-.01.272.016.085.025.157.07.216.136.058.066.096.15.112.251zm-.554-.14c.04-.006.076 0 .106.018s.052.046.066.084l-.305.048c.002-.042.014-.075.037-.101.023-.026.055-.042.096-.048zm1.23-.462c.117-.019.216.002.299.06.082.059.134.158.157.299l.086.534-.393.062-.075-.468c-.017-.108-.064-.155-.142-.143-.044.007-.077.028-.099.062-.022.035-.028.084-.018.15l.07.44-.391.061-.15-.937.372-.058.015.092c.031-.042.07-.076.115-.102.046-.026.097-.043.154-.052z"/>
        <circle cx="37.852" cy="32.522" r="1" fill="#373737"/>
        <path fill="#BFBFBF" fill-rule="nonzero" d="M46.7 51.604h9.684v-11.75c0-.633-.496-1.146-1.107-1.146h-7.47c-.61 0-1.106.513-1.106 1.146v11.75zm1.13-13.467h7.464c.917 0 1.66.77 1.66 1.719v12.319H46.171v-12.32c0-.949.742-1.718 1.659-1.718z"/>
        <path fill="#000" d="M56.953 51.707v.585h-.716c-.539.336-2.446.585-4.715.585-2.27 0-4.176-.249-4.715-.585h-.635v-.585h10.781z"/>
        <rect width="9.023" height="12.4" x="47.109" y="38.956" fill="#0091CD" rx="4.512"/>
        <path fill="#FFF" d="M48.948 40.226L49.009 39.97 48.886 39.97 48.824 40.226 48.948 40.226M48.746 40.551L48.869 40.551 48.931 40.295 48.807 40.295zM48.668 40.877L48.79 40.877 48.853 40.621 48.729 40.621zM48.83 39.97L47.617 39.97 47.617 40.025 47.82 40.226 48.768 40.226zM48.258 40.621L48.258 40.663 48.472 40.877 48.612 40.877 48.673 40.621zM48.751 40.295L47.931 40.295 47.931 40.337 48.146 40.551 48.69 40.551zM53.075 40.187l-.022.094c-.01.044-.026.06-.068.06h-.12c-.055 0-.073.004-.087.02-.011.013-.017.036-.017.057 0 .024.008.033.039.044l.122.044c.084.029.11.06.108.139 0 .077-.025.2-.062.256-.035.054-.08.079-.15.079h-.298c-.024 0-.032-.022-.029-.042l.038-.179h.017c.01.04.032.052.098.052h.117c.043 0 .064-.007.077-.026.013-.017.02-.044.021-.065.001-.033-.01-.042-.069-.061l-.113-.037c-.065-.02-.094-.062-.093-.128.001-.06.023-.151.052-.21.034-.07.085-.097.175-.097h.264zm-2.904-.007c-.135 0-.21.035-.272.127-.06.092-.119.317-.12.461-.002.088.026.157.075.187.034.02.09.03.179.03.097 0 .158-.01.19-.03.022-.016.028-.028.045-.108l.024-.108h-.015c-.04.056-.086.08-.199.08-.056 0-.087-.006-.102-.02-.02-.014-.027-.037-.027-.07 0-.013.003-.031.005-.046l.011-.063h.284c.06 0 .08-.007.093-.035.017-.041.033-.14.035-.202.004-.142-.058-.203-.206-.203zm.052.308h-.226c.03-.126.064-.166.147-.166.062 0 .092.027.09.084 0 .023-.001.042-.01.082zm2.04-.308c-.135 0-.211.035-.273.127-.059.092-.118.317-.12.461 0 .088.026.157.077.187.034.02.089.03.179.03.097 0 .157-.01.189-.03.023-.016.028-.028.045-.108l.023-.108h-.014c-.04.056-.087.08-.2.08-.055 0-.087-.006-.102-.02-.019-.014-.027-.037-.027-.07 0-.013.003-.031.005-.046l.012-.063h.284c.061 0 .08-.007.093-.035.017-.041.035-.14.035-.202.004-.142-.058-.203-.206-.203zm.052.308h-.226c.03-.126.063-.166.146-.166.063 0 .092.027.091.084.001.023-.002.042-.011.082zm-1.383-.3l-.022.104c-.01.043-.025.056-.075.056h-.064c-.07 0-.092.023-.111.118l-.091.423-.008.043c0 .017.008.026.023.032l-.004.017h-.161c-.023 0-.032-.022-.029-.042l.146-.687.003-.016c0-.017-.007-.026-.022-.031l.004-.017h.16c.024 0 .033.022.03.043l-.016.07.047-.077c.02-.034.024-.036.065-.036h.125zm-1.127-.159l-.182.85c-.006.03-.016.069.016.08l-.005.02h-.181c-.023 0-.032-.022-.029-.043l.092-.427h-.247l-.078.369c-.004.019-.008.035-.008.044 0 .018.008.03.022.036l-.005.019h-.177c-.024 0-.032-.022-.029-.042l.182-.85c.005-.03.016-.066-.016-.079l.004-.02h.182c.023 0 .032.022.029.042l-.069.322h.245l.057-.265c.004-.02.007-.034.007-.044 0-.018-.008-.028-.024-.035l.005-.02h.181c.022.001.03.023.028.043zm1.905.152h-.086c-.046 0-.07.011-.1.065l-.033.061c.004-.062-.025-.126-.112-.126h-.08c-.068 0-.083.034-.1.058l-.038.062.016-.072c.003-.02-.006-.042-.029-.042h-.162l-.003.017c.015.006.021.015.021.03 0 .007 0 .012-.002.017l-.145.687c-.003.02.006.042.029.042h.162l.004-.017c-.016-.006-.022-.015-.022-.032l.006-.043s.089-.405.09-.42c.022-.106.046-.119.093-.125.01-.002.018-.002.033-.002.046 0 .059.033.052.072l-.11.523c-.004.02.005.042.028.042h.162l.004-.016c-.015-.007-.022-.016-.021-.032 0-.008.003-.024.006-.043l.091-.42c.023-.105.046-.12.093-.126h.034c.046 0 .059.032.053.07l-.11.524c-.003.02.005.042.028.042h.162l.004-.017c-.016-.006-.022-.015-.022-.031 0-.008.003-.025.007-.044 0 0 .105-.504.113-.55.01-.045.009-.154-.116-.154z"/>
        <path fill="#FFF" fill-rule="nonzero" d="M48.957 41.307v.011c0 .026.018.031.042.031h.018l-.004.027-.022.002c-.033 0-.064-.012-.064-.055v-.017l.018-.105h-.05l.008-.029h.046l.01-.059h.03l-.01.06h.06l-.007.028h-.057l-.018.106zM49.238 41.236c0 .006 0 .013-.002.022l-.019.115h-.03l.019-.116.002-.017c0-.027-.017-.042-.043-.042-.028 0-.051.018-.057.05l-.02.125h-.03l.051-.314h.031l-.021.131c.014-.013.033-.022.054-.022.04.001.065.029.065.068zM50.234 41.717h-.808c.012.191.153.308.356.308.13 0 .226-.048.317-.117l.085.107c-.108.095-.255.154-.413.154-.3 0-.508-.202-.508-.468 0-.287.248-.532.559-.532.254 0 .44.165.44.404 0 .064-.01.112-.028.144zm-.79-.133h.655v-.016c0-.165-.125-.255-.288-.255-.181-.006-.322.106-.368.27z"/>
        <path fill="#FFF" fill-rule="nonzero" d="M50.59 41.512c0 .19-.163.402-.456.402-.162 0-.274-.068-.325-.147l-.084.402h-.135l.2-.984h.126l-.019.103c.075-.08.19-.119.307-.119.233 0 .386.155.386.343zm-.135.012c0-.132-.107-.247-.283-.247-.214 0-.321.17-.321.306 0 .144.125.231.274.231.19-.004.33-.139.33-.29z"/>
        <path fill="#FFF" fill-rule="nonzero" d="M50.846 41.483c0 .033-.006.065-.012.102l-.11.565h-.165l.019-.103c-.092.076-.22.124-.36.124-.183 0-.372-.08-.372-.258 0-.145.122-.29.451-.29h.354l.006-.032c.006-.038.006-.065.006-.086 0-.134-.11-.194-.256-.194-.14 0-.232.054-.323.124l-.086-.113c.128-.102.269-.15.433-.15.232-.01.415.091.415.311zm-.232.328l.012-.064h-.323c-.195 0-.274.059-.274.145 0 .113.122.15.232.15.183 0 .329-.107.353-.23z"/>
        <path fill="#FFF" fill-rule="nonzero" d="M50.198 41.175l-.004.027-.017-.002c-.029 0-.057.02-.064.057l-.019.116h-.03l.032-.2h.029l-.003.022c.016-.017.036-.025.057-.025.005.001.012.001.019.005zM50.396 41.217l-.024.017c-.012-.022-.032-.036-.058-.036-.041 0-.075.034-.075.08 0 .04.028.07.066.07.024 0 .045-.012.058-.029l.02.018c-.02.026-.047.04-.08.04-.053 0-.095-.041-.095-.098 0-.062.05-.111.107-.111.036.001.065.02.08.049zM51.397 41.717h-.808c.01.191.152.308.361.308.13 0 .226-.048.317-.117l.084.107c-.107.095-.254.154-.412.154-.3 0-.509-.202-.509-.468 0-.287.249-.532.56-.532.254 0 .44.165.44.404-.01.064-.022.112-.033.144zm-.797-.133h.655v-.016c0-.165-.124-.255-.288-.255-.175-.006-.322.106-.367.27z"/>
        <path fill="#FFF" fill-rule="nonzero" d="M50.686 41.373L50.649 41.373 50.712 41.059 50.749 41.059zM51.843 41.512c0 .19-.163.402-.456.402-.163 0-.275-.068-.326-.147l-.084.402h-.134l.2-.984h.125l-.018.103c.074-.08.19-.119.307-.119.232 0 .386.155.386.343zm-.135.012c0-.132-.107-.247-.284-.247-.214 0-.321.17-.321.306 0 .144.126.231.274.231.191-.004.33-.139.33-.29z"/>
        <path fill="#FFF" fill-rule="nonzero" d="M52.077 41.717h-.808c.011.191.153.308.362.308.13 0 .226-.048.316-.117l.085.107c-.107.095-.254.154-.413.154-.299 0-.508-.202-.508-.468 0-.287.249-.532.56-.532.254 0 .44.165.44.404-.011.064-.023.112-.034.144zm-.797-.133h.656v-.016c0-.165-.124-.255-.288-.255-.175-.006-.322.106-.368.27z"/>
        <path fill="#FFF" fill-rule="nonzero" d="M52.332 41.647c0 .292-.245.52-.531.52-.271 0-.47-.207-.47-.473 0-.292.246-.526.527-.526.27.005.474.213.474.479zm-.844.053c0 .191.136.33.323.33.203 0 .37-.17.37-.378 0-.192-.14-.335-.323-.335-.208-.006-.37.17-.37.383z"/>
        <path fill="#FFF" fill-rule="nonzero" d="M52.56 41.512c0 .19-.165.402-.456.402-.165 0-.277-.068-.329-.147l-.084.402h-.132l.202-.984h.127l-.019.103c.075-.08.192-.119.31-.119.23 0 .38.155.38.343zm-.137.012c0-.132-.108-.247-.286-.247-.216 0-.324.17-.324.306 0 .144.126.231.277.231.192-.004.333-.139.333-.29z"/>
        <path fill="#FFF" fill-rule="nonzero" d="M51.858 41.373L51.821 41.373 51.884 41.059 51.921 41.059zM52.888 41.717h-.808c.011.191.152.308.361.308.13 0 .226-.048.317-.117l.084.107c-.107.095-.254.154-.412.154-.3 0-.508-.202-.508-.468 0-.287.248-.532.559-.532.254 0 .44.165.44.404-.005.064-.016.112-.033.144zm-.791-.133h.655v-.016c0-.165-.124-.255-.288-.255-.175-.006-.322.106-.367.27z"/>
        <g transform="translate(47.93 42.348)">
            <path fill="#EAEAE4" d="M3.042 3.693c-.083 0-.167-.02-.242-.06l-.222-.119c.023.005.046.008.07.008.024 0 .048-.003.073-.009.025-.006.05-.015.074-.027L4.02 2.84c.099-.052.16-.151.16-.26v-.308l.636.346h.001c.072.04.07.143-.002.182l-1.513.822c-.08.047-.17.07-.26.07" style="mix-blend-mode:multiply"/>
            <path fill="#E49264" d="M.86 1.304v1.37c0 .117.068.224.179.28l1.373.7c.104.052.229.052.332 0l1.374-.7c.11-.056.179-.163.179-.28v-1.37c0-.117-.069-.225-.18-.281l-1.373-.7c-.103-.052-.228-.052-.332 0l-1.373.7c-.11.056-.18.164-.18.281"/>
            <g transform="translate(1.146 .284)">
                <mask id="prefix__d" fill="#fff">
                    <use xlink:href="#prefix__c"/>
                </mask>
                <path fill="#E58D68" d="M1.876 3.69c-.008 0-.017-.002-.025-.006L.97 3.217C.939 3.2.927 3.162.941 3.128c.01-.024.03-.038.053-.038.008 0 .017.002.025.006l.882.467c.03.015.042.055.029.088-.01.025-.032.039-.054.039m0-.4c-.008 0-.017-.002-.025-.006L.97 2.817C.939 2.8.927 2.762.941 2.728c.01-.024.03-.038.053-.038.008 0 .017.002.025.006l.882.467c.03.015.042.055.029.088-.01.025-.032.039-.054.039" mask="url(#prefix__d)"/>
                <path fill="#E58D68" d="M1.497 3.56c-.014-.005-.028-.012-.041-.02L.17 2.807c-.103-.059-.168-.172-.168-.295V1.076c0-.054.013-.106.035-.152C.048.92.057.92.066.92c.017 0 .035.004.051.013l.367.203c.319.177.692.386.918.513h.001l.033.017c.104.046.173.152.172.27v.137c-.002.347-.004.927-.004 1.32 0 .077-.045.14-.107.167m-.55-1.026c-.04 0-.078.035-.078.082v.275c0 .031.017.06.044.074l.37.193c.012.006.024.009.035.009.042 0 .08-.035.08-.082v-.276c0-.03-.018-.06-.044-.073l-.371-.193C.971 2.537.96 2.534.948 2.534" mask="url(#prefix__d)"/>
                <path fill="#E37E66" d="M1.688 3.572c-.049-.047-.078-.114-.079-.187-.001-.295-.004-.867-.002-1.312v-.09c.002-.141.078-.268.196-.336l.006-.003.005-.003.387-.22.005.013c.008.024.014.053.014.088l-.001.026c-.005.082-.016.154-.016.154s.004.07.047.07c.007 0 .015-.002.024-.006.066-.03.268-.133.312-.161.044-.029.053-.045.055-.112v-.244c0-.027-.004-.05-.015-.07L3.05.936l.013-.008c.01-.005.019-.007.03-.007.05 0 .11.053.11.053.01.032.015.066.015.101v1.436c0 .123-.064.236-.168.295l-1.284.733c-.025.015-.052.025-.078.032" mask="url(#prefix__d)"/>
                <path fill="#E47B68" d="M1.607 2.082l.003-.097v-.003l-.003.1" mask="url(#prefix__d)"/>
                <path fill="#FFFFFE" d="M2.551 1.105c-.121-.076-1.007-.59-1.457-.85l-.39.222 1.447.873s.078.055.068.198c-.005.082-.016.154-.016.154s.005.093.07.064c.067-.03.27-.133.313-.161.044-.029.053-.045.055-.112v-.244c0-.056-.014-.092-.09-.144" mask="url(#prefix__d)"/>
            </g>
            <g transform="translate(1.719 .284)">
                <mask id="prefix__f" fill="#fff">
                    <use xlink:href="#prefix__e"/>
                </mask>
                <path fill="#F0B8AB" d="M1.455 1.413c-.04 0-.044-.064-.044-.064s.01-.067.015-.144v-.023c0-.033-.004-.06-.012-.082l.399-.225c.006.016.008.033.008.053v.226c-.001.063-.01.078-.05.104-.042.027-.232.122-.294.15-.008.004-.015.005-.022.005" mask="url(#prefix__f)"/>
            </g>
            <g transform="translate(1.146 .284)">
                <mask id="prefix__h" fill="#fff">
                    <use xlink:href="#prefix__g"/>
                </mask>
                <path fill="#E8A67A" d="M1.601 1.701c-.068 0-.136-.017-.198-.052-.218-.122-.593-.333-.919-.513L.151.95C.095.92.091.838.142.8L.163.786.171.78.705.477l1.446.873s.03.02.05.07l-.387.22-.005.004c-.064.038-.136.057-.208.057m1.025-.523c-.013-.023-.035-.046-.075-.073-.121-.076-1.007-.59-1.457-.85l.362-.207c.048-.028.101-.041.155-.041.053 0 .106.013.155.041L3.05.781l.002.001c.058.034.056.121-.001.154l-.425.242" mask="url(#prefix__h)"/>
                <path fill="#E8A17D" d="M1.402 1.649l-.918-.513c.326.18.7.39.918.513" mask="url(#prefix__h)"/>
                <path fill="#EA937C" d="M1.809 1.936c.002 0 .003-.002.005-.004L2.2 1.62l-.387.312-.005.004m.817-.658L3.05.936l-.425.342" mask="url(#prefix__h)"/>
                <path fill="#FFFFFE" d="M2.15 1.35L.706.477l.39-.223c.45.26 1.335.775 1.456.85.04.028.062.05.075.074L2.2 1.42c-.02-.05-.05-.07-.05-.07z" mask="url(#prefix__h)"/>
                <path fill="#F5D4C1" d="M1.72 3.534c-.022 0-.045-.004-.067-.014l-.702-.305C.901 3.193.87 3.148.87 3.099v-.435c0-.075.071-.13.15-.13.021 0 .044.004.066.014l.702.305c.05.022.082.067.082.116v.435c0 .075-.07.13-.15.13m-.683-.536c-.016 0-.031.007-.038.02-.01.019 0 .04.02.049l.625.254.018.003c.015 0 .03-.008.037-.02.01-.02.001-.04-.02-.05l-.625-.253c-.005-.002-.011-.003-.017-.003m0-.218c-.016 0-.031.008-.038.021-.01.018 0 .04.02.048l.625.254.018.003c.015 0 .03-.007.037-.02.01-.019.001-.04-.02-.049l-.625-.253c-.005-.003-.011-.004-.017-.004" mask="url(#prefix__h)"/>
            </g>
            <path fill="#F8C361" d="M4.597 1.989c-.072.058-.176.105-.3.135.118.036.213.087.273.149.072-.059.176-.106.3-.136-.118-.035-.213-.087-.273-.148M4.733 1.136c-.036.059-.088.106-.15.136.06.035.107.087.137.149.036-.059.088-.106.15-.136-.06-.036-.107-.087-.137-.149M5.02 1.42c-.036.059-.088.106-.15.136.059.036.106.087.136.149.036-.059.088-.106.15-.136-.059-.035-.106-.087-.136-.148"/>
            <mask id="prefix__j" fill="#fff">
                <use xlink:href="#prefix__i"/>
            </mask>
            <path fill="#F8C361" d="M.827.615c.029.055.074.1.13.132C.898.774.848.815.814.867.785.813.74.767.684.735.742.71.791.667.826.615M.926.003c.015.027.037.05.065.066C.961.082.937.103.92.129.905.102.883.079.854.063.884.05.91.03.926.003M.544.315C.56.342.581.365.61.381.58.394.555.415.538.441.523.414.5.391.473.375.503.362.527.341.544.315M.86 2.267c-.002.027-.025.048-.053.047C.78 2.313.758 2.29.76 2.262c0-.028.024-.049.052-.048.027.002.049.025.047.053zm.015-.132l-.449.077.574.345-.087-.4c-.004-.015-.02-.025-.038-.022zM1 2.557l-.41.542c-.028.036-.083.046-.124.022L.04 2.864C0 2.84-.012 2.791.015 2.754l.411-.542.574.345z" mask="url(#prefix__j)"/>
            <path fill="#7DCAD4" d="M.864 2.343l.062-.06-.04-.04c-.02.019-.034.034-.045.043l-.015.015.038.042M.666 2.445l.075-.076-.026-.024-.074.075.025.025zm.04-.05l.073-.076-.026-.023-.074.076.027.024zm.038-.05l.073-.078-.028-.022-.072.078.027.022zm.038-.051l.071-.08-.03-.02-.07.078.029.022zm.036-.054l.07-.08-.031-.02-.07.08.031.02zm.035-.055l.068-.081-.033-.019-.067.082.032.018zm.033-.056l.065-.084-.035-.016-.065.083.035.017zm.032-.059l.062-.085-.04-.015C.922 2 .9 2.027.88 2.055l.038.015zm.03-.06l.057-.089L.96 1.91l-.056.087.043.013zm.028-.063c.018-.03.035-.061.05-.092l-.052-.008c-.015.03-.03.06-.049.09l.051.01zm.03-.065c.014-.032.026-.064.034-.096l-.067-.004c-.008.03-.019.062-.033.093l.066.007zm.04-.067v-.03c0-.023-.002-.046-.007-.07l-.093.003c.005.022.008.045.008.068 0 .01 0 .019-.002.028l.093.001zm-.01-.072c-.011-.033-.025-.065-.041-.095l-.059.009c.016.029.03.06.04.091l.06-.005zm-.02-.07C1 1.643.98 1.613.957 1.585l-.04.015c.02.026.04.055.056.085l.043-.012zM.985 1.61c-.023-.03-.047-.056-.073-.081l-.027.023c.024.024.048.05.07.077l.03-.02zm-.043-.055C.916 1.53.887 1.506.86 1.487l-.017.034c.028.02.055.04.08.066l.02-.032zm-.05-.045C.86 1.49.83 1.474.798 1.462l-.006.055c.03.011.06.026.089.045l.01-.052zm-.055-.05l-.03-.002c-.024 0-.047.004-.07.01l.003.09c.022-.007.044-.01.067-.01.01 0 .019 0 .028.002l.002-.09zm-.064.006c-.031.013-.062.031-.091.053l.012.047c.029-.02.058-.038.088-.05l-.009-.05zm-.057.027c-.03.022-.057.046-.082.072l.022.028c.024-.025.05-.048.078-.068l-.018-.032zm-.049.046c-.025.026-.048.054-.069.084l.035.016c.02-.028.041-.055.065-.08l-.031-.02zm-.04.06c-.02.03-.037.06-.05.093l.055.007c.012-.031.027-.06.046-.089L.626 1.6zm-.046.067c-.005.022-.008.046-.008.07l.001.03.093-.001-.002-.03c0-.023.003-.045.008-.066L.58 1.666zm-.005.07c.001.007.003.014.006.02.008.026.018.052.028.076l.066-.006-.029-.075-.006-.019-.065.005zm.01.07c.015.03.031.062.048.092l.053-.01c-.017-.03-.033-.06-.047-.09l-.053.008zm.018.066c.018.03.038.06.058.089l.042-.014C.684 1.919.665 1.89.648 1.86l-.044.011zm.025.064c.02.03.043.057.066.084l.034-.018C.706 1.976.685 1.948.664 1.92l-.035.016zm.031.06c.024.027.048.054.073.079l.027-.023c-.024-.025-.048-.05-.07-.077l-.03.021zM.7 2.05c.025.026.051.05.078.074L.8 2.095C.772 2.072.747 2.05.722 2.024l-.023.026zm.043.048c.028.024.055.046.084.067l.016-.034c-.027-.021-.054-.043-.08-.066l-.02.033zm.049.042l.087.06.013-.041C.86 2.14.833 2.12.805 2.099l-.014.04zm.051.034c.03.02.06.037.09.053l.01-.048c-.03-.016-.06-.034-.089-.052l-.011.047zm.053.03c.03.016.062.03.093.044l.007-.057c-.03-.013-.061-.027-.091-.043l-.009.056zm.055.025c.032.012.063.024.095.034l.005-.065c-.032-.01-.063-.022-.094-.035L.95 2.23zm.056.02c.032.01.064.018.097.025l.003-.077c-.033-.006-.065-.014-.097-.023l-.003.075zm.055.019c.033.005.066.009.1.012V2.19c-.032-.002-.065-.006-.098-.011l-.002.088zm.057.013h.014c.029 0 .057 0 .086-.002l-.001-.098c-.028.002-.057.003-.085.003h-.014v.097zm.057-.003c.032-.004.065-.008.098-.014l-.002-.086-.098.015.002.085zm.057-.006c.032-.007.064-.014.097-.023l-.004-.077c-.032.009-.064.017-.096.023l.003.077zm.056-.009c.032-.01.064-.02.096-.032l-.005-.068c-.032.012-.063.022-.095.032l.004.068zm.057-.013l.094-.04-.008-.06c-.03.014-.061.028-.092.04l.006.06zm.056-.018c.03-.015.061-.03.092-.047l-.01-.053c-.03.017-.06.032-.09.047l.008.053zm.055-.022l.09-.053-.012-.047-.088.052.01.048zm.054-.026l.087-.058-.013-.042-.087.057.013.043zm.052-.03c.029-.02.057-.041.086-.063l-.016-.038-.084.062.014.038zm.05-.035l.084-.066-.018-.034-.082.065.017.035zm.05-.039c.027-.022.054-.045.08-.069l-.02-.03c-.026.023-.052.046-.08.068l.02.031zm.046-.042l.079-.072-.023-.028-.077.072.021.028zm.045-.046l.075-.075-.025-.025-.075.075.025.025zm.041-.05c.025-.025.05-.051.073-.078l-.028-.021-.072.077.027.023zm.039-.052l.07-.081-.032-.02c-.022.028-.045.055-.069.08l.031.02zm.036-.056c.022-.028.044-.055.065-.084L1.9 1.734l-.065.082.035.018zm.032-.059c.021-.028.042-.057.061-.086l-.04-.014c-.019.029-.039.057-.06.085l.04.015zm.03-.061c.02-.03.038-.059.055-.089l-.045-.011c-.017.03-.036.059-.055.088l.045.012zm.026-.063l.05-.091-.052-.01c-.016.031-.032.061-.049.09l.051.01zm.024-.065c.015-.03.028-.062.04-.093l-.059-.007c-.012.031-.026.062-.04.093l.059.007zm.021-.065c.012-.032.022-.064.03-.097l-.069-.003c-.009.031-.019.063-.03.094l.07.006zM1.775 1.207l.01-.096-.09-.004-.01.094.09.006"/>
        </g>
        <ellipse cx="53.906" cy="42.582" fill="#8ED1E6" rx="1.289" ry="1.287"/>
        <path fill="#FFF" fill-rule="nonzero" d="M47.93 47.794L47.93 46.794 54.258 46.794 54.258 47.794zM48.047 48.963L48.047 47.963 53.203 47.963 53.203 48.963zM47.93 50.016L47.93 49.016 54.258 49.016 54.258 50.016z"/>
        <path fill="#000" d="M47.93 38.137H48.93V39.307H47.93zM54.492 38.137H55.492V39.307H54.492z"/>
    </g>
</svg>
