<svg height="460" viewBox="0 0 512 460" width="512" xmlns="http://www.w3.org/2000/svg" xmlns:xlink="http://www.w3.org/1999/xlink"><defs><path id="a" d="m4.31 0h371.673032c2.380347 0 4.31 1.92965273 4.31 4.31v409.023297c0 3.865993-3.134007 7-7 7h-366.293032c-3.86599325 0-7-3.134007-7-7v-409.023297c0-2.38034727 1.92965273-4.31 4.31-4.31z"/><mask id="b" fill="#fff"><use fill="#fff" fill-rule="evenodd" xlink:href="#a"/></mask><mask id="c" fill="#fff"><path d="m.02967293 9.19903697v12.27571123c0 1.0505445.54868263 2.0173164 1.43096358 2.5218078l10.96157019 6.2673646c.8237347.471001 1.8207095.471001 2.6444441 0l10.9614814-6.2673646c.8823698-.5044914 1.4310524-1.4712633 1.4310524-2.5218078v-12.27571123c0-1.05045176-.5486826-2.01731639-1.4310524-2.52171507l-10.9614814-6.26736462c-.8237346-.47100093-1.8207094-.47100093-2.6444441 0l-10.96157019 6.26736462c-.88228095.50439868-1.43096358 1.47126331-1.43096358 2.52171507" fill="#fff" fill-rule="evenodd"/></mask><mask id="d" fill="#fff"><path d="m.05871796 1.80126804 3.1151525-1.76480782c3.59918374 2.06972626 10.67967474 6.14728884 11.65407394 6.75218723.6055248.41096324.7091101.69958522.7091101 1.1416507 0 .44197934.0099922 1.30198668.0099922 1.93661042-.018319.53890463-.0920944.66426133-.4425693.89093723-.3505582.226676-1.9716191 1.0426577-2.4972898 1.2778631-.5258373.2352054-.5696362-.5071993-.5696362-.5071993s.0876811-.5669914.1314801-1.2239295c.0821022-1.13329359-.5449056-1.57079281-.5449056-1.57079281z" fill="#fff" fill-rule="evenodd"/></mask><mask id="e" fill="#fff"><path d="m.02967293 21.4747482c0 1.0505445.54868263 2.0173164 1.43096358 2.5218078l10.96157019 6.2673646c.8237347.471001 1.8207095.471001 2.6444441 0l10.9614814-6.2673646c.8823698-.5044914 1.4310524-1.4712633 1.4310524-2.5218078v-12.27571123c0-1.05045176-.5486826-2.01731639-1.4310524-2.52171507l-10.9614814-6.26736462c-.8237346-.47100093-1.8207094-.47100093-2.6444441 0l-10.96157019 6.26736462c-.88228095.50439868-1.43096358 1.47126331-1.43096358 2.52171507z" fill="#fff" fill-rule="evenodd"/></mask><mask id="f" fill="#fff"><path d="m.00577778.02598759h8.45442963v24.67844451h-8.45442963z" fill="#fff" fill-rule="evenodd"/></mask></defs><g fill="none" fill-rule="evenodd"><path d="m473.053094 435.130581c23.198129 2.240606 38.946906 6.611476 38.946906 11.636542 0 7.308316-33.311779 13.232877-74.403941 13.232877-36.891801 0-67.512517-4.77527-73.387032-11.039976-34.571937 2.22101-73.967715 3.478332-115.775529 3.478332-137.206032 0-248.433498-13.541853-248.433498-30.246575s111.227466-30.246576 248.433498-30.246576 248.433497 13.541854 248.433497 30.246576c0 4.629498-8.542822 9.016072-23.813901 12.9388z" fill="#eaeae4"/><g fill-rule="nonzero"><g transform="translate(64.315271)"><use fill="#9ad1ee" xlink:href="#a"/><path d="m0 331.842076h380.293032v88.491221h-380.293032z" fill="#e1ecf2" mask="url(#b)"/></g><path d="m425.764932 172.876183h-331.4868133-82.3475004c0-17.505659-.5718576 0-.5718576 0v32.869669c-.4323014 20.701134 14.7427779 38.579171 35.645793 41.994959 16.2034611 2.263449 32.2447537-5.042826 40.8878214-18.623042h12.2949389c7.491896 11.903879 20.770496 19.156204 35.073936 19.156204 14.303439 0 27.58204-7.252325 35.073935-19.156204h12.580868c7.491896 11.903879 20.770496 19.156204 35.073936 19.156204 14.303439 0 27.582039-7.252325 35.073935-19.156204h11.913701c7.491895 11.903879 20.770496 19.156204 35.073935 19.156204 14.30344 0 27.58204-7.252325 35.073936-19.156204h11.9137c7.491896 11.903879 20.770496 19.156204 35.073936 19.156204 14.303439 0 27.58204-7.252325 35.073935-19.156204h14.48706c8.643068 13.580216 24.684361 20.886491 40.887822 18.623042 20.903015-3.415788 36.078094-21.293825 35.645793-41.994959v-14.339742s0-18.623042-.571858-18.623042z" fill="#e1ecf2" opacity=".7"/><path d="m262.473251 263.39726h127.033793c1.485646 0 2.69 1.204354 2.69 2.69v82.839178c0 1.485646-1.204354 2.69-2.69 2.69h-127.033793c-1.485646 0-2.69-1.204354-2.69-2.69v-82.839178c0-1.485646 1.204354-2.69 2.69-2.69z" fill="#fff"/><path d="m167.356987 253.315068h33.522479c15.119729 0 27.376692 12.753217 27.376692 28.485106v139.131333h-88.275862v-139.131333c0-15.731889 12.256962-28.485106 27.376691-28.485106z" fill="#fff"/><path d="m387.048045 88.2191781h-317.9747295l-48.7057289 62.4477379c-5.0791992 6.545606-7.8108136 14.628945-7.7508135 22.936052v3.276579c-.3613481 22.012403 15.8159845 40.757031 37.5101095 43.462855 11.7332768 1.173987 23.4104485-2.718745 32.1309827-10.711268s13.6661488-19.334867 13.6083856-31.209668l9.5689051-17.828443h73.680573v15.997414c-.361348 22.012403 15.815984 40.757031 37.510109 43.462855 11.700027 1.170517 23.345869-2.696932 32.059807-10.646689 8.713938-7.949758 13.683089-19.240229 13.679561-31.081507v-17.635703h83.249478v15.997414c-.361348 22.012403 15.815985 40.757031 37.51011 43.462855 11.684387 1.141508 23.304151-2.739039 31.99625-10.685497 8.692098-7.946458 13.648301-19.219931 13.647429-31.042699v-17.732073z" fill="#0099d2"/><path d="m129.799929 88.2191781-33.2449156 63.8945779c-2.9550604 5.685822-4.4960626 12.012836-4.4899742 18.43484v6.273637c-.3607527 22.0461 15.7899208 40.819422 37.4482958 43.529387 11.665131 1.143256 23.265748-2.743231 31.943522-10.701853 8.677775-7.958623 13.62581-19.249353 13.624939-31.090219v-17.759218l24.169436-72.5811519z" fill="#e1ecf2"/><path d="m324.968235 88.2191781h-63.9239v90.3426149c0 15.000207 7.571377 28.860971 19.862069 36.361074 12.290691 7.500104 27.433447 7.500104 39.724138 0 12.290691-7.500103 19.862069-21.360867 19.862069-36.361074v-17.759659z" fill="#e1ecf2"/><path d="m450.017303 88.2191781h-70.431096l37.484337 63.4119899c3.552097 6.015072 5.423253 12.839101 5.425364 19.786086v5.404979c-.372503 22.0461 16.304227 40.819422 38.668053 43.529387 12.045086 1.143256 24.023555-2.743231 32.98398-10.701853 8.960425-7.958623 14.069627-19.249353 14.068727-31.090219v-4.825875c.017457-8.253746-2.796062-16.274525-7.990082-22.778127z" fill="#e1ecf2"/><path d="m345 299.65855-2.192683 1.34145-20.807317-23.65855 2.192683-1.34145z" fill="#979797"/><path d="m311.303206 307-2.303206-1.074449 13.696794-30.925551 2.303206 1.074449z" fill="#979797"/></g><path d="m304.157445 303.225899 45.587109-7.179541c2.041383-.321498 3.958357 1.063404 4.28168 3.093267l2.927145 18.37696c.323323 2.029863-1.06944 3.936018-3.110824 4.257516l-45.587109 7.179541c-2.041383.321498-3.958357-1.063404-4.28168-3.093267l-2.927145-18.37696c-.323323-2.029863 1.06944-3.936018 3.110824-4.257516z" fill="#0091cd"/><path d="m314.781902 319.453805c-1.115388.174776-2.153986.102279-3.115826-.217494-.96184-.319774-1.759721-.847919-2.393667-1.584452s-1.032989-1.617472-1.197142-2.642843-.059799-1.98519.313065-2.879486.966729-1.640521 1.781613-2.2387c.814884-.598178 1.780005-.984649 2.895392-1.159426 1.115388-.174776 2.153986-.102279 3.115826.217495.96184.319773 1.759721.847918 2.393667 1.584451s1.032989 1.617472 1.197142 2.642843.059799 1.98519-.313065 2.879486-.966729 1.640522-1.781613 2.2387c-.814883.598178-1.780005.984649-2.895392 1.159426zm-.447902-2.797785c-.43431.068054-.84347.024558-1.227491-.130492-.384022-.155049-.710547-.409197-.979584-.762451-.269037-.353255-.444982-.788659-.527841-1.306228-.082858-.517568-.051522-.985453.09401-1.403669.145531-.418215.376692-.75975.693489-1.024615.316798-.264864.692346-.431321 1.126656-.499376.43431-.068054.84347-.024558 1.227491.130492.384022.155049.710547.409197.979584.762451.269037.353255.444982.78866.527841 1.306228.082858.517568.051522.985453-.09401 1.403669-.145531.418215-.376692.75975-.693489 1.024615-.316797.264864-.692345.431321-1.126656.499376zm11.280508-7.503545c.71069-.111362 1.39158-.045377 2.042693.197955.651113.243333 1.202675.654916 1.654703 1.234762s.74448 1.28479.877366 2.114853c.132886.830062.074543 1.587471-.175029 2.27225-.249573.684778-.645973 1.242401-1.189214 1.672883-.54324.430483-1.170196.701401-1.880885.812763-.898233.140749-1.620974.018758-2.168245-.365976l.541703 3.383708-3.346146.524327-1.73767-10.854233 3.183281-.498806.105526.659163c.397679-.612887 1.094978-.997433 2.091917-1.153649zm.117386 5.852684c-.384956.060321-.7227-.026899-1.013242-.261664-.290541-.234765-.475675-.601161-.555406-1.099199-.079732-.498037-.018493-.905541.183718-1.222523.202212-.316983.495791-.505632.880748-.565953s.723092.029341 1.014415.268989.476847.608485.556579 1.106522c.079731.498038.018102.9031-.184891 1.2152s-.496964.498307-.881921.558628zm13.877433-3.796212c.007817.048827.03444.309927.079869.783309l-5.626263.881611c.166912.284168.401452.48516.703627.602983.302175.117822.660541.144252 1.07511.079291.355345-.055681.646894-.146412.874655-.272194.227762-.125783.467567-.318519.719423-.578213l2.026162 1.469359c-.652079.983095-1.762822 1.597595-3.332261 1.843519-.977198.153123-1.864466.109466-2.66183-.13097-.797364-.240437-1.449195-.646318-1.955512-1.217658-.506317-.571339-.822787-1.252499-.949419-2.043499-.128196-.800766-.042832-1.547394.256094-2.239906s.768183-1.269059 1.407785-1.729656c.639603-.460598 1.393703-.758947 2.262323-.895056.819267-.128376 1.592756-.084409 2.320489.131902s1.341499.605634 1.841317 1.167982c.499818.562347.819292 1.278072.958431 2.147196zm-4.72949-1.195915c.345474-.054134.646962-.003776.904474.151076.257511.154852.447389.392874.569638.714072l-2.605849.408325c.014378-.352617.120225-.63948.317547-.860597.197322-.221118.468716-.358742.81419-.412876zm10.497445-3.957298c.99694-.156216 1.846603.015959 2.549015.516529.702413.50057 1.149759 1.351417 1.342053 2.552566l.73165 4.570204-3.346146.524326-.640194-3.998928c-.146956-.917951-.551096-1.325107-1.212432-1.221478-.375086.058774-.657891.235725-.848423.530856-.190532.295132-.241242.721006-.15213 1.277636l.602673 3.764559-3.346146.524326-1.282733-8.012504 3.183281-.498806.126632.790997c.265834-.361989.593524-.653583.983079-.874791s.826158-.369704 1.309821-.445492z" fill="#fff"/><circle cx="323" cy="278" fill="#373737" r="3"/><path d="m398.513208 441.116279h82.626415v-100.434108c0-5.411535-4.227784-9.79845-9.443019-9.79845h-63.740378c-5.215235 0-9.443018 4.386915-9.443018 9.79845zm9.640638-115.116279h63.692308c7.816953 0 14.153846 6.578673 14.153846 14.693878v105.306122h-92v-105.306122c0-8.115205 6.336893-14.693878 14.153846-14.693878z" fill="#bfbfbf" fill-rule="nonzero"/><path d="m399.41737 447h-5.41737v-5h92v5h-6.114339c-4.601321 2.87508-20.870302 5-40.234146 5-19.363843 0-35.632825-2.12492-40.234145-5z" fill="#000"/><rect fill="#0091cd" height="106" rx="5" width="77" x="402" y="333"/><g fill="#fff" transform="translate(404 339)"><path d="m12.7310909 4.5027027.5167273-2.11351351h-1.0334546l-.5256363 2.11351351z" fill-rule="evenodd"/><path d="m11.0294545 7.18594595h1.0423637l.5167273-2.11351352h-1.0423637z" fill-rule="evenodd"/><path d="m10.3701818 9.87837838h1.0334546l.5256363-2.11351352h-1.0423636z" fill-rule="evenodd"/><path d="m11.7421818 2.38918919h-10.22763635v.45027027l1.71054546 1.66324324h7.99145459z" fill-rule="evenodd"/><path d="m6.91345455 7.76486486v.34l1.80854545 1.77351352h1.176l.5167273-2.11351352z" fill-rule="evenodd"/><path d="m11.074 5.07243243h-6.91345455v.34l1.80854546 1.77351352h4.58818179z" fill-rule="evenodd"/><path d="m47.5210909 3.96972973-.1781818.68c-.0801818.31243243-.2227273.43189189-.5790909.43189189h-1.0156364c-.4543636 0-.6058182.02756757-.7305454.14702703-.0890909.09189189-.1425455.2572973-.1425455.40432432 0 .1745946.0712727.23891892.3296364.32162162l1.0334545.31243244c.7038182.21135135.9176364.44108108.9087273 1.00162162s-.2138182 1.4427027-.5256364 1.84702703c-.294.39513513-.6770909.56972973-1.2650909.56972973h-2.5123636c-.196 0-.2672727-.15621622-.2405455-.30324325 0 0 .3207273-1.28648648.3207273-1.28648648h.1425455c.0801818.29405405.2672727.37675675.8285454.37675675h.98c.3652727 0 .5434546-.05513513.6503636-.19297297.1069091-.11945946.1692728-.31243243.1781819-.46864865.0089091-.23891892-.0801819-.30324324-.5790909-.44108108l-.9532728-.26648649c-.5523636-.14702702-.7929091-.44108108-.784-.91891892.0089091-.44108108.196-1.09351351.4365455-1.51621621.2850909-.50540541.7127273-.69837838 1.4789091-.69837838zm-24.4732727-.05513514c-1.1403637 0-1.7818182.2572973-2.2985455.91891892-.4989091.66162163-.9978182 2.28810811-1.0156363 3.32648649-.0089091.63405405.2227272 1.13027027.6414545 1.35081081.2850909.14702703.7483636.22054054 1.5056364.22054054.8196363 0 1.3274545-.07351351 1.5947272-.22054054.196-.11945946.2405455-.20216216.383091-.78108108l.204909-.78108108h-.1247272c-.3385455.40432432-.7305455.57891892-1.6749091.57891892-.4721818 0-.7394546-.04594595-.8641818-.13783784-.1692728-.11027027-.2316364-.27567568-.2316364-.50540541 0-.10108108.0267273-.22972973.0445455-.34l.098-.45027027h2.3876363c.5167273 0 .6770909-.05513513.784-.25729729.1425455-.29405406.2850909-1.01081081.294-1.4518919.0356364-1.02918918-.4810909-1.47027027-1.7283636-1.47027027zm.4365454 2.22378379h-1.9065454c.2494545-.90972973.5345454-1.1945946 1.2383636-1.1945946.5256364 0 .7750909.19297298.7661818.60648649 0 .16540541-.0178181.30324324-.098.58810811zm17.1945455-2.22378379c-1.1403636 0-1.7818182.2572973-2.2985455.91891892-.4989091.66162163-.9978181 2.28810811-1.0067272 3.32648649-.0089091.63405405.2138181 1.13027027.6414545 1.35081081.2850909.14702703.7483636.22054054 1.5056364.22054054.8196363 0 1.3274545-.07351351 1.5947272-.22054054.196-.11945946.2405455-.20216216.383091-.78108108l.196-.78108108h-.1247273c-.3385455.40432432-.7305455.57891892-1.6749091.57891892-.4721818 0-.7394546-.04594595-.8641818-.13783784-.1603637-.11027027-.2316364-.27567568-.2316364-.50540541 0-.10108108.0267273-.22972973.0445455-.34l.098-.45027027h2.3965454c.5167273 0 .6770909-.05513513.784-.25729729.1425455-.29405406.294-1.01081081.294-1.4518919.0356364-1.02918918-.49-1.47027027-1.7372727-1.47027027zm.4365454 2.22378379h-1.9065454c.2494545-.90972973.5345454-1.1945946 1.2383636-1.1945946.5256364 0 .7750909.19297298.7661818.60648649.0089091.16540541-.0178181.30324324-.098.58810811zm-11.6530909-2.16864865-.1870909.75351351c-.0801818.31243244-.2138182.40432433-.6325454.40432433h-.5434546c-.588 0-.7750909.1654054-.9354545.85459459l-.7661818 3.05081081c-.0356364.13783784-.0534546.2572973-.0623637.31243244 0 .11945945.0623637.18378378.1870909.22972973l-.0267272.11945945h-1.3630909c-.196 0-.2672728-.15621621-.2405455-.30324324 0 0 1.2294545-4.95297297 1.2294545-4.95297297.0089091-.02756757.0178182-.07351352.0267273-.11945946 0-.11945946-.0623636-.18378378-.1870909-.22054054l.0356364-.11945946h1.3541818c.196 0 .2672727.15621622.2405454.30324324 0 0-.1336363.5145946-.1336363.5145946l.4009091-.56054054c.1692727-.24810811.2049091-.2572973.5434545-.2572973h1.0601818zm-9.506-1.13945946s-1.0512727 4.20864865-1.5323636 6.12918919c-.0534545.22054054-.1336364.49621622.1336364.57891892-.0178182.04594594-.0267273.09189189-.0445455.13783784h-1.5234545c-.196 0-.2672728-.15621622-.2405455-.30324325l.7750909-3.07837838h-2.0847273s-.5345454 2.15027027-.6592727 2.65567568c-.0356363.13783784-.0623636.2572973-.0623636.32162162 0 .12864865.0623636.21135135.1781818.2572973-.0089091.04594595-.0178182.09189189-.0356364.13783784h-1.4967272c-.196 0-.2672728-.15621622-.2405455-.30324325 0 0 1.0512727-4.20864864 1.5323636-6.12918919.0445455-.22054054.1336364-.47783783-.1336363-.56972973.0089091-.04594594.0267273-.10108108.0356363-.14702702h1.5323637c.196 0 .2672727.15621621.2405454.30324324 0 0-.5790909 2.32486487-.5790909 2.32486487h2.0669091s.3207273-1.26810811.4810909-1.91135136c.0356364-.14702702.0534546-.2481081.0534546-.32162162 0-.12864865-.0623637-.20216216-.196-.24810811.0089091-.04594594.0267272-.10108108.0356363-.14702702h1.5323637c.1870909.00918919.2583636.1654054.2316363.31243243zm16.0630909 1.09351351h-.7305454c-.3830909 0-.588.08270271-.8374546.46864865l-.2761818.44108108c.0267273-.45027027-.2138182-.90972973-.9443636-.90972973h-.6770909c-.5701818 0-.7038182.24810811-.8463637.42270271l-.3207272.44108108s.1336363-.5145946.1336363-.5145946c.0267273-.14702702-.0445454-.30324324-.2405454-.30324324h-1.3630909l-.0267273.11945946c.1247273.04594595.1781818.11027027.1781818.22054054 0 .04594595 0 .0827027-.0178182.11945946 0 0-1.2205454 4.95297297-1.2205454 4.95297297-.0267273.14702703.0445454.30324325.2405454.30324325h1.3630909l.0356364-.11945946c-.1336364-.04594595-.1870909-.11027027-.1870909-.22972973 0-.05513514.0267273-.1745946.0534545-.31243244 0 0 .7483637-2.92216216.7661819-3.03243243.1781818-.7627027.3830909-.85459459.7750909-.90054054.0801818-.00918919.1514545-.00918919.2761818-.00918919.392 0 .4989091.23891892.4454545.5145946-.0356363.15621621-.9354545 3.77675675-.9354545 3.77675675-.0267273.14702703.0445454.30324325.2405454.30324325h1.363091l.0356363-.11945946c-.1247273-.04594595-.1870909-.11027027-.1781818-.22972973 0-.05513514.0267273-.1745946.0534545-.31243244 0 0 .7661819-3.00486486.7661819-3.03243243.196-.75351351.392-.85459459.784-.90054054.0801818-.00918919.1514545-.00918919.2850909-.00918919.392 0 .4989091.23891892.4454545.5145946-.0089091.04594594-.9265454 3.77675675-.9265454 3.77675675-.0267273.14702703.0445454.30324325.2405454.30324325h1.3630909l.0356364-.11945946c-.1336364-.04594595-.1870909-.11027027-.1870909-.22972973 0-.05513514.0267273-.1745946.0623636-.31243243 0 0 .882-3.63891892.9532727-3.96972973.0801819-.32162163.0712728-1.1118919-.98-1.1118919z" fill-rule="evenodd"/><g fill-rule="nonzero"><path d="m12.8112727 13.4254054c-.0089091.0367568-.0089091.0643243-.0089091.0918919 0 .2113513.1603637.2572973.3652728.2572973.0534545 0 .0890909 0 .1514545-.0091892l-.0356364.2297297c-.0534545.0091892-.1158181.0183784-.1870909.0183784-.2761818 0-.5434545-.1010811-.5434545-.4594594 0-.0367568 0-.0827027.0089091-.1378379l.1425454-.8637838h-.4098181l.0623636-.2389189h.3830909l.0801818-.487027h.2583637l-.0801819.487027h.5078182l-.0623636.2389189h-.4810909z"/><path d="m15.1810909 12.8372973c0 .0551351-.0089091.1102703-.0178182.1837838l-.1603636.9464865h-.2583636l.1603636-.9556757c.0089091-.0551351.0178182-.0918919.0178182-.1378378 0-.2205406-.1425455-.3491892-.3563637-.3491892-.2405454 0-.4365454.147027-.4810909.4135135l-.1692727 1.0291892h-.2583636l.4365454-2.5913514h.2583637l-.1781819 1.0843243c.1158182-.1102702.2761819-.1837837.4543637-.1837837.3385454.0091891.5523636.2389189.5523636.5605405z"/><path d="m16.9183636 13.2324324h-1.274c.0178182.3308108.2405455.532973.5612728.532973.2049091 0 .3563636-.0827027.4989091-.2021622l.1336363.1837838c-.1692727.1654054-.4009091.2664865-.6503636.2664865-.4721818 0-.8018182-.3491892-.8018182-.8086486 0-.4962163.392-.918919.882-.918919.4009091 0 .6949091.2848649.6949091.6983784 0 .1102703-.0178182.192973-.0445455.2481081zm-1.2472727-.2297297h1.0334546v-.0275676c0-.2848648-.196-.441081-.4543637-.441081-.2850909-.0091892-.5078182.1837837-.5790909.4686486z"/><path d="m20.0632727 13.0762162c0 .4410811-.3118182.9281081-.8730909.9281081-.3118182 0-.5256363-.1562162-.6236363-.34l-.1603637.9281081h-.2583636l.3830909-2.2697297h.2405454l-.0356363.2389189c.1425454-.1837838.3652727-.2756757.588-.2756757.4454545 0 .7394545.3583784.7394545.7902703zm-.2583636.0275676c0-.3032433-.2049091-.5697297-.5434546-.5697297-.4098181 0-.6147272.3951351-.6147272.7075675 0 .3308108.2405454.532973.5256363.532973.3652728-.0091892.6325455-.3216216.6325455-.6708108z"/><path d="m21.7649091 12.8372973c0 .0551351-.0089091.1102703-.0178182.1745946l-.1603636.9648649h-.2405455l.0267273-.1745946c-.1336364.1286486-.3207273.2113513-.5256364.2113513-.2672727 0-.5434545-.1378378-.5434545-.4410811 0-.2481081.1781818-.4962162.6592727-.4962162h.5167273l.0089091-.0551351c.0089091-.0643243.0089091-.1102703.0089091-.147027 0-.2297298-.1603637-.3308109-.3741819-.3308109-.204909 0-.3385454.0918919-.4721818.2113514l-.1247272-.192973c.1870909-.1745946.392-.2572973.6325454-.2572973.3385455-.0183784.6058182.1562162.6058182.532973zm-.3385455.5605405.0178182-.1102702h-.4721818c-.2850909 0-.4009091.101081-.4009091.2481081 0 .1929729.1781818.2572973.3385455.2572973.2672727 0 .4810909-.1837838.5167272-.3951352z"/><path d="m23.2705455 12.3318919-.0356364.2297297c-.0623636-.0091892-.1069091-.0183784-.1425455-.0183784-.2405454 0-.4810909.1562163-.5345454.4686487l-.1603637.9556757h-.2583636l.2761818-1.6540541h.2405455l-.0267273.1837838c.1336364-.1378378.3029091-.2021622.4810909-.2021622.0445455.0091892.098.0091892.1603637.0367568z"/><path d="m24.9365455 12.6810811-.196.1378378c-.1069091-.1745946-.2761819-.294054-.49-.294054-.3474546 0-.6325455.2848648-.6325455.6616216 0 .3308108.2316364.5789189.5523636.5789189.2049091 0 .3830909-.1010811.49-.2389189l.1692728.147027c-.1603637.2113514-.392.3308108-.6681819.3308108-.4543636 0-.8018181-.34-.8018181-.8086486 0-.5145946.4098181-.9189189.8998181-.9189189.3029091.0091891.5434546.1654054.677091.4043243z"/><path d="m26.754 13.2324324h-1.274c.0178182.3308108.2405455.532973.5701818.532973.2049091 0 .3563637-.0827027.4989091-.2021622l.1336364.1837838c-.1692728.1654054-.4009091.2664865-.6503637.2664865-.4721818 0-.8018181-.3491892-.8018181-.8086486 0-.4962163.392-.918919.882-.918919.400909 0 .694909.2848649.694909.6983784-.0178181.1102703-.0356363.192973-.0534545.2481081zm-1.2561818-.2297297h1.0334545v-.0275676c0-.2848648-.196-.441081-.4543636-.441081-.2761818-.0091892-.5078182.1837837-.5790909.4686486z"/><path d="m27.3330909 13.9675676h-.2583636l.4365454-2.5913514h.2583637z"/><path d="m30.6205455 13.0762162c0 .4410811-.3118182.9281081-.873091.9281081-.3118181 0-.5256363-.1562162-.6236363-.34l-.1603637.9281081h-.2583636l.3830909-2.2697297h.2405455l-.0356364.2389189c.1425455-.1837838.3652727-.2756757.588-.2756757.4454546 0 .7394546.3583784.7394546.7902703zm-.2583637.0275676c0-.3032433-.2049091-.5697297-.5434545-.5697297-.4098182 0-.6147273.3951351-.6147273.7075675 0 .3308108.2405455.532973.5256364.532973.3652727-.0091892.6325454-.3216216.6325454-.6708108z"/><path d="m32.4914545 13.2324324h-1.274c.0178182.3308108.2405455.532973.5701819.532973.2049091 0 .3563636-.0827027.4989091-.2021622l.1336363.1837838c-.1692727.1654054-.4009091.2664865-.6503636.2664865-.4721818 0-.8018182-.3491892-.8018182-.8086486 0-.4962163.392-.918919.882-.918919.4009091 0 .6949091.2848649.6949091.6983784-.0178182.1102703-.0356364.192973-.0534546.2481081zm-1.2561818-.2297297h1.0334546v-.0275676c0-.2848648-.196-.441081-.4543637-.441081-.2761818-.0091892-.5078181.1837837-.5790909.4686486z"/><path d="m34.5405455 13.1037838c0 .5054054-.4187273.9005405-.9087273.9005405-.4632727 0-.8018182-.3583784-.8018182-.8178378 0-.5054054.4187273-.9097297.8998182-.9097297.4632727.0091891.8107273.3675675.8107273.827027zm-1.4432728.0918919c0 .3308108.2316364.5697297.5523637.5697297.3474545 0 .6325454-.294054.6325454-.6524324 0-.3308108-.2405454-.5789189-.5523636-.5789189-.3563637-.0091892-.6325455.294054-.6325455.6616216z"/><path d="m36.6430909 13.0762162c0 .4410811-.3118182.9281081-.8641818.9281081-.3118182 0-.5256364-.1562162-.6236364-.34l-.1603636.9281081h-.2494546l.383091-2.2697297h.2405454l-.0356364.2389189c.1425455-.1837838.3652728-.2756757.588-.2756757.4365455 0 .7216364.3583784.7216364.7902703zm-.2583636.0275676c0-.3032433-.2049091-.5697297-.5434546-.5697297-.4098182 0-.6147272.3951351-.6147272.7075675 0 .3308108.2405454.532973.5256363.532973.3652727-.0091892.6325455-.3216216.6325455-.6708108z"/><path d="m37.2132727 13.9675676h-.2583636l.4365454-2.5913514h.2583637z"/><path d="m39.3247273 13.2324324h-1.274c.0178182.3308108.2405454.532973.5701818.532973.2049091 0 .3563636-.0827027.4989091-.2021622l.1336363.1837838c-.1692727.1654054-.400909.2664865-.6503636.2664865-.4721818 0-.8018182-.3491892-.8018182-.8086486 0-.4962163.392-.918919.882-.918919.4009091 0 .6949091.2848649.6949091.6983784-.0089091.1102703-.0267273.192973-.0534545.2481081zm-1.2472728-.2297297h1.0334546v-.0275676c0-.2848648-.196-.441081-.4543636-.441081-.2761819-.0091892-.5078182.1837837-.579091.4686486z"/></g></g><g transform="translate(409 362)"><path d="m25.9572831 31.5714286c-.7102772-.0000816-1.4215713-.1725151-2.06821-.5189318-.5547823-.2971501-1.1932861-.6390806-1.8890731-1.0114358.1937967.0429045.3914914.0643567.5891013.0643567.2101512 0 .4203872-.0242255.6259626-.0727581.218964-.0517137.4325895-.1309973.635199-.237769l10.4552775-5.5104488c.8416217-.4435635 1.364966-1.2935773 1.364966-2.2172466v-2.6386238l5.4237658 2.958368.0132192.007178c.6086759.3355682.5920672 1.2164146-.018473 1.548557l-12.9083693 7.0231162c-.6850252.4031877-1.4536024.605638-2.223366.605638" fill="#eaeae4"/><path d="m7.33333333 11.1468167v11.7062781c0 1.0018129.58676548 1.9237392 1.5302836 2.4048288l11.72238847 5.9766405c.8809083.4491526 1.9470809.4491526 2.8279892 0l11.7222935-5.9766405c.9436131-.4810896 1.5303786-1.4030159 1.5303786-2.4048288v-11.7062781c0-1.0017244-.5867655-1.92373914-1.5303786-2.40474029l-11.7222935-5.97664051c-.8809083-.44915263-1.9470809-.44915263-2.8279892 0l-11.72238847 5.97664051c-.94351812.48100115-1.5302836 1.40301589-1.5302836 2.40474029" fill="#e49264"/><g transform="translate(9.777778 2.428571)"><path d="m13.1913311 28.2104197c-.0460828 0-.0929363-.0102021-.1374779-.0327456l-4.88678538-2.434695c-.1632165-.0816172-.2334967-.287964-.15751394-.4627171.05548436-.126046.17338864-.2002584.29607073-.2002584.04592873 0 .09262807.0105312.13686143.0324165l4.88693956 2.4348595c.1632165.0814527.2334967.2879641.1575139.4627171-.0554844.1262106-.1727721.200423-.2956084.200423m0-2.0869989c-.0460828 0-.0929363-.0102022-.1374779-.0325811l-4.88678538-2.4348595c-.1632165-.0816173-.2334967-.2881286-.15751394-.4627171.05548436-.1262106.17292627-.2005876.29530012-.2005876.04623697 0 .09309043.0105313.13763204.0329102l4.88693956 2.434695c.1632165.0816172.2334967.2881286.1575139.4627171-.0554844.1263751-.1727721.200423-.2956084.200423" fill="#e58d68" mask="url(#c)"/><path d="m12.7778376 30.4341563c-.1213569-.047499-.2402263-.1042751-.3556309-.1702357l-10.96157019-6.2673646c-.88228095-.5044914-1.43096358-1.4712633-1.43096358-2.5218078v-12.27571123c0-.4607033.10554322-.90517158.29841725-1.30176977.07711407-.02105913.15698222-.03200617.23782762-.03200617.14587709 0 .29459709.0358098.43487718.1123463.88556808.48352509 1.97271661 1.08477721 3.13315905 1.73037412 2.71445094 1.51477315 5.89753867 3.30034635 7.83365277 4.38744285.0015991.0009277.0031983.0018554.0047974.0026904.091684.0514881.1849672.0985233.2795829.1410126.8888552.3995669 1.4752065 1.2994505 1.4690765 2.3099178-.0007996.125427-.0015103.2579975-.0023099.3975259-.0000888.0057518-.0000888.0115964-.0001777.0173482-.0014214.2451951-.0026652.4962348-.0037313.7521914-.0143034 2.9743473-.0289622 7.9258408-.0311832 11.2869525-.0004442.6551524-.3821056 1.1967524-.9058239 1.4310932m-4.68965509-8.7733085c-.35278801 0-.67261596.2959411-.67261596.7029297v2.3523143c0 .2658831.14392258.5089445.37162231.6277848l3.16247664 1.6513328c.0984359.0513954.2007809.0749594.3003717.0749594.352788.0000927.672616-.2959411.672616-.7029297v-2.3523143c0-.2658832-.1438337-.5089445-.3716223-.6278776l-3.16247663-1.65124c-.09843594-.0513954-.20069205-.0749594-.30037176-.0749594" fill="#e58d68" mask="url(#c)"/><path d="m14.400698 30.5343496c-.412045-.4054115-.66311-.9774406-.6665748-1.5986386-.0139481-2.5256115-.0354476-7.4088253-.0192785-11.2196004.0013326-.274047.0025764-.531859.003909-.7695396.0131485-1.202226.6606224-2.2870032 1.6693242-2.8687733.016258-.0093699.0323382-.0188326.0484184-.0284809.0140369-.0083494.0278961-.0167916.0418442-.0254194l3.3044447-1.8845603c.0159025.0385002.0310944.0790413.0454866.1216234.0679635.2021491.1154935.4510551.1154935.7518203 0 .0694859-.0024876.1417549-.0079069.216807-.0467304.7073827-.1402801 1.317912-.1402801 1.317912s.0349146.5956859.4052931.5957786c.0586351 0 .1257102-.0149362.2024689-.0496327.5608538-.2532662 2.2904123-1.1319052 2.6644334-1.375987.3739322-.2440818.4526454-.3790644.4721904-.9593501 0-.6833549-.0106609-1.6094001-.0106609-2.0853179 0-.2271975-.0251421-.4167296-.1217123-.6009739l3.6200082-2.06462982c.0012438-.00074217.0024876-.00139157.0036425-.00213374l.1088304-.06197137c.0759591-.04341706.1597363-.06141474.2467117-.06141474.4333669 0 .9436702.44892132.9436702.44892132.0000888 0 .0000888 0 .0001776-.00009277.0840437.27683017.1285531.56924596.1285531.86834129v12.27571123c0 1.0505445-.5486826 2.0173164-1.4310524 2.5218078l-10.9614814 6.2673646c-.212419.1214379-.4363874.2116118-.6659528.270429" fill="#e37e66" mask="url(#c)"/><path d="m13.7148447 17.7161106c.0043737-.2559566.0094764-.5069963.015308-.7521914.0003645-.0057518.0003645-.0115964.0007289-.0173482-.0054671.2376806-.0105698.4954926-.0160369.7695396" fill="#e47b68" mask="url(#c)"/><path d="m21.7727324 9.44367543c-1.0396186-.65134874-8.5940438-5.04203857-12.43411142-7.27068845l-3.32363436 1.90033153 12.33949558 7.46485919s.6689735.4710937.5813762 1.6914101c-.0467304.7073827-.1402801 1.317912-.1402801 1.317912s.0467304.7994121.607762.5461459c.5608538-.2532662 2.2904123-1.1319052 2.6644334-1.375987.3739322-.2440818.4526454-.3790644.4721904-.9593501 0-.6833549-.0106609-1.6094001-.0106609-2.0853179 0-.4760106-.1105183-.78679518-.7565708-1.22931527" fill="#fffffe" mask="url(#c)"/></g><path d="m12.4174199 12.0818023c-.3471442-.0000862-.3798685-.5532927-.3798685-.5532927s.0876811-.5669914.1314801-1.2239295c.0050793-.0697.0074109-.1368154.0074109-.2013461 0-.27931719-.0445484-.51047324-.1082484-.69820676l3.4026625-1.92601325c.0513763.13836624.066198.28388342.066198.45128416 0 .44197934.0099922 1.30198668.0099922 1.93661042-.018319.53890463-.0920944.66426133-.4425693.89093723-.3505582.226676-1.9716191 1.0426577-2.4972898 1.2778631-.0719435.0322223-.1348109.0460934-.1897677.0460934" fill="#f0b8ab" mask="url(#d)" transform="translate(14.666667 2.428571)"/><g transform="translate(9.777778 2.428571)"><path d="m13.6620731 14.5424902c-.5803101 0-1.1614197-.1476923-1.6896689-.4443755-.0015991-.0009278-.0031094-.0017627-.0047974-.0026904-1.858467-1.0434939-5.05603581-2.8422406-7.83365277-4.38744285-1.05090137-.58650146-2.0317071-1.13246177-2.84255981-1.58156863-.47760975-.26439879-.52247451-.96473089-.0793351-1.28803958.05890164-.04304598.1197578-.0836799.18239077-.12199453.02185491-.0133591.04388751-.02634711.06618662-.03905681l4.55435011-2.60400339 12.33949558 7.46485919s.2538191.1787707.428303.6011594l-3.3044447 1.8845603c-.0139481.0086278-.0278961.01707-.0418442.0254194-.5489491.3283184-1.161242.4932661-1.7744232.4931734m8.7454289-4.4704734c-.1057209-.20168521-.2970846-.397062-.6347696-.62834137-1.0396186-.65134874-8.5940438-5.04203857-12.43411142-7.27068845l3.08358572-1.7630297c.4118673-.23554685.8670003-.35327389 1.3222221-.35327389.4551329 0 .9103547.11772704 1.322222.35327389l10.9614814 6.26736462c.005597.00315423.011194.00630846.0167021.00955547.4899587.28935432.4797419 1.03347457-.0135927 1.31837587z" fill="#e8a67a" mask="url(#e)"/><path d="m11.9676068 14.0954243c-1.9361141-1.0870965-5.11920183-2.8726697-7.83365277-4.38744285 2.77761696 1.54520225 5.97518577 3.34394895 7.83365277 4.38744285" fill="#e8a17d" mask="url(#e)"/><path d="m15.4364963 14.0493168c.0139481-.0083494.0278961-.0167916.0418442-.0254194l3.3044447-1.8845603-3.3044447 1.8845603c-.0139481.0086278-.0278073.01707-.0418442.0254194m6.9710946-3.9773h-.0000889l3.6237396-2.06676356c-.0011549.00074217-.0023987.00139157-.0036425.00213374z" fill="#ea937c" mask="url(#e)"/><path d="m18.3544822 11.5381777-12.33949558-7.46485919 3.32363436-1.90033153c3.84006762 2.22864988 11.39449282 6.61933971 12.43411142 7.27068845.337685.23127937.5290487.42665616.6347696.62834137l-3.6247168 2.0673203c-.1744839-.4223887-.428303-.6011594-.428303-.6011594z" fill="#fffffe" mask="url(#e)"/><path d="m12.1276214 27.0701688c-.1223839 0-.2481523-.023564-.3691169-.0749594l-3.88626351-1.6513328c-.27981272-.1188403-.45667444-.3619017-.45667444-.6277848v-2.3523143c0-.4069886.39302605-.7029297.82655563-.7029297.12249312 0 .24815228.023564.36911697.0749594l3.88626345 1.65124c.2799219.1189331.4566745.3619944.4566745.6278776v2.3523143c0 .4069886-.3930261.7030224-.8265557.7029297m-3.78833445-2.9006867c-.08690243 0-.17042046.0418399-.20972307.1129029-.05382273.0985234-.00403943.2148588.11157573.2608735l3.46157699 1.3726472c.0315512.0127097.0647401.0184615.0973831.0184615.0870116 0 .170093-.0418399.2093956-.1129957.0538227-.0985233.0040394-.2149516-.1115758-.2608734l-3.46168612-1.37274c-.03133291-.0123386-.06441261-.018276-.09694643-.018276m-.00054587-1.1768066c-.08668408 0-.16987459.0419328-.2091772.1130885-.05382273.0984306-.00403943.2148588.11157573.2608735l3.46157699 1.37274c.0315512.0126169.0647401.0183687.0973831.0183687.0870116 0 .170093-.0417472.2093956-.1129957.0538227-.0984306.0040394-.2148588-.1115758-.2608735l-3.46168612-1.3726472c-.03155126-.0126169-.06474013-.0185543-.0974923-.0185543" fill="#f5d4c1" mask="url(#e)"/></g><g fill="#f8c361"><path d="m39.2239564 17c-.6120423.4995558-1.4995035.9016008-2.5572897 1.1582294 1.0058431.304034 1.8149871.7448833 2.3318004 1.270342.611841-.4996558 1.4995036-.9016007 2.5570885-1.1583294-1.0056419-.303934-1.8147859-.7447833-2.3315992-1.270242"/><path d="m40.3897033 9.71428571c-.3060085.49963529-.7497209.90166369-1.2785922 1.15828179.5029009.3038214.9075569.7446525 1.1658522 1.2702896.3058072-.4996352.7497209-.9016636 1.2785923-1.1582817-.5029009-.3040215-.9073556-.7448526-1.1658523-1.27028969"/><path d="m42.8340517 12.1428571c-.3058324.4996353-.7495813.9014637-1.2784961 1.1582818.5029422.3040215.9076316.7448526 1.1659482 1.2702897.3058324-.4996353.7495813-.9016637 1.2784962-1.1582818-.5027409-.3040214-.9074303-.7448526-1.1659483-1.2702897"/><path d="m7.05476296 5.25933884c.2470963.46600277.63420741.85696969 1.11530371 1.12651336-.50603704.22767969-.93051111.58414432-1.22315556 1.02726382-.24719259-.46600277-.63420741-.8569697-1.1153037-1.12651336.50594074-.2276797.93041481-.58423302 1.22315555-1.02726382" mask="url(#f)"/><path d="m7.90265185.02598759c.12354815.23300139.31710371.42848485.55755556.56330103-.25287408.1137955-.46520741.29207216-.61148148.51363191-.12354815-.23309008-.31710371-.42857354-.55765186-.56330103.25297037-.1137955.46520741-.29207216.61157778-.51363191" mask="url(#f)"/><path d="m4.64417778 2.69446101c.12364444.23300139.3171037.42848485.55765185.56330103-.25297037.11388419-.46520741.29207216-.61157778.51363191-.12354815-.23300139-.3171037-.42848485-.55765185-.56330103.25297037-.1137955.4653037-.29207216.61157778-.51363191" mask="url(#f)"/><path d="m5.35985185 19.0567992c-.0078.1564578-.15185926.2773489-.32172592.2701646-.16977037-.007273-.30111852-.1398718-.29331852-.2963295.00789629-.1563691.15185926-.2773488.32172592-.2701646.16977037.007273.30111852.1399605.29331852.2963295zm.10525185-.8112031-2.80424444.5021903 3.58559259 2.2273052-.54532592-2.5828829c-.02118519-.10058-.12682223-.1662142-.23602223-.1466126zm.78134815 2.7294955-2.5661037 3.5046885c-.17082963.2332675-.51470371.2948217-.76805926.1375657l-2.66827407-1.6576181c-.25335556-.157256-.32028149-.474074-.14945186-.7073415l2.5662-3.5045998z" mask="url(#f)"/></g><path d="m7.26595888 19.6839855c.0009602-.0008595.1277074-.1057182.35495615-.3016837l-.22532834-.2091444c-.11266417.0971232-.20036299.171613-.25957569.2217504-.05953277.0501373-.0899393.0753493-.09025937.0753493z" fill="#7dcad4"/><path d="m5.62183121 19.4285714c.1382668-.1230156.2937096-.2631431.46267849-.4184812l-.15673099-.1338531c-.1683248.1545775-.32269409.2939445-.46031679.4163897zm.3379464-.3571196c.14563725-.1337744.2978249-.2756052.45503453-.4247429l-.16397838-.1275915c-.15655458.1483883-.3080872.2894697-.45306941.4226819zm.32700709-.367084c.14653495-.138823.29596058-.282637.4476098-.4308873l-.17188394-.1214471c-.15075978.147511-.29951833.2905856-.44516384.4284843zm.31656785-.3772077c.14546806-.142373.2920708-.2882141.43912743-.4373407l-.1804167-.1149936c-.14614886.148214-.29184385.2933249-.43663109.4347853zm.30534749-.387969c.14355901-.1455598.28688534-.2938217.42928099-.4444256l-.19055888-.1079088c-.14146495.149523-.28362792.2967041-.42648891.4415432zm.29288356-.3992088c.14067535-.1488561.28014835-.2998489.41721664-.4522661l-.20295726-.1000683c-.13610641.1511708-.27437706.3009172-.41409053.448883zm.27764717-.4124414c.13731627-.1527248.27163109-.306677.40244422-.4618567l-.21835538-.0904776c-.12956253.1536015-.26262674.306151-.39869241.4574731zm.26216158-.4265507c.13182746-.1567951.25941949-.3146296.38171725-.472984l-.23956596-.0793504c-.12097419.1564485-.24697794.3123773-.37748183.4676131zm.24361016-.4419356c.12392712-.1619769.24152849-.3244686.35165398-.4871318l-.27028188-.0652026c-.10840029.1600895-.22427645.3201789-.3467659.4799252zm.22509064-.4581176c.1115659-.1686073.21298945-.3372147.30328913-.50548l-.31964777-.0468544c-.08833664.1646743-.18779715.3300326-.29740002.4957329zm.22018401-.4725459c.08738775-.177703.15795438-.3547133.20964855-.5305111l-.41273276-.0218232c-.05046335.1709482-.11897863.3432821-.20431503.5166552zm.25405885-.4859378c.00507163-.0543483.00732568-.1083425.00732568-.1623368 0-.1308253-.01521487-.2609425-.04733517-.3899976l-.56971261.0139854c.03042975.1240982.04564463.2496127.04564463.3760122 0 .0520469-.00225406.1044479-.00732568.1568488zm-.07657051-.5195418c-.07155247-.1809045-.15748919-.3544217-.25670368-.5207233l-.36034411.0467294c.09589506.1611476.17961881.3295108.24932714.505605zm-.1707443-.4940046c-.11001627-.1722926-.23185015-.3351185-.36465751-.488822l-.25239027.0815851c.1274613.1476793.24507461.304481.35115168.4707493zm-.26800174-.4501048c-.14040336-.160739-.2903487-.309212-.44870006-.4454191l-.16834772.1268703c.15085409.1299826.29421093.2716819.42848016.4254641zm-.36285105-.3748256c-.16613589-.1433341-.33922723-.2699965-.51768421-.3802035l-.09936357.1911843c.16931552.1045776.3338616.2247445.49184968.3611501zm-.43284223-.2916256c-.18961065-.1126531-.38304796-.2004072-.57820725-.2638695l-.03884053.3018254c.18540133.0601222.36888934.1433215.54893336.250509zm-.47051783-.2856905c-.06148869-.0073514-.12297737-.0107821-.18446606-.0107821-.14478325 0-.28917362.0196037-.43258173.058321l.02160944.4940134c.13613949-.036757.27345767-.0553805.41097229-.0553805.0583455 0 .11688744.0034307.17523293.010292zm-.5201809.044699c-.19362864.0758655-.38323929.1738468-.56691863.292824l.07863771.2595104c.17430404-.1130984.3545394-.2057607.53841007-.2779869zm-.4699773.2024741c-.17751523.1174254-.34672209.249762-.50539152.3963885l.13779721.1559459c.15056371-.1391709.31105693-.2646732.47925057-.3760927zm-.38412663.3351983c-.15577372.1437314-.29824379.2983139-.42523324.4635695l.21382605.0887648c.12021667-.1568949.2554302-.3036504.40322173-.4397328zm-.2991522.4347613c-.12078525.1636102-.22071066.3354438-.29775752.5153293l.33342113.0370051c.07368237-.1718336.16889749-.3356151.28362666-.4913446zm-.29055766.4865756c-.0330962.1246864-.04992477.2525563-.04992477.383256 0 .0558878.00336571.1121294.00953619.1690783l.56880587-.0061901c-.00617048-.0548266-.00897524-.1091227-.00897524-.1628882 0-.1259245.01626762-.2486654.04768096-.3683998zm-.02747477.5096202c.01174172.0354948.02388833.071336.0372496.1071771.0530402.1428451.1121537.283093.17693562.4209169l.40286256-.0348023c-.06397214-.1353998-.12187098-.2732237-.1741014-.4136447-.01295639-.0348023-.025103-.0694314-.03603495-.1038874zm.09516004.4937422c.08939799.1736103.18686196.3431116.29306409.5083325l.32398369-.0541034c-.10384954-.1617967-.1996331-.3277024-.2870146-.498231l-.3296971.0440019zm.14977024.4799011c.11107432.1671447.22985816.3296466.35606599.4875056l.2609818-.0756623c-.12335245-.1542478-.23956645-.3131385-.34835645-.4766721zm.20904136.45841c.12932884.159622.26537283.3141347.40788326.463538l.20916453-.100072c-.13927721-.1457036-.27208798-.2965164-.3981836-.4522623zm.26971074.4267226c.14437264.1508888.29455595.2960453.45032643.4360242l.16672135-.12722c-.15219469-.1364656-.29857872-.2781087-.43937557-.4251144zm.32657371.3858c.15664477.1407716.31846959.2755699.48506006.404793l.13198772-.1570987c-.16265363-.1262365-.32074881-.2578489-.47366394-.3952356zm.37419257.3376784c.16681241.1294842.33797301.2526146.51328415.3702678l.10376364-.1901731c-.17155589-.115024-.33915887-.2357444-.50221602-.3621613zm.41132441.2887102c.17547297.1166938.35441682.2272587.53663875.3319399l.08040904-.2265233c-.17875103-.1027199-.35441683-.2113236-.5264189-.325811zm.43781386.2414336c.18249632.1028695.36785908.1993617.55589718.290031l.0611506-.2670171c-.18517166-.0890056-.36747689-.1841114-.54691569-.2853173zm.45552527.1991452c.18857961.0875266.37945663.1687337.57263107.2439371l.04441672-.312189c-.19030267-.0739395-.37869083-.1538826-.56439866-.2401454zm.46678912.1633882c.19397342.0705338.3894909.1341951.58674547.1920691l.03030231-.3624355c-.19513147-.0571505-.38833285-.1204502-.57979717-.1898989zm.47354742.1336513c.1985811.0511575.39833493.0956604.59945694.1335086l.01759084-.4204895c-.19916746-.0374323-.39696675-.0811033-.59320241-.1318449zm.47712078.1112006c.2025742.0288677.40633886.0505184.61089714.0654334l.00615064-.4873822c-.20277262-.0149149-.40455319-.0365657-.60534173-.0649522zm.47836368.0775778c.0304616.0005301.0611236.0005301.09178561.0005301.17455298 0 .34970717-.0047706.5252622-.014842l-.0042085-.5374923c-.1741522.0100713-.34790356.014842-.5210537.014842-.0304616 0-.0607228 0-.09098399-.0005301zm.48381311-.0212319c.2023853-.0214408.4051663-.0484749.6079473-.0806361l-.0134528-.4716982c-.2013961.0321612-.4027923.0587292-.603595.08017zm.4822211-.0433645c.1998749-.0386424.3997498-.0814851.599429-.128528l-.0217298-.4238064c-.1983088.047043-.3968134.0898856-.595318.127688zm.4806144-.0660831c.1970909-.0523343.3939881-.1106928.5904977-.1758283l-.0331392-.376506c-.194184.0643825-.3889494.1223644-.5839086.1735692zm.4794166-.097889c.1931996-.0689585.3858229-.1435803.5778702-.2238653l-.0457073-.3284691c-.1897426.0792856-.3802535.1532411-.5713405.2215334zm.4728534-.1296951c.1894345-.0822498.3779131-.1696026.565436-.2617584l-.0581111-.2905759c-.1854202.0912552-.3717961.1777076-.5589367.2590568zm.4645483-.160943c.1853627-.0931978.3695789-.1910556.5528396-.2932991l-.0703232-.2590352c-.1811586.1011471-.3632728.1976343-.5467246.2900098zm.4541294-.1915532c.1814282-.1025185.3615124-.2090872.5402528-.3197059l-.0827466-.2326285c-.1768205.1093531-.3547929.2149092-.5343012.3161621zm.4416475-.2215258c.1773795-.1105141.3534019-.2250426.5274858-.3431132l-.0955717-.2092212c-.1721453.1166538-.3460353.2297655-.5214761.3390988zm.4272776-.2510201c.1732927-.1178343.3446184-.2392191.5141737-.3639326l-.1089717-.1884017c-.1675884.1231601-.3369471.2429916-.508076.3594944zm.4109956-.2798766c.1688149-.124375.3354218-.2519014.4998207-.3825792l-.1230482-.1697551c-.1625923.1292071-.3271919.2552629-.4939996.3781673zm.3923696-.3078563c.1639548-.1305262.3254349-.2638552.4844402-.4001871l-.138382-.1521472c-.1571492.1345301-.316567.2662576-.4786658.3951823zm.3714155-.3349591c.1587975-.1361158.3146068-.2749193.4676415-.4164106l-.155169-.1359238c-.1511138.1399555-.3050022.2770311-.4618788.4114191zm.3481588-.3606271c.1530367-.1414198.3027321-.2854345.449086-.4320441l-.1737535-.1202903c-.1443491.1447561-.2922623.2869174-.4432943.4266691zm.3231617-.3847008c.1462231-.1466406.2889257-.2956232.4278729-.4471278l-.194573-.1052066c-.1370696.149523-.2778945.296524-.4224747.4413631zm.2953909-.4073396c.1387298-.1517074.2737168-.3057.4042125-.461978l-.2180751-.0903564c-.1287492.1539927-.2617401.3058758-.3989727.4556495zm.2679685-.4280654c.1299756-.1564255.2556456-.3152735.3762027-.476025l-.245958-.0763093c-.1189425.158675-.2427288.3152735-.3710898.4696226zm.2387028-.445443c.119818-.1613619.2340424-.32461.3429679-.4900874l-.2787902-.0622469c-.1074535.1630766-.220206.324267-.3382576.4833997zm.2097568-.4598713c.1069855-.1659741.2080819-.3340014.3026348-.5037399l-.3183391-.0485944c-.0935714.167514-.1930319.3331459-.2987087.4968956zm.1826365-.471111c.0910581-.1706497.1754533-.3430178.2524455-.5171046l-.3679337-.0352297c-.0758817.1718526-.1591665.3419867-.2491141.5104023zm.1593494-.4790027c.0710825-.1751346.1340291-.3520067.1884115-.5306163l-.4307773-.0217181c-.0539542.1761772-.1164726.3507906-.1862705.5238403z" fill="#7dcad4"/><path d="m14.896425 9.96969976c.0214919-.16257994.0409369-.32580122.0578234-.48998451l-.5183635-.02084359c-.0163747.1619386-.0353081.32291519-.0567999.48357111z" fill="#7dcad4"/></g><circle cx="460" cy="364" fill="#8ed1e6" r="11"/><path d="m409 405v-5h54v5z" fill="#fff" fill-rule="nonzero"/><path d="m410 415v-5h44v5z" fill="#fff" fill-rule="nonzero"/><path d="m409 424v-5h54v5z" fill="#fff" fill-rule="nonzero"/><path d="m409 326h5v10h-5z" fill="#000"/><path d="m465 326h5v10h-5z" fill="#000"/></g></svg>