<?xml version="1.0" encoding="utf-8"?>
<!-- Generator: Adobe Illustrator 26.0.1, SVG Export Plug-In . SVG Version: 6.00 Build 0)  -->
<svg version="1.1" id="Layer_1" xmlns="http://www.w3.org/2000/svg" xmlns:xlink="http://www.w3.org/1999/xlink" x="0px" y="0px"
	 viewBox="0 0 441.6 496.3" style="enable-background:new 0 0 441.6 496.3;" xml:space="preserve">
<style type="text/css">
	.st0{fill-rule:evenodd;clip-rule:evenodd;fill:#D29D81;}
	.st1{fill-rule:evenodd;clip-rule:evenodd;fill:#BF9242;}
	.st2{fill-rule:evenodd;clip-rule:evenodd;fill:#AF863D;}
	.st3{fill-rule:evenodd;clip-rule:evenodd;fill:#E1BBA5;}
	.st4{fill:#D29D81;}
	.st5{fill:#D2B7A5;}
	.st6{fill-rule:evenodd;clip-rule:evenodd;fill:#612D45;}
	.st7{fill-rule:evenodd;clip-rule:evenodd;fill:#DD8357;}
	.st8{fill-rule:evenodd;clip-rule:evenodd;fill:#E52628;}
	.st9{fill:#FDC861;}
	.st10{fill:#E52628;}
	.st11{fill:#1E1D1B;}
	.st12{fill:#FFFFFF;}
	.st13{fill:#CB636C;}
	.st14{fill:#443D3A;}
	.st15{fill:#612D45;}
	.st16{fill:#FECC5A;}
	.st17{fill-rule:evenodd;clip-rule:evenodd;fill:#9C754F;}
	.st18{fill:none;}
	.st19{fill-rule:evenodd;clip-rule:evenodd;fill:#A7A9AB;}
	.st20{fill-rule:evenodd;clip-rule:evenodd;fill:#EC5F6F;}
	.st21{fill-rule:evenodd;clip-rule:evenodd;fill:#0291CE;}
	.st22{fill-rule:evenodd;clip-rule:evenodd;fill:#FFFFFF;}
	.st23{fill:#0291CE;}
	.st24{fill:#BE3042;}
	.st25{fill:#856443;}
	.st26{fill:#221F15;}
	.st27{fill:#CB495C;}
	.st28{fill:#D84C61;}
	.st29{fill:#EC5F6F;}
	.st30{fill:#2B5480;}
	.st31{fill:#FEC85F;}
	.st32{enable-background:new    ;}
	.st33{fill:#0091CD;}
</style>
<g id="Fill-26_00000072277284696860104170000000295503529045411004_">
	<g>
		<g>
			<path class="st0" d="M119.4,272.6L119.4,272.6c-3.4,0.1-6.2-2.6-6.2-5.9v-0.1l0,0v-13c0-3.5,2.8-6.3,6.3-6.3s6.3,2.8,6.3,6.3
				v13.1C125.6,270.1,122.8,272.7,119.4,272.6L119.4,272.6z"/>
		</g>
	</g>
</g>
<g>
	<g>
		<path class="st1" d="M105.5,163.2c-6.6,0-13.1,1.5-19,4.5c-5,2.5-11.8,6.2-12.6,12c-0.3,2.4-0.1,4.8,0.6,7.2
			c0.1,0.4,0.2,0.8,0.2,1.2c-0.2,0.3-0.5,0.5-0.8,0.6c-4.3,2.7-7.9,7-8.9,12s0.6,10.6,3.5,15.1s7,7.6,10.4,11.8
			c-1.8,2.9-3.3,4.8-2.8,8.6c0.3,3.1,1.5,6,3.3,8.4c3.6,5,9.3,7.9,15.4,7.9c2.5,0,5-0.5,7.2-1.5c1.7,2.4,4.5,3.8,7.4,3.8
			c5,0,9.1-4,9.1-9.1c0-1.3-0.3-2.6-0.8-3.8c21.3-6.5,33.2-29.1,26.7-50.3C139.1,174.5,123.3,162.9,105.5,163.2L105.5,163.2z"/>
	</g>
</g>
<g>
	<g>
		<path class="st2" d="M163.7,202c0.3-12.6-9.7-23-22.3-23.2c-12.6-0.3-23,9.7-23.2,22.3l0,0v0.9c0,4.5,1.4,8.9,3.8,12.8
			c-2.6,3.8-3.9,8.2-3.8,12.8c-0.3,12.6,9.7,23,22.3,23.2s23-9.7,23.2-22.3v-0.9c0-4.5-1.3-8.9-3.8-12.8
			C162.4,211,163.7,206.5,163.7,202z"/>
	</g>
</g>
<g id="Fill-34_00000066498606139538904900000016694678113113202825_">
	<g>
		<g>
			<path class="st3" d="M145.2,180.7c0.4,4.6,7.6,22.5,2,40.2c6,4.5-4.5,22.1-8.6,27.4c-5.6,7.1-16.9,14.5-33.7,5.1
				c-15.7-9.7-13.2-27.7-13.2-27.7s-13.4,0.8-9.6-10.4c1.8-6.8,10.4-2.9,10.4-2.9s-1.6-24.3,3.1-37.6
				C101.1,159,140.6,159,145.2,180.7L145.2,180.7z"/>
		</g>
	</g>
</g>
<g id="Group-45_00000060024168596143892340000014010392322132383665_">
	<g>
		<g>
			<path class="st4" d="M105.3,221.6h32.2C130.6,216,111.2,216,105.3,221.6z"/>
		</g>
	</g>
	<g id="Fill-40_00000110445845235014861200000005145547640548361614_">
		<g>
			<g>
				<path class="st0" d="M91.8,222.5c0,0-1.5-4.6,1.8-6.6c-0.8-0.6-5,1.2-4.5,3.8c-1.1,0.9-2.6,0.7-3.5-0.4
					c-0.1-0.1-0.2-0.3-0.3-0.4C86.2,222,90.6,222.6,91.8,222.5L91.8,222.5z"/>
			</g>
		</g>
	</g>
	<g>
		<g>
			<path class="st5" d="M124.7,169.6c1.4-1.7,3-3.1,4.8-4.3c-4.3-1.3-8.9-1.8-13.4-1.6C119.4,164.8,122.4,166.8,124.7,169.6z"/>
		</g>
	</g>
	<g>
		<g>
			<path class="st4" d="M124.7,167.5c-2.2-2.7-5.1-4.8-8.4-6c-9.6,0.5-18.2,4.3-20.7,11.1c-4.1,11.9-3.3,32.8-3.1,36.9
				c1.1,0.3,2.3,0.5,3.5,0.5c7,0,13-5.1,14-12h0.2c4.8,0,9.5-1.9,13-5.1c3.5,5.6,9.3,9.3,15.9,9.9c0.4,5.3,4.7,9.4,9.9,9.7
				c2.7-15.5-3.1-29.9-3.5-34.1L124.7,167.5z"/>
		</g>
	</g>
</g>
<g>
	<g>
		<path class="st1" d="M110.3,155.7c-6.8,0-13.1,3.7-16.3,9.7c-1.3-0.4-2.6-0.7-4-0.6c-6.5,0-11.9,5.2-11.9,11.8v0.2
			c0,4.1,2.1,7.9,5.6,10.1c-2.2,2.5-3.4,5.8-3.3,9.1c0,1.4,0.2,2.8,0.7,4.1v6.2l8.9,4.5l2.5,1.5v-2.4c4.2,0.7,8.5-0.6,11.6-3.6
			c1.3-1.2,2.3-2.6,3.1-4.1l1-2.5c0.2-0.6,0-2.1,0.6-2.5c0.4-0.1,0.9-0.2,1.3-0.2c4.1-0.2,7.8-2.9,10.6-6c0.5-0.5,0.8-1,1.5-1.2
			c1.8-1,2.5,1,3.7,2.1c1.2,1.3,2.5,2.4,4,3.3c3,1.9,6.4,3.1,9.9,3.5c-0.3,1-0.4,1.9-0.4,2.9c0,5.9,4.8,10.7,10.7,10.7
			s10.7-4.8,10.7-10.7c-0.1-2.2-0.8-4.4-2-6.2c4.3-0.4,6.8-5.3,5.4-9.5c-0.8-2.5-3-4.4-5.6-4.8c1-4.1,0.3-8.4-1.9-11.9
			c-2.2-3.6-5.7-6.2-9.7-7.2c-1.5,0.2-3,0.2-4.5,0c-3.3-0.4-5.6-2.5-8.4-4.1c-3.5-2-7.8-2-11.9-1.8c-2.3,0.2-4.5,0.4-6.8,0.4
			C113.6,156.1,111.9,155.8,110.3,155.7z"/>
	</g>
</g>
<g id="Fill-46_00000125601397577416062290000010951918656486540219_">
	<g>
		<g>
			<path class="st3" d="M146.1,224.1c0,0.2,0.2,0.4,0.4,0.5c0.6,0.6,2.5,1,3.3,1.2c1.4,0.5,2.9,0.1,3.9-1c0.5-0.6,0.8-1.3,1-2.1
				c0.5-1.8,0.3-3.7-0.6-5.3c-1.3-1.8-4.3-2.5-5.8-0.6c-1.3,1.5-1.7,3.8-2,5.6C146.1,223.7,145.9,223.8,146.1,224.1L146.1,224.1z"/>
		</g>
	</g>
</g>
<g id="Group-2_00000034795089471160378040000005534936636415164596_">
	<g id="Fill-11_00000068650360806852401940000002041512108935085733_">
		<g>
			<g>
				<path class="st3" d="M149.5,272c12.2-10.7,26.8-28.6,37-58c4-12.3,6-25.2,5.9-38.1c0.1-9.8-0.6-19.5-1.9-29.2
					c-0.6-4.7-1.3-7.5-1.3-7.5c-0.8-3.9-4.6-6.4-8.4-5.6c-3.8,0.8-6.2,4.4-5.5,8.2v0.2l2.4-0.5l-2.4,0.5l0,0l2.4-0.5l-2.4,0.5
					c0,0,0.6,2.5,1.2,6.7c1.3,8.9,1.9,18,1.8,27c-0.2,11-1.5,23-5.1,33.4c-9.5,27.1-22.4,42.8-32.9,52c-4,3.5-8.3,6.6-13,9.1
					C125.4,271.1,137.2,282.5,149.5,272z"/>
			</g>
		</g>
	</g>
	<g id="Fill-16_00000177474000313240887170000005897938827117320875_">
		<g>
			<g>
				<path class="st6" d="M134.1,287.9c0.9-0.5,10-4.6,21.5-16.3s25.2-30.8,35.4-60.4l-19.3-6.6c-9.5,26.8-21.5,43.2-30.9,52.8
					c-3.5,3.6-7.3,6.9-11.5,9.7c-0.9,0.7-2,1.3-3,1.8c-0.2,0.1-0.5,0.2-0.6,0.4l-0.1,0.1l2.1,4.6l-2-4.7l-0.1,0.1l2.1,4.6l-2-4.7
					L134.1,287.9L134.1,287.9z"/>
			</g>
		</g>
	</g>
</g>
<g id="Group-2-2_00000072274292350708703740000015645476680625704862_">
	<g id="Fill-11-2_00000109010819823170886050000009859796923380242820_">
		<g>
			<g>
				<path class="st3" d="M87.2,273.4c-12.7-10.2-28.1-27.5-39.5-56.5c-4.9-12.6-6.9-25.7-7.6-37.7c-0.5-9.7-0.3-19.5,0.6-29.2
					c0.4-4.7,0.9-7.3,0.9-7.6c0.7-3.9,4.4-6.4,8.3-5.8c3.8,0.6,6.4,4.2,5.8,8l0,0l-2.3-0.2l2.3,0.5l0,0l-2.3-0.5l2.3,0.5
					c0,0-0.5,2.6-0.8,6.8c-0.9,9-1.1,18-0.6,27c0.6,10.9,2.5,22.9,6.7,33.3c10.5,26.7,24.2,41.8,35.2,50.5c4.1,3.3,8.6,6.2,13.4,8.5
					C110.9,271.6,99.8,283.6,87.2,273.4z"/>
			</g>
		</g>
	</g>
	<g id="Fill-16-2_00000017482047118197679450000003963443899907503259_">
		<g>
			<g>
				<path class="st6" d="M103.2,288.7c-0.9-0.4-10.3-4.4-22.1-15.4c-11.9-11.2-26.5-29.8-38.1-58.9l19-7.6
					c10.5,26.5,23.3,42.2,33.1,51.4c3.7,3.5,7.7,6.6,11.9,9.3c1,0.7,2.1,1.2,3.2,1.6c0.2,0.1,0.5,0.2,0.7,0.4l0.1,0.1l-2,4.7
					l1.9-4.8l0.1,0.1l-2,4.7l1.9-4.8L103.2,288.7z"/>
			</g>
		</g>
	</g>
</g>
<g id="Fill-165_00000101814184678639153140000002966937289676046489_">
	<g>
		<g>
			<path class="st7" d="M237.7,138.5c-0.5,0.2-1,0.2-1.5,0.4C236.8,138.9,237.3,138.7,237.7,138.5z"/>
		</g>
	</g>
</g>
<g id="Rectangle-24_00000065757730502130862250000015564608363307152274_">
	<g>
		<g>
			<path class="st8" d="M2.5,47.9l218.9-19.2c0.9,0,1.6,0.6,1.8,1.5l0,0l10.2,128.1c0,0.9-0.6,1.6-1.5,1.8L13.2,179.3
				c-0.9,0-1.6-0.6-1.8-1.5l0,0L1,49.8C1,48.9,1.6,48.2,2.5,47.9z"/>
		</g>
	</g>
</g>
<g id="RoyalMail_00000090996586910115715900000005410599773077034885_">
	<g>
		<g>
			<path class="st9" d="M176.7,67.1l-4.5,0.4l1.5,17.3l4.5-0.4L176.7,67.1z M169.3,66.9c-0.6-0.4-1.3-0.6-2-0.6s-1.5,0.3-2,0.8
				c-0.4,0.5-0.7,1.2-0.6,1.8c0,0.7,0.3,1.3,0.8,1.7c1.3,0.8,2.9,0.6,3.9-0.4c0.5-0.5,0.7-1.2,0.6-1.8
				C170.1,67.9,169.8,67.3,169.3,66.9z M169.9,72.5l-4.5,0.4l1.2,12.8l4.5-0.4L169.9,72.5z M163.1,78.7c0-1.7-0.7-3.2-2-4.3
				c-1.5-0.9-3.3-1.3-5-1c-1.1,0.2-2.1,0.4-3.1,0.6c-0.9,0.3-1.7,0.7-2.5,1.2l1.8,2.8c0.4-0.6,0.8-0.6,1.5-1
				c0.6-0.3,1.2-0.5,1.8-0.6c1.7-0.2,2.7,0.6,2.9,1.8l-2.5,0.2c-1.5,0-2.9,0.5-4.1,1.3c-0.8,0.7-1.3,1.8-1.2,2.9
				c0,0.7,0.2,1.4,0.6,2c0.4,0.6,1.1,1.1,1.8,1.3c0.8,0.4,1.8,0.5,2.7,0.4c2-0.2,3.1-0.8,3.7-2.1l0.2,1.7l4.1-0.3L163.1,78.7z
				 M158.3,83.1c-0.3,0.3-0.8,0.5-1.3,0.6c-0.5,0.2-1,0-1.3-0.4c-0.3-0.2-0.5-0.5-0.6-0.8c0-0.8,0.6-1.3,1.8-1.5l2-0.2l0.2,1.2
				C158.9,82.4,158.6,82.8,158.3,83.1z M147.2,70.7l-3.8,0.4l-4.8,9.9l-6.6-8.9l-3.8,0.3l1.5,16.3l4.3-0.4l-0.6-8.4l4.8,6.4l2-0.2
				l3.7-7.4l0.8,8.6l4.1-0.4L147.2,70.7z M118.4,72.2l-4.5,0.3l1.5,17.3l4.5-0.4L118.4,72.2z M112.1,83.1c-0.2-2-0.8-3.5-2-4.3
				c-1.5-0.9-3.3-1.3-5-1c-1.1,0.2-2.1,0.4-3.1,0.7c-0.9,0.3-1.7,0.7-2.5,1.3l1.8,2.8c0.4-0.5,0.9-0.8,1.5-1
				c0.6-0.3,1.2-0.5,1.8-0.6c1.7-0.2,2.7,0.6,2.8,1.8l-2.5,0.2c-1.5,0-2.9,0.5-4.1,1.3c-0.8,0.8-1.2,1.8-1.1,3
				c-0.1,0.7,0.2,1.4,0.6,2s1.1,1.1,1.8,1.3c0.8,0.3,1.8,0.5,2.7,0.4c2-0.2,3.1-0.8,3.7-2.1l0.2,1.7l4.1-0.4L112.1,83.1z
				 M107.1,87.6c-0.3,0.3-0.8,0.5-1.3,0.5c-0.4,0.1-0.9,0.1-1.3-0.2c-0.3-0.2-0.5-0.5-0.5-0.8c0-0.8,0.5-1.3,1.8-1.5l2-0.2l0.2,1
				C107.8,86.8,107.5,87.2,107.1,87.6L107.1,87.6z M95.2,79.3l-2.4,7.9L89,79.8l-4.6,0.4L91,92.6c-0.2,0.3-0.4,0.6-0.6,0.8
				c-0.3,0.3-0.6,0.4-1,0.4s-0.8,0-1.2-0.2c-0.4-0.2-0.7-0.3-1-0.5l-1.3,3.3c0.5,0.4,1.1,0.6,1.7,0.6c0.7,0.1,1.3,0.2,2,0.2
				c1.2-0.1,2.4-0.6,3.3-1.3c1-0.9,1.7-2.2,2-3.5l4.4-13.7L95.2,79.3z M83.4,83c-0.8-0.9-1.7-1.7-2.8-2.1c-1.2-0.5-2.6-0.6-3.9-0.4
				c-1.3,0.1-2.5,0.5-3.5,1.2c-1,0.6-1.8,1.4-2.3,2.4c-0.5,1.1-0.8,2.3-0.7,3.5c0,1.2,0.4,2.3,1.1,3.3c0.8,0.9,1.7,1.7,2.8,2.1
				c1.2,0.5,2.5,0.6,3.8,0.5s2.5-0.5,3.7-1.1c1-0.6,1.8-1.4,2.3-2.5s0.7-2.3,0.7-3.5C84.7,85.1,84.3,83.9,83.4,83L83.4,83z
				 M79.6,88.9c-0.4,0.6-1.1,1-1.8,1c-0.7,0-1.4-0.2-2-0.6c-0.6-0.5-1-1.3-1-2.1c-0.2-0.8,0-1.7,0.6-2.3c0.4-0.6,1.1-1,1.8-1
				c0.7-0.1,1.4,0.2,2,0.7c0.7,0.5,1.1,1.3,1,2.1C80.2,87.4,80,88.2,79.6,88.9L79.6,88.9z M65.6,88.9c0.9-0.6,1.6-1.4,2.1-2.3
				c0.5-1,0.7-2.1,0.5-3.1c-0.1-1.1-0.5-2.2-1.1-3.1s-1.6-1.6-2.7-1.8c-1.3-0.4-2.7-0.5-4-0.4L53,78.8L54.5,95l4.7-0.4l-0.4-4.3
				l2.5-0.2l3.3,4l5-0.5L65.6,88.9z M63.4,85.9c-0.6,0.5-1.3,0.8-2.1,0.8l-2.7,0.2L58,82.2l2.7-0.2c0.7,0,1.5,0.2,2.1,0.6
				C63.7,83.4,64,84.8,63.4,85.9L63.4,85.9z"/>
		</g>
	</g>
</g>
<g id="Rectangle-2_00000031923223306693591130000016598944631281624474_">
	<g>
		<g>
			
				<rect x="57.4" y="105.1" transform="matrix(0.9945 -0.1045 0.1045 0.9945 -12.0724 12.8821)" class="st10" width="119" height="33.1"/>
		</g>
	</g>
</g>
<g>
	<g>
		<path class="st11" d="M132.2,243.1c0.2-4.3-4.5-7.9-10.3-8.1s-10.4,3.1-10.6,7.4L132.2,243.1z"/>
	</g>
</g>
<g>
	<g>
		<path class="st12" d="M129.6,237.8l-15.4-0.4c2.2-1.8,5-2.6,7.8-2.3C124.7,235.1,127.4,236,129.6,237.8z"/>
	</g>
</g>
<g>
	<g>
		<path class="st13" d="M122,240.8c2.3,0,4.6,0.7,6.4,2.1l-13.2-0.4C116.9,241.3,119.4,240.8,122,240.8z"/>
	</g>
</g>
<g>
	<g>
		<path class="st14" d="M112.1,221c0.2-2.9-0.6-5.1-1.7-5.3c-1.2,0-2.1,2.1-2.3,5.1v0.8h4V221z"/>
	</g>
</g>
<g>
	<g>
		<path class="st14" d="M134.4,221.2c0.2-2.8-0.6-5.1-1.6-5.3c-1.2,0-2.1,2.1-2.3,5.1v0.5h4L134.4,221.2z"/>
	</g>
</g>
<g>
	<g>
		<path class="st1" d="M92.4,244c1.3-5.8-0.8-8.3-6.8-9.5c-3.3-0.6-6.6-0.7-9.9-0.4c0.3,9.1,7.1,16.8,16.2,18
			C91.6,249.4,91.8,246.6,92.4,244z"/>
	</g>
</g>
<g>
	<g>
		<path class="st2" d="M152.8,234.7c-4,4.3-10.5,9.5-12.4,15.5h0.5c12.6,0,22.9-10.3,22.9-22.9c0,0,0,0,0-0.1c0-2-0.3-3.9-0.8-5.8
			C160.1,226.3,156.7,230.7,152.8,234.7z"/>
	</g>
</g>
<g>
	<g>
		<path class="st15" d="M149.6,362.9H92.2c0.1-8.5,4.1-16.5,10.9-21.6l0.3-0.3c10.4-7.7,24.6-7.7,35,0c0.1,0.1,0.2,0.2,0.4,0.3
			C145.5,346.4,149.5,354.4,149.6,362.9z"/>
	</g>
</g>
<g>
	<g>
		<path class="st15" d="M135.4,266.8c-5.6,6.6-11.8,13.2-19.7,16.9c-2.5,1.2-5.6,1.6-7.4-0.2c-1.2-1.2-1.3-2.8-1.3-4.5
			c-0.3-3.7-0.3-7.4,0-11.1c0-0.5,0.2-0.8,0.2-1.3h-4.6v70.5c0,9.7,8.3,17.9,18.4,17.9c10,0.1,18.2-7.9,18.4-17.9l1.6-70.4h-5.4
			L135.4,266.8z"/>
	</g>
</g>
<g>
	<g>
		<path class="st4" d="M107,279c-0.1,1.6,0.3,3.2,1.3,4.5c1.8,2,5.1,1.3,7.4,0.2c7.9-3.7,14-10.1,19.7-16.9H107
			c-0.1,0.4-0.2,0.9-0.2,1.3C106.5,271.6,106.9,275.4,107,279z"/>
	</g>
</g>
<g>
	<g>
		<rect x="102.6" y="331.9" class="st16" width="37" height="9.1"/>
	</g>
</g>
<g>
	<g>
		<path class="st12" d="M78.5,134.7l10.8-0.9l0.6,6.6l-24,1.9l-0.1-1.6c3.5-3.2,5.6-5.7,5.4-8.8l-5.6,0.5l-0.6-6.6l3.1-0.3
			c-1-1.5-1.5-3.1-1.7-4.9c-0.5-5.8,4-9.7,10.1-10.2c5.3-0.5,9.9,2,12,7.9l-6.3,2.9c-1-2.6-2.6-3.8-4.6-3.6c-1.7,0-3.1,1.4-3.1,3.2
			v0.1v0.4c0.2,1.3,0.7,2.6,1.6,3.6l7.5-0.6l0.6,6.6l-5.1,0.4C79.2,132.4,79,133.6,78.5,134.7z"/>
	</g>
</g>
<g>
	<g>
		<path class="st12" d="M115.5,128.2c0.6,6.2-4.4,11.2-11.3,11.8c-5,0.6-9.9-1.9-12.4-6.3l5.1-4.3c1.9,2.6,3.8,3.6,6.3,3.4
			s4.3-1.5,4.1-3.8c-0.2-2.3-2-2.9-5.5-2.7l-7.2,0.6l-1.4-17.2l18.8-1.5l0.6,7.2l-11.3,0.9l0.3,3.6c0.9-0.3,1.9-0.5,2.8-0.6
			C109.4,118.8,114.9,121.9,115.5,128.2z"/>
	</g>
</g>
<g>
	<g>
		<path class="st12" d="M119.1,133.5c-0.2-2.9,1.9-5.4,4.8-5.6c2.9-0.2,5.4,1.9,5.6,4.8s-1.9,5.4-4.8,5.6
			C121.8,138.5,119.3,136.4,119.1,133.5C119.1,133.6,119.1,133.5,119.1,133.5z"/>
	</g>
</g>
<g>
	<g>
		<path class="st12" d="M158.9,118.3c-0.7-8.8,2.9-15.9,11.4-16.5s13.1,5.7,13.9,14.5s-2.9,16.3-11.4,17S159.6,127.1,158.9,118.3z
			 M176.1,116.9c-0.5-5.8-2.1-8.2-5.1-7.9s-4.3,2.9-3.9,8.6s2.2,8.5,5.2,8.3C175.4,125.6,176.6,122.7,176.1,116.9L176.1,116.9z"/>
	</g>
</g>
<g>
	<g>
		<polygon class="st15" points="92.2,362.8 149.6,362.8 150.2,489.4 91.4,489.4 		"/>
	</g>
</g>
<g>
	<path class="st7" d="M260.8,138.7c-0.5,0.2-1,0.2-1.5,0.4C259.9,139.1,260.4,138.9,260.8,138.7z"/>
</g>
<g id="Group_00000129166041733416164340000007855947730152122001_">
	<g id="Man_00000155114126882855995240000016111284045462957993_">
		<g>
			<g>
				<path class="st17" d="M354.7,265.6V367h-65.5V264.6c0-1.6,0.2-3.2,0.5-4.9c1.2-6.6,4.4-12.6,9.1-17.4l0.2-0.2
					c3.4-3.3,7.4-5.8,11.8-7.5c0.6-0.2,1.2-0.4,1.8-0.6l0,0c0.4-0.1,0.6-0.2,1-0.3l0.8-0.2c4.4-1,9-1.1,13.4-0.3
					c0.3,0,0.6,0.1,0.8,0.2h0.1c0.6,0.1,1.2,0.3,1.8,0.5c2.9,0.8,5.6,2,8.1,3.5c0.8,0.5,1.6,1,2.3,1.6l0.5,0.4
					c2.9,2.2,5.4,4.8,7.4,7.7v0.1c1.7,2.4,3,5.1,3.9,7.9l0,0v0.1l0.3,0.8l0,0c0.4,1.2,0.7,2.3,0.8,3.5
					C354.4,261.6,354.7,263.6,354.7,265.6z"/>
			</g>
		</g>
		<g id="Fill-5_00000033336721426954853690000015275034432739701937_">
			<g>
				<g>
					<path class="st18" d="M328.2,232.9L328.2,232.9v-10.3l0,0V232.9"/>
				</g>
			</g>
		</g>
		<g id="Group-10_00000106859851046325869930000001934123858210309777_">
			<g id="Rectangle_00000145749097992786317100000009252803692452570802_">
				<g>
					<g>
						<path class="st19" d="M299.5,127h40c10.4,0,18.9,8.5,18.9,18.9l0,0c0,10.4-8.5,18.9-18.9,19h-40c-10.4,0-18.9-8.5-19-18.9l0,0
							C280.6,135.5,289.1,127.1,299.5,127z"/>
					</g>
				</g>
			</g>
			<g id="Fill-9_00000163043494358396975750000015816342790820241311_">
				<g>
					<g>
						<path class="st17" d="M350.5,136.2c0.4,3.8,1.3,26.9,1.3,26.9c1.2,0,5,0.5,5,5.5c0.2,4.9-3.4,5.7-5.2,5.5c0,0-2,30.6-6.5,36.6
							c-6.2,7.9-19.8,17.8-38.2,7.4c-8-4.6-13.6-12.5-15.5-21.5c-3.4-16.1-3.8-22.8-3.8-22.8s-14.6,1-10.5-11.6
							c2-7.6,11.4-3.2,11.4-3.2c-0.9-9.5,0.2-19.1,3.4-28.1C297.8,113.8,345.2,112.4,350.5,136.2L350.5,136.2z"/>
					</g>
				</g>
			</g>
		</g>
		<g id="Group-2-3_00000147211137827977927170000013229783021800183690_">
			<g id="Fill-11-3_00000088847416996373300660000007697385550671070639_">
				<g>
					<g>
						<path class="st17" d="M413,117.5c3.6,1.4,6.1,4.8,6.3,8.7c0.1,1.8,1.8,43.4-14.9,74.4c-30.2,56-70.7,62.6-72.3,62.7l-2.8-19.2
							l0,0c1.3-0.2,32.9-5.9,57.9-52.7c14.2-26.1,12.8-64,12.7-64.3c-0.2-5.3,3.9-9.8,9.2-10.1C410.5,116.9,411.8,117.1,413,117.5
							L413,117.5z"/>
					</g>
				</g>
			</g>
			<g id="Fill-6_00000177459523824848038080000015344668493372759740_">
				<g>
					<g>
						<path class="st20" d="M319.8,268.1l-3.5-21.3l10.5-1.8c1.8-0.5,34.2-7.2,59.4-56.6l4.9-9.6l19.1,9.9l-5,9.6
							c-30.7,60.2-72.8,73.4-74.5,73.7L319.8,268.1z"/>
					</g>
				</g>
			</g>
		</g>
		<g id="Group-2-4_00000129186985620100425190000012203034403062044547_">
			<g id="Fill-11-4_00000157308854435462681120000011408287885480967303_">
				<g>
					<g>
						<path class="st17" d="M221,117.6c-3.6,1.4-6.1,4.9-6.3,8.8c-0.1,1.8-1.8,43.4,14.9,74.4c30.2,56,70.7,62.6,72.3,62.7l2.8-19.2
							l0,0c-1.3-0.2-32.9-5.9-57.9-52.7c-14.2-26.1-12.8-64-12.7-64.3c0.2-5.3-3.9-9.9-9.2-10.3C223.5,116.8,222.2,117.1,221,117.6
							L221,117.6z"/>
					</g>
				</g>
			</g>
			<g id="Fill-6-2_00000020360442599459480190000005389937533505603737_">
				<g>
					<g>
						<path class="st20" d="M314.3,268.2l3.5-21.3l-10.5-1.9c-1.8-0.5-34.2-7.2-59.4-56.7l-4.9-9.6l-19.1,9.8l4.9,9.6
							c30.7,60.1,75.4,73.4,77.2,73.8L314.3,268.2z"/>
					</g>
				</g>
			</g>
		</g>
		<g>
			<g>
				<path class="st20" d="M354.7,258.7V367H288v-82.6l0.2-17.2c0.2-1,0.4-2,0.6-3c0.3-1.7,0.6-3.2,0.8-4.6c0.6-3.4,1.1-5.9,1.5-7.6
					c0.1-0.4,0.2-0.8,0.4-1.2c0.5-1.9,1.6-3.6,3-4.9c0.9-1.4,2-2.8,3.2-4l0.3-0.3c1.2-1.3,2.6-2.5,4.1-3.5c2.8-1.9,5.8-3.3,9-4.3
					c0.5-0.1,0.9-0.3,1.5-0.4c0.5-0.1,1-0.2,1.4-0.4l0.8-0.2v3c0,0.5,0.1,1,0.2,1.5c0.7,2.6,2.5,5.3,6.5,5.3c0.8,0,1.6-0.1,2.3-0.4
					c2.2-0.7,3.8-2.6,4.2-4.9c0.1-0.5,0.2-1,0.2-1.5v-3.2c0.3,0.1,0.5,0.1,0.8,0.2c0.1,0,0.3,0,0.4,0.1c0.5,0.1,0.9,0.3,1.5,0.4
					c2.9,0.8,5.7,2.1,8.3,3.7c0.8,0.6,1.7,1.1,2.5,1.8c0.2,0.1,0.3,0.2,0.5,0.4c2.5,2,4.7,4.4,6.6,7l0.5,0.9v0.1l3.9,7.9l0.1,0.1
					l0.3,0.6L354.7,258.7z"/>
			</g>
		</g>
		<g id="Fill-30_00000160170130350618866630000005948357813240396735_">
			<g>
				<g>
					<path class="st18" d="M327.5,160.7L327.5,160.7"/>
				</g>
			</g>
		</g>
	</g>
	<g id="Sign_00000119821327154667033510000003631591440136863664_">
		<g id="Rectangle-24-2_00000053539443188944650400000012271735638606169786_">
			<g>
				<g>
					<path class="st21" d="M206.5,0.1L438,8.2c0.9,0,1.6,0.7,1.6,1.5l0,0v0.2l-4.8,136.2c0,0.9-0.7,1.6-1.5,1.6l0,0h-0.2l-231.6-8.1
						c-0.9,0-1.6-0.7-1.6-1.5l0,0v-0.2l4.8-136.2C204.8,0.8,205.5,0.1,206.5,0.1z"/>
				</g>
			</g>
		</g>
		<g id="Logos-_-Brand-_-Hermes-with-Tag-line_00000009558226406475101010000016361390455656513439_">
			<g id="Page-1_00000062900871859168282120000005782398965053547429_">
				<g id="Group-3_00000062156460175292997410000010684663081323726508_">
					<g id="Fill-1_00000059307347074541822760000007481081088355561888_">
						<g>
							<g>
								<path class="st22" d="M273,28.5l-1.9,6.6l3.4,0.1l1.9-6.7C276.4,28.5,273,28.5,273,28.5z M270.5,37l-1.9,6.6l3.4,0.1
									l1.9-6.6L270.5,37z M268,45.5l-1.9,6.6l3.4,0.1l1.9-6.6L268,45.5z M237.7,27.3v1.3l5.3,5.6l26.3,0.9l2-6.6L237.7,27.3z
									 M254.9,45.1v1.2l5.8,5.9l3.8,0.2l2-6.6L254.9,45.1z M246.2,36.2v1.2l5.9,5.8l15.1,0.6l2-6.8L246.2,36.2z M378.6,38.4
									c-1.1-1.2-2.8-1.6-5.1-1.7c-3.8-0.1-6.2,0.7-8,2.8s-3.8,7.6-3.9,11.1v0.2c-0.2,1.7,0.6,3.5,2,4.5c1,0.6,2.7,0.8,5.2,0.8
									c2.9,0.1,4.4,0,5.4-0.5c0.6-0.3,1-0.9,1.6-2.4l0.8-2.5h-0.7c-1.2,1.5-2.4,2-5.4,1.9c-1.7-0.1-2.7-0.3-3-0.7
									c-0.6-0.4-0.9-1.1-0.8-1.9c0-0.4,0.2-0.8,0.2-1.2l0.4-1.7l8.4,0.3c1.9,0.1,2.3-0.3,2.7-0.9c0.6-1.5,1-3.1,1.2-4.7
									C379.7,40.6,379.3,39.4,378.6,38.4L378.6,38.4z M374.9,44.4l-7.1-0.3v-0.2c0.9-3.2,2-4.1,4.7-4c0.8-0.1,1.7,0.2,2.3,0.8
									c0.3,0.4,0.5,1,0.5,1.5C375.2,43,375,43.7,374.9,44.4L374.9,44.4z M360,40c0.1-0.3,0.2-0.6,0.2-0.8c0-0.6-0.1-1.2-0.5-1.7
									c-0.7-0.9-1.9-1.4-3-1.3l-2.5-0.1c-1.2-0.2-2.3,0.4-2.9,1.4l-1.2,2v-0.7c0.1-0.7-0.1-1.4-0.6-2c-0.7-0.6-1.6-1-2.5-0.9
									l-2.3-0.1c-1-0.1-2.1,0.3-2.7,1.1l-1.8,2.3l0.8-2.5c0-0.2,0-0.4-0.1-0.7c-0.1-0.1-0.3-0.2-0.5-0.2l-4.7-0.2l-0.2,0.3
									c0.4,0.2,0.7,0.6,0.6,1c-1.9,6.3-4.8,16.6-4.8,16.6c0,0.2,0,0.5,0.2,0.7c0.1,0.1,0.3,0.2,0.5,0.2l4.7,0.2l0.2-0.3
									c-0.5-0.2-0.5-0.4-0.7-0.6c-0.1-0.4,0-0.8,0.2-1.1c0,0,3-9.8,3.1-10.2c0.7-2.7,1.6-3,3-3.1h1c0.6,0,1.1,0.2,1.5,0.6
									c0.1,0.4,0.1,0.8,0.1,1.2s-3.1,10.2-3.3,10.8c-0.4,1.1-0.6,1.9-0.6,1.9c0,0.2,0,0.4,0.1,0.7c0.1,0.1,0.3,0.2,0.5,0.2
									l4.7,0.2l0.2-0.3c-0.3-0.1-0.5-0.3-0.7-0.6c-0.1-0.4,0-0.8,0.2-1.1l3-10.2c0.8-2.7,1.6-3,3-3.1h1c0.6,0,1.1,0.2,1.5,0.6
									c0.3,0.4,0.3,1,0.1,1.4l-3.7,12.5c0,0.2,0,0.5,0.1,0.7c0.1,0.1,0.3,0.2,0.5,0.2l4.7,0.2l0.2-0.4c-0.5-0.2-0.6-0.4-0.6-0.6
									c-0.1-0.4,0-0.8,0.2-1.1C356.3,53.3,359.9,40.7,360,40L360,40z M293.9,52.1c0-0.4,0.1-0.8,0.2-1.1l6.1-20.6
									c0-0.2,0-0.4-0.1-0.7c-0.1-0.1-0.3-0.2-0.5-0.2l-5.2-0.2l-0.2,0.5c0.5,0.2,0.6,0.4,0.6,0.8c0,0.3-0.1,0.6-0.2,0.8l-1.9,6.6
									l-7.6-0.3l2.3-8c0-0.2,0-0.5-0.2-0.7c-0.1-0.1-0.3-0.2-0.5-0.2l-5.2-0.2l-0.2,0.3c0.4,0.1,0.6,0.4,0.6,0.8
									c0,0.3-0.1,0.6-0.2,0.8l-6.2,20.8v0.2c0,0.2,0,0.4,0.2,0.6c0.1,0.1,0.3,0.2,0.5,0.2l5.2,0.2l0.2-0.5
									c-0.4-0.2-0.5-0.6-0.6-0.7c0-0.4,0.1-0.8,0.2-1.2l2.7-9l7.5,0.3l-2.9,10.7v0.2c0,0.2,0,0.4,0.1,0.6c0.1,0.1,0.3,0.2,0.5,0.2
									l5.2,0.2l0.2-0.5C294.2,52.7,294,52.4,293.9,52.1L293.9,52.1z M389.9,37.5c-2.7-0.1-4.1,0.6-5.1,2.1c-0.9,1.5-1.5,3.2-1.7,5
									v0.1c0,1.5,0.8,2.3,2.6,2.8l3.3,0.9c1.7,0.6,2.1,0.7,2.1,1.6c0,0.6-0.3,1.2-0.7,1.7c-0.4,0.5-1,0.7-2.3,0.6l-3.4-0.1
									c-2-0.1-2.3-0.6-2.6-1.4h-0.5l-1.5,4.7c0,0.4,0,0.8,0.6,0.8l8.8,0.3c2,0.1,3.4-0.4,4.4-1.7c1.2-1.8,2-3.9,2.1-6.2v-0.2
									c0.1-1.7-0.6-2.3-2.9-3.2l-3.6-1.1c-0.8-0.4-1.1-0.6-1.1-1.2c0-0.5,0.2-1.1,0.6-1.5c0.5-0.5,1-0.5,2.7-0.4l3.5,0.1
									c1.2,0,1.7-0.3,1.9-1.3c0.2-0.7,0.4-1.4,0.5-2.1C397.1,37.8,389.9,37.5,389.9,37.5L389.9,37.5z M330,35.5
									c-1.2,0-1.2,0-1.9,0.7l-2.1,2.4l0.8-2.5c0-0.2,0-0.4-0.1-0.7c0-0.2-0.2-0.2-0.4-0.2l-4.6-0.2l-0.2,0.3
									c0.8,0.2,0.5,1,0.5,1.2l-4.7,16.6c0,0.2,0,0.5,0.2,0.7c0.1,0.2,0.3,0.2,0.5,0.2l4.7,0.2l0.2-0.3c-0.5-0.2-0.5-0.4-0.6-0.6
									c-0.1-0.4,0-0.8,0.2-1.2l3-10c0.7-2.3,1.6-3.2,3.6-3.1l1.9,0.1c1.2-0.1,1.7-0.3,1.9-1.3l0.8-2.3L330,35.5z M316.2,36.3
									c-1.3-1.2-2.8-1.6-5.1-1.7c-3.8-0.2-6.2,0.7-8,2.7s-3.8,7.6-3.9,11.1v0.2c-0.2,1.7,0.6,3.5,2,4.5c1,0.6,2.7,0.8,5.2,0.8
									c2.8,0.1,4.4,0,5.4-0.5c0.6-0.3,1-0.9,1.6-2.5l0.8-2.5h-0.6c-1.2,1.5-2.4,2-5.4,1.9c-1.7-0.1-2.7-0.3-3-0.7
									c-0.6-0.4-0.9-1.1-0.8-1.9c0-0.4,0.2-0.8,0.2-1.2l0.4-1.7l8.4,0.3c1.9,0.1,2.3-0.3,2.7-0.9c0.6-1.5,1-3.1,1.2-4.7
									C317.3,38.4,316.9,37.3,316.2,36.3L316.2,36.3z M312.3,42.3l-7-0.3v-0.2c0.9-3.2,2.1-4.1,4.7-4c0.8-0.1,1.7,0.2,2.3,0.7
									c0.3,0.4,0.5,1,0.5,1.5C312.7,40.8,312.6,41.6,312.3,42.3L312.3,42.3z"/>
							</g>
						</g>
					</g>
				</g>
				<g id="Fill-4_00000043432578721545466570000003424348663217815173_">
					<g>
						<g>
							<path class="st22" d="M276,68.6l-0.2,0.8c-0.4,0-0.6,0.2-1,0.1c-1.1,0-1.9-0.6-1.4-1.9l0.7-3.2h-1l0.2-0.8h1l0.4-1.5h0.8
								l-0.4,1.3l1.7,0.1l-0.2,0.8l-1.7-0.1l-0.8,3.2c-0.2,0.4,0,1,0.5,1.2c0.1,0.1,0.3,0.1,0.5,0.1C275.4,68.6,275.7,68.6,276,68.6
								L276,68.6z"/>
						</g>
					</g>
				</g>
				<g id="Fill-6-3_00000164478235038025993240000008004670412694549648_">
					<g>
						<g>
							<path class="st22" d="M282.8,65.8l-0.8,3.6h-1l0.8-3.5c0.3-0.6,0-1.3-0.6-1.5c-0.2-0.1-0.4-0.1-0.5-0.1
								c-0.9,0.1-1.6,0.6-1.9,1.5l-0.8,3.6h-1l2-8.9h1l-0.9,3.8c0.5-0.5,1.2-0.7,1.9-0.7C282.6,63.4,283.1,64.4,282.8,65.8
								L282.8,65.8z"/>
						</g>
					</g>
				</g>
				<g id="Fill-8_00000114068220757199756900000010918221032931643027_">
					<g>
						<g>
							<path class="st22" d="M287.9,63.9c-1.7,0-3.3,1.2-3.6,2.9c-0.4,1.2,0.3,2.6,1.5,3c0.2,0.1,0.5,0.1,0.7,0.1
								c0.9,0.1,1.9-0.3,2.5-0.9l-0.3-0.7c-0.5,0.5-1.2,0.7-1.9,0.8c-0.9,0-1.6-0.7-1.7-1.5v-0.4l4.4,0.2c0-0.2,0.2-0.5,0.2-0.7
								C290.2,65,289.4,63.9,287.9,63.9z M288.9,66.4l-3.5-0.1c0.3-1,1.2-1.6,2.2-1.6c0.7,0,1.3,0.6,1.3,1.3v0.1
								C289,66.2,289,66.3,288.9,66.4L288.9,66.4L288.9,66.4z"/>
						</g>
					</g>
				</g>
				<g id="Group-12_00000116219427394515886940000007086867590660477848_">
					<g id="Fill-10_00000163782248979318269210000003012722851820643975_">
						<g>
							<g>
								<path class="st22" d="M298.4,63.7c-0.9-0.1-1.8,0.3-2.3,0.9l0.2-0.8h-0.8l-1.8,7.6h0.8l0.6-2.8c0.4,0.7,1.2,1.2,2,1.1
									c1.7,0,3.3-1.2,3.6-2.9c0.4-1.3-0.3-2.7-1.6-3.1C298.9,63.7,298.7,63.7,298.4,63.7z M299.8,66.8c-0.3,1.3-1.5,2.1-2.8,2
									c-1,0-1.9-0.7-1.4-2.2c0.3-1.2,1.4-2.1,2.6-2c1,0.1,1.7,0.9,1.7,1.9C299.8,66.5,299.8,66.7,299.8,66.8z"/>
							</g>
						</g>
					</g>
				</g>
				<g id="Fill-13_00000142134596504325677330000000529705810138152354_">
					<g>
						<g>
							<path class="st22" d="M305.3,64.4c-1,0-2,0.5-2.6,1.3l0.5,0.6c0.4-0.6,1.1-0.9,1.9-0.9c0.6,0,1.1,0.6,0.9,1.6l-0.2,0.5
								l-1.9-0.1c-1.1-0.1-2.1,0.5-2.4,1.6c-0.2,1,0.5,1.7,1.6,1.8c0.8,0,1.5-0.3,2.1-0.7l-0.2,0.8h0.8l0.8-3.6c0.4-0.9,0-2-0.9-2.4
								c0,0,0,0-0.1,0C305.6,64.4,305.4,64.4,305.3,64.4z M303.5,69.8c-0.7,0-1.1-0.4-0.9-1c0-0.5,0.6-0.8,1.4-0.8l1.7,0.2
								C305.4,69.2,304.5,69.9,303.5,69.8L303.5,69.8z"/>
						</g>
					</g>
				</g>
				<g id="Fill-15_00000131327271698575643840000006052973854433125766_">
					<g>
						<g>
							<path class="st22" d="M312.5,64.7l-0.2,0.8H312c-1-0.1-2,0.5-2.2,1.6l-0.8,3.2h-0.9l1.4-5.5h0.8l-0.2,0.8
								c0.6-0.5,1.3-0.7,2.1-0.8C312.2,64.7,312.4,64.7,312.5,64.7L312.5,64.7z"/>
						</g>
					</g>
				</g>
				<g id="Fill-17_00000011721860452391862620000004737115718265792188_">
					<g>
						<g>
							<path class="st22" d="M318,66.1l-0.6,0.5c-0.3-0.6-0.9-0.9-1.5-1c-1.2,0.1-2.2,0.9-2.6,2.1c-0.3,0.9,0.3,1.9,1.2,2.1l0,0
								c0.1,0,0.3,0.1,0.4,0.1c0.7,0,1.4-0.4,1.9-0.9l0.5,0.6c-0.6,0.8-1.6,1.3-2.6,1.2c-1.3,0-2.3-1-2.3-2.3l0,0
								c0-0.3,0-0.5,0.1-0.7c0.4-1.7,1.9-3,3.6-3C316.9,64.7,317.6,65.3,318,66.1L318,66.1z"/>
						</g>
					</g>
				</g>
				<g id="Fill-19_00000012466553973474592980000012895586315073932707_">
					<g>
						<g>
							<path class="st22" d="M322.1,65.1c-1.7,0-3.3,1.2-3.6,2.9c-0.4,1.2,0.3,2.5,1.5,3c0.2,0.1,0.5,0.1,0.8,0.1
								c0.9,0.1,1.9-0.3,2.5-0.9l-0.3-0.7c-0.5,0.5-1.2,0.8-1.9,0.8c-0.9,0-1.6-0.7-1.6-1.6l0,0v-0.3l4.4,0.2c0-0.2,0.2-0.5,0.2-0.7
								C324.4,66.1,323.6,65.1,322.1,65.1z M319.7,67.5c0.3-1,1.2-1.6,2.2-1.6c0.7,0,1.4,0.6,1.4,1.3l0,0c0,0.1,0,0.3-0.1,0.4
								L319.7,67.5z"/>
						</g>
					</g>
				</g>
				<g id="Fill-21_00000137119882882468993720000017586669915367661199_">
					<g>
						<g>
							<polygon class="st22" points="326.4,70.8 325.4,70.7 327.6,61.9 328.5,61.9 							"/>
						</g>
					</g>
				</g>
				<g id="Group-25_00000163031609721220982830000013968056234077016511_">
					<g id="Fill-23_00000097461467722848048810000014220336111548375701_">
						<g>
							<g>
								<path class="st22" d="M335.9,65c-0.9-0.1-1.8,0.3-2.4,0.9l0.2-0.8h-0.8l-1.8,7.7h0.8l0.6-2.8c0.4,0.7,1.2,1.1,2,1.1
									c1.7,0,3.2-1.2,3.6-2.9c0.4-1.3-0.3-2.7-1.6-3.1C336.3,65.1,336.1,65,335.9,65z M337.2,68.1c-0.3,1.3-1.5,2.2-2.8,2
									c-1,0-1.9-0.8-1.4-2.2c0.2-1.2,1.4-2.1,2.6-2.1c0.9,0.1,1.7,0.9,1.6,1.8v0.1C337.2,67.8,337.2,68,337.2,68.1z"/>
							</g>
						</g>
					</g>
				</g>
				<g id="Fill-26-2_00000111185175029255490030000010292306137190455424_">
					<g>
						<g>
							<path class="st22" d="M342.7,65.8c-1.7,0-3.3,1.2-3.6,2.9c-0.4,1.2,0.3,2.6,1.5,3c0.2,0.1,0.5,0.1,0.8,0.1
								c0.9,0.1,1.9-0.3,2.5-0.9l-0.3-0.7c-0.5,0.5-1.2,0.7-1.9,0.7c-0.9,0-1.6-0.6-1.7-1.5V69l4.4,0.2c0-0.2,0.2-0.5,0.2-0.7
								C345.1,66.9,344.2,65.9,342.7,65.8z M343.8,68.4l-3.5-0.1c0.3-1,1.2-1.6,2.2-1.6c0.7,0,1.3,0.7,1.3,1.4l0,0V68.4z"/>
						</g>
					</g>
				</g>
				<g id="Fill-28_00000124879152516438075880000011274257978071329974_">
					<g>
						<g>
							<path class="st22" d="M349.9,66c-1.7,0-3.3,1.2-3.6,2.9c-0.4,1.2,0.3,2.6,1.5,3c0.2,0.1,0.5,0.1,0.8,0.1
								c1.8,0,3.3-1.2,3.7-2.9c0.4-1.3-0.3-2.6-1.6-3c0,0,0,0-0.1,0C350.3,66.1,350.1,66,349.9,66z M351.4,69.1
								c-0.3,1.2-1.4,2-2.6,2c-0.9,0-1.7-0.8-1.7-1.8c0-0.2,0-0.3,0.1-0.5c0.2-1.2,1.4-2.1,2.6-2C350.9,66.9,351.6,67.8,351.4,69.1z
								"/>
						</g>
					</g>
				</g>
				<g id="Group-32_00000098942606279034069820000011250283063120038060_">
					<g id="Fill-30-2_00000163773451251238487000000015923579189645808532_">
						<g>
							<g>
								<path class="st22" d="M357.5,65.9c-0.9-0.1-1.8,0.3-2.4,0.9l0.2-0.8h-0.8l-1.8,7.7h0.8l0.6-2.8c0.4,0.7,1.2,1.1,2,1.1
									c1.7,0,3.3-1.2,3.6-2.9c0.4-1.2-0.3-2.6-1.5-3h-0.1C357.9,65.9,357.6,65.9,357.5,65.9z M358.7,68.9c-0.3,1.3-1.5,2.2-2.8,2
									c-1,0-1.9-0.7-1.4-2.2c0.3-1.2,1.4-2.1,2.6-2c0.9,0,1.7,0.8,1.7,1.7c0,0,0,0,0,0.1C358.7,68.5,358.7,68.7,358.7,68.9
									L358.7,68.9z"/>
							</g>
						</g>
					</g>
				</g>
				<g id="Fill-33_00000104668721143003803750000009750139046978383024_">
					<g>
						<g>
							<polygon class="st22" points="361.5,72 360.5,71.9 362.7,63.1 363.6,63.1 							"/>
						</g>
					</g>
				</g>
				<g id="Fill-35_00000057107119092231566580000004326495579432044937_">
					<g>
						<g>
							<path class="st22" d="M367.1,66.7c-1.7,0-3.3,1.2-3.6,2.9c-0.4,1.2,0.3,2.6,1.5,3c0.2,0.1,0.5,0.1,0.8,0.1
								c0.9,0.1,1.9-0.3,2.5-0.9l-0.3-0.7c-0.5,0.5-1.2,0.7-1.9,0.8c-0.9,0-1.6-0.6-1.7-1.5v-0.5l4.4,0.2c0-0.2,0.2-0.5,0.2-0.7
								C369.4,67.7,368.6,66.7,367.1,66.7z M364.6,69.1c0.3-1,1.2-1.7,2.2-1.7c0.7,0,1.3,0.6,1.3,1.3v0.1c0,0.1,0,0.3-0.1,0.4
								L364.6,69.1z"/>
						</g>
					</g>
				</g>
			</g>
		</g>
	</g>
</g>
<g>
	
		<rect x="299.6" y="28.5" transform="matrix(2.998204e-02 -0.9996 0.9996 2.998204e-02 212.7518 417.3444)" class="st23" width="43.7" height="141.1"/>
</g>
<g>
	<rect x="310.9" y="230.7" class="st24" width="19.8" height="6.9"/>
</g>
<g>
	<path class="st25" d="M338.9,165.1h-37.3C307.2,158.5,331.7,158.3,338.9,165.1z"/>
</g>
<g>
	<g>
		<path class="st11" d="M335.4,164.6v0.5h-4.5v-0.5c0-3.4,1-5.9,2.3-5.9C334.4,158.5,335.4,161.2,335.4,164.6z"/>
	</g>
</g>
<g>
	<g>
		<path class="st11" d="M309.7,164.6v0.5h-4.5v-0.5c0-3.4,1-5.9,2.3-5.9C308.7,158.5,309.7,161.2,309.7,164.6z"/>
	</g>
</g>
<g>
	<path class="st26" d="M323,186.9c8.6,0,16.8,0.4,16.8,1.2c-0.2,9.9-8.4,17.7-18.3,17.4c-9.5-0.2-17.2-7.9-17.4-17.4
		C303.8,187.2,313.9,186.9,323,186.9z"/>
</g>
<g>
	<path class="st13" d="M321.9,205.7c6.4-0.1,12.3-3.6,15.5-9.2c-4-1.1-8.2-1.6-12.4-1.5c-7.4,0-13.9,1.5-17.4,3.8
		C311,203.2,316.3,205.7,321.9,205.7z"/>
</g>
<g>
	<path class="st12" d="M337.6,190v-2.3c-3-0.4-8.8-0.5-14.6-0.5c-6.5,0-13.6,0.2-17,0.5v2.3H337.6z"/>
</g>
<g>
	<path class="st17" d="M320.4,250c-4.2,0-6.7-9.6-6.7-14.1v-1.2l0,0v-14.3c2.8,0.9,5.8,1.4,8.8,1.3c2.1,0,4.3-0.3,6.3-0.8v14.7
		c0,4.7-3.5,14.8-7.7,14.8L320.4,250z"/>
</g>
<g>
	<polygon class="st27" points="328.5,295.3 313.7,295.3 313.2,248.5 328.2,248.5 	"/>
</g>
<g>
	<polygon class="st28" points="310.9,230.7 301.5,236.8 308.4,259.1 320.1,248.5 	"/>
</g>
<g>
	<polygon class="st28" points="339.1,237 330.7,230.7 320.1,248.3 331.7,258.4 	"/>
</g>
<g>
	<circle class="st29" cx="321.1" cy="284.1" r="2.7"/>
</g>
<g>
	<circle class="st29" cx="321.1" cy="264.9" r="2.7"/>
</g>
<g>
	<path class="st12" d="M276.6,107.6l11.1,0.4l-0.3,6.7l-24.4-0.9l0.1-1.7c3.8-2.8,6.3-5.1,6.5-8.3l-5.7-0.2l0.3-6.7l3.2,0.1
		c-0.8-1.6-1.2-3.4-1.1-5.1c0.2-5.9,5.2-9.3,11.4-9.1c5.4,0.2,9.8,3.2,11.2,9.4l-6.7,2.1c-0.7-2.7-2.1-4.1-4.2-4.1
		c-1.8-0.2-3.4,1.1-3.5,2.9v0.1v0.5c0,1.3,0.4,2.6,1.1,3.7l7.6,0.3l-0.3,6.7l-5.2-0.2C277.5,105.4,277.2,106.5,276.6,107.6z"/>
</g>
<g>
	<path class="st12" d="M315.4,109l-0.3,6.7l-23.7-0.8l0.1-1.7l11.6-11.8c2.8-2.8,3.9-4.8,3.9-6.7c0.1-2.2-1.2-3.6-3.1-3.6
		s-3.3,1.1-3.4,3.6c0,0.7,0,1.3,0.1,2l-8.1-0.3c-0.2-0.9-0.3-1.7-0.2-2.6c0.2-5.2,4.8-10.4,11.9-10.2c6.4,0.2,11.2,4.7,11,10.6
		c-0.2,4.7-3.3,8.2-7.2,12l-2.3,2.2L315.4,109z"/>
</g>
<g>
	<path class="st12" d="M319,111.3c0.1-2.9,2.5-5.2,5.4-5.1s5.2,2.5,5.1,5.4l0,0c-0.1,2.9-2.5,5.2-5.4,5.1c-2.8,0-5.1-2.3-5.1-5.1
		c0,0,0,0,0-0.1V111.3z"/>
</g>
<g>
	<path class="st12" d="M355.8,97.3c-0.1,3.7-2,6.2-4.6,9.5l-8.1,10.1l-9.5-0.4l7.3-9.1c-5.3-0.9-9.1-5.7-8.9-11.1
		c0.3-6.7,6.2-11.2,12.3-11C350.8,85.4,355.9,90.7,355.8,97.3C355.8,97.2,355.8,97.2,355.8,97.3z M347.8,97c0.2-2.2-1.4-4.1-3.5-4.3
		c-2.2-0.2-4.1,1.4-4.3,3.5v0.5c-0.2,2.2,1.5,4,3.6,4.2c2.2,0.2,4-1.5,4.2-3.6C347.8,97.2,347.8,97.1,347.8,97z"/>
</g>
<g>
	<path class="st12" d="M381.7,107.7c-0.2,6.3-5.8,10.8-12.8,10.5c-5.1,0-9.8-3.1-11.8-7.8l5.7-3.7c1.7,2.8,3.4,4.1,6,4.2
		s4.5-1,4.6-3.4s-1.7-3.2-5.2-3.4l-7.4-0.3l0.6-17.5l19.2,0.8l-0.3,7.3L368.8,94l-0.1,3.6c1-0.2,2-0.3,3-0.2
		C376.7,97.6,382,101.4,381.7,107.7z"/>
</g>
<g>
	<rect x="287.3" y="366.2" class="st30" width="67.5" height="43.1"/>
</g>
<g>
	<rect x="287.3" y="376.9" class="st30" width="29.1" height="119.5"/>
</g>
<g>
	<rect x="325.5" y="376.9" class="st30" width="29.1" height="119.5"/>
</g>
<g>
	<g>
		<circle class="st31" cx="381.7" cy="291.3" r="54.2"/>
	</g>
</g>
<g class="st32">
	<g>
		<path class="st33" d="M373.4,263.9l-4.5-0.5l-0.6,1l-3.5-0.4l7-12.2l1,0.1l4.4,13.4l-3.5-0.4L373.4,263.9z M371.8,258.1l-1.4,2.8
			l2.2,0.2L371.8,258.1z"/>
	</g>
	<g>
		<path class="st33" d="M389.3,252.2l-1.5,14.3l-3-0.3l0.1-1c-0.7,0.7-1.6,1.1-2.8,0.9c-2.7-0.3-4.3-2.5-4-5.4
			c0.3-2.9,2.4-4.8,5.1-4.5c1,0.1,1.8,0.5,2.3,1.1l0.6-5.4L389.3,252.2z M385.1,261.4c0.1-1.4-0.7-2.1-1.6-2.2
			c-1-0.1-1.9,0.5-2.1,1.8c-0.1,1.3,0.7,2.1,1.7,2.2C383.9,263.3,384.9,262.8,385.1,261.4z"/>
	</g>
	<g>
		<path class="st33" d="M401.2,253.5l-1.5,14.3l-3-0.3l0.1-1c-0.7,0.7-1.6,1.1-2.8,0.9c-2.7-0.3-4.3-2.5-4-5.4
			c0.3-2.9,2.4-4.8,5.1-4.5c1,0.1,1.8,0.5,2.3,1.1l0.6-5.4L401.2,253.5z M397,262.7c0.1-1.4-0.7-2.1-1.6-2.2c-1-0.1-1.9,0.5-2.1,1.8
			c-0.1,1.3,0.7,2.1,1.7,2.2C395.9,264.6,396.9,264,397,262.7z"/>
	</g>
</g>
<g class="st32">
	<g>
		<path class="st33" d="M355.5,269.6l-1.3,12.8l-1-0.1L347,275l-0.7,6.4l-3.3-0.3l1.3-12.8l1,0.1l6.1,7.2l0.7-6.3L355.5,269.6z"/>
	</g>
	<g>
		<path class="st33" d="M365.7,279.7l-6.1-0.6c0.3,0.8,1,1.2,2,1.3c0.9,0.1,1.7-0.1,2.6-0.5l0.9,2.3c-1.2,0.7-2.5,1-3.9,0.9
			c-3.1-0.3-5.1-2.7-4.8-5.5c0.3-2.8,2.7-4.7,5.6-4.4c2.8,0.3,4.3,2.6,4.1,5C366.1,278.7,365.9,279.3,365.7,279.7z M359.8,276.9
			l3.3,0.3c0.1-0.9-0.6-1.5-1.4-1.6C360.8,275.6,360.1,276,359.8,276.9z"/>
	</g>
	<g>
		<path class="st33" d="M372.8,284.1l-1.4-2.7l-1.9,2.3l-3.6-0.4l4-4.5l-2.8-5l3.6,0.4l1.2,2.4l1.7-2.1l3.6,0.4l-3.7,4.3l2.9,5.2
			L372.8,284.1z"/>
	</g>
	<g>
		<path class="st33" d="M384.5,282.6l-0.3,2.7c-0.6,0.1-1.2,0.1-1.9,0c-2.6-0.3-4-1.7-3.8-4.3l0.3-3.1l-1.4-0.2l0.3-2.7l1.4,0.2
			l0.2-2.3l3.3,0.3l-0.2,2.3l2.5,0.3l-0.3,2.7l-2.5-0.3l-0.3,2.8c-0.1,0.9,0.3,1.3,1.5,1.4C383.6,282.5,384,282.5,384.5,282.6z"/>
	</g>
	<g>
		<path class="st33" d="M392.7,273.5l4.4,0.5c3.9,0.4,6.6,3.1,6.2,7c-0.4,3.8-3.6,6-7.5,5.6l-4.4-0.5L392.7,273.5z M396.1,283.6
			c2,0.2,3.6-0.8,3.9-3c0.2-2.2-1.2-3.4-3.2-3.6l-1.1-0.1l-0.7,6.6L396.1,283.6z"/>
	</g>
	<g>
		<path class="st33" d="M413.4,282.8l-0.6,5.5l-3-0.3l0.1-0.8c-0.7,0.6-1.7,0.8-2.8,0.7c-2.1-0.2-3.1-1.7-3-3.3
			c0.2-1.8,1.7-2.7,4-2.4l2,0.2l0-0.2c0.1-0.7-0.3-1.3-1.3-1.4c-0.9-0.1-1.6,0.3-2.5,0.9l-1.3-2.2c1.4-1.1,2.7-1.6,4.5-1.4
			C412.1,278.4,413.7,280,413.4,282.8z M409.9,284.5L409.9,284.5l-1.5-0.2c-0.6-0.1-0.9,0.2-1,0.6c0,0.5,0.3,0.8,0.9,0.8
			C409.1,285.8,409.8,285.4,409.9,284.5z"/>
	</g>
	<g>
		<path class="st33" d="M425.6,280l-5.5,9.6c-1.2,2-2.5,2.9-4.5,2.7c-0.6-0.1-1.3-0.2-1.8-0.4l0.3-2.7c0.5,0.1,0.8,0.1,1.1,0.2
			c0.8,0.1,1.4,0,2-0.9l0.2-0.3l-2.6-9.2l3.5,0.4l1.3,5.5l2.6-5.1L425.6,280z"/>
	</g>
</g>
<g class="st32">
	<g>
		<path class="st33" d="M346.6,290.1l-0.1,0.8l1.9,0.2l-0.3,2.7l-1.9-0.2l-0.7,6.8l-3.3-0.3l0.7-6.8l-1.3-0.1l0.3-2.7l1.3,0.1
			l0.1-1.1c0.3-2.6,1.9-3.7,4.4-3.4c0.7,0.1,1.2,0.2,1.6,0.4l-0.3,2.7c-0.3,0-0.5-0.1-0.7-0.1C347.2,288.9,346.7,289.3,346.6,290.1z
			"/>
	</g>
	<g>
		<path class="st33" d="M356,291.9l-0.3,2.9l-0.8-0.1c-1.4-0.2-2.3,0.4-2.5,2l-0.5,4.3l-3.3-0.3l1-9.5l3,0.3l-0.1,1
			c0.7-0.7,1.5-1,2.5-0.9C355.4,291.7,355.7,291.8,356,291.9z"/>
	</g>
	<g>
		<path class="st33" d="M356.2,296.8c0.3-2.8,2.8-4.7,5.7-4.4c2.9,0.3,5,2.8,4.7,5.5c-0.3,2.8-2.8,4.7-5.7,4.4
			C357.9,302,355.9,299.6,356.2,296.8z M363.2,297.5c0.1-1.1-0.6-2.1-1.6-2.2c-1.1-0.1-1.9,0.6-2.1,1.8c-0.1,1.2,0.5,2.1,1.6,2.2
			C362.3,299.4,363.1,298.6,363.2,297.5z"/>
	</g>
	<g>
		<path class="st33" d="M383.5,298.5l-0.6,5.9l-3.3-0.3l0.6-5.4c0.1-0.9-0.4-1.5-1.2-1.5c-0.8-0.1-1.4,0.4-1.5,1.3l-0.6,5.4
			l-3.3-0.3l0.6-5.4c0.1-0.9-0.4-1.5-1.2-1.5c-0.8-0.1-1.4,0.4-1.5,1.3l-0.6,5.4l-3.3-0.3l1-9.5l3,0.3l-0.1,0.7
			c0.7-0.5,1.6-0.8,2.7-0.7c1.2,0.1,2.1,0.7,2.6,1.5c0.8-0.7,2-1,3.2-0.9C382.5,294.5,383.7,296.2,383.5,298.5z"/>
	</g>
	<g>
		<path class="st33" d="M387.6,308.3l0.3-2.7c0.3,0,0.5,0.1,0.7,0.1c1.1,0.1,1.6-0.2,1.7-1.1l0.9-9l3.3,0.3l-1,9.3
			c-0.3,2.6-1.9,3.7-4.4,3.4C388.4,308.6,387.9,308.5,387.6,308.3z M391.2,292.2c0.1-1.1,1.1-1.8,2.2-1.7c1.1,0.1,1.9,1,1.8,2.2
			c-0.1,1.1-1.1,1.8-2.2,1.7S391.1,293.3,391.2,292.2z"/>
	</g>
	<g>
		<path class="st33" d="M396,301.3l0.5-5.1l3.3,0.3l-0.6,5.3c-0.1,0.8,0.4,1.5,1.2,1.5c0.8,0.1,1.4-0.4,1.5-1.2l0.6-5.3l3.3,0.3
			l-0.5,5.1c-0.3,2.8-2.5,4.5-5.1,4.2C397.5,306.1,395.7,304.1,396,301.3z"/>
	</g>
	<g>
		<path class="st33" d="M406.2,305.2l1.7-1.8c0.7,0.8,1.6,1.4,2.5,1.5c0.5,0,0.8,0,0.9-0.3c0-0.2-0.2-0.3-0.5-0.5l-1-0.5
			c-1.7-0.9-2.6-1.8-2.4-3.4c0.2-1.9,1.8-2.8,4-2.6c1.4,0.1,2.6,0.7,3.4,1.8l-1.8,1.8c-0.6-0.6-1.2-1-1.9-1c-0.4,0-0.7,0-0.7,0.3
			c0,0.2,0.2,0.4,0.6,0.6l0.9,0.5c1.6,0.9,2.6,1.7,2.5,3.3c-0.2,2-2,3-4.3,2.7C408.4,307.3,407,306.5,406.2,305.2z"/>
	</g>
	<g>
		<path class="st33" d="M422.5,305.8l-0.3,2.7c-0.6,0.1-1.2,0.1-1.9,0c-2.6-0.3-4-1.7-3.8-4.3l0.3-3.1l-1.4-0.2l0.3-2.7l1.4,0.2
			l0.2-2.3l3.3,0.3l-0.2,2.3l2.5,0.3l-0.3,2.7l-2.5-0.3l-0.3,2.8c-0.1,0.9,0.3,1.3,1.5,1.4C421.6,305.7,422,305.7,422.5,305.8z"/>
	</g>
</g>
<g class="st32">
	<g>
		<path class="st33" d="M350.1,319.5l-2.9-0.3l0.3-2.6l2.9,0.3l0.3-3l2.9,0.3l-0.3,3l2.9,0.3l-0.3,2.6l-2.9-0.3l-0.3,3l-2.9-0.3
			L350.1,319.5z"/>
	</g>
</g>
<g class="st32">
	<g>
		<path class="st33" d="M363.5,322.1l5.4,0.6l-0.3,3.3l-11.9-1.2l0.1-0.8c2-1.2,3.2-2.3,3.5-3.8l-2.8-0.3l0.3-3.3l1.6,0.2
			c-0.3-0.7-0.5-1.6-0.4-2.6c0.3-2.9,2.9-4.4,5.9-4.1c2.6,0.3,4.7,1.9,5.1,5l-3.3,0.8c-0.3-1.3-0.9-2.1-1.9-2.2
			c-1-0.1-1.7,0.5-1.8,1.5c-0.1,0.7,0.1,1.3,0.4,1.9l3.7,0.4l-0.3,3.3l-2.5-0.3C364,321.1,363.8,321.6,363.5,322.1z"/>
	</g>
	<g>
		<path class="st33" d="M378.8,311.8l-1.6,15.1l-3.9-0.4l1.1-10.4l-2.7,0.6l-0.6-3.6l6.4-1.4L378.8,311.8z"/>
	</g>
	<g>
		<path class="st33" d="M379.9,324.9c0.1-1.4,1.3-2.4,2.9-2.3c1.5,0.2,2.4,1.4,2.3,2.8c-0.2,1.4-1.3,2.4-2.8,2.3
			C380.7,327.5,379.7,326.3,379.9,324.9z"/>
	</g>
	<g>
		<path class="st33" d="M393.5,313.4l-1.6,15.1L388,328l1.1-10.4l-2.7,0.6l-0.6-3.6l6.4-1.4L393.5,313.4z"/>
	</g>
	<g>
		<path class="st33" d="M395.7,321.1c0.5-4.4,2.9-7.5,7.1-7s5.9,4,5.5,8.4c-0.5,4.4-2.9,7.7-7.1,7.3S395.2,325.5,395.7,321.1z
			 M404.2,322c0.3-2.9-0.3-4.2-1.8-4.4c-1.5-0.2-2.4,1-2.7,3.9c-0.3,2.9,0.3,4.4,1.8,4.5C403,326.2,403.9,324.9,404.2,322z"/>
	</g>
</g>
<g>
	<path class="st12" d="M155.6,124.6c0.5,6.2-4.4,11.1-11,11.6c-5.4,0.4-9.8-2.1-12.1-6.4l5.2-4.3c2,2.5,3.7,3.6,6.1,3.4
		c2.3-0.2,4-1.5,3.8-3.7c-0.2-2.2-2-3-5.5-2.7l-4.3,0.3l-0.2-2l4.8-8.4l-8.7,0.7l-0.6-7.1l20.5-1.6l0.2,2.1l-5.3,9.5
		C152,116.9,155.3,119.9,155.6,124.6z"/>
</g>
</svg>
